<?xml version="1.0" encoding="utf-8" standalone="no"?>
<!DOCTYPE svg PUBLIC "-//W3C//DTD SVG 1.1//EN"
  "http://www.w3.org/Graphics/SVG/1.1/DTD/svg11.dtd">
<svg xmlns:xlink="http://www.w3.org/1999/xlink" width="872.39952pt" height="541.19952pt" viewBox="0 0 872.39952 541.19952" xmlns="http://www.w3.org/2000/svg" version="1.1">
 <metadata>
  <rdf:RDF xmlns:dc="http://purl.org/dc/elements/1.1/" xmlns:cc="http://creativecommons.org/ns#" xmlns:rdf="http://www.w3.org/1999/02/22-rdf-syntax-ns#">
   <cc:Work>
    <dc:type rdf:resource="http://purl.org/dc/dcmitype/StillImage"/>
    <dc:date>2026-07-17T22:19:15.928688</dc:date>
    <dc:format>image/svg+xml</dc:format>
    <dc:creator>
     <cc:Agent>
      <dc:title>Matplotlib v3.11.0, https://matplotlib.org/</dc:title>
     </cc:Agent>
    </dc:creator>
   </cc:Work>
  </rdf:RDF>
 </metadata>
 <defs>
  <style type="text/css">*{stroke-linejoin: round; stroke-linecap: butt}</style>
 </defs>
 <g id="figure_1">
  <g id="patch_1">
   <path d="M 0 541.19952 
L 872.39952 541.19952 
L 872.39952 0 
L 0 0 
z
" style="fill: #ffffff"/>
  </g>
  <g id="axes_1">
   <g id="patch_2">
    <path d="M 54.117734 188.333702 
L 249.762821 188.333702 
L 249.762821 40.559777 
L 54.117734 40.559777 
z
" style="fill: #ffffff"/>
   </g>
   <g id="FillBetweenPolyCollection_1">
    <defs>
     <path id="m148aced7eb" d="M 63.010693 -361.757404 
L 63.010693 -360.79696 
L 70.7437 -360.752189 
L 78.476708 -361.117819 
L 86.209715 -361.544209 
L 93.942722 -362.204047 
L 101.67573 -363.397939 
L 109.408737 -364.906293 
L 117.141744 -367.832394 
L 124.874752 -371.539854 
L 132.607759 -378.65417 
L 140.340767 -397.208527 
L 148.073774 -422.814308 
L 155.806781 -422.099039 
L 163.539789 -397.360962 
L 171.272796 -378.875893 
L 179.005803 -371.557976 
L 186.738811 -367.406004 
L 194.471818 -364.847664 
L 202.204825 -363.117587 
L 209.937833 -362.161408 
L 217.67084 -361.564462 
L 225.403848 -361.117819 
L 233.136855 -360.882238 
L 240.869862 -360.967516 
L 240.869862 -361.930091 
L 240.869862 -361.930091 
L 233.136855 -362.098515 
L 225.403848 -362.313842 
L 217.67084 -362.760486 
L 209.937833 -363.633519 
L 202.204825 -364.829543 
L 194.471818 -367.217326 
L 186.738811 -370.455758 
L 179.005803 -374.596004 
L 171.272796 -382.587617 
L 163.539789 -402.254852 
L 155.806781 -430.250548 
L 148.073774 -431.730121 
L 140.340767 -401.767701 
L 132.607759 -382.423457 
L 124.874752 -374.463823 
L 117.141744 -370.242563 
L 109.408737 -367.243976 
L 101.67573 -364.912689 
L 93.942722 -363.548241 
L 86.209715 -362.740232 
L 78.476708 -362.419374 
L 70.7437 -362.06014 
L 63.010693 -361.757404 
z
"/>
    </defs>
    <g clip-path="url(#pb701a1a255)">
     <use xlink:href="#m148aced7eb" x="0" y="541.19952" style="fill: #f7e3c1"/>
    </g>
   </g>
   <g id="matplotlib.axis_1">
    <g id="xtick_1">
     <g id="line2d_1">
      <defs>
       <path id="mcfe202da74" d="M 0 0 
L 0 3.5 
" style="stroke: #252a31; stroke-width: 0.8"/>
      </defs>
      <g>
       <use xlink:href="#mcfe202da74" x="100.386895" y="188.333702" style="fill: #252a31; stroke: #252a31; stroke-width: 0.8"/>
      </g>
     </g>
    </g>
    <g id="xtick_2">
     <g id="line2d_2">
      <g>
       <use xlink:href="#mcfe202da74" x="151.940278" y="188.333702" style="fill: #252a31; stroke: #252a31; stroke-width: 0.8"/>
      </g>
     </g>
    </g>
    <g id="xtick_3">
     <g id="line2d_3">
      <g>
       <use xlink:href="#mcfe202da74" x="203.49366" y="188.333702" style="fill: #252a31; stroke: #252a31; stroke-width: 0.8"/>
      </g>
     </g>
    </g>
   </g>
   <g id="matplotlib.axis_2">
    <g id="ytick_1">
     <g id="line2d_4">
      <path d="M 54.117734 181.616705 
L 249.762821 181.616705 
" clip-path="url(#pb701a1a255)" style="fill: none; stroke: #d9dee5; stroke-width: 0.5; stroke-linecap: square"/>
     </g>
     <g id="line2d_5">
      <defs>
       <path id="m5289b1a0c6" d="M 0 0 
L -3.5 0 
" style="stroke: #252a31; stroke-width: 0.8"/>
      </defs>
      <g>
       <use xlink:href="#m5289b1a0c6" x="54.117734" y="181.616705" style="fill: #252a31; stroke: #252a31; stroke-width: 0.8"/>
      </g>
     </g>
     <g id="text_1">
      <text style="font-size: 9px; font-family: 'DejaVu Sans'; text-anchor: end; fill: #252a31" x="47.117734" y="185.03565" transform="rotate(-0 47.117734 185.03565)">0.0</text>
     </g>
    </g>
    <g id="ytick_2">
     <g id="line2d_6">
      <path d="M 54.117734 146.942677 
L 249.762821 146.942677 
" clip-path="url(#pb701a1a255)" style="fill: none; stroke: #d9dee5; stroke-width: 0.5; stroke-linecap: square"/>
     </g>
     <g id="line2d_7">
      <g>
       <use xlink:href="#m5289b1a0c6" x="54.117734" y="146.942677" style="fill: #252a31; stroke: #252a31; stroke-width: 0.8"/>
      </g>
     </g>
     <g id="text_2">
      <text style="font-size: 9px; font-family: 'DejaVu Sans'; text-anchor: end; fill: #252a31" x="47.117734" y="150.361622" transform="rotate(-0 47.117734 150.361622)">0.1</text>
     </g>
    </g>
    <g id="ytick_3">
     <g id="line2d_8">
      <path d="M 54.117734 112.268649 
L 249.762821 112.268649 
" clip-path="url(#pb701a1a255)" style="fill: none; stroke: #d9dee5; stroke-width: 0.5; stroke-linecap: square"/>
     </g>
     <g id="line2d_9">
      <g>
       <use xlink:href="#m5289b1a0c6" x="54.117734" y="112.268649" style="fill: #252a31; stroke: #252a31; stroke-width: 0.8"/>
      </g>
     </g>
     <g id="text_3">
      <text style="font-size: 9px; font-family: 'DejaVu Sans'; text-anchor: end; fill: #252a31" x="47.117734" y="115.687594" transform="rotate(-0 47.117734 115.687594)">0.2</text>
     </g>
    </g>
    <g id="ytick_4">
     <g id="line2d_10">
      <path d="M 54.117734 77.594621 
L 249.762821 77.594621 
" clip-path="url(#pb701a1a255)" style="fill: none; stroke: #d9dee5; stroke-width: 0.5; stroke-linecap: square"/>
     </g>
     <g id="line2d_11">
      <g>
       <use xlink:href="#m5289b1a0c6" x="54.117734" y="77.594621" style="fill: #252a31; stroke: #252a31; stroke-width: 0.8"/>
      </g>
     </g>
     <g id="text_4">
      <text style="font-size: 9px; font-family: 'DejaVu Sans'; text-anchor: end; fill: #252a31" x="47.117734" y="81.013566" transform="rotate(-0 47.117734 81.013566)">0.3</text>
     </g>
    </g>
    <g id="ytick_5">
     <g id="line2d_12">
      <path d="M 54.117734 42.920593 
L 249.762821 42.920593 
" clip-path="url(#pb701a1a255)" style="fill: none; stroke: #d9dee5; stroke-width: 0.5; stroke-linecap: square"/>
     </g>
     <g id="line2d_13">
      <g>
       <use xlink:href="#m5289b1a0c6" x="54.117734" y="42.920593" style="fill: #252a31; stroke: #252a31; stroke-width: 0.8"/>
      </g>
     </g>
     <g id="text_5">
      <text style="font-size: 9px; font-family: 'DejaVu Sans'; text-anchor: end; fill: #252a31" x="47.117734" y="46.339538" transform="rotate(-0 47.117734 46.339538)">0.4</text>
     </g>
    </g>
    <g id="text_6">
     <text style="font-size: 9px; font-family: 'DejaVu Sans'; fill: #252a31" transform="translate(14.939473 147.146974) rotate(-90)">Coherence 6%</text>
     <text style="font-size: 9px; font-family: 'DejaVu Sans'; fill: #252a31" transform="translate(25.741934 137.665333) rotate(-90)">Proportion</text>
    </g>
   </g>
   <g id="line2d_14">
    <path d="M 63.010693 179.864669 
L 70.7437 179.702214 
L 78.476708 179.44638 
L 86.209715 179.060924 
L 93.942722 178.284468 
L 101.67573 177.047084 
L 109.408737 175.098909 
L 117.141744 172.191356 
L 124.874752 168.15856 
L 132.607759 160.721041 
L 140.340767 141.613229 
L 148.073774 114.549835 
L 155.806781 115.027818 
L 163.539789 141.524967 
L 171.272796 160.644717 
L 179.005803 168.312487 
L 186.738811 172.189224 
L 194.471818 175.173101 
L 202.204825 177.09015 
L 209.937833 178.275514 
L 217.67084 179.052396 
L 225.403848 179.518014 
L 233.136855 179.749544 
L 240.869862 179.764041 
" clip-path="url(#pb701a1a255)" style="fill: none; stroke: #d97706; stroke-width: 1.4; stroke-linecap: square"/>
   </g>
   <g id="line2d_15">
    <path d="M 63.010693 180.209618 
L 70.7437 181.019759 
L 78.476708 180.508091 
L 86.209715 180.508091 
L 93.942722 180.678647 
L 101.67573 180.55073 
L 109.408737 179.996423 
L 117.141744 178.674615 
L 124.874752 177.011694 
L 132.607759 168.910286 
L 140.340767 137.655905 
L 148.073774 82.8648 
L 155.806781 80.477017 
L 163.539789 136.206179 
L 171.272796 165.840278 
L 179.005803 175.945719 
L 186.738811 179.356838 
L 194.471818 179.655311 
L 202.204825 180.806564 
L 209.937833 181.019759 
L 217.67084 181.019759 
L 225.403848 181.190315 
L 233.136855 181.019759 
L 240.869862 180.934481 
" clip-path="url(#pb701a1a255)" style="fill: none; stroke: #2f6690; stroke-width: 1.4; stroke-linecap: square"/>
   </g>
   <g id="line2d_16">
    <path d="M 151.940278 188.333702 
L 151.940278 40.559777 
" clip-path="url(#pb701a1a255)" style="fill: none; stroke-dasharray: 2.59,1.12; stroke-dashoffset: 0; stroke: #252a31; stroke-width: 0.7"/>
   </g>
   <g id="patch_3">
    <path d="M 54.117734 188.333702 
L 54.117734 40.559777 
" style="fill: none; stroke: #252a31; stroke-width: 0.8; stroke-linejoin: miter; stroke-linecap: square"/>
   </g>
   <g id="patch_4">
    <path d="M 249.762821 188.333702 
L 249.762821 40.559777 
" style="fill: none; stroke: #252a31; stroke-width: 0.8; stroke-linejoin: miter; stroke-linecap: square"/>
   </g>
   <g id="patch_5">
    <path d="M 54.117734 188.333702 
L 249.762821 188.333702 
" style="fill: none; stroke: #252a31; stroke-width: 0.8; stroke-linejoin: miter; stroke-linecap: square"/>
   </g>
   <g id="patch_6">
    <path d="M 54.117734 40.559777 
L 249.762821 40.559777 
" style="fill: none; stroke: #252a31; stroke-width: 0.8; stroke-linejoin: miter; stroke-linecap: square"/>
   </g>
   <g id="text_7">
    <text style="font-size: 11px; font-family: 'DejaVu Sans'; text-anchor: middle; fill: #252a31" x="151.940278" y="34.559777" transform="rotate(-0 151.940278 34.559777)">Prior SD 10 deg</text>
   </g>
  </g>
  <g id="axes_2">
   <g id="patch_7">
    <path d="M 259.263301 188.333702 
L 454.908387 188.333702 
L 454.908387 40.559777 
L 259.263301 40.559777 
z
" style="fill: #ffffff"/>
   </g>
   <g id="FillBetweenPolyCollection_2">
    <defs>
     <path id="m07343787fe" d="M 268.156259 -361.854174 
L 268.156259 -360.706294 
L 275.889267 -360.938628 
L 283.622274 -361.173084 
L 291.355281 -361.403297 
L 299.088289 -362.084386 
L 306.821296 -363.4646 
L 314.554303 -365.331761 
L 322.287311 -368.65552 
L 330.020318 -375.134356 
L 337.753326 -385.825975 
L 345.486333 -399.108279 
L 353.21934 -409.125173 
L 360.952348 -409.741548 
L 368.685355 -399.142227 
L 376.418362 -386.20365 
L 384.15137 -375.087677 
L 391.884377 -368.702199 
L 399.617385 -365.182176 
L 407.350392 -363.209987 
L 415.083399 -362.146979 
L 422.816407 -361.597439 
L 430.549414 -361.237799 
L 438.282421 -360.918472 
L 446.015429 -360.876036 
L 446.015429 -361.831895 
L 446.015429 -361.831895 
L 438.282421 -362.08863 
L 430.549414 -362.383556 
L 422.816407 -362.745319 
L 415.083399 -363.614185 
L 407.350392 -364.929685 
L 399.617385 -367.413221 
L 391.884377 -371.149665 
L 384.15137 -378.747737 
L 376.418362 -389.865832 
L 368.685355 -404.429688 
L 360.952348 -415.254978 
L 353.21934 -415.105393 
L 345.486333 -404.142187 
L 337.753326 -390.093923 
L 330.020318 -378.446445 
L 322.287311 -371.529463 
L 314.554303 -367.138452 
L 306.821296 -364.931807 
L 299.088289 -363.638586 
L 291.355281 -362.83019 
L 283.622274 -362.341121 
L 275.889267 -362.066351 
L 268.156259 -361.854174 
z
"/>
    </defs>
    <g clip-path="url(#pa1adf1a530)">
     <use xlink:href="#m07343787fe" x="0" y="541.19952" style="fill: #f7e3c1"/>
    </g>
   </g>
   <g id="matplotlib.axis_3">
    <g id="xtick_4">
     <g id="line2d_17">
      <g>
       <use xlink:href="#mcfe202da74" x="305.532462" y="188.333702" style="fill: #252a31; stroke: #252a31; stroke-width: 0.8"/>
      </g>
     </g>
    </g>
    <g id="xtick_5">
     <g id="line2d_18">
      <g>
       <use xlink:href="#mcfe202da74" x="357.085844" y="188.333702" style="fill: #252a31; stroke: #252a31; stroke-width: 0.8"/>
      </g>
     </g>
    </g>
    <g id="xtick_6">
     <g id="line2d_19">
      <g>
       <use xlink:href="#mcfe202da74" x="408.639226" y="188.333702" style="fill: #252a31; stroke: #252a31; stroke-width: 0.8"/>
      </g>
     </g>
    </g>
   </g>
   <g id="matplotlib.axis_4">
    <g id="ytick_6">
     <g id="line2d_20">
      <path d="M 259.263301 181.616705 
L 454.908387 181.616705 
" clip-path="url(#pa1adf1a530)" style="fill: none; stroke: #d9dee5; stroke-width: 0.5; stroke-linecap: square"/>
     </g>
     <g id="line2d_21">
      <g>
       <use xlink:href="#m5289b1a0c6" x="259.263301" y="181.616705" style="fill: #252a31; stroke: #252a31; stroke-width: 0.8"/>
      </g>
     </g>
    </g>
    <g id="ytick_7">
     <g id="line2d_22">
      <path d="M 259.263301 146.942677 
L 454.908387 146.942677 
" clip-path="url(#pa1adf1a530)" style="fill: none; stroke: #d9dee5; stroke-width: 0.5; stroke-linecap: square"/>
     </g>
     <g id="line2d_23">
      <g>
       <use xlink:href="#m5289b1a0c6" x="259.263301" y="146.942677" style="fill: #252a31; stroke: #252a31; stroke-width: 0.8"/>
      </g>
     </g>
    </g>
    <g id="ytick_8">
     <g id="line2d_24">
      <path d="M 259.263301 112.268649 
L 454.908387 112.268649 
" clip-path="url(#pa1adf1a530)" style="fill: none; stroke: #d9dee5; stroke-width: 0.5; stroke-linecap: square"/>
     </g>
     <g id="line2d_25">
      <g>
       <use xlink:href="#m5289b1a0c6" x="259.263301" y="112.268649" style="fill: #252a31; stroke: #252a31; stroke-width: 0.8"/>
      </g>
     </g>
    </g>
    <g id="ytick_9">
     <g id="line2d_26">
      <path d="M 259.263301 77.594621 
L 454.908387 77.594621 
" clip-path="url(#pa1adf1a530)" style="fill: none; stroke: #d9dee5; stroke-width: 0.5; stroke-linecap: square"/>
     </g>
     <g id="line2d_27">
      <g>
       <use xlink:href="#m5289b1a0c6" x="259.263301" y="77.594621" style="fill: #252a31; stroke: #252a31; stroke-width: 0.8"/>
      </g>
     </g>
    </g>
    <g id="ytick_10">
     <g id="line2d_28">
      <path d="M 259.263301 42.920593 
L 454.908387 42.920593 
" clip-path="url(#pa1adf1a530)" style="fill: none; stroke: #d9dee5; stroke-width: 0.5; stroke-linecap: square"/>
     </g>
     <g id="line2d_29">
      <g>
       <use xlink:href="#m5289b1a0c6" x="259.263301" y="42.920593" style="fill: #252a31; stroke: #252a31; stroke-width: 0.8"/>
      </g>
     </g>
    </g>
   </g>
   <g id="line2d_30">
    <path d="M 268.156259 179.850965 
L 275.889267 179.67019 
L 283.622274 179.460134 
L 291.355281 179.059543 
L 299.088289 178.330926 
L 306.821296 177.020094 
L 314.554303 175.094797 
L 322.287311 171.106286 
L 330.020318 164.478289 
L 337.753326 153.282537 
L 345.486333 139.673904 
L 353.21934 129.244113 
L 360.952348 129.063338 
L 368.685355 139.583517 
L 376.418362 153.339825 
L 384.15137 164.347163 
L 391.884377 171.211526 
L 399.617385 174.917416 
L 407.350392 177.045555 
L 415.083399 178.297826 
L 422.816407 179.059968 
L 430.549414 179.410485 
L 438.282421 179.703714 
L 446.015429 179.808529 
" clip-path="url(#pa1adf1a530)" style="fill: none; stroke: #d97706; stroke-width: 1.4; stroke-linecap: square"/>
   </g>
   <g id="line2d_31">
    <path d="M 268.156259 180.555818 
L 275.889267 180.25877 
L 283.622274 180.089028 
L 291.355281 179.919286 
L 299.088289 180.131463 
L 306.821296 179.961721 
L 314.554303 179.028141 
L 322.287311 177.585335 
L 330.020318 171.517062 
L 337.753326 160.017047 
L 345.486333 135.192293 
L 353.21934 111.683039 
L 360.952348 109.009604 
L 368.685355 129.887859 
L 376.418362 151.275339 
L 384.15137 166.424804 
L 391.884377 175.718174 
L 399.617385 178.773528 
L 407.350392 180.683125 
L 415.083399 180.72556 
L 422.816407 180.895302 
L 430.549414 180.895302 
L 438.282421 180.937737 
L 446.015429 180.895302 
" clip-path="url(#pa1adf1a530)" style="fill: none; stroke: #2f6690; stroke-width: 1.4; stroke-linecap: square"/>
   </g>
   <g id="line2d_32">
    <path d="M 357.085844 188.333702 
L 357.085844 40.559777 
" clip-path="url(#pa1adf1a530)" style="fill: none; stroke-dasharray: 2.59,1.12; stroke-dashoffset: 0; stroke: #252a31; stroke-width: 0.7"/>
   </g>
   <g id="patch_8">
    <path d="M 259.263301 188.333702 
L 259.263301 40.559777 
" style="fill: none; stroke: #252a31; stroke-width: 0.8; stroke-linejoin: miter; stroke-linecap: square"/>
   </g>
   <g id="patch_9">
    <path d="M 454.908387 188.333702 
L 454.908387 40.559777 
" style="fill: none; stroke: #252a31; stroke-width: 0.8; stroke-linejoin: miter; stroke-linecap: square"/>
   </g>
   <g id="patch_10">
    <path d="M 259.263301 188.333702 
L 454.908387 188.333702 
" style="fill: none; stroke: #252a31; stroke-width: 0.8; stroke-linejoin: miter; stroke-linecap: square"/>
   </g>
   <g id="patch_11">
    <path d="M 259.263301 40.559777 
L 454.908387 40.559777 
" style="fill: none; stroke: #252a31; stroke-width: 0.8; stroke-linejoin: miter; stroke-linecap: square"/>
   </g>
   <g id="text_8">
    <text style="font-size: 11px; font-family: 'DejaVu Sans'; text-anchor: middle; fill: #252a31" x="357.085844" y="34.559777" transform="rotate(-0 357.085844 34.559777)">Prior SD 20 deg</text>
   </g>
  </g>
  <g id="axes_3">
   <g id="patch_12">
    <path d="M 464.408867 188.333702 
L 660.053954 188.333702 
L 660.053954 40.559777 
L 464.408867 40.559777 
z
" style="fill: #ffffff"/>
   </g>
   <g id="FillBetweenPolyCollection_3">
    <defs>
     <path id="m9456045e50" d="M 473.301826 -361.878009 
L 473.301826 -360.874627 
L 481.034833 -361.006036 
L 488.76784 -361.186444 
L 496.500848 -361.784464 
L 504.233855 -362.65421 
L 511.966862 -364.616429 
L 519.69987 -367.887164 
L 527.432877 -372.721439 
L 535.165885 -379.64934 
L 542.898892 -387.735417 
L 550.631899 -394.260184 
L 558.364907 -399.11339 
L 566.097914 -399.195798 
L 573.830921 -394.523001 
L 581.563929 -387.578395 
L 589.296936 -379.717271 
L 597.029944 -372.761529 
L 604.762951 -367.62212 
L 612.495958 -364.65652 
L 620.228966 -362.656438 
L 627.961973 -361.720987 
L 635.69498 -361.097354 
L 643.427988 -360.940332 
L 651.160995 -360.851241 
L 651.160995 -361.878009 
L 651.160995 -361.878009 
L 643.427988 -362.100736 
L 635.69498 -362.435939 
L 627.961973 -363.080731 
L 620.228966 -364.126431 
L 612.495958 -366.801374 
L 604.762951 -370.386153 
L 597.029944 -375.867447 
L 589.296936 -383.306505 
L 581.563929 -392.213329 
L 573.830921 -399.073299 
L 566.097914 -402.859646 
L 558.364907 -403.939868 
L 550.631899 -399.255934 
L 542.898892 -391.366969 
L 535.165885 -382.865507 
L 527.432877 -375.933152 
L 519.69987 -370.341608 
L 511.966862 -366.623193 
L 504.233855 -364.19659 
L 496.500848 -363.146436 
L 488.76784 -362.278917 
L 481.034833 -362.25553 
L 473.301826 -361.878009 
z
"/>
    </defs>
    <g clip-path="url(#p40242256c8)">
     <use xlink:href="#m9456045e50" x="0" y="541.19952" style="fill: #f7e3c1"/>
    </g>
   </g>
   <g id="matplotlib.axis_5">
    <g id="xtick_7">
     <g id="line2d_33">
      <g>
       <use xlink:href="#mcfe202da74" x="510.678028" y="188.333702" style="fill: #252a31; stroke: #252a31; stroke-width: 0.8"/>
      </g>
     </g>
    </g>
    <g id="xtick_8">
     <g id="line2d_34">
      <g>
       <use xlink:href="#mcfe202da74" x="562.23141" y="188.333702" style="fill: #252a31; stroke: #252a31; stroke-width: 0.8"/>
      </g>
     </g>
    </g>
    <g id="xtick_9">
     <g id="line2d_35">
      <g>
       <use xlink:href="#mcfe202da74" x="613.784793" y="188.333702" style="fill: #252a31; stroke: #252a31; stroke-width: 0.8"/>
      </g>
     </g>
    </g>
   </g>
   <g id="matplotlib.axis_6">
    <g id="ytick_11">
     <g id="line2d_36">
      <path d="M 464.408867 181.616705 
L 660.053954 181.616705 
" clip-path="url(#p40242256c8)" style="fill: none; stroke: #d9dee5; stroke-width: 0.5; stroke-linecap: square"/>
     </g>
     <g id="line2d_37">
      <g>
       <use xlink:href="#m5289b1a0c6" x="464.408867" y="181.616705" style="fill: #252a31; stroke: #252a31; stroke-width: 0.8"/>
      </g>
     </g>
    </g>
    <g id="ytick_12">
     <g id="line2d_38">
      <path d="M 464.408867 146.942677 
L 660.053954 146.942677 
" clip-path="url(#p40242256c8)" style="fill: none; stroke: #d9dee5; stroke-width: 0.5; stroke-linecap: square"/>
     </g>
     <g id="line2d_39">
      <g>
       <use xlink:href="#m5289b1a0c6" x="464.408867" y="146.942677" style="fill: #252a31; stroke: #252a31; stroke-width: 0.8"/>
      </g>
     </g>
    </g>
    <g id="ytick_13">
     <g id="line2d_40">
      <path d="M 464.408867 112.268649 
L 660.053954 112.268649 
" clip-path="url(#p40242256c8)" style="fill: none; stroke: #d9dee5; stroke-width: 0.5; stroke-linecap: square"/>
     </g>
     <g id="line2d_41">
      <g>
       <use xlink:href="#m5289b1a0c6" x="464.408867" y="112.268649" style="fill: #252a31; stroke: #252a31; stroke-width: 0.8"/>
      </g>
     </g>
    </g>
    <g id="ytick_14">
     <g id="line2d_42">
      <path d="M 464.408867 77.594621 
L 660.053954 77.594621 
" clip-path="url(#p40242256c8)" style="fill: none; stroke: #d9dee5; stroke-width: 0.5; stroke-linecap: square"/>
     </g>
     <g id="line2d_43">
      <g>
       <use xlink:href="#m5289b1a0c6" x="464.408867" y="77.594621" style="fill: #252a31; stroke: #252a31; stroke-width: 0.8"/>
      </g>
     </g>
    </g>
    <g id="ytick_15">
     <g id="line2d_44">
      <path d="M 464.408867 42.920593 
L 660.053954 42.920593 
" clip-path="url(#p40242256c8)" style="fill: none; stroke: #d9dee5; stroke-width: 0.5; stroke-linecap: square"/>
     </g>
     <g id="line2d_45">
      <g>
       <use xlink:href="#m5289b1a0c6" x="464.408867" y="42.920593" style="fill: #252a31; stroke: #252a31; stroke-width: 0.8"/>
      </g>
     </g>
    </g>
   </g>
   <g id="line2d_46">
    <path d="M 473.301826 179.821977 
L 481.034833 179.619741 
L 488.76784 179.454924 
L 496.500848 178.789418 
L 504.233855 177.712313 
L 511.966862 175.655659 
L 519.69987 172.068429 
L 527.432877 166.829462 
L 535.165885 159.788193 
L 542.898892 151.765147 
L 550.631899 144.483779 
L 558.364907 139.979362 
L 566.097914 140.136162 
L 573.830921 144.467297 
L 581.563929 151.687638 
L 589.296936 159.709348 
L 597.029944 166.762198 
L 604.762951 172.244828 
L 612.495958 175.594632 
L 620.228966 177.767995 
L 627.961973 178.835299 
L 635.69498 179.430424 
L 643.427988 179.625087 
L 651.160995 179.831331 
" clip-path="url(#p40242256c8)" style="fill: none; stroke: #d97706; stroke-width: 1.4; stroke-linecap: square"/>
   </g>
   <g id="line2d_47">
    <path d="M 473.301826 179.834895 
L 481.034833 179.478533 
L 488.76784 179.077625 
L 496.500848 179.300352 
L 504.233855 177.162179 
L 511.966862 177.563087 
L 519.69987 173.598559 
L 527.432877 171.371296 
L 535.165885 163.798602 
L 542.898892 153.285922 
L 550.631899 142.105062 
L 558.364907 135.512364 
L 566.097914 133.908735 
L 573.830921 142.68415 
L 581.563929 149.54412 
L 589.296936 161.571339 
L 597.029944 167.362223 
L 604.762951 173.77674 
L 612.495958 175.157643 
L 620.228966 177.874903 
L 627.961973 178.543082 
L 635.69498 179.87944 
L 643.427988 180.102166 
L 651.160995 179.567623 
" clip-path="url(#p40242256c8)" style="fill: none; stroke: #2f6690; stroke-width: 1.4; stroke-linecap: square"/>
   </g>
   <g id="line2d_48">
    <path d="M 562.23141 188.333702 
L 562.23141 40.559777 
" clip-path="url(#p40242256c8)" style="fill: none; stroke-dasharray: 2.59,1.12; stroke-dashoffset: 0; stroke: #252a31; stroke-width: 0.7"/>
   </g>
   <g id="patch_13">
    <path d="M 464.408867 188.333702 
L 464.408867 40.559777 
" style="fill: none; stroke: #252a31; stroke-width: 0.8; stroke-linejoin: miter; stroke-linecap: square"/>
   </g>
   <g id="patch_14">
    <path d="M 660.053954 188.333702 
L 660.053954 40.559777 
" style="fill: none; stroke: #252a31; stroke-width: 0.8; stroke-linejoin: miter; stroke-linecap: square"/>
   </g>
   <g id="patch_15">
    <path d="M 464.408867 188.333702 
L 660.053954 188.333702 
" style="fill: none; stroke: #252a31; stroke-width: 0.8; stroke-linejoin: miter; stroke-linecap: square"/>
   </g>
   <g id="patch_16">
    <path d="M 464.408867 40.559777 
L 660.053954 40.559777 
" style="fill: none; stroke: #252a31; stroke-width: 0.8; stroke-linejoin: miter; stroke-linecap: square"/>
   </g>
   <g id="text_9">
    <text style="font-size: 11px; font-family: 'DejaVu Sans'; text-anchor: middle; fill: #252a31" x="562.23141" y="34.559777" transform="rotate(-0 562.23141 34.559777)">Prior SD 40 deg</text>
   </g>
  </g>
  <g id="axes_4">
   <g id="patch_17">
    <path d="M 669.554434 188.333702 
L 865.19952 188.333702 
L 865.19952 40.559777 
L 669.554434 40.559777 
z
" style="fill: #ffffff"/>
   </g>
   <g id="FillBetweenPolyCollection_4">
    <defs>
     <path id="m74eb01a5b4" d="M 678.447392 -364.089523 
L 678.447392 -363.20254 
L 686.180399 -363.255082 
L 693.913407 -363.806 
L 701.646414 -364.889109 
L 709.379422 -366.158457 
L 717.112429 -367.884563 
L 724.845436 -370.679732 
L 732.578444 -374.460206 
L 740.311451 -378.907088 
L 748.044458 -383.907489 
L 755.777466 -388.55882 
L 763.510473 -391.207285 
L 771.24348 -391.229134 
L 778.976488 -388.501075 
L 786.709495 -383.697319 
L 794.442503 -378.867551 
L 802.17551 -374.112175 
L 809.908517 -370.703662 
L 817.641525 -368.196698 
L 825.374532 -366.213601 
L 833.107539 -364.908877 
L 840.840547 -364.03594 
L 848.573554 -363.399705 
L 856.306562 -363.109419 
L 856.306562 -364.206574 
L 856.306562 -364.206574 
L 848.573554 -364.621713 
L 840.840547 -365.087314 
L 833.107539 -366.242734 
L 825.374532 -367.698323 
L 817.641525 -369.677258 
L 809.908517 -372.539015 
L 802.17551 -376.646191 
L 794.442503 -381.006195 
L 786.709495 -386.572081 
L 778.976488 -391.515778 
L 771.24348 -394.31927 
L 763.510473 -394.115862 
L 755.777466 -391.455432 
L 748.044458 -386.488845 
L 740.311451 -381.471276 
L 732.578444 -376.55307 
L 724.845436 -372.537975 
L 717.112429 -369.596103 
L 709.379422 -367.69052 
L 701.646414 -366.086146 
L 693.913407 -365.202284 
L 686.180399 -364.537437 
L 678.447392 -364.089523 
z
"/>
    </defs>
    <g clip-path="url(#pe9383ccf04)">
     <use xlink:href="#m74eb01a5b4" x="0" y="541.19952" style="fill: #f7e3c1"/>
    </g>
   </g>
   <g id="matplotlib.axis_7">
    <g id="xtick_10">
     <g id="line2d_49">
      <g>
       <use xlink:href="#mcfe202da74" x="715.823594" y="188.333702" style="fill: #252a31; stroke: #252a31; stroke-width: 0.8"/>
      </g>
     </g>
    </g>
    <g id="xtick_11">
     <g id="line2d_50">
      <g>
       <use xlink:href="#mcfe202da74" x="767.376977" y="188.333702" style="fill: #252a31; stroke: #252a31; stroke-width: 0.8"/>
      </g>
     </g>
    </g>
    <g id="xtick_12">
     <g id="line2d_51">
      <g>
       <use xlink:href="#mcfe202da74" x="818.930359" y="188.333702" style="fill: #252a31; stroke: #252a31; stroke-width: 0.8"/>
      </g>
     </g>
    </g>
   </g>
   <g id="matplotlib.axis_8">
    <g id="ytick_16">
     <g id="line2d_52">
      <path d="M 669.554434 181.616705 
L 865.19952 181.616705 
" clip-path="url(#pe9383ccf04)" style="fill: none; stroke: #d9dee5; stroke-width: 0.5; stroke-linecap: square"/>
     </g>
     <g id="line2d_53">
      <g>
       <use xlink:href="#m5289b1a0c6" x="669.554434" y="181.616705" style="fill: #252a31; stroke: #252a31; stroke-width: 0.8"/>
      </g>
     </g>
    </g>
    <g id="ytick_17">
     <g id="line2d_54">
      <path d="M 669.554434 146.942677 
L 865.19952 146.942677 
" clip-path="url(#pe9383ccf04)" style="fill: none; stroke: #d9dee5; stroke-width: 0.5; stroke-linecap: square"/>
     </g>
     <g id="line2d_55">
      <g>
       <use xlink:href="#m5289b1a0c6" x="669.554434" y="146.942677" style="fill: #252a31; stroke: #252a31; stroke-width: 0.8"/>
      </g>
     </g>
    </g>
    <g id="ytick_18">
     <g id="line2d_56">
      <path d="M 669.554434 112.268649 
L 865.19952 112.268649 
" clip-path="url(#pe9383ccf04)" style="fill: none; stroke: #d9dee5; stroke-width: 0.5; stroke-linecap: square"/>
     </g>
     <g id="line2d_57">
      <g>
       <use xlink:href="#m5289b1a0c6" x="669.554434" y="112.268649" style="fill: #252a31; stroke: #252a31; stroke-width: 0.8"/>
      </g>
     </g>
    </g>
    <g id="ytick_19">
     <g id="line2d_58">
      <path d="M 669.554434 77.594621 
L 865.19952 77.594621 
" clip-path="url(#pe9383ccf04)" style="fill: none; stroke: #d9dee5; stroke-width: 0.5; stroke-linecap: square"/>
     </g>
     <g id="line2d_59">
      <g>
       <use xlink:href="#m5289b1a0c6" x="669.554434" y="77.594621" style="fill: #252a31; stroke: #252a31; stroke-width: 0.8"/>
      </g>
     </g>
    </g>
    <g id="ytick_20">
     <g id="line2d_60">
      <path d="M 669.554434 42.920593 
L 865.19952 42.920593 
" clip-path="url(#pe9383ccf04)" style="fill: none; stroke: #d9dee5; stroke-width: 0.5; stroke-linecap: square"/>
     </g>
     <g id="line2d_61">
      <g>
       <use xlink:href="#m5289b1a0c6" x="669.554434" y="42.920593" style="fill: #252a31; stroke: #252a31; stroke-width: 0.8"/>
      </g>
     </g>
    </g>
   </g>
   <g id="line2d_62">
    <path d="M 678.447392 177.548338 
L 686.180399 177.307786 
L 693.913407 176.701204 
L 701.646414 175.722557 
L 709.379422 174.333349 
L 717.112429 172.37439 
L 724.845436 169.595141 
L 732.578444 165.844319 
L 740.311451 161.071152 
L 748.044458 156.037664 
L 755.777466 151.366253 
L 763.510473 148.494196 
L 771.24348 148.470265 
L 778.976488 151.244729 
L 786.709495 155.917596 
L 794.442503 161.195382 
L 802.17551 165.751927 
L 809.908517 169.56143 
L 817.641525 172.271177 
L 825.374532 174.254899 
L 833.107539 175.638905 
L 840.840547 176.552628 
L 848.573554 177.245776 
L 856.306562 177.559575 
" clip-path="url(#pe9383ccf04)" style="fill: none; stroke: #d97706; stroke-width: 1.4; stroke-linecap: square"/>
   </g>
   <g id="line2d_63">
    <path d="M 678.447392 176.019085 
L 686.180399 176.789018 
L 693.913407 176.622546 
L 701.646414 175.810995 
L 709.379422 175.831804 
L 717.112429 174.520838 
L 724.845436 171.066545 
L 732.578444 169.443443 
L 740.311451 163.408835 
L 748.044458 157.603125 
L 755.777466 149.362763 
L 763.510473 143.536245 
L 771.24348 142.162851 
L 778.976488 149.196291 
L 786.709495 156.271349 
L 794.442503 164.282812 
L 802.17551 167.903577 
L 809.908517 171.545152 
L 817.641525 172.835309 
L 825.374532 174.853782 
L 833.107539 174.853782 
L 840.840547 176.310411 
L 848.573554 176.102321 
L 856.306562 175.72776 
" clip-path="url(#pe9383ccf04)" style="fill: none; stroke: #2f6690; stroke-width: 1.4; stroke-linecap: square"/>
   </g>
   <g id="line2d_64">
    <path d="M 767.376977 188.333702 
L 767.376977 40.559777 
" clip-path="url(#pe9383ccf04)" style="fill: none; stroke-dasharray: 2.59,1.12; stroke-dashoffset: 0; stroke: #252a31; stroke-width: 0.7"/>
   </g>
   <g id="patch_18">
    <path d="M 669.554434 188.333702 
L 669.554434 40.559777 
" style="fill: none; stroke: #252a31; stroke-width: 0.8; stroke-linejoin: miter; stroke-linecap: square"/>
   </g>
   <g id="patch_19">
    <path d="M 865.19952 188.333702 
L 865.19952 40.559777 
" style="fill: none; stroke: #252a31; stroke-width: 0.8; stroke-linejoin: miter; stroke-linecap: square"/>
   </g>
   <g id="patch_20">
    <path d="M 669.554434 188.333702 
L 865.19952 188.333702 
" style="fill: none; stroke: #252a31; stroke-width: 0.8; stroke-linejoin: miter; stroke-linecap: square"/>
   </g>
   <g id="patch_21">
    <path d="M 669.554434 40.559777 
L 865.19952 40.559777 
" style="fill: none; stroke: #252a31; stroke-width: 0.8; stroke-linejoin: miter; stroke-linecap: square"/>
   </g>
   <g id="text_10">
    <text style="font-size: 11px; font-family: 'DejaVu Sans'; text-anchor: middle; fill: #252a31" x="767.376977" y="34.559777" transform="rotate(-0 767.376977 34.559777)">Prior SD 80 deg</text>
   </g>
   <g id="legend_1">
    <g id="line2d_65">
     <path d="M 803.926551 49.728683 
L 810.926551 49.728683 
L 817.926551 49.728683 
" style="fill: none; stroke: #d97706; stroke-width: 1.4; stroke-linecap: square"/>
    </g>
    <g id="text_11">
     <text style="font-size: 7px; font-family: 'DejaVu Sans'; text-anchor: start; fill: #252a31" x="823.526551" y="52.178683" transform="rotate(-0 823.526551 52.178683)">Simulated</text>
    </g>
    <g id="line2d_66">
     <path d="M 803.926551 60.22923 
L 810.926551 60.22923 
L 817.926551 60.22923 
" style="fill: none; stroke: #2f6690; stroke-width: 1.4; stroke-linecap: square"/>
    </g>
    <g id="text_12">
     <text style="font-size: 7px; font-family: 'DejaVu Sans'; text-anchor: start; fill: #252a31" x="823.526551" y="62.67923" transform="rotate(-0 823.526551 62.67923)">Observed</text>
    </g>
   </g>
  </g>
  <g id="axes_5">
   <g id="patch_22">
    <path d="M 54.117734 346.666259 
L 249.762821 346.666259 
L 249.762821 198.892335 
L 54.117734 198.892335 
z
" style="fill: #ffffff"/>
   </g>
   <g id="FillBetweenPolyCollection_5">
    <defs>
     <path id="mca6eba2329" d="M 63.010693 -202.645955 
L 63.010693 -201.869879 
L 70.7437 -201.775387 
L 78.476708 -201.869879 
L 86.209715 -201.931841 
L 93.942722 -201.869879 
L 101.67573 -201.993803 
L 109.408737 -202.241652 
L 117.141744 -203.663684 
L 124.874752 -208.033565 
L 132.607759 -219.711885 
L 140.340767 -247.089868 
L 148.073774 -281.599696 
L 155.806781 -281.889369 
L 163.539789 -246.913276 
L 171.272796 -219.682453 
L 179.005803 -207.59983 
L 186.738811 -203.787608 
L 194.471818 -202.365576 
L 202.204825 -201.993803 
L 209.937833 -201.837349 
L 217.67084 -201.713425 
L 225.403848 -201.807917 
L 233.136855 -201.837349 
L 240.869862 -201.837349 
L 240.869862 -202.769879 
L 240.869862 -202.769879 
L 233.136855 -202.861274 
L 225.403848 -202.707917 
L 217.67084 -202.861274 
L 209.937833 -202.769879 
L 202.204825 -202.861274 
L 194.471818 -203.63735 
L 186.738811 -205.525647 
L 179.005803 -210.886923 
L 171.272796 -224.097257 
L 163.539789 -253.519991 
L 155.806781 -290.358048 
L 148.073774 -290.458737 
L 140.340767 -253.210181 
L 132.607759 -223.341319 
L 124.874752 -210.792431 
L 117.141744 -205.620139 
L 109.408737 -203.728744 
L 101.67573 -203.11222 
L 93.942722 -202.893804 
L 86.209715 -202.831842 
L 78.476708 -202.707917 
L 70.7437 -202.80241 
L 63.010693 -202.645955 
z
"/>
    </defs>
    <g clip-path="url(#p63be0e983f)">
     <use xlink:href="#mca6eba2329" x="0" y="541.19952" style="fill: #f7e3c1"/>
    </g>
   </g>
   <g id="matplotlib.axis_9">
    <g id="xtick_13">
     <g id="line2d_67">
      <g>
       <use xlink:href="#mcfe202da74" x="100.386895" y="346.666259" style="fill: #252a31; stroke: #252a31; stroke-width: 0.8"/>
      </g>
     </g>
    </g>
    <g id="xtick_14">
     <g id="line2d_68">
      <g>
       <use xlink:href="#mcfe202da74" x="151.940278" y="346.666259" style="fill: #252a31; stroke: #252a31; stroke-width: 0.8"/>
      </g>
     </g>
    </g>
    <g id="xtick_15">
     <g id="line2d_69">
      <g>
       <use xlink:href="#mcfe202da74" x="203.49366" y="346.666259" style="fill: #252a31; stroke: #252a31; stroke-width: 0.8"/>
      </g>
     </g>
    </g>
   </g>
   <g id="matplotlib.axis_10">
    <g id="ytick_21">
     <g id="line2d_70">
      <path d="M 54.117734 339.949263 
L 249.762821 339.949263 
" clip-path="url(#p63be0e983f)" style="fill: none; stroke: #d9dee5; stroke-width: 0.5; stroke-linecap: square"/>
     </g>
     <g id="line2d_71">
      <g>
       <use xlink:href="#m5289b1a0c6" x="54.117734" y="339.949263" style="fill: #252a31; stroke: #252a31; stroke-width: 0.8"/>
      </g>
     </g>
     <g id="text_13">
      <text style="font-size: 9px; font-family: 'DejaVu Sans'; text-anchor: end; fill: #252a31" x="47.117734" y="343.368208" transform="rotate(-0 47.117734 343.368208)">0.0</text>
     </g>
    </g>
    <g id="ytick_22">
     <g id="line2d_72">
      <path d="M 54.117734 305.275235 
L 249.762821 305.275235 
" clip-path="url(#p63be0e983f)" style="fill: none; stroke: #d9dee5; stroke-width: 0.5; stroke-linecap: square"/>
     </g>
     <g id="line2d_73">
      <g>
       <use xlink:href="#m5289b1a0c6" x="54.117734" y="305.275235" style="fill: #252a31; stroke: #252a31; stroke-width: 0.8"/>
      </g>
     </g>
     <g id="text_14">
      <text style="font-size: 9px; font-family: 'DejaVu Sans'; text-anchor: end; fill: #252a31" x="47.117734" y="308.69418" transform="rotate(-0 47.117734 308.69418)">0.1</text>
     </g>
    </g>
    <g id="ytick_23">
     <g id="line2d_74">
      <path d="M 54.117734 270.601207 
L 249.762821 270.601207 
" clip-path="url(#p63be0e983f)" style="fill: none; stroke: #d9dee5; stroke-width: 0.5; stroke-linecap: square"/>
     </g>
     <g id="line2d_75">
      <g>
       <use xlink:href="#m5289b1a0c6" x="54.117734" y="270.601207" style="fill: #252a31; stroke: #252a31; stroke-width: 0.8"/>
      </g>
     </g>
     <g id="text_15">
      <text style="font-size: 9px; font-family: 'DejaVu Sans'; text-anchor: end; fill: #252a31" x="47.117734" y="274.020152" transform="rotate(-0 47.117734 274.020152)">0.2</text>
     </g>
    </g>
    <g id="ytick_24">
     <g id="line2d_76">
      <path d="M 54.117734 235.927179 
L 249.762821 235.927179 
" clip-path="url(#p63be0e983f)" style="fill: none; stroke: #d9dee5; stroke-width: 0.5; stroke-linecap: square"/>
     </g>
     <g id="line2d_77">
      <g>
       <use xlink:href="#m5289b1a0c6" x="54.117734" y="235.927179" style="fill: #252a31; stroke: #252a31; stroke-width: 0.8"/>
      </g>
     </g>
     <g id="text_16">
      <text style="font-size: 9px; font-family: 'DejaVu Sans'; text-anchor: end; fill: #252a31" x="47.117734" y="239.346124" transform="rotate(-0 47.117734 239.346124)">0.3</text>
     </g>
    </g>
    <g id="ytick_25">
     <g id="line2d_78">
      <path d="M 54.117734 201.25315 
L 249.762821 201.25315 
" clip-path="url(#p63be0e983f)" style="fill: none; stroke: #d9dee5; stroke-width: 0.5; stroke-linecap: square"/>
     </g>
     <g id="line2d_79">
      <g>
       <use xlink:href="#m5289b1a0c6" x="54.117734" y="201.25315" style="fill: #252a31; stroke: #252a31; stroke-width: 0.8"/>
      </g>
     </g>
     <g id="text_17">
      <text style="font-size: 9px; font-family: 'DejaVu Sans'; text-anchor: end; fill: #252a31" x="47.117734" y="204.672096" transform="rotate(-0 47.117734 204.672096)">0.4</text>
     </g>
    </g>
    <g id="text_18">
     <text style="font-size: 9px; font-family: 'DejaVu Sans'; fill: #252a31" transform="translate(14.939473 308.342656) rotate(-90)">Coherence 12%</text>
     <text style="font-size: 9px; font-family: 'DejaVu Sans'; fill: #252a31" transform="translate(25.741934 295.997891) rotate(-90)">Proportion</text>
    </g>
   </g>
   <g id="line2d_80">
    <path d="M 63.010693 338.926267 
L 70.7437 338.88909 
L 78.476708 338.95415 
L 86.209715 338.903961 
L 93.942722 338.853152 
L 101.67573 338.732326 
L 109.408737 338.273186 
L 117.141744 336.636765 
L 124.874752 332.020584 
L 132.607759 319.633108 
L 140.340767 290.994195 
L 148.073774 255.6423 
L 155.806781 254.953901 
L 163.539789 291.055537 
L 171.272796 319.41624 
L 179.005803 331.91277 
L 186.738811 336.619416 
L 194.471818 338.23415 
L 202.204825 338.772601 
L 209.937833 338.897145 
L 217.67084 338.919451 
L 225.403848 338.953531 
L 233.136855 338.92193 
L 240.869862 338.926267 
" clip-path="url(#p63be0e983f)" style="fill: none; stroke: #d97706; stroke-width: 1.4; stroke-linecap: square"/>
   </g>
   <g id="line2d_81">
    <path d="M 63.010693 339.639452 
L 70.7437 339.143755 
L 78.476708 339.57749 
L 86.209715 339.01983 
L 93.942722 339.391603 
L 101.67573 338.895906 
L 109.408737 338.15236 
L 117.141744 338.586095 
L 124.874752 335.797798 
L 132.607759 329.229808 
L 140.340767 297.319293 
L 148.073774 235.852824 
L 155.806781 231.205661 
L 163.539789 293.415676 
L 171.272796 325.57404 
L 179.005803 335.85976 
L 186.738811 338.586095 
L 194.471818 339.329641 
L 202.204825 339.57749 
L 209.937833 339.763376 
L 217.67084 339.825338 
L 225.403848 339.453565 
L 233.136855 339.391603 
L 240.869862 339.453565 
" clip-path="url(#p63be0e983f)" style="fill: none; stroke: #2f6690; stroke-width: 1.4; stroke-linecap: square"/>
   </g>
   <g id="line2d_82">
    <path d="M 151.940278 346.666259 
L 151.940278 198.892335 
" clip-path="url(#p63be0e983f)" style="fill: none; stroke-dasharray: 2.59,1.12; stroke-dashoffset: 0; stroke: #252a31; stroke-width: 0.7"/>
   </g>
   <g id="patch_23">
    <path d="M 54.117734 346.666259 
L 54.117734 198.892335 
" style="fill: none; stroke: #252a31; stroke-width: 0.8; stroke-linejoin: miter; stroke-linecap: square"/>
   </g>
   <g id="patch_24">
    <path d="M 249.762821 346.666259 
L 249.762821 198.892335 
" style="fill: none; stroke: #252a31; stroke-width: 0.8; stroke-linejoin: miter; stroke-linecap: square"/>
   </g>
   <g id="patch_25">
    <path d="M 54.117734 346.666259 
L 249.762821 346.666259 
" style="fill: none; stroke: #252a31; stroke-width: 0.8; stroke-linejoin: miter; stroke-linecap: square"/>
   </g>
   <g id="patch_26">
    <path d="M 54.117734 198.892335 
L 249.762821 198.892335 
" style="fill: none; stroke: #252a31; stroke-width: 0.8; stroke-linejoin: miter; stroke-linecap: square"/>
   </g>
  </g>
  <g id="axes_6">
   <g id="patch_27">
    <path d="M 259.263301 346.666259 
L 454.908387 346.666259 
L 454.908387 198.892335 
L 259.263301 198.892335 
z
" style="fill: #ffffff"/>
   </g>
   <g id="FillBetweenPolyCollection_6">
    <defs>
     <path id="m3ba1e04a6c" d="M 268.156259 -202.654775 
L 268.156259 -201.804749 
L 275.889267 -201.804749 
L 283.622274 -201.863271 
L 291.355281 -201.835473 
L 299.088289 -201.863271 
L 306.821296 -201.952516 
L 314.554303 -202.596253 
L 322.287311 -204.585987 
L 330.020318 -211.574925 
L 337.753326 -226.790532 
L 345.486333 -249.173568 
L 353.21934 -267.490818 
L 360.952348 -267.961917 
L 368.685355 -249.586145 
L 376.418362 -227.320152 
L 384.15137 -211.513477 
L 391.884377 -204.527465 
L 399.617385 -202.537732 
L 407.350392 -202.097357 
L 415.083399 -201.776951 
L 422.816407 -201.835473 
L 430.549414 -201.893995 
L 438.282421 -201.804749 
L 446.015429 -201.863271 
L 446.015429 -202.861063 
L 446.015429 -202.861063 
L 438.282421 -202.713296 
L 430.549414 -202.74402 
L 422.816407 -202.713296 
L 415.083399 -202.83034 
L 407.350392 -203.005904 
L 399.617385 -203.825206 
L 391.884377 -206.517198 
L 384.15137 -214.593174 
L 376.418362 -231.213299 
L 368.685355 -255.212994 
L 360.952348 -274.408067 
L 353.21934 -274.257374 
L 345.486333 -255.416356 
L 337.753326 -231.742919 
L 330.020318 -214.651696 
L 322.287311 -206.57572 
L 314.554303 -203.972973 
L 306.821296 -203.005904 
L 299.088289 -202.83034 
L 291.355281 -202.802542 
L 283.622274 -202.685499 
L 275.889267 -202.74402 
L 268.156259 -202.654775 
z
"/>
    </defs>
    <g clip-path="url(#p61458cefb2)">
     <use xlink:href="#m3ba1e04a6c" x="0" y="541.19952" style="fill: #f7e3c1"/>
    </g>
   </g>
   <g id="matplotlib.axis_11">
    <g id="xtick_16">
     <g id="line2d_83">
      <g>
       <use xlink:href="#mcfe202da74" x="305.532462" y="346.666259" style="fill: #252a31; stroke: #252a31; stroke-width: 0.8"/>
      </g>
     </g>
    </g>
    <g id="xtick_17">
     <g id="line2d_84">
      <g>
       <use xlink:href="#mcfe202da74" x="357.085844" y="346.666259" style="fill: #252a31; stroke: #252a31; stroke-width: 0.8"/>
      </g>
     </g>
    </g>
    <g id="xtick_18">
     <g id="line2d_85">
      <g>
       <use xlink:href="#mcfe202da74" x="408.639226" y="346.666259" style="fill: #252a31; stroke: #252a31; stroke-width: 0.8"/>
      </g>
     </g>
    </g>
   </g>
   <g id="matplotlib.axis_12">
    <g id="ytick_26">
     <g id="line2d_86">
      <path d="M 259.263301 339.949263 
L 454.908387 339.949263 
" clip-path="url(#p61458cefb2)" style="fill: none; stroke: #d9dee5; stroke-width: 0.5; stroke-linecap: square"/>
     </g>
     <g id="line2d_87">
      <g>
       <use xlink:href="#m5289b1a0c6" x="259.263301" y="339.949263" style="fill: #252a31; stroke: #252a31; stroke-width: 0.8"/>
      </g>
     </g>
    </g>
    <g id="ytick_27">
     <g id="line2d_88">
      <path d="M 259.263301 305.275235 
L 454.908387 305.275235 
" clip-path="url(#p61458cefb2)" style="fill: none; stroke: #d9dee5; stroke-width: 0.5; stroke-linecap: square"/>
     </g>
     <g id="line2d_89">
      <g>
       <use xlink:href="#m5289b1a0c6" x="259.263301" y="305.275235" style="fill: #252a31; stroke: #252a31; stroke-width: 0.8"/>
      </g>
     </g>
    </g>
    <g id="ytick_28">
     <g id="line2d_90">
      <path d="M 259.263301 270.601207 
L 454.908387 270.601207 
" clip-path="url(#p61458cefb2)" style="fill: none; stroke: #d9dee5; stroke-width: 0.5; stroke-linecap: square"/>
     </g>
     <g id="line2d_91">
      <g>
       <use xlink:href="#m5289b1a0c6" x="259.263301" y="270.601207" style="fill: #252a31; stroke: #252a31; stroke-width: 0.8"/>
      </g>
     </g>
    </g>
    <g id="ytick_29">
     <g id="line2d_92">
      <path d="M 259.263301 235.927179 
L 454.908387 235.927179 
" clip-path="url(#p61458cefb2)" style="fill: none; stroke: #d9dee5; stroke-width: 0.5; stroke-linecap: square"/>
     </g>
     <g id="line2d_93">
      <g>
       <use xlink:href="#m5289b1a0c6" x="259.263301" y="235.927179" style="fill: #252a31; stroke: #252a31; stroke-width: 0.8"/>
      </g>
     </g>
    </g>
    <g id="ytick_30">
     <g id="line2d_94">
      <path d="M 259.263301 201.25315 
L 454.908387 201.25315 
" clip-path="url(#p61458cefb2)" style="fill: none; stroke: #d9dee5; stroke-width: 0.5; stroke-linecap: square"/>
     </g>
     <g id="line2d_95">
      <g>
       <use xlink:href="#m5289b1a0c6" x="259.263301" y="201.25315" style="fill: #252a31; stroke: #252a31; stroke-width: 0.8"/>
      </g>
     </g>
    </g>
   </g>
   <g id="line2d_96">
    <path d="M 268.156259 338.994191 
L 275.889267 338.928647 
L 283.622274 338.93684 
L 291.355281 338.917527 
L 299.088289 338.867784 
L 306.821296 338.726162 
L 314.554303 337.991131 
L 322.287311 335.575361 
L 330.020318 328.128491 
L 337.753326 311.863593 
L 345.486333 289.132061 
L 353.21934 269.977367 
L 360.952348 270.046422 
L 368.685355 288.894463 
L 376.418362 312.039742 
L 384.15137 328.134344 
L 391.884377 335.589406 
L 399.617385 338.077158 
L 407.350392 338.662373 
L 415.083399 338.868369 
L 422.816407 338.933328 
L 430.549414 338.918698 
L 438.282421 338.929232 
L 446.015429 338.909334 
" clip-path="url(#p61458cefb2)" style="fill: none; stroke: #d97706; stroke-width: 1.4; stroke-linecap: square"/>
   </g>
   <g id="line2d_97">
    <path d="M 268.156259 339.422569 
L 275.889267 339.598133 
L 283.622274 339.247004 
L 291.355281 338.778831 
L 299.088289 339.129961 
L 306.821296 338.895874 
L 314.554303 339.129961 
L 322.287311 336.730577 
L 330.020318 332.809632 
L 337.753326 320.578624 
L 345.486333 295.414351 
L 353.21934 259.248023 
L 360.952348 253.337345 
L 368.685355 283.358908 
L 376.418362 313.380472 
L 384.15137 330.410247 
L 391.884377 336.789098 
L 399.617385 338.544745 
L 407.350392 339.129961 
L 415.083399 339.656655 
L 422.816407 339.773698 
L 430.549414 339.773698 
L 438.282421 339.48109 
L 446.015429 339.422569 
" clip-path="url(#p61458cefb2)" style="fill: none; stroke: #2f6690; stroke-width: 1.4; stroke-linecap: square"/>
   </g>
   <g id="line2d_98">
    <path d="M 357.085844 346.666259 
L 357.085844 198.892335 
" clip-path="url(#p61458cefb2)" style="fill: none; stroke-dasharray: 2.59,1.12; stroke-dashoffset: 0; stroke: #252a31; stroke-width: 0.7"/>
   </g>
   <g id="patch_28">
    <path d="M 259.263301 346.666259 
L 259.263301 198.892335 
" style="fill: none; stroke: #252a31; stroke-width: 0.8; stroke-linejoin: miter; stroke-linecap: square"/>
   </g>
   <g id="patch_29">
    <path d="M 454.908387 346.666259 
L 454.908387 198.892335 
" style="fill: none; stroke: #252a31; stroke-width: 0.8; stroke-linejoin: miter; stroke-linecap: square"/>
   </g>
   <g id="patch_30">
    <path d="M 259.263301 346.666259 
L 454.908387 346.666259 
" style="fill: none; stroke: #252a31; stroke-width: 0.8; stroke-linejoin: miter; stroke-linecap: square"/>
   </g>
   <g id="patch_31">
    <path d="M 259.263301 198.892335 
L 454.908387 198.892335 
" style="fill: none; stroke: #252a31; stroke-width: 0.8; stroke-linejoin: miter; stroke-linecap: square"/>
   </g>
  </g>
  <g id="axes_7">
   <g id="patch_32">
    <path d="M 464.408867 346.666259 
L 660.053954 346.666259 
L 660.053954 198.892335 
L 464.408867 198.892335 
z
" style="fill: #ffffff"/>
   </g>
   <g id="FillBetweenPolyCollection_7">
    <defs>
     <path id="m7e96776b9c" d="M 473.301826 -202.715673 
L 473.301826 -201.788024 
L 481.034833 -201.844789 
L 488.76784 -201.907528 
L 496.500848 -202.055414 
L 504.233855 -202.445295 
L 511.966862 -203.250452 
L 519.69987 -204.923505 
L 527.432877 -208.687875 
L 535.165885 -215.47121 
L 542.898892 -228.09828 
L 550.631899 -244.746654 
L 558.364907 -257.266171 
L 566.097914 -256.886746 
L 573.830921 -244.413537 
L 581.563929 -228.465754 
L 589.296936 -215.519011 
L 597.029944 -208.596754 
L 604.762951 -205.222265 
L 612.495958 -203.250452 
L 620.228966 -202.294422 
L 627.961973 -202.027032 
L 635.69498 -201.907528 
L 643.427988 -201.756655 
L 651.160995 -201.816407 
L 651.160995 -202.687291 
L 651.160995 -202.687291 
L 643.427988 -202.894928 
L 635.69498 -202.95468 
L 627.961973 -203.102566 
L 620.228966 -203.643321 
L 612.495958 -205.134131 
L 604.762951 -206.958058 
L 597.029944 -211.143678 
L 589.296936 -219.207197 
L 581.563929 -232.292864 
L 573.830921 -250.252791 
L 566.097914 -264.413992 
L 558.364907 -263.725351 
L 550.631899 -250.517193 
L 542.898892 -232.808224 
L 535.165885 -218.93682 
L 527.432877 -211.499202 
L 519.69987 -207.200053 
L 511.966862 -205.231228 
L 504.233855 -203.671703 
L 496.500848 -203.108541 
L 488.76784 -202.684303 
L 481.034833 -202.835177 
L 473.301826 -202.715673 
z
"/>
    </defs>
    <g clip-path="url(#p0f16431888)">
     <use xlink:href="#m7e96776b9c" x="0" y="541.19952" style="fill: #f7e3c1"/>
    </g>
   </g>
   <g id="matplotlib.axis_13">
    <g id="xtick_19">
     <g id="line2d_99">
      <g>
       <use xlink:href="#mcfe202da74" x="510.678028" y="346.666259" style="fill: #252a31; stroke: #252a31; stroke-width: 0.8"/>
      </g>
     </g>
    </g>
    <g id="xtick_20">
     <g id="line2d_100">
      <g>
       <use xlink:href="#mcfe202da74" x="562.23141" y="346.666259" style="fill: #252a31; stroke: #252a31; stroke-width: 0.8"/>
      </g>
     </g>
    </g>
    <g id="xtick_21">
     <g id="line2d_101">
      <g>
       <use xlink:href="#mcfe202da74" x="613.784793" y="346.666259" style="fill: #252a31; stroke: #252a31; stroke-width: 0.8"/>
      </g>
     </g>
    </g>
   </g>
   <g id="matplotlib.axis_14">
    <g id="ytick_31">
     <g id="line2d_102">
      <path d="M 464.408867 339.949263 
L 660.053954 339.949263 
" clip-path="url(#p0f16431888)" style="fill: none; stroke: #d9dee5; stroke-width: 0.5; stroke-linecap: square"/>
     </g>
     <g id="line2d_103">
      <g>
       <use xlink:href="#m5289b1a0c6" x="464.408867" y="339.949263" style="fill: #252a31; stroke: #252a31; stroke-width: 0.8"/>
      </g>
     </g>
    </g>
    <g id="ytick_32">
     <g id="line2d_104">
      <path d="M 464.408867 305.275235 
L 660.053954 305.275235 
" clip-path="url(#p0f16431888)" style="fill: none; stroke: #d9dee5; stroke-width: 0.5; stroke-linecap: square"/>
     </g>
     <g id="line2d_105">
      <g>
       <use xlink:href="#m5289b1a0c6" x="464.408867" y="305.275235" style="fill: #252a31; stroke: #252a31; stroke-width: 0.8"/>
      </g>
     </g>
    </g>
    <g id="ytick_33">
     <g id="line2d_106">
      <path d="M 464.408867 270.601207 
L 660.053954 270.601207 
" clip-path="url(#p0f16431888)" style="fill: none; stroke: #d9dee5; stroke-width: 0.5; stroke-linecap: square"/>
     </g>
     <g id="line2d_107">
      <g>
       <use xlink:href="#m5289b1a0c6" x="464.408867" y="270.601207" style="fill: #252a31; stroke: #252a31; stroke-width: 0.8"/>
      </g>
     </g>
    </g>
    <g id="ytick_34">
     <g id="line2d_108">
      <path d="M 464.408867 235.927179 
L 660.053954 235.927179 
" clip-path="url(#p0f16431888)" style="fill: none; stroke: #d9dee5; stroke-width: 0.5; stroke-linecap: square"/>
     </g>
     <g id="line2d_109">
      <g>
       <use xlink:href="#m5289b1a0c6" x="464.408867" y="235.927179" style="fill: #252a31; stroke: #252a31; stroke-width: 0.8"/>
      </g>
     </g>
    </g>
    <g id="ytick_35">
     <g id="line2d_110">
      <path d="M 464.408867 201.25315 
L 660.053954 201.25315 
" clip-path="url(#p0f16431888)" style="fill: none; stroke: #d9dee5; stroke-width: 0.5; stroke-linecap: square"/>
     </g>
     <g id="line2d_111">
      <g>
       <use xlink:href="#m5289b1a0c6" x="464.408867" y="201.25315" style="fill: #252a31; stroke: #252a31; stroke-width: 0.8"/>
      </g>
     </g>
    </g>
   </g>
   <g id="line2d_112">
    <path d="M 473.301826 338.954991 
L 481.034833 338.906592 
L 488.76784 338.869546 
L 496.500848 338.710606 
L 504.233855 338.200325 
L 511.966862 337.091927 
L 519.69987 335.105176 
L 527.432877 331.205767 
L 535.165885 323.816249 
L 542.898892 310.820809 
L 550.631899 293.687548 
L 558.364907 280.773968 
L 566.097914 280.639526 
L 573.830921 293.596128 
L 581.563929 310.71684 
L 589.296936 323.774423 
L 597.029944 331.269104 
L 604.762951 335.102786 
L 612.495958 337.174384 
L 620.228966 338.180606 
L 627.961973 338.694473 
L 635.69498 338.841462 
L 643.427988 338.942443 
L 651.160995 338.966344 
" clip-path="url(#p0f16431888)" style="fill: none; stroke: #d97706; stroke-width: 1.4; stroke-linecap: square"/>
   </g>
   <g id="line2d_113">
    <path d="M 473.301826 339.172488 
L 481.034833 339.172488 
L 488.76784 339.172488 
L 496.500848 338.395713 
L 504.233855 338.515217 
L 511.966862 337.02142 
L 519.69987 336.184893 
L 527.432877 332.540027 
L 535.165885 326.445333 
L 542.898892 316.466766 
L 550.631899 294.956081 
L 558.364907 270.816313 
L 566.097914 270.39805 
L 573.830921 290.952704 
L 581.563929 313.479171 
L 589.296936 326.744093 
L 597.029944 332.599779 
L 604.762951 336.483652 
L 612.495958 337.379931 
L 620.228966 338.455465 
L 627.961973 339.052984 
L 635.69498 339.23224 
L 643.427988 339.291992 
L 651.160995 339.112736 
" clip-path="url(#p0f16431888)" style="fill: none; stroke: #2f6690; stroke-width: 1.4; stroke-linecap: square"/>
   </g>
   <g id="line2d_114">
    <path d="M 562.23141 346.666259 
L 562.23141 198.892335 
" clip-path="url(#p0f16431888)" style="fill: none; stroke-dasharray: 2.59,1.12; stroke-dashoffset: 0; stroke: #252a31; stroke-width: 0.7"/>
   </g>
   <g id="patch_33">
    <path d="M 464.408867 346.666259 
L 464.408867 198.892335 
" style="fill: none; stroke: #252a31; stroke-width: 0.8; stroke-linejoin: miter; stroke-linecap: square"/>
   </g>
   <g id="patch_34">
    <path d="M 660.053954 346.666259 
L 660.053954 198.892335 
" style="fill: none; stroke: #252a31; stroke-width: 0.8; stroke-linejoin: miter; stroke-linecap: square"/>
   </g>
   <g id="patch_35">
    <path d="M 464.408867 346.666259 
L 660.053954 346.666259 
" style="fill: none; stroke: #252a31; stroke-width: 0.8; stroke-linejoin: miter; stroke-linecap: square"/>
   </g>
   <g id="patch_36">
    <path d="M 464.408867 198.892335 
L 660.053954 198.892335 
" style="fill: none; stroke: #252a31; stroke-width: 0.8; stroke-linejoin: miter; stroke-linecap: square"/>
   </g>
  </g>
  <g id="axes_8">
   <g id="patch_37">
    <path d="M 669.554434 346.666259 
L 865.19952 346.666259 
L 865.19952 198.892335 
L 669.554434 198.892335 
z
" style="fill: #ffffff"/>
   </g>
   <g id="FillBetweenPolyCollection_8">
    <defs>
     <path id="mbe7387ba51" d="M 678.447392 -205.261003 
L 678.447392 -204.076928 
L 686.180399 -204.047008 
L 693.913407 -204.406046 
L 701.646414 -204.869054 
L 709.379422 -205.363478 
L 717.112429 -206.439094 
L 724.845436 -207.56333 
L 732.578444 -209.971124 
L 740.311451 -215.084414 
L 748.044458 -224.631814 
L 755.777466 -239.053146 
L 763.510473 -249.824265 
L 771.24348 -249.66569 
L 778.976488 -238.240824 
L 786.709495 -225.034983 
L 794.442503 -214.961743 
L 802.17551 -209.731766 
L 809.908517 -207.741353 
L 817.641525 -206.635817 
L 825.374532 -205.676888 
L 833.107539 -204.90047 
L 840.840547 -204.705243 
L 848.573554 -203.927329 
L 856.306562 -204.062716 
L 856.306562 -205.424814 
L 856.306562 -205.424814 
L 848.573554 -205.439026 
L 840.840547 -205.873611 
L 833.107539 -206.506414 
L 825.374532 -207.08611 
L 817.641525 -207.967995 
L 809.908517 -209.599371 
L 802.17551 -211.739383 
L 794.442503 -217.753258 
L 786.709495 -227.625288 
L 778.976488 -243.051176 
L 771.24348 -254.348135 
L 763.510473 -253.92477 
L 755.777466 -242.548524 
L 748.044458 -227.385929 
L 740.311451 -217.542323 
L 732.578444 -212.010157 
L 724.845436 -209.43556 
L 717.112429 -207.878236 
L 709.379422 -207.027766 
L 701.646414 -206.232648 
L 693.913407 -205.604333 
L 686.180399 -205.442018 
L 678.447392 -205.261003 
z
"/>
    </defs>
    <g clip-path="url(#p1894244930)">
     <use xlink:href="#mbe7387ba51" x="0" y="541.19952" style="fill: #f7e3c1"/>
    </g>
   </g>
   <g id="matplotlib.axis_15">
    <g id="xtick_22">
     <g id="line2d_115">
      <g>
       <use xlink:href="#mcfe202da74" x="715.823594" y="346.666259" style="fill: #252a31; stroke: #252a31; stroke-width: 0.8"/>
      </g>
     </g>
    </g>
    <g id="xtick_23">
     <g id="line2d_116">
      <g>
       <use xlink:href="#mcfe202da74" x="767.376977" y="346.666259" style="fill: #252a31; stroke: #252a31; stroke-width: 0.8"/>
      </g>
     </g>
    </g>
    <g id="xtick_24">
     <g id="line2d_117">
      <g>
       <use xlink:href="#mcfe202da74" x="818.930359" y="346.666259" style="fill: #252a31; stroke: #252a31; stroke-width: 0.8"/>
      </g>
     </g>
    </g>
   </g>
   <g id="matplotlib.axis_16">
    <g id="ytick_36">
     <g id="line2d_118">
      <path d="M 669.554434 339.949263 
L 865.19952 339.949263 
" clip-path="url(#p1894244930)" style="fill: none; stroke: #d9dee5; stroke-width: 0.5; stroke-linecap: square"/>
     </g>
     <g id="line2d_119">
      <g>
       <use xlink:href="#m5289b1a0c6" x="669.554434" y="339.949263" style="fill: #252a31; stroke: #252a31; stroke-width: 0.8"/>
      </g>
     </g>
    </g>
    <g id="ytick_37">
     <g id="line2d_120">
      <path d="M 669.554434 305.275235 
L 865.19952 305.275235 
" clip-path="url(#p1894244930)" style="fill: none; stroke: #d9dee5; stroke-width: 0.5; stroke-linecap: square"/>
     </g>
     <g id="line2d_121">
      <g>
       <use xlink:href="#m5289b1a0c6" x="669.554434" y="305.275235" style="fill: #252a31; stroke: #252a31; stroke-width: 0.8"/>
      </g>
     </g>
    </g>
    <g id="ytick_38">
     <g id="line2d_122">
      <path d="M 669.554434 270.601207 
L 865.19952 270.601207 
" clip-path="url(#p1894244930)" style="fill: none; stroke: #d9dee5; stroke-width: 0.5; stroke-linecap: square"/>
     </g>
     <g id="line2d_123">
      <g>
       <use xlink:href="#m5289b1a0c6" x="669.554434" y="270.601207" style="fill: #252a31; stroke: #252a31; stroke-width: 0.8"/>
      </g>
     </g>
    </g>
    <g id="ytick_39">
     <g id="line2d_124">
      <path d="M 669.554434 235.927179 
L 865.19952 235.927179 
" clip-path="url(#p1894244930)" style="fill: none; stroke: #d9dee5; stroke-width: 0.5; stroke-linecap: square"/>
     </g>
     <g id="line2d_125">
      <g>
       <use xlink:href="#m5289b1a0c6" x="669.554434" y="235.927179" style="fill: #252a31; stroke: #252a31; stroke-width: 0.8"/>
      </g>
     </g>
    </g>
    <g id="ytick_40">
     <g id="line2d_126">
      <path d="M 669.554434 201.25315 
L 865.19952 201.25315 
" clip-path="url(#p1894244930)" style="fill: none; stroke: #d9dee5; stroke-width: 0.5; stroke-linecap: square"/>
     </g>
     <g id="line2d_127">
      <g>
       <use xlink:href="#m5289b1a0c6" x="669.554434" y="201.25315" style="fill: #252a31; stroke: #252a31; stroke-width: 0.8"/>
      </g>
     </g>
    </g>
   </g>
   <g id="line2d_128">
    <path d="M 678.447392 336.571619 
L 686.180399 336.510284 
L 693.913407 336.167702 
L 701.646414 335.645901 
L 709.379422 334.949967 
L 717.112429 334.112513 
L 724.845436 332.742486 
L 732.578444 330.236705 
L 740.311451 324.928039 
L 748.044458 315.094905 
L 755.777466 300.49555 
L 763.510473 289.179592 
L 771.24348 288.996782 
L 778.976488 300.446183 
L 786.709495 314.904017 
L 794.442503 324.90919 
L 802.17551 330.365959 
L 809.908517 332.654821 
L 817.641525 333.900082 
L 825.374532 334.801266 
L 833.107539 335.525025 
L 840.840547 335.973822 
L 848.573554 336.378038 
L 856.306562 336.551573 
" clip-path="url(#p1894244930)" style="fill: none; stroke: #d97706; stroke-width: 1.4; stroke-linecap: square"/>
   </g>
   <g id="line2d_129">
    <path d="M 678.447392 337.106884 
L 686.180399 337.824959 
L 693.913407 337.5856 
L 701.646414 337.854878 
L 709.379422 337.884798 
L 717.112429 336.688007 
L 724.845436 335.401457 
L 732.578444 334.055067 
L 740.311451 327.412877 
L 748.044458 316.28272 
L 755.777466 294.291685 
L 763.510473 272.210891 
L 771.24348 273.377762 
L 778.976488 297.014385 
L 786.709495 316.34256 
L 794.442503 327.831754 
L 802.17551 333.69603 
L 809.908517 336.059692 
L 817.641525 336.418729 
L 825.374532 337.5856 
L 833.107539 337.316322 
L 840.840547 337.226563 
L 848.573554 337.406082 
L 856.306562 337.166724 
" clip-path="url(#p1894244930)" style="fill: none; stroke: #2f6690; stroke-width: 1.4; stroke-linecap: square"/>
   </g>
   <g id="line2d_130">
    <path d="M 767.376977 346.666259 
L 767.376977 198.892335 
" clip-path="url(#p1894244930)" style="fill: none; stroke-dasharray: 2.59,1.12; stroke-dashoffset: 0; stroke: #252a31; stroke-width: 0.7"/>
   </g>
   <g id="patch_38">
    <path d="M 669.554434 346.666259 
L 669.554434 198.892335 
" style="fill: none; stroke: #252a31; stroke-width: 0.8; stroke-linejoin: miter; stroke-linecap: square"/>
   </g>
   <g id="patch_39">
    <path d="M 865.19952 346.666259 
L 865.19952 198.892335 
" style="fill: none; stroke: #252a31; stroke-width: 0.8; stroke-linejoin: miter; stroke-linecap: square"/>
   </g>
   <g id="patch_40">
    <path d="M 669.554434 346.666259 
L 865.19952 346.666259 
" style="fill: none; stroke: #252a31; stroke-width: 0.8; stroke-linejoin: miter; stroke-linecap: square"/>
   </g>
   <g id="patch_41">
    <path d="M 669.554434 198.892335 
L 865.19952 198.892335 
" style="fill: none; stroke: #252a31; stroke-width: 0.8; stroke-linejoin: miter; stroke-linecap: square"/>
   </g>
  </g>
  <g id="axes_9">
   <g id="patch_42">
    <path d="M 54.117734 504.998817 
L 249.762821 504.998817 
L 249.762821 357.224892 
L 54.117734 357.224892 
z
" style="fill: #ffffff"/>
   </g>
   <g id="FillBetweenPolyCollection_9">
    <defs>
     <path id="md4faf364c6" d="M 63.010693 -44.810507 
L 63.010693 -43.405379 
L 70.7437 -43.283459 
L 78.476708 -43.283459 
L 86.209715 -43.283459 
L 93.942722 -43.341371 
L 101.67573 -43.341371 
L 109.408737 -43.283459 
L 117.141744 -43.405379 
L 124.874752 -43.771139 
L 132.607759 -50.476735 
L 140.340767 -84.416196 
L 148.073774 -145.022593 
L 155.806781 -146.06196 
L 163.539789 -85.217819 
L 171.272796 -50.412727 
L 179.005803 -43.893059 
L 186.738811 -43.219452 
L 194.471818 -43.341371 
L 202.204825 -43.283459 
L 209.937833 -43.283459 
L 217.67084 -43.405379 
L 225.403848 -43.219452 
L 233.136855 -43.283459 
L 240.869862 -43.341371 
L 240.869862 -44.746499 
L 240.869862 -44.746499 
L 233.136855 -44.688587 
L 225.403848 -44.624579 
L 217.67084 -44.566667 
L 209.937833 -44.624579 
L 202.204825 -44.624579 
L 194.471818 -44.746499 
L 186.738811 -44.624579 
L 179.005803 -45.484114 
L 171.272796 -53.768573 
L 163.539789 -92.789047 
L 155.806781 -157.534626 
L 148.073774 -155.641819 
L 140.340767 -93.770502 
L 132.607759 -54.622013 
L 124.874752 -45.298186 
L 117.141744 -44.566667 
L 109.408737 -44.868419 
L 101.67573 -44.624579 
L 93.942722 -44.624579 
L 86.209715 -44.624579 
L 78.476708 -44.810507 
L 70.7437 -44.688587 
L 63.010693 -44.810507 
z
"/>
    </defs>
    <g clip-path="url(#pa96239ce33)">
     <use xlink:href="#md4faf364c6" x="0" y="541.19952" style="fill: #f7e3c1"/>
    </g>
   </g>
   <g id="matplotlib.axis_17">
    <g id="xtick_25">
     <g id="line2d_131">
      <g>
       <use xlink:href="#mcfe202da74" x="100.386895" y="504.998817" style="fill: #252a31; stroke: #252a31; stroke-width: 0.8"/>
      </g>
     </g>
     <g id="text_19">
      <text style="font-size: 9px; font-family: 'DejaVu Sans'; text-anchor: middle; fill: #252a31" x="100.386895" y="518.836707" transform="rotate(-0 100.386895 518.836707)">−100</text>
     </g>
    </g>
    <g id="xtick_26">
     <g id="line2d_132">
      <g>
       <use xlink:href="#mcfe202da74" x="151.940278" y="504.998817" style="fill: #252a31; stroke: #252a31; stroke-width: 0.8"/>
      </g>
     </g>
     <g id="text_20">
      <text style="font-size: 9px; font-family: 'DejaVu Sans'; text-anchor: middle; fill: #252a31" x="151.940278" y="518.836707" transform="rotate(-0 151.940278 518.836707)">0</text>
     </g>
    </g>
    <g id="xtick_27">
     <g id="line2d_133">
      <g>
       <use xlink:href="#mcfe202da74" x="203.49366" y="504.998817" style="fill: #252a31; stroke: #252a31; stroke-width: 0.8"/>
      </g>
     </g>
     <g id="text_21">
      <text style="font-size: 9px; font-family: 'DejaVu Sans'; text-anchor: middle; fill: #252a31" x="203.49366" y="518.836707" transform="rotate(-0 203.49366 518.836707)">100</text>
     </g>
    </g>
    <g id="text_22">
     <text style="font-size: 9px; font-family: 'DejaVu Sans'; text-anchor: middle; fill: #252a31" x="151.940278" y="531.837411" transform="rotate(-0 151.940278 531.837411)">Response - stimulus (deg)</text>
    </g>
   </g>
   <g id="matplotlib.axis_18">
    <g id="ytick_41">
     <g id="line2d_134">
      <path d="M 54.117734 498.28182 
L 249.762821 498.28182 
" clip-path="url(#pa96239ce33)" style="fill: none; stroke: #d9dee5; stroke-width: 0.5; stroke-linecap: square"/>
     </g>
     <g id="line2d_135">
      <g>
       <use xlink:href="#m5289b1a0c6" x="54.117734" y="498.28182" style="fill: #252a31; stroke: #252a31; stroke-width: 0.8"/>
      </g>
     </g>
     <g id="text_23">
      <text style="font-size: 9px; font-family: 'DejaVu Sans'; text-anchor: end; fill: #252a31" x="47.117734" y="501.700766" transform="rotate(-0 47.117734 501.700766)">0.0</text>
     </g>
    </g>
    <g id="ytick_42">
     <g id="line2d_136">
      <path d="M 54.117734 463.607792 
L 249.762821 463.607792 
" clip-path="url(#pa96239ce33)" style="fill: none; stroke: #d9dee5; stroke-width: 0.5; stroke-linecap: square"/>
     </g>
     <g id="line2d_137">
      <g>
       <use xlink:href="#m5289b1a0c6" x="54.117734" y="463.607792" style="fill: #252a31; stroke: #252a31; stroke-width: 0.8"/>
      </g>
     </g>
     <g id="text_24">
      <text style="font-size: 9px; font-family: 'DejaVu Sans'; text-anchor: end; fill: #252a31" x="47.117734" y="467.026738" transform="rotate(-0 47.117734 467.026738)">0.1</text>
     </g>
    </g>
    <g id="ytick_43">
     <g id="line2d_138">
      <path d="M 54.117734 428.933764 
L 249.762821 428.933764 
" clip-path="url(#pa96239ce33)" style="fill: none; stroke: #d9dee5; stroke-width: 0.5; stroke-linecap: square"/>
     </g>
     <g id="line2d_139">
      <g>
       <use xlink:href="#m5289b1a0c6" x="54.117734" y="428.933764" style="fill: #252a31; stroke: #252a31; stroke-width: 0.8"/>
      </g>
     </g>
     <g id="text_25">
      <text style="font-size: 9px; font-family: 'DejaVu Sans'; text-anchor: end; fill: #252a31" x="47.117734" y="432.35271" transform="rotate(-0 47.117734 432.35271)">0.2</text>
     </g>
    </g>
    <g id="ytick_44">
     <g id="line2d_140">
      <path d="M 54.117734 394.259736 
L 249.762821 394.259736 
" clip-path="url(#pa96239ce33)" style="fill: none; stroke: #d9dee5; stroke-width: 0.5; stroke-linecap: square"/>
     </g>
     <g id="line2d_141">
      <g>
       <use xlink:href="#m5289b1a0c6" x="54.117734" y="394.259736" style="fill: #252a31; stroke: #252a31; stroke-width: 0.8"/>
      </g>
     </g>
     <g id="text_26">
      <text style="font-size: 9px; font-family: 'DejaVu Sans'; text-anchor: end; fill: #252a31" x="47.117734" y="397.678681" transform="rotate(-0 47.117734 397.678681)">0.3</text>
     </g>
    </g>
    <g id="ytick_45">
     <g id="line2d_142">
      <path d="M 54.117734 359.585708 
L 249.762821 359.585708 
" clip-path="url(#pa96239ce33)" style="fill: none; stroke: #d9dee5; stroke-width: 0.5; stroke-linecap: square"/>
     </g>
     <g id="line2d_143">
      <g>
       <use xlink:href="#m5289b1a0c6" x="54.117734" y="359.585708" style="fill: #252a31; stroke: #252a31; stroke-width: 0.8"/>
      </g>
     </g>
     <g id="text_27">
      <text style="font-size: 9px; font-family: 'DejaVu Sans'; text-anchor: end; fill: #252a31" x="47.117734" y="363.004653" transform="rotate(-0 47.117734 363.004653)">0.4</text>
     </g>
    </g>
    <g id="text_28">
     <text style="font-size: 9px; font-family: 'DejaVu Sans'; fill: #252a31" transform="translate(14.939473 466.675214) rotate(-90)">Coherence 24%</text>
     <text style="font-size: 9px; font-family: 'DejaVu Sans'; fill: #252a31" transform="translate(25.741934 454.330448) rotate(-90)">Proportion</text>
    </g>
   </g>
   <g id="line2d_144">
    <path d="M 63.010693 497.205267 
L 70.7437 497.275981 
L 78.476708 497.243062 
L 86.209715 497.300365 
L 93.942722 497.257693 
L 101.67573 497.306461 
L 109.408737 497.290611 
L 117.141744 497.221117 
L 124.874752 496.649312 
L 132.607759 488.992741 
L 140.340767 452.332637 
L 148.073774 390.66066 
L 155.806781 389.54875 
L 163.539789 451.992481 
L 171.272796 488.908616 
L 179.005803 496.535927 
L 186.738811 497.208925 
L 194.471818 497.258912 
L 202.204825 497.319872 
L 209.937833 497.318653 
L 217.67084 497.310118 
L 225.403848 497.312557 
L 233.136855 497.283296 
L 240.869862 497.289392 
" clip-path="url(#pa96239ce33)" style="fill: none; stroke: #d97706; stroke-width: 1.4; stroke-linecap: square"/>
   </g>
   <g id="line2d_145">
    <path d="M 63.010693 498.28182 
L 70.7437 498.03798 
L 78.476708 498.28182 
L 86.209715 498.28182 
L 93.942722 498.1599 
L 101.67573 497.794141 
L 109.408737 497.794141 
L 117.141744 497.550301 
L 124.874752 496.696861 
L 132.607759 492.185824 
L 140.340767 465.607279 
L 148.073774 375.752291 
L 155.806781 367.095976 
L 163.539789 457.438644 
L 171.272796 490.722785 
L 179.005803 496.818781 
L 186.738811 498.1599 
L 194.471818 498.03798 
L 202.204825 498.1599 
L 209.937833 498.1599 
L 217.67084 498.28182 
L 225.403848 498.28182 
L 233.136855 498.1599 
L 240.869862 498.28182 
" clip-path="url(#pa96239ce33)" style="fill: none; stroke: #2f6690; stroke-width: 1.4; stroke-linecap: square"/>
   </g>
   <g id="line2d_146">
    <path d="M 151.940278 504.998817 
L 151.940278 357.224892 
" clip-path="url(#pa96239ce33)" style="fill: none; stroke-dasharray: 2.59,1.12; stroke-dashoffset: 0; stroke: #252a31; stroke-width: 0.7"/>
   </g>
   <g id="patch_43">
    <path d="M 54.117734 504.998817 
L 54.117734 357.224892 
" style="fill: none; stroke: #252a31; stroke-width: 0.8; stroke-linejoin: miter; stroke-linecap: square"/>
   </g>
   <g id="patch_44">
    <path d="M 249.762821 504.998817 
L 249.762821 357.224892 
" style="fill: none; stroke: #252a31; stroke-width: 0.8; stroke-linejoin: miter; stroke-linecap: square"/>
   </g>
   <g id="patch_45">
    <path d="M 54.117734 504.998817 
L 249.762821 504.998817 
" style="fill: none; stroke: #252a31; stroke-width: 0.8; stroke-linejoin: miter; stroke-linecap: square"/>
   </g>
   <g id="patch_46">
    <path d="M 54.117734 357.224892 
L 249.762821 357.224892 
" style="fill: none; stroke: #252a31; stroke-width: 0.8; stroke-linejoin: miter; stroke-linecap: square"/>
   </g>
  </g>
  <g id="axes_10">
   <g id="patch_47">
    <path d="M 259.263301 504.998817 
L 454.908387 504.998817 
L 454.908387 357.224892 
L 259.263301 357.224892 
z
" style="fill: #ffffff"/>
   </g>
   <g id="FillBetweenPolyCollection_10">
    <defs>
     <path id="m875a7bee70" d="M 268.156259 -44.894792 
L 268.156259 -43.356241 
L 275.889267 -43.279497 
L 283.622274 -43.356241 
L 291.355281 -43.279497 
L 299.088289 -43.210061 
L 306.821296 -43.356241 
L 314.554303 -43.356241 
L 322.287311 -43.940964 
L 330.020318 -46.495469 
L 337.753326 -56.658672 
L 345.486333 -86.841302 
L 353.21934 -130.479853 
L 360.952348 -130.911086 
L 368.685355 -87.426025 
L 376.418362 -56.658672 
L 384.15137 -46.78783 
L 391.884377 -43.864219 
L 399.617385 -43.356241 
L 407.350392 -43.210061 
L 415.083399 -43.210061 
L 422.816407 -43.356241 
L 430.549414 -43.356241 
L 438.282421 -43.279497 
L 446.015429 -43.210061 
L 446.015429 -44.671866 
L 446.015429 -44.671866 
L 438.282421 -44.602431 
L 430.549414 -44.602431 
L 422.816407 -44.525686 
L 415.083399 -44.602431 
L 407.350392 -44.964227 
L 399.617385 -44.894792 
L 391.884377 -45.69513 
L 384.15137 -49.864931 
L 376.418362 -61.851736 
L 368.685355 -96.065296 
L 360.952348 -142.689584 
L 353.21934 -143.197562 
L 345.486333 -95.188212 
L 337.753326 -61.63612 
L 330.020318 -49.349644 
L 322.287311 -45.69513 
L 314.554303 -44.894792 
L 306.821296 -44.748611 
L 299.088289 -44.679175 
L 291.355281 -44.671866 
L 283.622274 -44.671866 
L 275.889267 -44.671866 
L 268.156259 -44.894792 
z
"/>
    </defs>
    <g clip-path="url(#p2cd549d857)">
     <use xlink:href="#m875a7bee70" x="0" y="541.19952" style="fill: #f7e3c1"/>
    </g>
   </g>
   <g id="matplotlib.axis_19">
    <g id="xtick_28">
     <g id="line2d_147">
      <g>
       <use xlink:href="#mcfe202da74" x="305.532462" y="504.998817" style="fill: #252a31; stroke: #252a31; stroke-width: 0.8"/>
      </g>
     </g>
     <g id="text_29">
      <text style="font-size: 9px; font-family: 'DejaVu Sans'; text-anchor: middle; fill: #252a31" x="305.532462" y="518.836707" transform="rotate(-0 305.532462 518.836707)">−100</text>
     </g>
    </g>
    <g id="xtick_29">
     <g id="line2d_148">
      <g>
       <use xlink:href="#mcfe202da74" x="357.085844" y="504.998817" style="fill: #252a31; stroke: #252a31; stroke-width: 0.8"/>
      </g>
     </g>
     <g id="text_30">
      <text style="font-size: 9px; font-family: 'DejaVu Sans'; text-anchor: middle; fill: #252a31" x="357.085844" y="518.836707" transform="rotate(-0 357.085844 518.836707)">0</text>
     </g>
    </g>
    <g id="xtick_30">
     <g id="line2d_149">
      <g>
       <use xlink:href="#mcfe202da74" x="408.639226" y="504.998817" style="fill: #252a31; stroke: #252a31; stroke-width: 0.8"/>
      </g>
     </g>
     <g id="text_31">
      <text style="font-size: 9px; font-family: 'DejaVu Sans'; text-anchor: middle; fill: #252a31" x="408.639226" y="518.836707" transform="rotate(-0 408.639226 518.836707)">100</text>
     </g>
    </g>
    <g id="text_32">
     <text style="font-size: 9px; font-family: 'DejaVu Sans'; text-anchor: middle; fill: #252a31" x="357.085844" y="531.837411" transform="rotate(-0 357.085844 531.837411)">Response - stimulus (deg)</text>
    </g>
   </g>
   <g id="matplotlib.axis_20">
    <g id="ytick_46">
     <g id="line2d_150">
      <path d="M 259.263301 498.28182 
L 454.908387 498.28182 
" clip-path="url(#p2cd549d857)" style="fill: none; stroke: #d9dee5; stroke-width: 0.5; stroke-linecap: square"/>
     </g>
     <g id="line2d_151">
      <g>
       <use xlink:href="#m5289b1a0c6" x="259.263301" y="498.28182" style="fill: #252a31; stroke: #252a31; stroke-width: 0.8"/>
      </g>
     </g>
    </g>
    <g id="ytick_47">
     <g id="line2d_152">
      <path d="M 259.263301 463.607792 
L 454.908387 463.607792 
" clip-path="url(#p2cd549d857)" style="fill: none; stroke: #d9dee5; stroke-width: 0.5; stroke-linecap: square"/>
     </g>
     <g id="line2d_153">
      <g>
       <use xlink:href="#m5289b1a0c6" x="259.263301" y="463.607792" style="fill: #252a31; stroke: #252a31; stroke-width: 0.8"/>
      </g>
     </g>
    </g>
    <g id="ytick_48">
     <g id="line2d_154">
      <path d="M 259.263301 428.933764 
L 454.908387 428.933764 
" clip-path="url(#p2cd549d857)" style="fill: none; stroke: #d9dee5; stroke-width: 0.5; stroke-linecap: square"/>
     </g>
     <g id="line2d_155">
      <g>
       <use xlink:href="#m5289b1a0c6" x="259.263301" y="428.933764" style="fill: #252a31; stroke: #252a31; stroke-width: 0.8"/>
      </g>
     </g>
    </g>
    <g id="ytick_49">
     <g id="line2d_156">
      <path d="M 259.263301 394.259736 
L 454.908387 394.259736 
" clip-path="url(#p2cd549d857)" style="fill: none; stroke: #d9dee5; stroke-width: 0.5; stroke-linecap: square"/>
     </g>
     <g id="line2d_157">
      <g>
       <use xlink:href="#m5289b1a0c6" x="259.263301" y="394.259736" style="fill: #252a31; stroke: #252a31; stroke-width: 0.8"/>
      </g>
     </g>
    </g>
    <g id="ytick_50">
     <g id="line2d_158">
      <path d="M 259.263301 359.585708 
L 454.908387 359.585708 
" clip-path="url(#p2cd549d857)" style="fill: none; stroke: #d9dee5; stroke-width: 0.5; stroke-linecap: square"/>
     </g>
     <g id="line2d_159">
      <g>
       <use xlink:href="#m5289b1a0c6" x="259.263301" y="359.585708" style="fill: #252a31; stroke: #252a31; stroke-width: 0.8"/>
      </g>
     </g>
    </g>
   </g>
   <g id="line2d_160">
    <path d="M 268.156259 497.210317 
L 275.889267 497.258556 
L 283.622274 497.257095 
L 291.355281 497.238091 
L 299.088289 497.300949 
L 306.821296 497.251247 
L 314.554303 497.144536 
L 322.287311 496.444331 
L 330.020318 493.107029 
L 337.753326 481.953452 
L 345.486333 450.033466 
L 353.21934 403.698615 
L 360.952348 404.454368 
L 368.685355 449.418046 
L 376.418362 482.009001 
L 384.15137 493.025167 
L 391.884377 496.498418 
L 399.617385 497.189852 
L 407.350392 497.249786 
L 415.083399 497.315567 
L 422.816407 497.258556 
L 430.549414 497.248324 
L 438.282421 497.216164 
L 446.015429 497.242477 
" clip-path="url(#p2cd549d857)" style="fill: none; stroke: #d97706; stroke-width: 1.4; stroke-linecap: square"/>
   </g>
   <g id="line2d_161">
    <path d="M 268.156259 498.13564 
L 275.889267 498.13564 
L 283.622274 498.28182 
L 291.355281 498.13564 
L 299.088289 497.989459 
L 306.821296 498.28182 
L 314.554303 498.13564 
L 322.287311 497.404737 
L 330.020318 496.673834 
L 337.753326 487.318279 
L 345.486333 461.44432 
L 353.21934 389.231125 
L 360.952348 363.941889 
L 368.685355 456.474181 
L 376.418362 490.534251 
L 384.15137 496.966195 
L 391.884377 497.843279 
L 399.617385 497.989459 
L 407.350392 498.28182 
L 415.083399 497.989459 
L 422.816407 498.28182 
L 430.549414 498.28182 
L 438.282421 498.13564 
L 446.015429 498.13564 
" clip-path="url(#p2cd549d857)" style="fill: none; stroke: #2f6690; stroke-width: 1.4; stroke-linecap: square"/>
   </g>
   <g id="line2d_162">
    <path d="M 357.085844 504.998817 
L 357.085844 357.224892 
" clip-path="url(#p2cd549d857)" style="fill: none; stroke-dasharray: 2.59,1.12; stroke-dashoffset: 0; stroke: #252a31; stroke-width: 0.7"/>
   </g>
   <g id="patch_48">
    <path d="M 259.263301 504.998817 
L 259.263301 357.224892 
" style="fill: none; stroke: #252a31; stroke-width: 0.8; stroke-linejoin: miter; stroke-linecap: square"/>
   </g>
   <g id="patch_49">
    <path d="M 454.908387 504.998817 
L 454.908387 357.224892 
" style="fill: none; stroke: #252a31; stroke-width: 0.8; stroke-linejoin: miter; stroke-linecap: square"/>
   </g>
   <g id="patch_50">
    <path d="M 259.263301 504.998817 
L 454.908387 504.998817 
" style="fill: none; stroke: #252a31; stroke-width: 0.8; stroke-linejoin: miter; stroke-linecap: square"/>
   </g>
   <g id="patch_51">
    <path d="M 259.263301 357.224892 
L 454.908387 357.224892 
" style="fill: none; stroke: #252a31; stroke-width: 0.8; stroke-linejoin: miter; stroke-linecap: square"/>
   </g>
  </g>
  <g id="axes_11">
   <g id="patch_52">
    <path d="M 464.408867 504.998817 
L 660.053954 504.998817 
L 660.053954 357.224892 
L 464.408867 357.224892 
z
" style="fill: #ffffff"/>
   </g>
   <g id="FillBetweenPolyCollection_11">
    <defs>
     <path id="m33ae28a631" d="M 473.301826 -44.857297 
L 473.301826 -43.216099 
L 481.034833 -43.286969 
L 488.76784 -43.365299 
L 496.500848 -43.365299 
L 504.233855 -43.436169 
L 511.966862 -44.111298 
L 519.69987 -45.595836 
L 527.432877 -47.692093 
L 535.165885 -50.746958 
L 542.898892 -58.348687 
L 550.631899 -82.59738 
L 558.364907 -118.931256 
L 566.097914 -120.251674 
L 573.830921 -79.990114 
L 581.563929 -58.945486 
L 589.296936 -51.045358 
L 597.029944 -47.613763 
L 604.762951 -45.454096 
L 612.495958 -44.260498 
L 620.228966 -43.514499 
L 627.961973 -43.286969 
L 635.69498 -43.365299 
L 643.427988 -43.286969 
L 651.160995 -43.216099 
L 651.160995 -44.786427 
L 651.160995 -44.786427 
L 643.427988 -44.857297 
L 635.69498 -44.786427 
L 627.961973 -44.857297 
L 620.228966 -45.155696 
L 612.495958 -46.200095 
L 604.762951 -47.990492 
L 597.029944 -51.422087 
L 589.296936 -55.913 
L 581.563929 -63.585599 
L 573.830921 -90.449018 
L 566.097914 -131.329757 
L 558.364907 -132.310746 
L 550.631899 -90.967488 
L 542.898892 -64.850067 
L 535.165885 -55.301281 
L 527.432877 -51.798816 
L 519.69987 -48.516421 
L 511.966862 -45.980025 
L 504.233855 -45.155696 
L 496.500848 -44.935627 
L 488.76784 -44.786427 
L 481.034833 -44.637227 
L 473.301826 -44.857297 
z
"/>
    </defs>
    <g clip-path="url(#pe8f385f834)">
     <use xlink:href="#m33ae28a631" x="0" y="541.19952" style="fill: #f7e3c1"/>
    </g>
   </g>
   <g id="matplotlib.axis_21">
    <g id="xtick_31">
     <g id="line2d_163">
      <g>
       <use xlink:href="#mcfe202da74" x="510.678028" y="504.998817" style="fill: #252a31; stroke: #252a31; stroke-width: 0.8"/>
      </g>
     </g>
     <g id="text_33">
      <text style="font-size: 9px; font-family: 'DejaVu Sans'; text-anchor: middle; fill: #252a31" x="510.678028" y="518.836707" transform="rotate(-0 510.678028 518.836707)">−100</text>
     </g>
    </g>
    <g id="xtick_32">
     <g id="line2d_164">
      <g>
       <use xlink:href="#mcfe202da74" x="562.23141" y="504.998817" style="fill: #252a31; stroke: #252a31; stroke-width: 0.8"/>
      </g>
     </g>
     <g id="text_34">
      <text style="font-size: 9px; font-family: 'DejaVu Sans'; text-anchor: middle; fill: #252a31" x="562.23141" y="518.836707" transform="rotate(-0 562.23141 518.836707)">0</text>
     </g>
    </g>
    <g id="xtick_33">
     <g id="line2d_165">
      <g>
       <use xlink:href="#mcfe202da74" x="613.784793" y="504.998817" style="fill: #252a31; stroke: #252a31; stroke-width: 0.8"/>
      </g>
     </g>
     <g id="text_35">
      <text style="font-size: 9px; font-family: 'DejaVu Sans'; text-anchor: middle; fill: #252a31" x="613.784793" y="518.836707" transform="rotate(-0 613.784793 518.836707)">100</text>
     </g>
    </g>
    <g id="text_36">
     <text style="font-size: 9px; font-family: 'DejaVu Sans'; text-anchor: middle; fill: #252a31" x="562.23141" y="531.837411" transform="rotate(-0 562.23141 531.837411)">Response - stimulus (deg)</text>
    </g>
   </g>
   <g id="matplotlib.axis_22">
    <g id="ytick_51">
     <g id="line2d_166">
      <path d="M 464.408867 498.28182 
L 660.053954 498.28182 
" clip-path="url(#pe8f385f834)" style="fill: none; stroke: #d9dee5; stroke-width: 0.5; stroke-linecap: square"/>
     </g>
     <g id="line2d_167">
      <g>
       <use xlink:href="#m5289b1a0c6" x="464.408867" y="498.28182" style="fill: #252a31; stroke: #252a31; stroke-width: 0.8"/>
      </g>
     </g>
    </g>
    <g id="ytick_52">
     <g id="line2d_168">
      <path d="M 464.408867 463.607792 
L 660.053954 463.607792 
" clip-path="url(#pe8f385f834)" style="fill: none; stroke: #d9dee5; stroke-width: 0.5; stroke-linecap: square"/>
     </g>
     <g id="line2d_169">
      <g>
       <use xlink:href="#m5289b1a0c6" x="464.408867" y="463.607792" style="fill: #252a31; stroke: #252a31; stroke-width: 0.8"/>
      </g>
     </g>
    </g>
    <g id="ytick_53">
     <g id="line2d_170">
      <path d="M 464.408867 428.933764 
L 660.053954 428.933764 
" clip-path="url(#pe8f385f834)" style="fill: none; stroke: #d9dee5; stroke-width: 0.5; stroke-linecap: square"/>
     </g>
     <g id="line2d_171">
      <g>
       <use xlink:href="#m5289b1a0c6" x="464.408867" y="428.933764" style="fill: #252a31; stroke: #252a31; stroke-width: 0.8"/>
      </g>
     </g>
    </g>
    <g id="ytick_54">
     <g id="line2d_172">
      <path d="M 464.408867 394.259736 
L 660.053954 394.259736 
" clip-path="url(#pe8f385f834)" style="fill: none; stroke: #d9dee5; stroke-width: 0.5; stroke-linecap: square"/>
     </g>
     <g id="line2d_173">
      <g>
       <use xlink:href="#m5289b1a0c6" x="464.408867" y="394.259736" style="fill: #252a31; stroke: #252a31; stroke-width: 0.8"/>
      </g>
     </g>
    </g>
    <g id="ytick_55">
     <g id="line2d_174">
      <path d="M 464.408867 359.585708 
L 660.053954 359.585708 
" clip-path="url(#pe8f385f834)" style="fill: none; stroke: #d9dee5; stroke-width: 0.5; stroke-linecap: square"/>
     </g>
     <g id="line2d_175">
      <g>
       <use xlink:href="#m5289b1a0c6" x="464.408867" y="359.585708" style="fill: #252a31; stroke: #252a31; stroke-width: 0.8"/>
      </g>
     </g>
    </g>
   </g>
   <g id="line2d_176">
    <path d="M 473.301826 497.255326 
L 481.034833 497.292626 
L 488.76784 497.195646 
L 496.500848 497.197138 
L 504.233855 496.943498 
L 511.966862 496.172135 
L 519.69987 494.299678 
L 527.432877 491.666302 
L 535.165885 488.063128 
L 542.898892 479.76762 
L 550.631899 454.387246 
L 558.364907 415.222305 
L 566.097914 415.565464 
L 573.830921 455.012393 
L 581.563929 479.875044 
L 589.296936 487.961672 
L 597.029944 491.67973 
L 604.762951 494.513034 
L 612.495958 496.131852 
L 620.228966 496.867406 
L 627.961973 497.226978 
L 635.69498 497.219518 
L 643.427988 497.234438 
L 651.160995 497.27323 
" clip-path="url(#pe8f385f834)" style="fill: none; stroke: #d97706; stroke-width: 1.4; stroke-linecap: square"/>
   </g>
   <g id="line2d_177">
    <path d="M 473.301826 497.834221 
L 481.034833 498.28182 
L 488.76784 497.685021 
L 496.500848 498.28182 
L 504.233855 498.28182 
L 511.966862 497.535821 
L 519.69987 497.386622 
L 527.432877 496.640623 
L 535.165885 493.805827 
L 542.898892 486.196638 
L 550.631899 454.417086 
L 558.364907 388.470785 
L 566.097914 392.648379 
L 573.830921 446.957097 
L 581.563929 487.987036 
L 589.296936 496.193023 
L 597.029944 497.535821 
L 604.762951 497.983421 
L 612.495958 497.685021 
L 620.228966 497.834221 
L 627.961973 497.834221 
L 635.69498 498.132621 
L 643.427988 498.132621 
L 651.160995 498.28182 
" clip-path="url(#pe8f385f834)" style="fill: none; stroke: #2f6690; stroke-width: 1.4; stroke-linecap: square"/>
   </g>
   <g id="line2d_178">
    <path d="M 562.23141 504.998817 
L 562.23141 357.224892 
" clip-path="url(#pe8f385f834)" style="fill: none; stroke-dasharray: 2.59,1.12; stroke-dashoffset: 0; stroke: #252a31; stroke-width: 0.7"/>
   </g>
   <g id="patch_53">
    <path d="M 464.408867 504.998817 
L 464.408867 357.224892 
" style="fill: none; stroke: #252a31; stroke-width: 0.8; stroke-linejoin: miter; stroke-linecap: square"/>
   </g>
   <g id="patch_54">
    <path d="M 660.053954 504.998817 
L 660.053954 357.224892 
" style="fill: none; stroke: #252a31; stroke-width: 0.8; stroke-linejoin: miter; stroke-linecap: square"/>
   </g>
   <g id="patch_55">
    <path d="M 464.408867 504.998817 
L 660.053954 504.998817 
" style="fill: none; stroke: #252a31; stroke-width: 0.8; stroke-linejoin: miter; stroke-linecap: square"/>
   </g>
   <g id="patch_56">
    <path d="M 464.408867 357.224892 
L 660.053954 357.224892 
" style="fill: none; stroke: #252a31; stroke-width: 0.8; stroke-linejoin: miter; stroke-linecap: square"/>
   </g>
  </g>
  <g id="axes_12">
   <g id="patch_57">
    <path d="M 669.554434 504.998817 
L 865.19952 504.998817 
L 865.19952 357.224892 
L 669.554434 357.224892 
z
" style="fill: #ffffff"/>
   </g>
   <g id="FillBetweenPolyCollection_12">
    <defs>
     <path id="mc6894c1ec4" d="M 678.447392 -46.584534 
L 678.447392 -45.226608 
L 686.180399 -45.600362 
L 693.913407 -45.861558 
L 701.646414 -46.466203 
L 709.379422 -47.274321 
L 717.112429 -47.67838 
L 724.845436 -48.340748 
L 732.578444 -49.094029 
L 740.311451 -49.954097 
L 748.044458 -55.297777 
L 755.777466 -77.867354 
L 763.510473 -113.223953 
L 771.24348 -113.594821 
L 778.976488 -76.974095 
L 786.709495 -55.413222 
L 794.442503 -49.775157 
L 802.17551 -49.006002 
L 809.908517 -48.39847 
L 817.641525 -47.560048 
L 825.374532 -47.158875 
L 833.107539 -46.40848 
L 840.840547 -45.977003 
L 848.573554 -45.427194 
L 856.306562 -45.311749 
L 856.306562 -46.930871 
L 856.306562 -46.930871 
L 848.573554 -47.073734 
L 840.840547 -47.593239 
L 833.107539 -48.373938 
L 825.374532 -49.094029 
L 817.641525 -49.990174 
L 809.908517 -50.685733 
L 802.17551 -51.548687 
L 794.442503 -52.846005 
L 786.709495 -58.387384 
L 778.976488 -82.639578 
L 771.24348 -121.891017 
L 763.510473 -121.383057 
L 755.777466 -82.28747 
L 748.044458 -58.271939 
L 740.311451 -52.618 
L 732.578444 -51.433242 
L 724.845436 -50.743455 
L 717.112429 -49.902147 
L 709.379422 -49.124333 
L 701.646414 -48.285911 
L 693.913407 -47.681266 
L 686.180399 -47.046316 
L 678.447392 -46.584534 
z
"/>
    </defs>
    <g clip-path="url(#p7bf2989a5e)">
     <use xlink:href="#mc6894c1ec4" x="0" y="541.19952" style="fill: #f7e3c1"/>
    </g>
   </g>
   <g id="matplotlib.axis_23">
    <g id="xtick_34">
     <g id="line2d_179">
      <g>
       <use xlink:href="#mcfe202da74" x="715.823594" y="504.998817" style="fill: #252a31; stroke: #252a31; stroke-width: 0.8"/>
      </g>
     </g>
     <g id="text_37">
      <text style="font-size: 9px; font-family: 'DejaVu Sans'; text-anchor: middle; fill: #252a31" x="715.823594" y="518.836707" transform="rotate(-0 715.823594 518.836707)">−100</text>
     </g>
    </g>
    <g id="xtick_35">
     <g id="line2d_180">
      <g>
       <use xlink:href="#mcfe202da74" x="767.376977" y="504.998817" style="fill: #252a31; stroke: #252a31; stroke-width: 0.8"/>
      </g>
     </g>
     <g id="text_38">
      <text style="font-size: 9px; font-family: 'DejaVu Sans'; text-anchor: middle; fill: #252a31" x="767.376977" y="518.836707" transform="rotate(-0 767.376977 518.836707)">0</text>
     </g>
    </g>
    <g id="xtick_36">
     <g id="line2d_181">
      <g>
       <use xlink:href="#mcfe202da74" x="818.930359" y="504.998817" style="fill: #252a31; stroke: #252a31; stroke-width: 0.8"/>
      </g>
     </g>
     <g id="text_39">
      <text style="font-size: 9px; font-family: 'DejaVu Sans'; text-anchor: middle; fill: #252a31" x="818.930359" y="518.836707" transform="rotate(-0 818.930359 518.836707)">100</text>
     </g>
    </g>
    <g id="text_40">
     <text style="font-size: 9px; font-family: 'DejaVu Sans'; text-anchor: middle; fill: #252a31" x="767.376977" y="531.837411" transform="rotate(-0 767.376977 531.837411)">Response - stimulus (deg)</text>
    </g>
   </g>
   <g id="matplotlib.axis_24">
    <g id="ytick_56">
     <g id="line2d_182">
      <path d="M 669.554434 498.28182 
L 865.19952 498.28182 
" clip-path="url(#p7bf2989a5e)" style="fill: none; stroke: #d9dee5; stroke-width: 0.5; stroke-linecap: square"/>
     </g>
     <g id="line2d_183">
      <g>
       <use xlink:href="#m5289b1a0c6" x="669.554434" y="498.28182" style="fill: #252a31; stroke: #252a31; stroke-width: 0.8"/>
      </g>
     </g>
    </g>
    <g id="ytick_57">
     <g id="line2d_184">
      <path d="M 669.554434 463.607792 
L 865.19952 463.607792 
" clip-path="url(#p7bf2989a5e)" style="fill: none; stroke: #d9dee5; stroke-width: 0.5; stroke-linecap: square"/>
     </g>
     <g id="line2d_185">
      <g>
       <use xlink:href="#m5289b1a0c6" x="669.554434" y="463.607792" style="fill: #252a31; stroke: #252a31; stroke-width: 0.8"/>
      </g>
     </g>
    </g>
    <g id="ytick_58">
     <g id="line2d_186">
      <path d="M 669.554434 428.933764 
L 865.19952 428.933764 
" clip-path="url(#p7bf2989a5e)" style="fill: none; stroke: #d9dee5; stroke-width: 0.5; stroke-linecap: square"/>
     </g>
     <g id="line2d_187">
      <g>
       <use xlink:href="#m5289b1a0c6" x="669.554434" y="428.933764" style="fill: #252a31; stroke: #252a31; stroke-width: 0.8"/>
      </g>
     </g>
    </g>
    <g id="ytick_59">
     <g id="line2d_188">
      <path d="M 669.554434 394.259736 
L 865.19952 394.259736 
" clip-path="url(#p7bf2989a5e)" style="fill: none; stroke: #d9dee5; stroke-width: 0.5; stroke-linecap: square"/>
     </g>
     <g id="line2d_189">
      <g>
       <use xlink:href="#m5289b1a0c6" x="669.554434" y="394.259736" style="fill: #252a31; stroke: #252a31; stroke-width: 0.8"/>
      </g>
     </g>
    </g>
    <g id="ytick_60">
     <g id="line2d_190">
      <path d="M 669.554434 359.585708 
L 865.19952 359.585708 
" clip-path="url(#p7bf2989a5e)" style="fill: none; stroke: #d9dee5; stroke-width: 0.5; stroke-linecap: square"/>
     </g>
     <g id="line2d_191">
      <g>
       <use xlink:href="#m5289b1a0c6" x="669.554434" y="359.585708" style="fill: #252a31; stroke: #252a31; stroke-width: 0.8"/>
      </g>
     </g>
    </g>
   </g>
   <g id="line2d_192">
    <path d="M 678.447392 495.24272 
L 686.180399 494.943716 
L 693.913407 494.453651 
L 701.646414 493.752897 
L 709.379422 493.110443 
L 717.112429 492.389487 
L 724.845436 491.713554 
L 732.578444 490.938338 
L 740.311451 489.872777 
L 748.044458 484.374112 
L 755.777466 461.310429 
L 763.510473 424.023871 
L 771.24348 423.685039 
L 778.976488 461.557482 
L 786.709495 484.379307 
L 794.442503 489.808705 
L 802.17551 490.956232 
L 809.908517 491.735488 
L 817.641525 492.445478 
L 825.374532 493.060802 
L 833.107539 493.818124 
L 840.840547 494.335896 
L 848.573554 494.912546 
L 856.306562 495.202314 
" clip-path="url(#p7bf2989a5e)" style="fill: none; stroke: #d97706; stroke-width: 1.4; stroke-linecap: square"/>
   </g>
   <g id="line2d_193">
    <path d="M 678.447392 497.531425 
L 686.180399 497.646871 
L 693.913407 497.935484 
L 701.646414 497.820039 
L 709.379422 497.820039 
L 717.112429 497.589148 
L 724.845436 497.473702 
L 732.578444 496.896475 
L 740.311451 493.606281 
L 748.044458 486.217775 
L 755.777466 448.409404 
L 763.510473 393.284222 
L 771.24348 392.418382 
L 778.976488 452.854053 
L 786.709495 488.23807 
L 794.442503 495.742021 
L 802.17551 497.127366 
L 809.908517 497.762316 
L 817.641525 497.704593 
L 825.374532 497.762316 
L 833.107539 497.646871 
L 840.840547 497.531425 
L 848.573554 497.646871 
L 856.306562 497.358257 
" clip-path="url(#p7bf2989a5e)" style="fill: none; stroke: #2f6690; stroke-width: 1.4; stroke-linecap: square"/>
   </g>
   <g id="line2d_194">
    <path d="M 767.376977 504.998817 
L 767.376977 357.224892 
" clip-path="url(#p7bf2989a5e)" style="fill: none; stroke-dasharray: 2.59,1.12; stroke-dashoffset: 0; stroke: #252a31; stroke-width: 0.7"/>
   </g>
   <g id="patch_58">
    <path d="M 669.554434 504.998817 
L 669.554434 357.224892 
" style="fill: none; stroke: #252a31; stroke-width: 0.8; stroke-linejoin: miter; stroke-linecap: square"/>
   </g>
   <g id="patch_59">
    <path d="M 865.19952 504.998817 
L 865.19952 357.224892 
" style="fill: none; stroke: #252a31; stroke-width: 0.8; stroke-linejoin: miter; stroke-linecap: square"/>
   </g>
   <g id="patch_60">
    <path d="M 669.554434 504.998817 
L 865.19952 504.998817 
" style="fill: none; stroke: #252a31; stroke-width: 0.8; stroke-linejoin: miter; stroke-linecap: square"/>
   </g>
   <g id="patch_61">
    <path d="M 669.554434 357.224892 
L 865.19952 357.224892 
" style="fill: none; stroke: #252a31; stroke-width: 0.8; stroke-linejoin: miter; stroke-linecap: square"/>
   </g>
  </g>
  <g id="text_41">
   <text style="font-weight: 700; font-size: 13px; font-family: 'DejaVu Sans'; text-anchor: middle; fill: #252a31" x="436.19976" y="17.077969" transform="rotate(-0 436.19976 17.077969)">Static HMM response distributions relative to the stimulus</text>
  </g>
 </g>
 <defs>
  <clipPath id="pb701a1a255">
   <rect x="54.117734" y="40.559777" width="195.645086" height="147.773925"/>
  </clipPath>
  <clipPath id="pa1adf1a530">
   <rect x="259.263301" y="40.559777" width="195.645086" height="147.773925"/>
  </clipPath>
  <clipPath id="p40242256c8">
   <rect x="464.408867" y="40.559777" width="195.645086" height="147.773925"/>
  </clipPath>
  <clipPath id="pe9383ccf04">
   <rect x="669.554434" y="40.559777" width="195.645086" height="147.773925"/>
  </clipPath>
  <clipPath id="p63be0e983f">
   <rect x="54.117734" y="198.892335" width="195.645086" height="147.773925"/>
  </clipPath>
  <clipPath id="p61458cefb2">
   <rect x="259.263301" y="198.892335" width="195.645086" height="147.773925"/>
  </clipPath>
  <clipPath id="p0f16431888">
   <rect x="464.408867" y="198.892335" width="195.645086" height="147.773925"/>
  </clipPath>
  <clipPath id="p1894244930">
   <rect x="669.554434" y="198.892335" width="195.645086" height="147.773925"/>
  </clipPath>
  <clipPath id="pa96239ce33">
   <rect x="54.117734" y="357.224892" width="195.645086" height="147.773925"/>
  </clipPath>
  <clipPath id="p2cd549d857">
   <rect x="259.263301" y="357.224892" width="195.645086" height="147.773925"/>
  </clipPath>
  <clipPath id="pe8f385f834">
   <rect x="464.408867" y="357.224892" width="195.645086" height="147.773925"/>
  </clipPath>
  <clipPath id="p7bf2989a5e">
   <rect x="669.554434" y="357.224892" width="195.645086" height="147.773925"/>
  </clipPath>
 </defs>
</svg>
