<?xml version="1.0" encoding="utf-8" standalone="no"?>
<!DOCTYPE svg PUBLIC "-//W3C//DTD SVG 1.1//EN"
  "http://www.w3.org/Graphics/SVG/1.1/DTD/svg11.dtd">
<svg xmlns:xlink="http://www.w3.org/1999/xlink" width="872.39952pt" height="541.19952pt" viewBox="0 0 872.39952 541.19952" xmlns="http://www.w3.org/2000/svg" version="1.1">
 <metadata>
  <rdf:RDF xmlns:dc="http://purl.org/dc/elements/1.1/" xmlns:cc="http://creativecommons.org/ns#" xmlns:rdf="http://www.w3.org/1999/02/22-rdf-syntax-ns#">
   <cc:Work>
    <dc:type rdf:resource="http://purl.org/dc/dcmitype/StillImage"/>
    <dc:date>2026-07-17T22:19:18.146677</dc:date>
    <dc:format>image/svg+xml</dc:format>
    <dc:creator>
     <cc:Agent>
      <dc:title>Matplotlib v3.11.0, https://matplotlib.org/</dc:title>
     </cc:Agent>
    </dc:creator>
   </cc:Work>
  </rdf:RDF>
 </metadata>
 <defs>
  <style type="text/css">*{stroke-linejoin: round; stroke-linecap: butt}</style>
 </defs>
 <g id="figure_1">
  <g id="patch_1">
   <path d="M 0 541.19952 
L 872.39952 541.19952 
L 872.39952 0 
L 0 0 
z
" style="fill: #ffffff"/>
  </g>
  <g id="axes_1">
   <g id="patch_2">
    <path d="M 54.117734 189.039137 
L 249.762821 189.039137 
L 249.762821 40.559777 
L 54.117734 40.559777 
z
" style="fill: #ffffff"/>
   </g>
   <g id="FillBetweenPolyCollection_1">
    <defs>
     <path id="m5abf8acf0d" d="M 63.010693 -361.391564 
L 63.010693 -360.251223 
L 70.7437 -360.272846 
L 78.476708 -360.591504 
L 86.209715 -360.998931 
L 93.942722 -361.935558 
L 101.67573 -363.095246 
L 109.408737 -364.961672 
L 117.141744 -367.733997 
L 124.874752 -371.356456 
L 132.607759 -377.113925 
L 140.340767 -393.456531 
L 148.073774 -432.790316 
L 155.806781 -433.18181 
L 163.539789 -393.86851 
L 171.272796 -376.704221 
L 179.005803 -371.516923 
L 186.738811 -367.757896 
L 194.471818 -364.690813 
L 202.204825 -362.869909 
L 209.937833 -361.820614 
L 217.67084 -361.183298 
L 225.403848 -360.59378 
L 233.136855 -360.457213 
L 240.869862 -360.275122 
L 240.869862 -361.528131 
L 240.869862 -361.528131 
L 233.136855 -361.597553 
L 225.403848 -361.846789 
L 217.67084 -362.325915 
L 209.937833 -363.351311 
L 202.204825 -364.738611 
L 194.471818 -367.331122 
L 186.738811 -370.752144 
L 179.005803 -374.614735 
L 171.272796 -380.853605 
L 163.539789 -397.742482 
L 155.806781 -442.285188 
L 148.073774 -443.401629 
L 140.340767 -398.09642 
L 132.607759 -380.647615 
L 124.874752 -374.892423 
L 117.141744 -370.587125 
L 109.408737 -367.42672 
L 101.67573 -364.781858 
L 93.942722 -363.349035 
L 86.209715 -362.39306 
L 78.476708 -361.985633 
L 70.7437 -361.710222 
L 63.010693 -361.391564 
z
"/>
    </defs>
    <g clip-path="url(#pef541a6456)">
     <use xlink:href="#m5abf8acf0d" x="0" y="541.19952" style="fill: #f7e3c1"/>
    </g>
   </g>
   <g id="matplotlib.axis_1">
    <g id="xtick_1">
     <g id="line2d_1">
      <defs>
       <path id="m8e6bd741e7" d="M 0 0 
L 0 3.5 
" style="stroke: #252a31; stroke-width: 0.8"/>
      </defs>
      <g>
       <use xlink:href="#m8e6bd741e7" x="100.386895" y="189.039137" style="fill: #252a31; stroke: #252a31; stroke-width: 0.8"/>
      </g>
     </g>
    </g>
    <g id="xtick_2">
     <g id="line2d_2">
      <g>
       <use xlink:href="#m8e6bd741e7" x="151.940278" y="189.039137" style="fill: #252a31; stroke: #252a31; stroke-width: 0.8"/>
      </g>
     </g>
    </g>
    <g id="xtick_3">
     <g id="line2d_3">
      <g>
       <use xlink:href="#m8e6bd741e7" x="203.49366" y="189.039137" style="fill: #252a31; stroke: #252a31; stroke-width: 0.8"/>
      </g>
     </g>
    </g>
   </g>
   <g id="matplotlib.axis_2">
    <g id="ytick_1">
     <g id="line2d_4">
      <path d="M 54.117734 182.290075 
L 249.762821 182.290075 
" clip-path="url(#pef541a6456)" style="fill: none; stroke: #d9dee5; stroke-width: 0.5; stroke-linecap: square"/>
     </g>
     <g id="line2d_5">
      <defs>
       <path id="m73627232b2" d="M 0 0 
L -3.5 0 
" style="stroke: #252a31; stroke-width: 0.8"/>
      </defs>
      <g>
       <use xlink:href="#m73627232b2" x="54.117734" y="182.290075" style="fill: #252a31; stroke: #252a31; stroke-width: 0.8"/>
      </g>
     </g>
     <g id="text_1">
      <text style="font-size: 9px; font-family: 'DejaVu Sans'; text-anchor: end; fill: #252a31" x="47.117734" y="185.70902" transform="rotate(-0 47.117734 185.70902)">0.0</text>
     </g>
    </g>
    <g id="ytick_2">
     <g id="line2d_6">
      <path d="M 54.117734 145.271113 
L 249.762821 145.271113 
" clip-path="url(#pef541a6456)" style="fill: none; stroke: #d9dee5; stroke-width: 0.5; stroke-linecap: square"/>
     </g>
     <g id="line2d_7">
      <g>
       <use xlink:href="#m73627232b2" x="54.117734" y="145.271113" style="fill: #252a31; stroke: #252a31; stroke-width: 0.8"/>
      </g>
     </g>
     <g id="text_2">
      <text style="font-size: 9px; font-family: 'DejaVu Sans'; text-anchor: end; fill: #252a31" x="47.117734" y="148.690058" transform="rotate(-0 47.117734 148.690058)">0.1</text>
     </g>
    </g>
    <g id="ytick_3">
     <g id="line2d_8">
      <path d="M 54.117734 108.252151 
L 249.762821 108.252151 
" clip-path="url(#pef541a6456)" style="fill: none; stroke: #d9dee5; stroke-width: 0.5; stroke-linecap: square"/>
     </g>
     <g id="line2d_9">
      <g>
       <use xlink:href="#m73627232b2" x="54.117734" y="108.252151" style="fill: #252a31; stroke: #252a31; stroke-width: 0.8"/>
      </g>
     </g>
     <g id="text_3">
      <text style="font-size: 9px; font-family: 'DejaVu Sans'; text-anchor: end; fill: #252a31" x="47.117734" y="111.671096" transform="rotate(-0 47.117734 111.671096)">0.2</text>
     </g>
    </g>
    <g id="ytick_4">
     <g id="line2d_10">
      <path d="M 54.117734 71.233189 
L 249.762821 71.233189 
" clip-path="url(#pef541a6456)" style="fill: none; stroke: #d9dee5; stroke-width: 0.5; stroke-linecap: square"/>
     </g>
     <g id="line2d_11">
      <g>
       <use xlink:href="#m73627232b2" x="54.117734" y="71.233189" style="fill: #252a31; stroke: #252a31; stroke-width: 0.8"/>
      </g>
     </g>
     <g id="text_4">
      <text style="font-size: 9px; font-family: 'DejaVu Sans'; text-anchor: end; fill: #252a31" x="47.117734" y="74.652134" transform="rotate(-0 47.117734 74.652134)">0.3</text>
     </g>
    </g>
    <g id="text_5">
     <text style="font-size: 9px; font-family: 'DejaVu Sans'; fill: #252a31" transform="translate(14.939473 147.499691) rotate(-90)">Coherence 6%</text>
     <text style="font-size: 9px; font-family: 'DejaVu Sans'; fill: #252a31" transform="translate(25.741934 138.018051) rotate(-90)">Proportion</text>
    </g>
   </g>
   <g id="line2d_12">
    <path d="M 63.010693 180.351268 
L 70.7437 180.222439 
L 78.476708 179.933371 
L 86.209715 179.503638 
L 93.942722 178.607298 
L 101.67573 177.284412 
L 109.408737 175.070194 
L 117.141744 172.031106 
L 124.874752 168.05653 
L 132.607759 162.43085 
L 140.340767 145.533323 
L 148.073774 103.055749 
L 155.806781 103.442235 
L 163.539789 145.484614 
L 171.272796 162.407178 
L 179.005803 168.137105 
L 186.738811 172.022912 
L 194.471818 175.178082 
L 202.204825 177.346778 
L 209.937833 178.62141 
L 217.67084 179.480421 
L 225.403848 179.988909 
L 233.136855 180.248387 
L 240.869862 180.33397 
" clip-path="url(#pef541a6456)" style="fill: none; stroke: #d97706; stroke-width: 1.4; stroke-linecap: square"/>
   </g>
   <g id="line2d_13">
    <path d="M 63.010693 180.924398 
L 70.7437 181.743804 
L 78.476708 181.106488 
L 86.209715 181.060965 
L 93.942722 180.878875 
L 101.67573 181.197533 
L 109.408737 180.924398 
L 117.141744 178.966927 
L 124.874752 177.737817 
L 132.607759 172.184062 
L 140.340767 147.419779 
L 148.073774 59.74329 
L 155.806781 61.427625 
L 163.539789 145.553353 
L 171.272796 166.812398 
L 179.005803 177.646772 
L 186.738811 179.649765 
L 194.471818 180.241559 
L 202.204825 181.197533 
L 209.937833 181.834849 
L 217.67084 181.607236 
L 225.403848 181.743804 
L 233.136855 181.743804 
L 240.869862 181.425146 
" clip-path="url(#pef541a6456)" style="fill: none; stroke: #2f6690; stroke-width: 1.4; stroke-linecap: square"/>
   </g>
   <g id="line2d_14">
    <path d="M 151.940278 189.039137 
L 151.940278 40.559777 
" clip-path="url(#pef541a6456)" style="fill: none; stroke-dasharray: 2.59,1.12; stroke-dashoffset: 0; stroke: #252a31; stroke-width: 0.7"/>
   </g>
   <g id="patch_3">
    <path d="M 54.117734 189.039137 
L 54.117734 40.559777 
" style="fill: none; stroke: #252a31; stroke-width: 0.8; stroke-linejoin: miter; stroke-linecap: square"/>
   </g>
   <g id="patch_4">
    <path d="M 249.762821 189.039137 
L 249.762821 40.559777 
" style="fill: none; stroke: #252a31; stroke-width: 0.8; stroke-linejoin: miter; stroke-linecap: square"/>
   </g>
   <g id="patch_5">
    <path d="M 54.117734 189.039137 
L 249.762821 189.039137 
" style="fill: none; stroke: #252a31; stroke-width: 0.8; stroke-linejoin: miter; stroke-linecap: square"/>
   </g>
   <g id="patch_6">
    <path d="M 54.117734 40.559777 
L 249.762821 40.559777 
" style="fill: none; stroke: #252a31; stroke-width: 0.8; stroke-linejoin: miter; stroke-linecap: square"/>
   </g>
   <g id="text_6">
    <text style="font-size: 11px; font-family: 'DejaVu Sans'; text-anchor: middle; fill: #252a31" x="151.940278" y="34.559777" transform="rotate(-0 151.940278 34.559777)">Prior SD 10 deg</text>
   </g>
  </g>
  <g id="axes_2">
   <g id="patch_7">
    <path d="M 259.263301 189.039137 
L 454.908387 189.039137 
L 454.908387 40.559777 
L 259.263301 40.559777 
z
" style="fill: #ffffff"/>
   </g>
   <g id="FillBetweenPolyCollection_2">
    <defs>
     <path id="m8c64113c64" d="M 268.156259 -361.696854 
L 268.156259 -360.356949 
L 275.889267 -360.583476 
L 283.622274 -360.743177 
L 291.355281 -361.308361 
L 299.088289 -362.140846 
L 306.821296 -363.52832 
L 314.554303 -365.319013 
L 322.287311 -368.468864 
L 330.020318 -372.272244 
L 337.753326 -379.581121 
L 345.486333 -398.363567 
L 353.21934 -422.291562 
L 360.952348 -423.033436 
L 368.685355 -398.411138 
L 376.418362 -379.700048 
L 384.15137 -372.136328 
L 391.884377 -368.6263 
L 399.617385 -365.67919 
L 407.350392 -363.530586 
L 415.083399 -362.080816 
L 422.816407 -361.241535 
L 430.549414 -360.993489 
L 438.282421 -360.495131 
L 446.015429 -360.290124 
L 446.015429 -361.446542 
L 446.015429 -361.446542 
L 438.282421 -361.651548 
L 430.549414 -361.992471 
L 422.816407 -362.648265 
L 415.083399 -363.623462 
L 407.350392 -365.414154 
L 399.617385 -368.061116 
L 391.884377 -371.213232 
L 384.15137 -375.469665 
L 376.418362 -383.655201 
L 368.685355 -402.45237 
L 360.952348 -431.013965 
L 353.21934 -431.581414 
L 345.486333 -403.160266 
L 337.753326 -383.73675 
L 330.020318 -375.719977 
L 322.287311 -371.485064 
L 314.554303 -367.767764 
L 306.821296 -365.366583 
L 299.088289 -363.714072 
L 291.355281 -362.738876 
L 283.622274 -361.968685 
L 275.889267 -361.742159 
L 268.156259 -361.696854 
z
"/>
    </defs>
    <g clip-path="url(#pb7d223f708)">
     <use xlink:href="#m8c64113c64" x="0" y="541.19952" style="fill: #f7e3c1"/>
    </g>
   </g>
   <g id="matplotlib.axis_3">
    <g id="xtick_4">
     <g id="line2d_15">
      <g>
       <use xlink:href="#m8e6bd741e7" x="305.532462" y="189.039137" style="fill: #252a31; stroke: #252a31; stroke-width: 0.8"/>
      </g>
     </g>
    </g>
    <g id="xtick_5">
     <g id="line2d_16">
      <g>
       <use xlink:href="#m8e6bd741e7" x="357.085844" y="189.039137" style="fill: #252a31; stroke: #252a31; stroke-width: 0.8"/>
      </g>
     </g>
    </g>
    <g id="xtick_6">
     <g id="line2d_17">
      <g>
       <use xlink:href="#m8e6bd741e7" x="408.639226" y="189.039137" style="fill: #252a31; stroke: #252a31; stroke-width: 0.8"/>
      </g>
     </g>
    </g>
   </g>
   <g id="matplotlib.axis_4">
    <g id="ytick_5">
     <g id="line2d_18">
      <path d="M 259.263301 182.290075 
L 454.908387 182.290075 
" clip-path="url(#pb7d223f708)" style="fill: none; stroke: #d9dee5; stroke-width: 0.5; stroke-linecap: square"/>
     </g>
     <g id="line2d_19">
      <g>
       <use xlink:href="#m73627232b2" x="259.263301" y="182.290075" style="fill: #252a31; stroke: #252a31; stroke-width: 0.8"/>
      </g>
     </g>
    </g>
    <g id="ytick_6">
     <g id="line2d_20">
      <path d="M 259.263301 145.271113 
L 454.908387 145.271113 
" clip-path="url(#pb7d223f708)" style="fill: none; stroke: #d9dee5; stroke-width: 0.5; stroke-linecap: square"/>
     </g>
     <g id="line2d_21">
      <g>
       <use xlink:href="#m73627232b2" x="259.263301" y="145.271113" style="fill: #252a31; stroke: #252a31; stroke-width: 0.8"/>
      </g>
     </g>
    </g>
    <g id="ytick_7">
     <g id="line2d_22">
      <path d="M 259.263301 108.252151 
L 454.908387 108.252151 
" clip-path="url(#pb7d223f708)" style="fill: none; stroke: #d9dee5; stroke-width: 0.5; stroke-linecap: square"/>
     </g>
     <g id="line2d_23">
      <g>
       <use xlink:href="#m73627232b2" x="259.263301" y="108.252151" style="fill: #252a31; stroke: #252a31; stroke-width: 0.8"/>
      </g>
     </g>
    </g>
    <g id="ytick_8">
     <g id="line2d_24">
      <path d="M 259.263301 71.233189 
L 454.908387 71.233189 
" clip-path="url(#pb7d223f708)" style="fill: none; stroke: #d9dee5; stroke-width: 0.5; stroke-linecap: square"/>
     </g>
     <g id="line2d_25">
      <g>
       <use xlink:href="#m73627232b2" x="259.263301" y="71.233189" style="fill: #252a31; stroke: #252a31; stroke-width: 0.8"/>
      </g>
     </g>
    </g>
   </g>
   <g id="line2d_26">
    <path d="M 268.156259 180.240463 
L 275.889267 180.110437 
L 283.622274 179.825014 
L 291.355281 179.233326 
L 299.088289 178.284633 
L 306.821296 176.77642 
L 314.554303 174.656132 
L 322.287311 171.450329 
L 330.020318 167.31622 
L 337.753326 159.581246 
L 345.486333 140.36319 
L 353.21934 114.77838 
L 360.952348 114.356587 
L 368.685355 140.641817 
L 376.418362 159.539565 
L 384.15137 167.274992 
L 391.884377 171.437643 
L 399.617385 174.437307 
L 407.350392 176.728396 
L 415.083399 178.311363 
L 422.816407 179.261416 
L 430.549414 179.774725 
L 438.282421 180.114061 
L 446.015429 180.27852 
" clip-path="url(#pb7d223f708)" style="fill: none; stroke: #d97706; stroke-width: 1.4; stroke-linecap: square"/>
   </g>
   <g id="line2d_27">
    <path d="M 268.156259 181.021527 
L 275.889267 180.885611 
L 283.622274 180.885611 
L 291.355281 180.613779 
L 299.088289 180.251336 
L 306.821296 179.662368 
L 314.554303 180.251336 
L 322.287311 178.982788 
L 330.020318 176.989355 
L 337.753326 167.067494 
L 345.486333 144.143011 
L 353.21934 83.071464 
L 360.952348 81.304558 
L 368.685355 135.942751 
L 376.418362 155.786474 
L 384.15137 171.507413 
L 391.884377 177.442408 
L 399.617385 179.934199 
L 407.350392 181.248053 
L 415.083399 181.47458 
L 422.816407 181.746411 
L 430.549414 181.56519 
L 438.282421 181.837022 
L 446.015429 181.157443 
" clip-path="url(#pb7d223f708)" style="fill: none; stroke: #2f6690; stroke-width: 1.4; stroke-linecap: square"/>
   </g>
   <g id="line2d_28">
    <path d="M 357.085844 189.039137 
L 357.085844 40.559777 
" clip-path="url(#pb7d223f708)" style="fill: none; stroke-dasharray: 2.59,1.12; stroke-dashoffset: 0; stroke: #252a31; stroke-width: 0.7"/>
   </g>
   <g id="patch_8">
    <path d="M 259.263301 189.039137 
L 259.263301 40.559777 
" style="fill: none; stroke: #252a31; stroke-width: 0.8; stroke-linejoin: miter; stroke-linecap: square"/>
   </g>
   <g id="patch_9">
    <path d="M 454.908387 189.039137 
L 454.908387 40.559777 
" style="fill: none; stroke: #252a31; stroke-width: 0.8; stroke-linejoin: miter; stroke-linecap: square"/>
   </g>
   <g id="patch_10">
    <path d="M 259.263301 189.039137 
L 454.908387 189.039137 
" style="fill: none; stroke: #252a31; stroke-width: 0.8; stroke-linejoin: miter; stroke-linecap: square"/>
   </g>
   <g id="patch_11">
    <path d="M 259.263301 40.559777 
L 454.908387 40.559777 
" style="fill: none; stroke: #252a31; stroke-width: 0.8; stroke-linejoin: miter; stroke-linecap: square"/>
   </g>
   <g id="text_7">
    <text style="font-size: 11px; font-family: 'DejaVu Sans'; text-anchor: middle; fill: #252a31" x="357.085844" y="34.559777" transform="rotate(-0 357.085844 34.559777)">Prior SD 20 deg</text>
   </g>
  </g>
  <g id="axes_3">
   <g id="patch_12">
    <path d="M 464.408867 189.039137 
L 660.053954 189.039137 
L 660.053954 40.559777 
L 464.408867 40.559777 
z
" style="fill: #ffffff"/>
   </g>
   <g id="FillBetweenPolyCollection_3">
    <defs>
     <path id="m676873f59b" d="M 473.301826 -362.120783 
L 473.301826 -360.669082 
L 481.034833 -360.881903 
L 488.76784 -361.262365 
L 496.500848 -361.928174 
L 504.233855 -363.332317 
L 511.966862 -364.901723 
L 519.69987 -366.894393 
L 527.432877 -369.652743 
L 535.165885 -373.887762 
L 542.898892 -383.47184 
L 550.631899 -397.256457 
L 558.364907 -409.984104 
L 566.097914 -409.972214 
L 573.830921 -397.263591 
L 581.563929 -383.351757 
L 589.296936 -374.626096 
L 597.029944 -369.965436 
L 604.762951 -367.041822 
L 612.495958 -364.543851 
L 620.228966 -363.237201 
L 627.961973 -361.903206 
L 635.69498 -361.214807 
L 643.427988 -360.929461 
L 651.160995 -360.714262 
L 651.160995 -361.905584 
L 651.160995 -361.905584 
L 643.427988 -362.406129 
L 635.69498 -362.573771 
L 627.961973 -363.712779 
L 620.228966 -365.116922 
L 612.495958 -367.019232 
L 604.762951 -369.902422 
L 597.029944 -372.891427 
L 589.296936 -378.079979 
L 581.563929 -388.164602 
L 573.830921 -402.307092 
L 566.097914 -417.172459 
L 558.364907 -417.384091 
L 550.631899 -402.569848 
L 542.898892 -387.306185 
L 535.165885 -377.967029 
L 527.432877 -372.773722 
L 519.69987 -369.159332 
L 511.966862 -367.041822 
L 504.233855 -365.14189 
L 496.500848 -363.595073 
L 488.76784 -362.643918 
L 481.034833 -362.168341 
L 473.301826 -362.120783 
z
"/>
    </defs>
    <g clip-path="url(#p4db5f3e90d)">
     <use xlink:href="#m676873f59b" x="0" y="541.19952" style="fill: #f7e3c1"/>
    </g>
   </g>
   <g id="matplotlib.axis_5">
    <g id="xtick_7">
     <g id="line2d_29">
      <g>
       <use xlink:href="#m8e6bd741e7" x="510.678028" y="189.039137" style="fill: #252a31; stroke: #252a31; stroke-width: 0.8"/>
      </g>
     </g>
    </g>
    <g id="xtick_8">
     <g id="line2d_30">
      <g>
       <use xlink:href="#m8e6bd741e7" x="562.23141" y="189.039137" style="fill: #252a31; stroke: #252a31; stroke-width: 0.8"/>
      </g>
     </g>
    </g>
    <g id="xtick_9">
     <g id="line2d_31">
      <g>
       <use xlink:href="#m8e6bd741e7" x="613.784793" y="189.039137" style="fill: #252a31; stroke: #252a31; stroke-width: 0.8"/>
      </g>
     </g>
    </g>
   </g>
   <g id="matplotlib.axis_6">
    <g id="ytick_9">
     <g id="line2d_32">
      <path d="M 464.408867 182.290075 
L 660.053954 182.290075 
" clip-path="url(#p4db5f3e90d)" style="fill: none; stroke: #d9dee5; stroke-width: 0.5; stroke-linecap: square"/>
     </g>
     <g id="line2d_33">
      <g>
       <use xlink:href="#m73627232b2" x="464.408867" y="182.290075" style="fill: #252a31; stroke: #252a31; stroke-width: 0.8"/>
      </g>
     </g>
    </g>
    <g id="ytick_10">
     <g id="line2d_34">
      <path d="M 464.408867 145.271113 
L 660.053954 145.271113 
" clip-path="url(#p4db5f3e90d)" style="fill: none; stroke: #d9dee5; stroke-width: 0.5; stroke-linecap: square"/>
     </g>
     <g id="line2d_35">
      <g>
       <use xlink:href="#m73627232b2" x="464.408867" y="145.271113" style="fill: #252a31; stroke: #252a31; stroke-width: 0.8"/>
      </g>
     </g>
    </g>
    <g id="ytick_11">
     <g id="line2d_36">
      <path d="M 464.408867 108.252151 
L 660.053954 108.252151 
" clip-path="url(#p4db5f3e90d)" style="fill: none; stroke: #d9dee5; stroke-width: 0.5; stroke-linecap: square"/>
     </g>
     <g id="line2d_37">
      <g>
       <use xlink:href="#m73627232b2" x="464.408867" y="108.252151" style="fill: #252a31; stroke: #252a31; stroke-width: 0.8"/>
      </g>
     </g>
    </g>
    <g id="ytick_12">
     <g id="line2d_38">
      <path d="M 464.408867 71.233189 
L 660.053954 71.233189 
" clip-path="url(#p4db5f3e90d)" style="fill: none; stroke: #d9dee5; stroke-width: 0.5; stroke-linecap: square"/>
     </g>
     <g id="line2d_39">
      <g>
       <use xlink:href="#m73627232b2" x="464.408867" y="71.233189" style="fill: #252a31; stroke: #252a31; stroke-width: 0.8"/>
      </g>
     </g>
    </g>
   </g>
   <g id="line2d_40">
    <path d="M 473.301826 179.870336 
L 481.034833 179.655375 
L 488.76784 179.240671 
L 496.500848 178.344683 
L 504.233855 177.030187 
L 511.966862 175.358531 
L 519.69987 173.180861 
L 527.432877 169.826137 
L 535.165885 165.00806 
L 542.898892 155.705286 
L 550.631899 141.281968 
L 558.364907 128.097054 
L 566.097914 127.753687 
L 573.830921 141.267225 
L 581.563929 155.830839 
L 589.296936 164.861582 
L 597.029944 169.889389 
L 604.762951 172.987777 
L 612.495958 175.458878 
L 620.228966 177.053014 
L 627.961973 178.336123 
L 635.69498 179.239245 
L 643.427988 179.624462 
L 651.160995 179.870812 
" clip-path="url(#p4db5f3e90d)" style="fill: none; stroke: #d97706; stroke-width: 1.4; stroke-linecap: square"/>
   </g>
   <g id="line2d_41">
    <path d="M 473.301826 179.959745 
L 481.034833 180.577996 
L 488.76784 180.245091 
L 496.500848 179.484167 
L 504.233855 177.772088 
L 511.966862 175.489315 
L 519.69987 172.540734 
L 527.432877 170.543308 
L 535.165885 169.116575 
L 542.898892 164.027894 
L 550.631899 147.097331 
L 558.364907 108.290197 
L 566.097914 122.081948 
L 573.830921 146.336407 
L 581.563929 154.659015 
L 589.296936 160.128158 
L 597.029944 167.547169 
L 604.762951 171.066443 
L 612.495958 177.106279 
L 620.228966 179.008589 
L 627.961973 180.720669 
L 635.69498 180.577996 
L 643.427988 180.102418 
L 651.160995 180.292649 
" clip-path="url(#p4db5f3e90d)" style="fill: none; stroke: #2f6690; stroke-width: 1.4; stroke-linecap: square"/>
   </g>
   <g id="line2d_42">
    <path d="M 562.23141 189.039137 
L 562.23141 40.559777 
" clip-path="url(#p4db5f3e90d)" style="fill: none; stroke-dasharray: 2.59,1.12; stroke-dashoffset: 0; stroke: #252a31; stroke-width: 0.7"/>
   </g>
   <g id="patch_13">
    <path d="M 464.408867 189.039137 
L 464.408867 40.559777 
" style="fill: none; stroke: #252a31; stroke-width: 0.8; stroke-linejoin: miter; stroke-linecap: square"/>
   </g>
   <g id="patch_14">
    <path d="M 660.053954 189.039137 
L 660.053954 40.559777 
" style="fill: none; stroke: #252a31; stroke-width: 0.8; stroke-linejoin: miter; stroke-linecap: square"/>
   </g>
   <g id="patch_15">
    <path d="M 464.408867 189.039137 
L 660.053954 189.039137 
" style="fill: none; stroke: #252a31; stroke-width: 0.8; stroke-linejoin: miter; stroke-linecap: square"/>
   </g>
   <g id="patch_16">
    <path d="M 464.408867 40.559777 
L 660.053954 40.559777 
" style="fill: none; stroke: #252a31; stroke-width: 0.8; stroke-linejoin: miter; stroke-linecap: square"/>
   </g>
   <g id="text_8">
    <text style="font-size: 11px; font-family: 'DejaVu Sans'; text-anchor: middle; fill: #252a31" x="562.23141" y="34.559777" transform="rotate(-0 562.23141 34.559777)">Prior SD 40 deg</text>
   </g>
  </g>
  <g id="axes_4">
   <g id="patch_17">
    <path d="M 669.554434 189.039137 
L 865.19952 189.039137 
L 865.19952 40.559777 
L 669.554434 40.559777 
z
" style="fill: #ffffff"/>
   </g>
   <g id="FillBetweenPolyCollection_4">
    <defs>
     <path id="m1e1db32473" d="M 678.447392 -365.352162 
L 678.447392 -363.840345 
L 686.180399 -364.159704 
L 693.913407 -364.895062 
L 701.646414 -365.518228 
L 709.379422 -366.917853 
L 717.112429 -368.394679 
L 724.845436 -370.568541 
L 732.578444 -373.871544 
L 740.311451 -378.254258 
L 748.044458 -383.249585 
L 755.777466 -388.5776 
L 763.510473 -391.10359 
L 771.24348 -391.187456 
L 778.976488 -388.377654 
L 786.709495 -383.11351 
L 794.442503 -378.036538 
L 802.17551 -373.513862 
L 809.908517 -370.660738 
L 817.641525 -368.248607 
L 825.374532 -366.739012 
L 833.107539 -365.552108 
L 840.840547 -364.637909 
L 848.573554 -364.241348 
L 856.306562 -363.618182 
L 856.306562 -365.30884 
L 856.306562 -365.30884 
L 848.573554 -365.48657 
L 840.840547 -366.041977 
L 833.107539 -366.908411 
L 825.374532 -368.25194 
L 817.641525 -370.13088 
L 809.908517 -372.672976 
L 802.17551 -375.864898 
L 794.442503 -380.818014 
L 786.709495 -386.12548 
L 778.976488 -391.722868 
L 771.24348 -394.978106 
L 763.510473 -395.355783 
L 755.777466 -391.601234 
L 748.044458 -386.184909 
L 740.311451 -380.605294 
L 732.578444 -376.076508 
L 724.845436 -372.517463 
L 717.112429 -370.353043 
L 709.379422 -368.484655 
L 701.646414 -367.29664 
L 693.913407 -366.246366 
L 686.180399 -365.474907 
L 678.447392 -365.352162 
z
"/>
    </defs>
    <g clip-path="url(#p3aac5ff864)">
     <use xlink:href="#m1e1db32473" x="0" y="541.19952" style="fill: #f7e3c1"/>
    </g>
   </g>
   <g id="matplotlib.axis_7">
    <g id="xtick_10">
     <g id="line2d_43">
      <g>
       <use xlink:href="#m8e6bd741e7" x="715.823594" y="189.039137" style="fill: #252a31; stroke: #252a31; stroke-width: 0.8"/>
      </g>
     </g>
    </g>
    <g id="xtick_11">
     <g id="line2d_44">
      <g>
       <use xlink:href="#m8e6bd741e7" x="767.376977" y="189.039137" style="fill: #252a31; stroke: #252a31; stroke-width: 0.8"/>
      </g>
     </g>
    </g>
    <g id="xtick_12">
     <g id="line2d_45">
      <g>
       <use xlink:href="#m8e6bd741e7" x="818.930359" y="189.039137" style="fill: #252a31; stroke: #252a31; stroke-width: 0.8"/>
      </g>
     </g>
    </g>
   </g>
   <g id="matplotlib.axis_8">
    <g id="ytick_13">
     <g id="line2d_46">
      <path d="M 669.554434 182.290075 
L 865.19952 182.290075 
" clip-path="url(#p3aac5ff864)" style="fill: none; stroke: #d9dee5; stroke-width: 0.5; stroke-linecap: square"/>
     </g>
     <g id="line2d_47">
      <g>
       <use xlink:href="#m73627232b2" x="669.554434" y="182.290075" style="fill: #252a31; stroke: #252a31; stroke-width: 0.8"/>
      </g>
     </g>
    </g>
    <g id="ytick_14">
     <g id="line2d_48">
      <path d="M 669.554434 145.271113 
L 865.19952 145.271113 
" clip-path="url(#p3aac5ff864)" style="fill: none; stroke: #d9dee5; stroke-width: 0.5; stroke-linecap: square"/>
     </g>
     <g id="line2d_49">
      <g>
       <use xlink:href="#m73627232b2" x="669.554434" y="145.271113" style="fill: #252a31; stroke: #252a31; stroke-width: 0.8"/>
      </g>
     </g>
    </g>
    <g id="ytick_15">
     <g id="line2d_50">
      <path d="M 669.554434 108.252151 
L 865.19952 108.252151 
" clip-path="url(#p3aac5ff864)" style="fill: none; stroke: #d9dee5; stroke-width: 0.5; stroke-linecap: square"/>
     </g>
     <g id="line2d_51">
      <g>
       <use xlink:href="#m73627232b2" x="669.554434" y="108.252151" style="fill: #252a31; stroke: #252a31; stroke-width: 0.8"/>
      </g>
     </g>
    </g>
    <g id="ytick_16">
     <g id="line2d_52">
      <path d="M 669.554434 71.233189 
L 865.19952 71.233189 
" clip-path="url(#p3aac5ff864)" style="fill: none; stroke: #d9dee5; stroke-width: 0.5; stroke-linecap: square"/>
     </g>
     <g id="line2d_53">
      <g>
       <use xlink:href="#m73627232b2" x="669.554434" y="71.233189" style="fill: #252a31; stroke: #252a31; stroke-width: 0.8"/>
      </g>
     </g>
    </g>
   </g>
   <g id="line2d_54">
    <path d="M 678.447392 176.657585 
L 686.180399 176.326563 
L 693.913407 175.671628 
L 701.646414 174.747431 
L 709.379422 173.582632 
L 717.112429 171.901972 
L 724.845436 169.557045 
L 732.578444 166.300363 
L 740.311451 161.807345 
L 748.044458 156.466778 
L 755.777466 151.032679 
L 763.510473 147.869083 
L 771.24348 147.837092 
L 778.976488 151.054229 
L 786.709495 156.542757 
L 794.442503 161.797792 
L 802.17551 166.421441 
L 809.908517 169.630803 
L 817.641525 171.990837 
L 825.374532 173.627953 
L 833.107539 174.956708 
L 840.840547 175.854467 
L 848.573554 176.408541 
L 856.306562 176.728455 
" clip-path="url(#p3aac5ff864)" style="fill: none; stroke: #d97706; stroke-width: 1.4; stroke-linecap: square"/>
   </g>
   <g id="line2d_55">
    <path d="M 678.447392 173.292488 
L 686.180399 174.46995 
L 693.913407 173.248055 
L 701.646414 172.825946 
L 709.379422 169.982264 
L 717.112429 168.871451 
L 724.845436 168.671505 
L 732.578444 168.249396 
L 740.311451 170.071129 
L 748.044458 167.560691 
L 755.777466 158.363158 
L 763.510473 137.05776 
L 771.24348 146.077563 
L 778.976488 157.69667 
L 786.709495 162.673113 
L 794.442503 164.739226 
L 802.17551 164.783658 
L 809.908517 164.472631 
L 817.641525 169.182479 
L 825.374532 172.914811 
L 833.107539 175.469682 
L 840.840547 175.225303 
L 848.573554 174.714329 
L 856.306562 174.158922 
" clip-path="url(#p3aac5ff864)" style="fill: none; stroke: #2f6690; stroke-width: 1.4; stroke-linecap: square"/>
   </g>
   <g id="line2d_56">
    <path d="M 767.376977 189.039137 
L 767.376977 40.559777 
" clip-path="url(#p3aac5ff864)" style="fill: none; stroke-dasharray: 2.59,1.12; stroke-dashoffset: 0; stroke: #252a31; stroke-width: 0.7"/>
   </g>
   <g id="patch_18">
    <path d="M 669.554434 189.039137 
L 669.554434 40.559777 
" style="fill: none; stroke: #252a31; stroke-width: 0.8; stroke-linejoin: miter; stroke-linecap: square"/>
   </g>
   <g id="patch_19">
    <path d="M 865.19952 189.039137 
L 865.19952 40.559777 
" style="fill: none; stroke: #252a31; stroke-width: 0.8; stroke-linejoin: miter; stroke-linecap: square"/>
   </g>
   <g id="patch_20">
    <path d="M 669.554434 189.039137 
L 865.19952 189.039137 
" style="fill: none; stroke: #252a31; stroke-width: 0.8; stroke-linejoin: miter; stroke-linecap: square"/>
   </g>
   <g id="patch_21">
    <path d="M 669.554434 40.559777 
L 865.19952 40.559777 
" style="fill: none; stroke: #252a31; stroke-width: 0.8; stroke-linejoin: miter; stroke-linecap: square"/>
   </g>
   <g id="text_9">
    <text style="font-size: 11px; font-family: 'DejaVu Sans'; text-anchor: middle; fill: #252a31" x="767.376977" y="34.559777" transform="rotate(-0 767.376977 34.559777)">Prior SD 80 deg</text>
   </g>
   <g id="legend_1">
    <g id="line2d_57">
     <path d="M 803.926551 49.728683 
L 810.926551 49.728683 
L 817.926551 49.728683 
" style="fill: none; stroke: #d97706; stroke-width: 1.4; stroke-linecap: square"/>
    </g>
    <g id="text_10">
     <text style="font-size: 7px; font-family: 'DejaVu Sans'; text-anchor: start; fill: #252a31" x="823.526551" y="52.178683" transform="rotate(-0 823.526551 52.178683)">Simulated</text>
    </g>
    <g id="line2d_58">
     <path d="M 803.926551 60.22923 
L 810.926551 60.22923 
L 817.926551 60.22923 
" style="fill: none; stroke: #2f6690; stroke-width: 1.4; stroke-linecap: square"/>
    </g>
    <g id="text_11">
     <text style="font-size: 7px; font-family: 'DejaVu Sans'; text-anchor: start; fill: #252a31" x="823.526551" y="62.67923" transform="rotate(-0 823.526551 62.67923)">Observed</text>
    </g>
   </g>
  </g>
  <g id="axes_5">
   <g id="patch_22">
    <path d="M 54.117734 347.018977 
L 249.762821 347.018977 
L 249.762821 198.539617 
L 54.117734 198.539617 
z
" style="fill: #ffffff"/>
   </g>
   <g id="FillBetweenPolyCollection_5">
    <defs>
     <path id="ma59df45527" d="M 63.010693 -202.583418 
L 63.010693 -201.622553 
L 70.7437 -201.5564 
L 78.476708 -201.59113 
L 86.209715 -201.5564 
L 93.942722 -201.622553 
L 101.67573 -201.789588 
L 109.408737 -202.151773 
L 117.141744 -204.167772 
L 124.874752 -208.899332 
L 132.607759 -218.686601 
L 140.340767 -243.956872 
L 148.073774 -291.551971 
L 155.806781 -293.070172 
L 163.539789 -243.358191 
L 171.272796 -218.919789 
L 179.005803 -208.429649 
L 186.738811 -204.070197 
L 194.471818 -202.315501 
L 202.204825 -201.855741 
L 209.937833 -201.524978 
L 217.67084 -201.424095 
L 225.403848 -201.524978 
L 233.136855 -201.458825 
L 240.869862 -201.524978 
L 240.869862 -202.551996 
L 240.869862 -202.551996 
L 233.136855 -202.451113 
L 225.403848 -202.618149 
L 217.67084 -202.551996 
L 209.937833 -202.649571 
L 202.204825 -202.882759 
L 194.471818 -203.708012 
L 186.738811 -206.089503 
L 179.005803 -212.547645 
L 171.272796 -223.950689 
L 163.539789 -250.856582 
L 155.806781 -302.688751 
L 148.073774 -303.153473 
L 140.340767 -250.582049 
L 132.607759 -223.623234 
L 124.874752 -211.785237 
L 117.141744 -205.925776 
L 109.408737 -203.840317 
L 101.67573 -202.882759 
L 93.942722 -202.715724 
L 86.209715 -202.551996 
L 78.476708 -202.583418 
L 70.7437 -202.618149 
L 63.010693 -202.583418 
z
"/>
    </defs>
    <g clip-path="url(#p3014de032d)">
     <use xlink:href="#ma59df45527" x="0" y="541.19952" style="fill: #f7e3c1"/>
    </g>
   </g>
   <g id="matplotlib.axis_9">
    <g id="xtick_13">
     <g id="line2d_59">
      <g>
       <use xlink:href="#m8e6bd741e7" x="100.386895" y="347.018977" style="fill: #252a31; stroke: #252a31; stroke-width: 0.8"/>
      </g>
     </g>
    </g>
    <g id="xtick_14">
     <g id="line2d_60">
      <g>
       <use xlink:href="#m8e6bd741e7" x="151.940278" y="347.018977" style="fill: #252a31; stroke: #252a31; stroke-width: 0.8"/>
      </g>
     </g>
    </g>
    <g id="xtick_15">
     <g id="line2d_61">
      <g>
       <use xlink:href="#m8e6bd741e7" x="203.49366" y="347.018977" style="fill: #252a31; stroke: #252a31; stroke-width: 0.8"/>
      </g>
     </g>
    </g>
   </g>
   <g id="matplotlib.axis_10">
    <g id="ytick_17">
     <g id="line2d_62">
      <path d="M 54.117734 340.269915 
L 249.762821 340.269915 
" clip-path="url(#p3014de032d)" style="fill: none; stroke: #d9dee5; stroke-width: 0.5; stroke-linecap: square"/>
     </g>
     <g id="line2d_63">
      <g>
       <use xlink:href="#m73627232b2" x="54.117734" y="340.269915" style="fill: #252a31; stroke: #252a31; stroke-width: 0.8"/>
      </g>
     </g>
     <g id="text_12">
      <text style="font-size: 9px; font-family: 'DejaVu Sans'; text-anchor: end; fill: #252a31" x="47.117734" y="343.68886" transform="rotate(-0 47.117734 343.68886)">0.0</text>
     </g>
    </g>
    <g id="ytick_18">
     <g id="line2d_64">
      <path d="M 54.117734 303.250953 
L 249.762821 303.250953 
" clip-path="url(#p3014de032d)" style="fill: none; stroke: #d9dee5; stroke-width: 0.5; stroke-linecap: square"/>
     </g>
     <g id="line2d_65">
      <g>
       <use xlink:href="#m73627232b2" x="54.117734" y="303.250953" style="fill: #252a31; stroke: #252a31; stroke-width: 0.8"/>
      </g>
     </g>
     <g id="text_13">
      <text style="font-size: 9px; font-family: 'DejaVu Sans'; text-anchor: end; fill: #252a31" x="47.117734" y="306.669898" transform="rotate(-0 47.117734 306.669898)">0.1</text>
     </g>
    </g>
    <g id="ytick_19">
     <g id="line2d_66">
      <path d="M 54.117734 266.231991 
L 249.762821 266.231991 
" clip-path="url(#p3014de032d)" style="fill: none; stroke: #d9dee5; stroke-width: 0.5; stroke-linecap: square"/>
     </g>
     <g id="line2d_67">
      <g>
       <use xlink:href="#m73627232b2" x="54.117734" y="266.231991" style="fill: #252a31; stroke: #252a31; stroke-width: 0.8"/>
      </g>
     </g>
     <g id="text_14">
      <text style="font-size: 9px; font-family: 'DejaVu Sans'; text-anchor: end; fill: #252a31" x="47.117734" y="269.650936" transform="rotate(-0 47.117734 269.650936)">0.2</text>
     </g>
    </g>
    <g id="ytick_20">
     <g id="line2d_68">
      <path d="M 54.117734 229.213029 
L 249.762821 229.213029 
" clip-path="url(#p3014de032d)" style="fill: none; stroke: #d9dee5; stroke-width: 0.5; stroke-linecap: square"/>
     </g>
     <g id="line2d_69">
      <g>
       <use xlink:href="#m73627232b2" x="54.117734" y="229.213029" style="fill: #252a31; stroke: #252a31; stroke-width: 0.8"/>
      </g>
     </g>
     <g id="text_15">
      <text style="font-size: 9px; font-family: 'DejaVu Sans'; text-anchor: end; fill: #252a31" x="47.117734" y="232.631974" transform="rotate(-0 47.117734 232.631974)">0.3</text>
     </g>
    </g>
    <g id="text_16">
     <text style="font-size: 9px; font-family: 'DejaVu Sans'; fill: #252a31" transform="translate(14.939473 308.342656) rotate(-90)">Coherence 12%</text>
     <text style="font-size: 9px; font-family: 'DejaVu Sans'; fill: #252a31" transform="translate(25.741934 295.997891) rotate(-90)">Proportion</text>
    </g>
   </g>
   <g id="line2d_70">
    <path d="M 63.010693 339.158552 
L 70.7437 339.155906 
L 78.476708 339.176414 
L 86.209715 339.162522 
L 93.942722 339.059985 
L 101.67573 338.91048 
L 109.408737 338.217863 
L 117.141744 336.194919 
L 124.874752 330.851778 
L 132.607759 320.065606 
L 140.340767 293.823554 
L 148.073774 244.817752 
L 155.806781 243.599884 
L 163.539789 294.237669 
L 171.272796 319.971008 
L 179.005803 330.861701 
L 186.738811 335.990507 
L 194.471818 338.229109 
L 202.204825 338.913126 
L 209.937833 339.156568 
L 217.67084 339.167152 
L 225.403848 339.185013 
L 233.136855 339.165829 
L 240.869862 339.215444 
" clip-path="url(#p3014de032d)" style="fill: none; stroke: #d97706; stroke-width: 1.4; stroke-linecap: square"/>
   </g>
   <g id="line2d_71">
    <path d="M 63.010693 339.740695 
L 70.7437 339.476085 
L 78.476708 339.806847 
L 86.209715 339.409932 
L 93.942722 339.740695 
L 101.67573 338.814559 
L 109.408737 338.616102 
L 117.141744 338.153034 
L 124.874752 337.094593 
L 132.607759 329.817814 
L 140.340767 306.267509 
L 148.073774 209.354036 
L 155.806781 221.393799 
L 163.539789 299.321492 
L 171.272796 325.782509 
L 179.005803 335.97 
L 186.738811 338.748407 
L 194.471818 339.343779 
L 202.204825 339.939152 
L 209.937833 340.071457 
L 217.67084 340.071457 
L 225.403848 339.806847 
L 233.136855 339.674542 
L 240.869862 339.873 
" clip-path="url(#p3014de032d)" style="fill: none; stroke: #2f6690; stroke-width: 1.4; stroke-linecap: square"/>
   </g>
   <g id="line2d_72">
    <path d="M 151.940278 347.018977 
L 151.940278 198.539617 
" clip-path="url(#p3014de032d)" style="fill: none; stroke-dasharray: 2.59,1.12; stroke-dashoffset: 0; stroke: #252a31; stroke-width: 0.7"/>
   </g>
   <g id="patch_23">
    <path d="M 54.117734 347.018977 
L 54.117734 198.539617 
" style="fill: none; stroke: #252a31; stroke-width: 0.8; stroke-linejoin: miter; stroke-linecap: square"/>
   </g>
   <g id="patch_24">
    <path d="M 249.762821 347.018977 
L 249.762821 198.539617 
" style="fill: none; stroke: #252a31; stroke-width: 0.8; stroke-linejoin: miter; stroke-linecap: square"/>
   </g>
   <g id="patch_25">
    <path d="M 54.117734 347.018977 
L 249.762821 347.018977 
" style="fill: none; stroke: #252a31; stroke-width: 0.8; stroke-linejoin: miter; stroke-linecap: square"/>
   </g>
   <g id="patch_26">
    <path d="M 54.117734 198.539617 
L 249.762821 198.539617 
" style="fill: none; stroke: #252a31; stroke-width: 0.8; stroke-linejoin: miter; stroke-linecap: square"/>
   </g>
  </g>
  <g id="axes_6">
   <g id="patch_27">
    <path d="M 259.263301 347.018977 
L 454.908387 347.018977 
L 454.908387 198.539617 
L 259.263301 198.539617 
z
" style="fill: #ffffff"/>
   </g>
   <g id="FillBetweenPolyCollection_6">
    <defs>
     <path id="m06dbebfabc" d="M 268.156259 -202.49471 
L 268.156259 -201.491918 
L 275.889267 -201.679356 
L 283.622274 -201.616877 
L 291.355281 -201.616877 
L 299.088289 -201.709034 
L 306.821296 -202.17919 
L 314.554303 -203.300693 
L 322.287311 -206.082582 
L 330.020318 -211.702591 
L 337.753326 -223.889171 
L 345.486333 -247.750001 
L 353.21934 -277.059022 
L 360.952348 -276.287403 
L 368.685355 -248.723115 
L 376.418362 -223.981328 
L 384.15137 -211.919707 
L 391.884377 -206.27002 
L 399.617385 -203.050776 
L 407.350392 -201.958951 
L 415.083399 -201.833992 
L 422.816407 -201.616877 
L 430.549414 -201.554398 
L 438.282421 -201.584075 
L 446.015429 -201.491918 
L 446.015429 -202.49471 
L 446.015429 -202.49471 
L 438.282421 -202.491586 
L 430.549414 -202.55719 
L 422.816407 -202.586867 
L 415.083399 -202.807107 
L 407.350392 -203.524056 
L 399.617385 -205.086038 
L 391.884377 -208.433364 
L 384.15137 -214.74377 
L 376.418362 -228.515761 
L 368.685355 -254.507133 
L 360.952348 -285.845168 
L 353.21934 -286.348126 
L 345.486333 -253.569944 
L 337.753326 -228.114331 
L 330.020318 -215.707512 
L 322.287311 -208.677033 
L 314.554303 -204.865798 
L 306.821296 -203.461577 
L 299.088289 -202.866462 
L 291.355281 -202.554066 
L 283.622274 -202.491586 
L 275.889267 -202.366628 
L 268.156259 -202.49471 
z
"/>
    </defs>
    <g clip-path="url(#p9b7c63d53b)">
     <use xlink:href="#m06dbebfabc" x="0" y="541.19952" style="fill: #f7e3c1"/>
    </g>
   </g>
   <g id="matplotlib.axis_11">
    <g id="xtick_16">
     <g id="line2d_73">
      <g>
       <use xlink:href="#m8e6bd741e7" x="305.532462" y="347.018977" style="fill: #252a31; stroke: #252a31; stroke-width: 0.8"/>
      </g>
     </g>
    </g>
    <g id="xtick_17">
     <g id="line2d_74">
      <g>
       <use xlink:href="#m8e6bd741e7" x="357.085844" y="347.018977" style="fill: #252a31; stroke: #252a31; stroke-width: 0.8"/>
      </g>
     </g>
    </g>
    <g id="xtick_18">
     <g id="line2d_75">
      <g>
       <use xlink:href="#m8e6bd741e7" x="408.639226" y="347.018977" style="fill: #252a31; stroke: #252a31; stroke-width: 0.8"/>
      </g>
     </g>
    </g>
   </g>
   <g id="matplotlib.axis_12">
    <g id="ytick_21">
     <g id="line2d_76">
      <path d="M 259.263301 340.269915 
L 454.908387 340.269915 
" clip-path="url(#p9b7c63d53b)" style="fill: none; stroke: #d9dee5; stroke-width: 0.5; stroke-linecap: square"/>
     </g>
     <g id="line2d_77">
      <g>
       <use xlink:href="#m73627232b2" x="259.263301" y="340.269915" style="fill: #252a31; stroke: #252a31; stroke-width: 0.8"/>
      </g>
     </g>
    </g>
    <g id="ytick_22">
     <g id="line2d_78">
      <path d="M 259.263301 303.250953 
L 454.908387 303.250953 
" clip-path="url(#p9b7c63d53b)" style="fill: none; stroke: #d9dee5; stroke-width: 0.5; stroke-linecap: square"/>
     </g>
     <g id="line2d_79">
      <g>
       <use xlink:href="#m73627232b2" x="259.263301" y="303.250953" style="fill: #252a31; stroke: #252a31; stroke-width: 0.8"/>
      </g>
     </g>
    </g>
    <g id="ytick_23">
     <g id="line2d_80">
      <path d="M 259.263301 266.231991 
L 454.908387 266.231991 
" clip-path="url(#p9b7c63d53b)" style="fill: none; stroke: #d9dee5; stroke-width: 0.5; stroke-linecap: square"/>
     </g>
     <g id="line2d_81">
      <g>
       <use xlink:href="#m73627232b2" x="259.263301" y="266.231991" style="fill: #252a31; stroke: #252a31; stroke-width: 0.8"/>
      </g>
     </g>
    </g>
    <g id="ytick_24">
     <g id="line2d_82">
      <path d="M 259.263301 229.213029 
L 454.908387 229.213029 
" clip-path="url(#p9b7c63d53b)" style="fill: none; stroke: #d9dee5; stroke-width: 0.5; stroke-linecap: square"/>
     </g>
     <g id="line2d_83">
      <g>
       <use xlink:href="#m73627232b2" x="259.263301" y="229.213029" style="fill: #252a31; stroke: #252a31; stroke-width: 0.8"/>
      </g>
     </g>
    </g>
   </g>
   <g id="line2d_84">
    <path d="M 268.156259 339.20027 
L 275.889267 339.211516 
L 283.622274 339.195897 
L 291.355281 339.092806 
L 299.088289 338.925986 
L 306.821296 338.431775 
L 314.554303 337.104091 
L 322.287311 333.873913 
L 330.020318 327.655977 
L 337.753326 315.210108 
L 345.486333 290.50206 
L 353.21934 259.637305 
L 360.952348 259.888472 
L 368.685355 290.168421 
L 376.418362 315.418789 
L 384.15137 327.669098 
L 391.884377 333.908277 
L 399.617385 337.135955 
L 407.350392 338.417405 
L 415.083399 338.952852 
L 422.816407 339.088432 
L 430.549414 339.200895 
L 438.282421 339.217764 
L 446.015429 339.180277 
" clip-path="url(#p9b7c63d53b)" style="fill: none; stroke: #d97706; stroke-width: 1.4; stroke-linecap: square"/>
   </g>
   <g id="line2d_85">
    <path d="M 268.156259 339.895039 
L 275.889267 339.520164 
L 283.622274 339.457685 
L 291.355281 339.457685 
L 299.088289 339.207768 
L 306.821296 339.02033 
L 314.554303 338.333058 
L 322.287311 336.45868 
L 330.020318 333.272238 
L 337.753326 323.900349 
L 345.486333 299.408478 
L 353.21934 240.490536 
L 360.952348 242.739789 
L 368.685355 290.224027 
L 376.418362 311.466976 
L 384.15137 328.773731 
L 391.884377 337.083473 
L 399.617385 338.770413 
L 407.350392 339.520164 
L 415.083399 339.770081 
L 422.816407 339.957519 
L 430.549414 340.019998 
L 438.282421 339.707602 
L 446.015429 339.83256 
" clip-path="url(#p9b7c63d53b)" style="fill: none; stroke: #2f6690; stroke-width: 1.4; stroke-linecap: square"/>
   </g>
   <g id="line2d_86">
    <path d="M 357.085844 347.018977 
L 357.085844 198.539617 
" clip-path="url(#p9b7c63d53b)" style="fill: none; stroke-dasharray: 2.59,1.12; stroke-dashoffset: 0; stroke: #252a31; stroke-width: 0.7"/>
   </g>
   <g id="patch_28">
    <path d="M 259.263301 347.018977 
L 259.263301 198.539617 
" style="fill: none; stroke: #252a31; stroke-width: 0.8; stroke-linejoin: miter; stroke-linecap: square"/>
   </g>
   <g id="patch_29">
    <path d="M 454.908387 347.018977 
L 454.908387 198.539617 
" style="fill: none; stroke: #252a31; stroke-width: 0.8; stroke-linejoin: miter; stroke-linecap: square"/>
   </g>
   <g id="patch_30">
    <path d="M 259.263301 347.018977 
L 454.908387 347.018977 
" style="fill: none; stroke: #252a31; stroke-width: 0.8; stroke-linejoin: miter; stroke-linecap: square"/>
   </g>
   <g id="patch_31">
    <path d="M 259.263301 198.539617 
L 454.908387 198.539617 
" style="fill: none; stroke: #252a31; stroke-width: 0.8; stroke-linejoin: miter; stroke-linecap: square"/>
   </g>
  </g>
  <g id="axes_7">
   <g id="patch_32">
    <path d="M 464.408867 347.018977 
L 660.053954 347.018977 
L 660.053954 198.539617 
L 464.408867 198.539617 
z
" style="fill: #ffffff"/>
   </g>
   <g id="FillBetweenPolyCollection_7">
    <defs>
     <path id="m48035a7d9c" d="M 473.301826 -202.685502 
L 473.301826 -201.597835 
L 481.034833 -201.661627 
L 488.76784 -201.695119 
L 496.500848 -202.044384 
L 504.233855 -202.809898 
L 511.966862 -203.98847 
L 519.69987 -206.670957 
L 527.432877 -210.562318 
L 535.165885 -217.196769 
L 542.898892 -228.095769 
L 550.631899 -244.581423 
L 558.364907 -258.470711 
L 566.097914 -258.65571 
L 573.830921 -244.56388 
L 581.563929 -227.68909 
L 589.296936 -217.163278 
L 597.029944 -210.209863 
L 604.762951 -206.50988 
L 612.495958 -204.340925 
L 620.228966 -202.682312 
L 627.961973 -201.977402 
L 635.69498 -201.691929 
L 643.427988 -201.534042 
L 651.160995 -201.500551 
L 651.160995 -202.494123 
L 651.160995 -202.494123 
L 643.427988 -202.524425 
L 635.69498 -202.87688 
L 627.961973 -203.195844 
L 620.228966 -204.283511 
L 612.495958 -206.160615 
L 604.762951 -209.289651 
L 597.029944 -213.436183 
L 589.296936 -221.225284 
L 581.563929 -232.905746 
L 573.830921 -250.408896 
L 566.097914 -265.959986 
L 558.364907 -266.508604 
L 550.631899 -250.536481 
L 542.898892 -232.987082 
L 535.165885 -221.279508 
L 527.432877 -213.278296 
L 519.69987 -208.970687 
L 511.966862 -206.096822 
L 504.233855 -204.152736 
L 496.500848 -203.387223 
L 488.76784 -202.813087 
L 481.034833 -202.561106 
L 473.301826 -202.685502 
z
"/>
    </defs>
    <g clip-path="url(#pf4cc51ee05)">
     <use xlink:href="#m48035a7d9c" x="0" y="541.19952" style="fill: #f7e3c1"/>
    </g>
   </g>
   <g id="matplotlib.axis_13">
    <g id="xtick_19">
     <g id="line2d_87">
      <g>
       <use xlink:href="#m8e6bd741e7" x="510.678028" y="347.018977" style="fill: #252a31; stroke: #252a31; stroke-width: 0.8"/>
      </g>
     </g>
    </g>
    <g id="xtick_20">
     <g id="line2d_88">
      <g>
       <use xlink:href="#m8e6bd741e7" x="562.23141" y="347.018977" style="fill: #252a31; stroke: #252a31; stroke-width: 0.8"/>
      </g>
     </g>
    </g>
    <g id="xtick_21">
     <g id="line2d_89">
      <g>
       <use xlink:href="#m8e6bd741e7" x="613.784793" y="347.018977" style="fill: #252a31; stroke: #252a31; stroke-width: 0.8"/>
      </g>
     </g>
    </g>
   </g>
   <g id="matplotlib.axis_14">
    <g id="ytick_25">
     <g id="line2d_90">
      <path d="M 464.408867 340.269915 
L 660.053954 340.269915 
" clip-path="url(#pf4cc51ee05)" style="fill: none; stroke: #d9dee5; stroke-width: 0.5; stroke-linecap: square"/>
     </g>
     <g id="line2d_91">
      <g>
       <use xlink:href="#m73627232b2" x="464.408867" y="340.269915" style="fill: #252a31; stroke: #252a31; stroke-width: 0.8"/>
      </g>
     </g>
    </g>
    <g id="ytick_26">
     <g id="line2d_92">
      <path d="M 464.408867 303.250953 
L 660.053954 303.250953 
" clip-path="url(#pf4cc51ee05)" style="fill: none; stroke: #d9dee5; stroke-width: 0.5; stroke-linecap: square"/>
     </g>
     <g id="line2d_93">
      <g>
       <use xlink:href="#m73627232b2" x="464.408867" y="303.250953" style="fill: #252a31; stroke: #252a31; stroke-width: 0.8"/>
      </g>
     </g>
    </g>
    <g id="ytick_27">
     <g id="line2d_94">
      <path d="M 464.408867 266.231991 
L 660.053954 266.231991 
" clip-path="url(#pf4cc51ee05)" style="fill: none; stroke: #d9dee5; stroke-width: 0.5; stroke-linecap: square"/>
     </g>
     <g id="line2d_95">
      <g>
       <use xlink:href="#m73627232b2" x="464.408867" y="266.231991" style="fill: #252a31; stroke: #252a31; stroke-width: 0.8"/>
      </g>
     </g>
    </g>
    <g id="ytick_28">
     <g id="line2d_96">
      <path d="M 464.408867 229.213029 
L 660.053954 229.213029 
" clip-path="url(#pf4cc51ee05)" style="fill: none; stroke: #d9dee5; stroke-width: 0.5; stroke-linecap: square"/>
     </g>
     <g id="line2d_97">
      <g>
       <use xlink:href="#m73627232b2" x="464.408867" y="229.213029" style="fill: #252a31; stroke: #252a31; stroke-width: 0.8"/>
      </g>
     </g>
    </g>
   </g>
   <g id="line2d_98">
    <path d="M 473.301826 339.150989 
L 481.034833 339.131851 
L 488.76784 338.920059 
L 496.500848 338.555803 
L 504.233855 337.734789 
L 511.966862 336.02259 
L 519.69987 333.336276 
L 527.432877 329.244605 
L 535.165885 322.307776 
L 542.898892 310.799555 
L 550.631899 293.56912 
L 558.364907 279.288463 
L 566.097914 279.148119 
L 573.830921 293.888084 
L 581.563929 310.789986 
L 589.296936 322.201242 
L 597.029944 329.303933 
L 604.762951 333.393689 
L 612.495958 335.965815 
L 620.228966 337.6946 
L 627.961973 338.534751 
L 635.69498 338.974921 
L 643.427988 339.161196 
L 651.160995 339.170127 
" clip-path="url(#pf4cc51ee05)" style="fill: none; stroke: #d97706; stroke-width: 1.4; stroke-linecap: square"/>
   </g>
   <g id="line2d_99">
    <path d="M 473.301826 339.69578 
L 481.034833 339.823365 
L 488.76784 339.185437 
L 496.500848 339.185437 
L 504.233855 337.271653 
L 511.966862 332.933743 
L 519.69987 329.488932 
L 527.432877 326.363085 
L 535.165885 324.130337 
L 542.898892 316.602786 
L 550.631899 302.759748 
L 558.364907 271.692655 
L 566.097914 279.666755 
L 573.830921 302.887334 
L 581.563929 307.544208 
L 589.296936 318.51657 
L 597.029944 325.3424 
L 604.762951 331.466509 
L 612.495958 335.230284 
L 620.228966 339.121645 
L 627.961973 338.994059 
L 635.69498 339.185437 
L 643.427988 339.631987 
L 651.160995 339.568194 
" clip-path="url(#pf4cc51ee05)" style="fill: none; stroke: #2f6690; stroke-width: 1.4; stroke-linecap: square"/>
   </g>
   <g id="line2d_100">
    <path d="M 562.23141 347.018977 
L 562.23141 198.539617 
" clip-path="url(#pf4cc51ee05)" style="fill: none; stroke-dasharray: 2.59,1.12; stroke-dashoffset: 0; stroke: #252a31; stroke-width: 0.7"/>
   </g>
   <g id="patch_33">
    <path d="M 464.408867 347.018977 
L 464.408867 198.539617 
" style="fill: none; stroke: #252a31; stroke-width: 0.8; stroke-linejoin: miter; stroke-linecap: square"/>
   </g>
   <g id="patch_34">
    <path d="M 660.053954 347.018977 
L 660.053954 198.539617 
" style="fill: none; stroke: #252a31; stroke-width: 0.8; stroke-linejoin: miter; stroke-linecap: square"/>
   </g>
   <g id="patch_35">
    <path d="M 464.408867 347.018977 
L 660.053954 347.018977 
" style="fill: none; stroke: #252a31; stroke-width: 0.8; stroke-linejoin: miter; stroke-linecap: square"/>
   </g>
   <g id="patch_36">
    <path d="M 464.408867 198.539617 
L 660.053954 198.539617 
" style="fill: none; stroke: #252a31; stroke-width: 0.8; stroke-linejoin: miter; stroke-linecap: square"/>
   </g>
  </g>
  <g id="axes_8">
   <g id="patch_37">
    <path d="M 669.554434 347.018977 
L 865.19952 347.018977 
L 865.19952 198.539617 
L 669.554434 198.539617 
z
" style="fill: #ffffff"/>
   </g>
   <g id="FillBetweenPolyCollection_8">
    <defs>
     <path id="m89f9171c42" d="M 678.447392 -206.169885 
L 678.447392 -204.794731 
L 686.180399 -205.176452 
L 693.913407 -205.848856 
L 701.646414 -206.694552 
L 709.379422 -208.020993 
L 717.112429 -209.712385 
L 724.845436 -212.330129 
L 732.578444 -215.862247 
L 740.311451 -220.334294 
L 748.044458 -226.27413 
L 755.777466 -231.991961 
L 763.510473 -235.566404 
L 771.24348 -235.569598 
L 778.976488 -231.664543 
L 786.709495 -226.12799 
L 794.442503 -220.632164 
L 802.17551 -216.018769 
L 809.908517 -212.188781 
L 817.641525 -209.549475 
L 825.374532 -207.745483 
L 833.107539 -206.183461 
L 840.840547 -205.193222 
L 848.573554 -204.586302 
L 856.306562 -204.635015 
L 856.306562 -206.010169 
L 856.306562 -206.010169 
L 848.573554 -206.090826 
L 840.840547 -206.807152 
L 833.107539 -208.037763 
L 825.374532 -209.587806 
L 817.641525 -211.854176 
L 809.908517 -214.873606 
L 802.17551 -218.43607 
L 794.442503 -223.289837 
L 786.709495 -229.648129 
L 778.976488 -235.621506 
L 771.24348 -239.86995 
L 763.510473 -239.980952 
L 755.777466 -235.834726 
L 748.044458 -229.663302 
L 740.311451 -223.836066 
L 732.578444 -218.594189 
L 724.845436 -214.650003 
L 717.112429 -212.134477 
L 709.379422 -209.922411 
L 701.646414 -208.516911 
L 693.913407 -207.43244 
L 686.180399 -206.732884 
L 678.447392 -206.169885 
z
"/>
    </defs>
    <g clip-path="url(#pd07112ff11)">
     <use xlink:href="#m89f9171c42" x="0" y="541.19952" style="fill: #f7e3c1"/>
    </g>
   </g>
   <g id="matplotlib.axis_15">
    <g id="xtick_22">
     <g id="line2d_101">
      <g>
       <use xlink:href="#m8e6bd741e7" x="715.823594" y="347.018977" style="fill: #252a31; stroke: #252a31; stroke-width: 0.8"/>
      </g>
     </g>
    </g>
    <g id="xtick_23">
     <g id="line2d_102">
      <g>
       <use xlink:href="#m8e6bd741e7" x="767.376977" y="347.018977" style="fill: #252a31; stroke: #252a31; stroke-width: 0.8"/>
      </g>
     </g>
    </g>
    <g id="xtick_24">
     <g id="line2d_103">
      <g>
       <use xlink:href="#m8e6bd741e7" x="818.930359" y="347.018977" style="fill: #252a31; stroke: #252a31; stroke-width: 0.8"/>
      </g>
     </g>
    </g>
   </g>
   <g id="matplotlib.axis_16">
    <g id="ytick_29">
     <g id="line2d_104">
      <path d="M 669.554434 340.269915 
L 865.19952 340.269915 
" clip-path="url(#pd07112ff11)" style="fill: none; stroke: #d9dee5; stroke-width: 0.5; stroke-linecap: square"/>
     </g>
     <g id="line2d_105">
      <g>
       <use xlink:href="#m73627232b2" x="669.554434" y="340.269915" style="fill: #252a31; stroke: #252a31; stroke-width: 0.8"/>
      </g>
     </g>
    </g>
    <g id="ytick_30">
     <g id="line2d_106">
      <path d="M 669.554434 303.250953 
L 865.19952 303.250953 
" clip-path="url(#pd07112ff11)" style="fill: none; stroke: #d9dee5; stroke-width: 0.5; stroke-linecap: square"/>
     </g>
     <g id="line2d_107">
      <g>
       <use xlink:href="#m73627232b2" x="669.554434" y="303.250953" style="fill: #252a31; stroke: #252a31; stroke-width: 0.8"/>
      </g>
     </g>
    </g>
    <g id="ytick_31">
     <g id="line2d_108">
      <path d="M 669.554434 266.231991 
L 865.19952 266.231991 
" clip-path="url(#pd07112ff11)" style="fill: none; stroke: #d9dee5; stroke-width: 0.5; stroke-linecap: square"/>
     </g>
     <g id="line2d_109">
      <g>
       <use xlink:href="#m73627232b2" x="669.554434" y="266.231991" style="fill: #252a31; stroke: #252a31; stroke-width: 0.8"/>
      </g>
     </g>
    </g>
    <g id="ytick_32">
     <g id="line2d_110">
      <path d="M 669.554434 229.213029 
L 865.19952 229.213029 
" clip-path="url(#pd07112ff11)" style="fill: none; stroke: #d9dee5; stroke-width: 0.5; stroke-linecap: square"/>
     </g>
     <g id="line2d_111">
      <g>
       <use xlink:href="#m73627232b2" x="669.554434" y="229.213029" style="fill: #252a31; stroke: #252a31; stroke-width: 0.8"/>
      </g>
     </g>
    </g>
   </g>
   <g id="line2d_112">
    <path d="M 678.447392 335.737177 
L 686.180399 335.290611 
L 693.913407 334.577 
L 701.646414 333.619024 
L 709.379422 332.272938 
L 717.112429 330.321209 
L 724.845436 327.689729 
L 732.578444 323.985277 
L 740.311451 319.093817 
L 748.044458 313.264185 
L 755.777466 307.235866 
L 763.510473 303.80389 
L 771.24348 303.558566 
L 778.976488 307.448288 
L 786.709495 313.144078 
L 794.442503 319.223825 
L 802.17551 324.071524 
L 809.908517 327.789711 
L 817.641525 330.43876 
L 825.374532 332.586939 
L 833.107539 334.165891 
L 840.840547 335.207878 
L 848.573554 335.84227 
L 856.306562 335.919892 
" clip-path="url(#pd07112ff11)" style="fill: none; stroke: #d97706; stroke-width: 1.4; stroke-linecap: square"/>
   </g>
   <g id="line2d_113">
    <path d="M 678.447392 332.699379 
L 686.180399 333.050754 
L 693.913407 332.859095 
L 701.646414 331.80497 
L 709.379422 328.227333 
L 717.112429 325.544105 
L 724.845436 322.89282 
L 732.578444 322.669218 
L 740.311451 325.064957 
L 748.044458 325.224673 
L 755.777466 315.897262 
L 763.510473 299.765951 
L 771.24348 306.56985 
L 778.976488 317.270819 
L 786.709495 319.379069 
L 794.442503 323.499741 
L 802.17551 322.381729 
L 809.908517 320.241535 
L 817.641525 325.89548 
L 825.374532 332.252175 
L 833.107539 332.859095 
L 840.840547 333.753504 
L 848.573554 333.370186 
L 856.306562 333.114641 
" clip-path="url(#pd07112ff11)" style="fill: none; stroke: #2f6690; stroke-width: 1.4; stroke-linecap: square"/>
   </g>
   <g id="line2d_114">
    <path d="M 767.376977 347.018977 
L 767.376977 198.539617 
" clip-path="url(#pd07112ff11)" style="fill: none; stroke-dasharray: 2.59,1.12; stroke-dashoffset: 0; stroke: #252a31; stroke-width: 0.7"/>
   </g>
   <g id="patch_38">
    <path d="M 669.554434 347.018977 
L 669.554434 198.539617 
" style="fill: none; stroke: #252a31; stroke-width: 0.8; stroke-linejoin: miter; stroke-linecap: square"/>
   </g>
   <g id="patch_39">
    <path d="M 865.19952 347.018977 
L 865.19952 198.539617 
" style="fill: none; stroke: #252a31; stroke-width: 0.8; stroke-linejoin: miter; stroke-linecap: square"/>
   </g>
   <g id="patch_40">
    <path d="M 669.554434 347.018977 
L 865.19952 347.018977 
" style="fill: none; stroke: #252a31; stroke-width: 0.8; stroke-linejoin: miter; stroke-linecap: square"/>
   </g>
   <g id="patch_41">
    <path d="M 669.554434 198.539617 
L 865.19952 198.539617 
" style="fill: none; stroke: #252a31; stroke-width: 0.8; stroke-linejoin: miter; stroke-linecap: square"/>
   </g>
  </g>
  <g id="axes_9">
   <g id="patch_42">
    <path d="M 54.117734 504.998817 
L 249.762821 504.998817 
L 249.762821 356.519457 
L 54.117734 356.519457 
z
" style="fill: #ffffff"/>
   </g>
   <g id="FillBetweenPolyCollection_9">
    <defs>
     <path id="mb5a0695b72" d="M 63.010693 -44.840413 
L 63.010693 -43.402089 
L 70.7437 -43.470425 
L 78.476708 -43.470425 
L 86.209715 -43.34026 
L 93.942722 -43.470425 
L 101.67573 -43.470425 
L 109.408737 -43.34026 
L 117.141744 -43.470425 
L 124.874752 -44.511746 
L 132.607759 -51.92465 
L 140.340767 -86.014897 
L 148.073774 -151.761303 
L 155.806781 -152.480465 
L 163.539789 -86.815413 
L 171.272796 -52.253317 
L 179.005803 -44.511746 
L 186.738811 -43.34026 
L 194.471818 -43.34026 
L 202.204825 -43.470425 
L 209.937833 -43.34026 
L 217.67084 -43.470425 
L 225.403848 -43.34026 
L 233.136855 -43.402089 
L 240.869862 -43.34026 
L 240.869862 -44.840413 
L 240.869862 -44.840413 
L 233.136855 -44.840413 
L 225.403848 -44.840413 
L 217.67084 -44.772077 
L 209.937833 -44.840413 
L 202.204825 -44.641912 
L 194.471818 -44.772077 
L 186.738811 -45.032407 
L 179.005803 -46.600897 
L 171.272796 -56.747268 
L 163.539789 -94.36499 
L 155.806781 -164.338508 
L 148.073774 -164.673683 
L 140.340767 -95.097169 
L 132.607759 -56.883942 
L 124.874752 -46.799399 
L 117.141744 -44.90875 
L 109.408737 -44.840413 
L 101.67573 -44.641912 
L 93.942722 -44.641912 
L 86.209715 -44.778585 
L 78.476708 -44.902242 
L 70.7437 -44.772077 
L 63.010693 -44.840413 
z
"/>
    </defs>
    <g clip-path="url(#p9cd8918ce9)">
     <use xlink:href="#mb5a0695b72" x="0" y="541.19952" style="fill: #f7e3c1"/>
    </g>
   </g>
   <g id="matplotlib.axis_17">
    <g id="xtick_25">
     <g id="line2d_115">
      <g>
       <use xlink:href="#m8e6bd741e7" x="100.386895" y="504.998817" style="fill: #252a31; stroke: #252a31; stroke-width: 0.8"/>
      </g>
     </g>
     <g id="text_17">
      <text style="font-size: 9px; font-family: 'DejaVu Sans'; text-anchor: middle; fill: #252a31" x="100.386895" y="518.836707" transform="rotate(-0 100.386895 518.836707)">−100</text>
     </g>
    </g>
    <g id="xtick_26">
     <g id="line2d_116">
      <g>
       <use xlink:href="#m8e6bd741e7" x="151.940278" y="504.998817" style="fill: #252a31; stroke: #252a31; stroke-width: 0.8"/>
      </g>
     </g>
     <g id="text_18">
      <text style="font-size: 9px; font-family: 'DejaVu Sans'; text-anchor: middle; fill: #252a31" x="151.940278" y="518.836707" transform="rotate(-0 151.940278 518.836707)">0</text>
     </g>
    </g>
    <g id="xtick_27">
     <g id="line2d_117">
      <g>
       <use xlink:href="#m8e6bd741e7" x="203.49366" y="504.998817" style="fill: #252a31; stroke: #252a31; stroke-width: 0.8"/>
      </g>
     </g>
     <g id="text_19">
      <text style="font-size: 9px; font-family: 'DejaVu Sans'; text-anchor: middle; fill: #252a31" x="203.49366" y="518.836707" transform="rotate(-0 203.49366 518.836707)">100</text>
     </g>
    </g>
    <g id="text_20">
     <text style="font-size: 9px; font-family: 'DejaVu Sans'; text-anchor: middle; fill: #252a31" x="151.940278" y="531.837411" transform="rotate(-0 151.940278 531.837411)">Response - prior (deg)</text>
    </g>
   </g>
   <g id="matplotlib.axis_18">
    <g id="ytick_33">
     <g id="line2d_118">
      <path d="M 54.117734 498.249755 
L 249.762821 498.249755 
" clip-path="url(#p9cd8918ce9)" style="fill: none; stroke: #d9dee5; stroke-width: 0.5; stroke-linecap: square"/>
     </g>
     <g id="line2d_119">
      <g>
       <use xlink:href="#m73627232b2" x="54.117734" y="498.249755" style="fill: #252a31; stroke: #252a31; stroke-width: 0.8"/>
      </g>
     </g>
     <g id="text_21">
      <text style="font-size: 9px; font-family: 'DejaVu Sans'; text-anchor: end; fill: #252a31" x="47.117734" y="501.6687" transform="rotate(-0 47.117734 501.6687)">0.0</text>
     </g>
    </g>
    <g id="ytick_34">
     <g id="line2d_120">
      <path d="M 54.117734 461.230793 
L 249.762821 461.230793 
" clip-path="url(#p9cd8918ce9)" style="fill: none; stroke: #d9dee5; stroke-width: 0.5; stroke-linecap: square"/>
     </g>
     <g id="line2d_121">
      <g>
       <use xlink:href="#m73627232b2" x="54.117734" y="461.230793" style="fill: #252a31; stroke: #252a31; stroke-width: 0.8"/>
      </g>
     </g>
     <g id="text_22">
      <text style="font-size: 9px; font-family: 'DejaVu Sans'; text-anchor: end; fill: #252a31" x="47.117734" y="464.649738" transform="rotate(-0 47.117734 464.649738)">0.1</text>
     </g>
    </g>
    <g id="ytick_35">
     <g id="line2d_122">
      <path d="M 54.117734 424.211831 
L 249.762821 424.211831 
" clip-path="url(#p9cd8918ce9)" style="fill: none; stroke: #d9dee5; stroke-width: 0.5; stroke-linecap: square"/>
     </g>
     <g id="line2d_123">
      <g>
       <use xlink:href="#m73627232b2" x="54.117734" y="424.211831" style="fill: #252a31; stroke: #252a31; stroke-width: 0.8"/>
      </g>
     </g>
     <g id="text_23">
      <text style="font-size: 9px; font-family: 'DejaVu Sans'; text-anchor: end; fill: #252a31" x="47.117734" y="427.630776" transform="rotate(-0 47.117734 427.630776)">0.2</text>
     </g>
    </g>
    <g id="ytick_36">
     <g id="line2d_124">
      <path d="M 54.117734 387.192869 
L 249.762821 387.192869 
" clip-path="url(#p9cd8918ce9)" style="fill: none; stroke: #d9dee5; stroke-width: 0.5; stroke-linecap: square"/>
     </g>
     <g id="line2d_125">
      <g>
       <use xlink:href="#m73627232b2" x="54.117734" y="387.192869" style="fill: #252a31; stroke: #252a31; stroke-width: 0.8"/>
      </g>
     </g>
     <g id="text_24">
      <text style="font-size: 9px; font-family: 'DejaVu Sans'; text-anchor: end; fill: #252a31" x="47.117734" y="390.611814" transform="rotate(-0 47.117734 390.611814)">0.3</text>
     </g>
    </g>
    <g id="text_25">
     <text style="font-size: 9px; font-family: 'DejaVu Sans'; fill: #252a31" transform="translate(14.939473 466.322496) rotate(-90)">Coherence 24%</text>
     <text style="font-size: 9px; font-family: 'DejaVu Sans'; fill: #252a31" transform="translate(25.741934 453.977731) rotate(-90)">Proportion</text>
    </g>
   </g>
   <g id="line2d_126">
    <path d="M 63.010693 497.13424 
L 70.7437 497.173289 
L 78.476708 497.144653 
L 86.209715 497.183703 
L 93.942722 497.147256 
L 101.67573 497.227959 
L 109.408737 497.168083 
L 117.141744 497.101699 
L 124.874752 495.770109 
L 132.607759 486.761381 
L 140.340767 451.080516 
L 148.073774 383.69403 
L 155.806781 382.754238 
L 163.539789 450.459629 
L 171.272796 486.901959 
L 179.005803 495.736266 
L 186.738811 497.002773 
L 194.471818 497.145955 
L 202.204825 497.263103 
L 209.937833 497.200624 
L 217.67084 497.187608 
L 225.403848 497.212339 
L 233.136855 497.160273 
L 240.869862 497.192814 
" clip-path="url(#p9cd8918ce9)" style="fill: none; stroke: #d97706; stroke-width: 1.4; stroke-linecap: square"/>
   </g>
   <g id="line2d_127">
    <path d="M 63.010693 498.249755 
L 70.7437 498.11959 
L 78.476708 498.11959 
L 86.209715 498.11959 
L 93.942722 498.249755 
L 101.67573 497.468764 
L 109.408737 497.85926 
L 117.141744 496.817939 
L 124.874752 495.906783 
L 132.607759 491.090673 
L 140.340767 464.536987 
L 148.073774 363.268519 
L 155.806781 368.605289 
L 163.539789 455.555594 
L 171.272796 485.623738 
L 179.005803 495.255957 
L 186.738811 497.729095 
L 194.471818 498.11959 
L 202.204825 498.249755 
L 209.937833 497.989425 
L 217.67084 498.249755 
L 225.403848 498.249755 
L 233.136855 498.249755 
L 240.869862 498.11959 
" clip-path="url(#p9cd8918ce9)" style="fill: none; stroke: #2f6690; stroke-width: 1.4; stroke-linecap: square"/>
   </g>
   <g id="line2d_128">
    <path d="M 151.940278 504.998817 
L 151.940278 356.519457 
" clip-path="url(#p9cd8918ce9)" style="fill: none; stroke-dasharray: 2.59,1.12; stroke-dashoffset: 0; stroke: #252a31; stroke-width: 0.7"/>
   </g>
   <g id="patch_43">
    <path d="M 54.117734 504.998817 
L 54.117734 356.519457 
" style="fill: none; stroke: #252a31; stroke-width: 0.8; stroke-linejoin: miter; stroke-linecap: square"/>
   </g>
   <g id="patch_44">
    <path d="M 249.762821 504.998817 
L 249.762821 356.519457 
" style="fill: none; stroke: #252a31; stroke-width: 0.8; stroke-linejoin: miter; stroke-linecap: square"/>
   </g>
   <g id="patch_45">
    <path d="M 54.117734 504.998817 
L 249.762821 504.998817 
" style="fill: none; stroke: #252a31; stroke-width: 0.8; stroke-linejoin: miter; stroke-linecap: square"/>
   </g>
   <g id="patch_46">
    <path d="M 54.117734 356.519457 
L 249.762821 356.519457 
" style="fill: none; stroke: #252a31; stroke-width: 0.8; stroke-linejoin: miter; stroke-linecap: square"/>
   </g>
  </g>
  <g id="axes_10">
   <g id="patch_47">
    <path d="M 259.263301 504.998817 
L 454.908387 504.998817 
L 454.908387 356.519457 
L 259.263301 356.519457 
z
" style="fill: #ffffff"/>
   </g>
   <g id="FillBetweenPolyCollection_10">
    <defs>
     <path id="m71ff7d9090" d="M 268.156259 -45.060564 
L 268.156259 -43.261898 
L 275.889267 -43.417964 
L 283.622274 -43.417964 
L 291.355281 -43.417964 
L 299.088289 -43.417964 
L 306.821296 -43.417964 
L 314.554303 -43.417964 
L 322.287311 -44.04223 
L 330.020318 -48.01022 
L 337.753326 -61.907937 
L 345.486333 -91.693219 
L 353.21934 -127.686044 
L 360.952348 -126.324364 
L 368.685355 -92.957357 
L 376.418362 -61.595804 
L 384.15137 -48.174089 
L 391.884377 -44.354363 
L 399.617385 -43.261898 
L 407.350392 -43.417964 
L 415.083399 -43.336029 
L 422.816407 -43.179963 
L 430.549414 -43.417964 
L 438.282421 -43.261898 
L 446.015429 -43.417964 
L 446.015429 -44.822562 
L 446.015429 -44.822562 
L 438.282421 -44.904497 
L 430.549414 -44.822562 
L 422.816407 -44.978629 
L 415.083399 -44.904497 
L 407.350392 -44.748431 
L 399.617385 -45.142499 
L 391.884377 -46.777295 
L 384.15137 -52.001619 
L 376.418362 -68.404203 
L 368.685355 -101.720488 
L 360.952348 -141.39258 
L 353.21934 -142.485045 
L 345.486333 -103.191415 
L 337.753326 -68.248137 
L 330.020318 -52.001619 
L 322.287311 -46.22716 
L 314.554303 -45.372697 
L 306.821296 -44.666496 
L 299.088289 -44.978629 
L 291.355281 -44.748431 
L 283.622274 -44.904497 
L 275.889267 -44.830366 
L 268.156259 -45.060564 
z
"/>
    </defs>
    <g clip-path="url(#pf5a9fdaf54)">
     <use xlink:href="#m71ff7d9090" x="0" y="541.19952" style="fill: #f7e3c1"/>
    </g>
   </g>
   <g id="matplotlib.axis_19">
    <g id="xtick_28">
     <g id="line2d_129">
      <g>
       <use xlink:href="#m8e6bd741e7" x="305.532462" y="504.998817" style="fill: #252a31; stroke: #252a31; stroke-width: 0.8"/>
      </g>
     </g>
     <g id="text_26">
      <text style="font-size: 9px; font-family: 'DejaVu Sans'; text-anchor: middle; fill: #252a31" x="305.532462" y="518.836707" transform="rotate(-0 305.532462 518.836707)">−100</text>
     </g>
    </g>
    <g id="xtick_29">
     <g id="line2d_130">
      <g>
       <use xlink:href="#m8e6bd741e7" x="357.085844" y="504.998817" style="fill: #252a31; stroke: #252a31; stroke-width: 0.8"/>
      </g>
     </g>
     <g id="text_27">
      <text style="font-size: 9px; font-family: 'DejaVu Sans'; text-anchor: middle; fill: #252a31" x="357.085844" y="518.836707" transform="rotate(-0 357.085844 518.836707)">0</text>
     </g>
    </g>
    <g id="xtick_30">
     <g id="line2d_131">
      <g>
       <use xlink:href="#m8e6bd741e7" x="408.639226" y="504.998817" style="fill: #252a31; stroke: #252a31; stroke-width: 0.8"/>
      </g>
     </g>
     <g id="text_28">
      <text style="font-size: 9px; font-family: 'DejaVu Sans'; text-anchor: middle; fill: #252a31" x="408.639226" y="518.836707" transform="rotate(-0 408.639226 518.836707)">100</text>
     </g>
    </g>
    <g id="text_29">
     <text style="font-size: 9px; font-family: 'DejaVu Sans'; text-anchor: middle; fill: #252a31" x="357.085844" y="531.837411" transform="rotate(-0 357.085844 531.837411)">Response - prior (deg)</text>
    </g>
   </g>
   <g id="matplotlib.axis_20">
    <g id="ytick_37">
     <g id="line2d_132">
      <path d="M 259.263301 498.249755 
L 454.908387 498.249755 
" clip-path="url(#pf5a9fdaf54)" style="fill: none; stroke: #d9dee5; stroke-width: 0.5; stroke-linecap: square"/>
     </g>
     <g id="line2d_133">
      <g>
       <use xlink:href="#m73627232b2" x="259.263301" y="498.249755" style="fill: #252a31; stroke: #252a31; stroke-width: 0.8"/>
      </g>
     </g>
    </g>
    <g id="ytick_38">
     <g id="line2d_134">
      <path d="M 259.263301 461.230793 
L 454.908387 461.230793 
" clip-path="url(#pf5a9fdaf54)" style="fill: none; stroke: #d9dee5; stroke-width: 0.5; stroke-linecap: square"/>
     </g>
     <g id="line2d_135">
      <g>
       <use xlink:href="#m73627232b2" x="259.263301" y="461.230793" style="fill: #252a31; stroke: #252a31; stroke-width: 0.8"/>
      </g>
     </g>
    </g>
    <g id="ytick_39">
     <g id="line2d_136">
      <path d="M 259.263301 424.211831 
L 454.908387 424.211831 
" clip-path="url(#pf5a9fdaf54)" style="fill: none; stroke: #d9dee5; stroke-width: 0.5; stroke-linecap: square"/>
     </g>
     <g id="line2d_137">
      <g>
       <use xlink:href="#m73627232b2" x="259.263301" y="424.211831" style="fill: #252a31; stroke: #252a31; stroke-width: 0.8"/>
      </g>
     </g>
    </g>
    <g id="ytick_40">
     <g id="line2d_138">
      <path d="M 259.263301 387.192869 
L 454.908387 387.192869 
" clip-path="url(#pf5a9fdaf54)" style="fill: none; stroke: #d9dee5; stroke-width: 0.5; stroke-linecap: square"/>
     </g>
     <g id="line2d_139">
      <g>
       <use xlink:href="#m73627232b2" x="259.263301" y="387.192869" style="fill: #252a31; stroke: #252a31; stroke-width: 0.8"/>
      </g>
     </g>
    </g>
   </g>
   <g id="line2d_140">
    <path d="M 268.156259 497.104227 
L 275.889267 497.155729 
L 283.622274 497.137001 
L 291.355281 497.172897 
L 299.088289 497.149487 
L 306.821296 497.22908 
L 314.554303 496.994981 
L 322.287311 496.03049 
L 330.020318 491.208037 
L 337.753326 476.323979 
L 345.486333 444.096257 
L 353.21934 406.345344 
L 360.952348 406.741753 
L 368.685355 443.734183 
L 376.418362 476.313055 
L 384.15137 491.209597 
L 391.884377 495.915001 
L 399.617385 497.066771 
L 407.350392 497.144805 
L 415.083399 497.158851 
L 422.816407 497.165093 
L 430.549414 497.132319 
L 438.282421 497.138562 
L 446.015429 497.137001 
" clip-path="url(#pf5a9fdaf54)" style="fill: none; stroke: #d97706; stroke-width: 1.4; stroke-linecap: square"/>
   </g>
   <g id="line2d_141">
    <path d="M 268.156259 498.093689 
L 275.889267 498.093689 
L 283.622274 498.249755 
L 291.355281 498.249755 
L 299.088289 498.093689 
L 306.821296 498.093689 
L 314.554303 497.469423 
L 322.287311 495.752692 
L 330.020318 490.914632 
L 337.753326 477.180784 
L 345.486333 451.273753 
L 353.21934 392.280635 
L 360.952348 399.459692 
L 368.685355 451.117687 
L 376.418362 468.909262 
L 384.15137 490.758565 
L 391.884377 497.15729 
L 399.617385 497.937622 
L 407.350392 497.937622 
L 415.083399 498.093689 
L 422.816407 498.093689 
L 430.549414 498.093689 
L 438.282421 498.249755 
L 446.015429 498.249755 
" clip-path="url(#pf5a9fdaf54)" style="fill: none; stroke: #2f6690; stroke-width: 1.4; stroke-linecap: square"/>
   </g>
   <g id="line2d_142">
    <path d="M 357.085844 504.998817 
L 357.085844 356.519457 
" clip-path="url(#pf5a9fdaf54)" style="fill: none; stroke-dasharray: 2.59,1.12; stroke-dashoffset: 0; stroke: #252a31; stroke-width: 0.7"/>
   </g>
   <g id="patch_48">
    <path d="M 259.263301 504.998817 
L 259.263301 356.519457 
" style="fill: none; stroke: #252a31; stroke-width: 0.8; stroke-linejoin: miter; stroke-linecap: square"/>
   </g>
   <g id="patch_49">
    <path d="M 454.908387 504.998817 
L 454.908387 356.519457 
" style="fill: none; stroke: #252a31; stroke-width: 0.8; stroke-linejoin: miter; stroke-linecap: square"/>
   </g>
   <g id="patch_50">
    <path d="M 259.263301 504.998817 
L 454.908387 504.998817 
" style="fill: none; stroke: #252a31; stroke-width: 0.8; stroke-linejoin: miter; stroke-linecap: square"/>
   </g>
   <g id="patch_51">
    <path d="M 259.263301 356.519457 
L 454.908387 356.519457 
" style="fill: none; stroke: #252a31; stroke-width: 0.8; stroke-linejoin: miter; stroke-linecap: square"/>
   </g>
  </g>
  <g id="axes_11">
   <g id="patch_52">
    <path d="M 464.408867 504.998817 
L 660.053954 504.998817 
L 660.053954 356.519457 
L 464.408867 356.519457 
z
" style="fill: #ffffff"/>
   </g>
   <g id="FillBetweenPolyCollection_11">
    <defs>
     <path id="m7d935e8def" d="M 473.301826 -45.179823 
L 473.301826 -43.268345 
L 481.034833 -43.427635 
L 488.76784 -43.268345 
L 496.500848 -43.427635 
L 504.233855 -43.427635 
L 511.966862 -43.981167 
L 519.69987 -46.454142 
L 527.432877 -51.14921 
L 535.165885 -58.157964 
L 542.898892 -70.104703 
L 550.631899 -87.073054 
L 558.364907 -101.879046 
L 566.097914 -101.552502 
L 573.830921 -87.300042 
L 581.563929 -69.551171 
L 589.296936 -58.317254 
L 597.029944 -50.914258 
L 604.762951 -46.211225 
L 612.495958 -43.89754 
L 620.228966 -43.427635 
L 627.961973 -43.268345 
L 635.69498 -43.427635 
L 643.427988 -43.427635 
L 651.160995 -43.344007 
L 651.160995 -44.94487 
L 651.160995 -44.94487 
L 643.427988 -44.785581 
L 635.69498 -44.861243 
L 627.961973 -44.861243 
L 620.228966 -44.861243 
L 612.495958 -45.900609 
L 604.762951 -49.086407 
L 597.029944 -55.215084 
L 589.296936 -64.88796 
L 581.563929 -77.45593 
L 573.830921 -97.191942 
L 566.097914 -112.993496 
L 558.364907 -112.969602 
L 550.631899 -96.092842 
L 542.898892 -77.037794 
L 535.165885 -64.780439 
L 527.432877 -56.262414 
L 519.69987 -49.882856 
L 511.966862 -45.976272 
L 504.233855 -44.861243 
L 496.500848 -44.701953 
L 488.76784 -44.94487 
L 481.034833 -44.701953 
L 473.301826 -45.179823 
z
"/>
    </defs>
    <g clip-path="url(#p4b47c50e5c)">
     <use xlink:href="#m7d935e8def" x="0" y="541.19952" style="fill: #f7e3c1"/>
    </g>
   </g>
   <g id="matplotlib.axis_21">
    <g id="xtick_31">
     <g id="line2d_143">
      <g>
       <use xlink:href="#m8e6bd741e7" x="510.678028" y="504.998817" style="fill: #252a31; stroke: #252a31; stroke-width: 0.8"/>
      </g>
     </g>
     <g id="text_30">
      <text style="font-size: 9px; font-family: 'DejaVu Sans'; text-anchor: middle; fill: #252a31" x="510.678028" y="518.836707" transform="rotate(-0 510.678028 518.836707)">−100</text>
     </g>
    </g>
    <g id="xtick_32">
     <g id="line2d_144">
      <g>
       <use xlink:href="#m8e6bd741e7" x="562.23141" y="504.998817" style="fill: #252a31; stroke: #252a31; stroke-width: 0.8"/>
      </g>
     </g>
     <g id="text_31">
      <text style="font-size: 9px; font-family: 'DejaVu Sans'; text-anchor: middle; fill: #252a31" x="562.23141" y="518.836707" transform="rotate(-0 562.23141 518.836707)">0</text>
     </g>
    </g>
    <g id="xtick_33">
     <g id="line2d_145">
      <g>
       <use xlink:href="#m8e6bd741e7" x="613.784793" y="504.998817" style="fill: #252a31; stroke: #252a31; stroke-width: 0.8"/>
      </g>
     </g>
     <g id="text_32">
      <text style="font-size: 9px; font-family: 'DejaVu Sans'; text-anchor: middle; fill: #252a31" x="613.784793" y="518.836707" transform="rotate(-0 613.784793 518.836707)">100</text>
     </g>
    </g>
    <g id="text_33">
     <text style="font-size: 9px; font-family: 'DejaVu Sans'; text-anchor: middle; fill: #252a31" x="562.23141" y="531.837411" transform="rotate(-0 562.23141 531.837411)">Response - prior (deg)</text>
    </g>
   </g>
   <g id="matplotlib.axis_22">
    <g id="ytick_41">
     <g id="line2d_146">
      <path d="M 464.408867 498.249755 
L 660.053954 498.249755 
" clip-path="url(#p4b47c50e5c)" style="fill: none; stroke: #d9dee5; stroke-width: 0.5; stroke-linecap: square"/>
     </g>
     <g id="line2d_147">
      <g>
       <use xlink:href="#m73627232b2" x="464.408867" y="498.249755" style="fill: #252a31; stroke: #252a31; stroke-width: 0.8"/>
      </g>
     </g>
    </g>
    <g id="ytick_42">
     <g id="line2d_148">
      <path d="M 464.408867 461.230793 
L 660.053954 461.230793 
" clip-path="url(#p4b47c50e5c)" style="fill: none; stroke: #d9dee5; stroke-width: 0.5; stroke-linecap: square"/>
     </g>
     <g id="line2d_149">
      <g>
       <use xlink:href="#m73627232b2" x="464.408867" y="461.230793" style="fill: #252a31; stroke: #252a31; stroke-width: 0.8"/>
      </g>
     </g>
    </g>
    <g id="ytick_43">
     <g id="line2d_150">
      <path d="M 464.408867 424.211831 
L 660.053954 424.211831 
" clip-path="url(#p4b47c50e5c)" style="fill: none; stroke: #d9dee5; stroke-width: 0.5; stroke-linecap: square"/>
     </g>
     <g id="line2d_151">
      <g>
       <use xlink:href="#m73627232b2" x="464.408867" y="424.211831" style="fill: #252a31; stroke: #252a31; stroke-width: 0.8"/>
      </g>
     </g>
    </g>
    <g id="ytick_44">
     <g id="line2d_152">
      <path d="M 464.408867 387.192869 
L 660.053954 387.192869 
" clip-path="url(#p4b47c50e5c)" style="fill: none; stroke: #d9dee5; stroke-width: 0.5; stroke-linecap: square"/>
     </g>
     <g id="line2d_153">
      <g>
       <use xlink:href="#m73627232b2" x="464.408867" y="387.192869" style="fill: #252a31; stroke: #252a31; stroke-width: 0.8"/>
      </g>
     </g>
    </g>
   </g>
   <g id="line2d_154">
    <path d="M 473.301826 497.091718 
L 481.034833 497.147469 
L 488.76784 497.150655 
L 496.500848 497.16977 
L 504.233855 497.085346 
L 511.966862 496.268189 
L 519.69987 493.319734 
L 527.432877 488.114142 
L 535.165885 479.821512 
L 542.898892 467.452655 
L 550.631899 449.330248 
L 558.364907 434.030458 
L 566.097914 433.291353 
L 573.830921 449.378035 
L 581.563929 467.570529 
L 589.296936 479.759389 
L 597.029944 488.144407 
L 604.762951 493.544333 
L 612.495958 496.285711 
L 620.228966 497.101275 
L 627.961973 497.195256 
L 635.69498 497.121983 
L 643.427988 497.225521 
L 651.160995 497.204814 
" clip-path="url(#p4b47c50e5c)" style="fill: none; stroke: #d97706; stroke-width: 1.4; stroke-linecap: square"/>
   </g>
   <g id="line2d_155">
    <path d="M 473.301826 497.771885 
L 481.034833 498.249755 
L 488.76784 498.249755 
L 496.500848 497.771885 
L 504.233855 497.134726 
L 511.966862 495.063958 
L 519.69987 489.966683 
L 527.432877 479.772132 
L 535.165885 475.312016 
L 542.898892 470.374031 
L 550.631899 457.471552 
L 558.364907 429.914408 
L 566.097914 442.816886 
L 573.830921 464.639596 
L 581.563929 464.798886 
L 589.296936 467.825393 
L 597.029944 483.754378 
L 604.762951 490.125973 
L 612.495958 496.338277 
L 620.228966 497.931175 
L 627.961973 497.931175 
L 635.69498 498.249755 
L 643.427988 498.090465 
L 651.160995 498.249755 
" clip-path="url(#p4b47c50e5c)" style="fill: none; stroke: #2f6690; stroke-width: 1.4; stroke-linecap: square"/>
   </g>
   <g id="line2d_156">
    <path d="M 562.23141 504.998817 
L 562.23141 356.519457 
" clip-path="url(#p4b47c50e5c)" style="fill: none; stroke-dasharray: 2.59,1.12; stroke-dashoffset: 0; stroke: #252a31; stroke-width: 0.7"/>
   </g>
   <g id="patch_53">
    <path d="M 464.408867 504.998817 
L 464.408867 356.519457 
" style="fill: none; stroke: #252a31; stroke-width: 0.8; stroke-linejoin: miter; stroke-linecap: square"/>
   </g>
   <g id="patch_54">
    <path d="M 660.053954 504.998817 
L 660.053954 356.519457 
" style="fill: none; stroke: #252a31; stroke-width: 0.8; stroke-linejoin: miter; stroke-linecap: square"/>
   </g>
   <g id="patch_55">
    <path d="M 464.408867 504.998817 
L 660.053954 504.998817 
" style="fill: none; stroke: #252a31; stroke-width: 0.8; stroke-linejoin: miter; stroke-linecap: square"/>
   </g>
   <g id="patch_56">
    <path d="M 464.408867 356.519457 
L 660.053954 356.519457 
" style="fill: none; stroke: #252a31; stroke-width: 0.8; stroke-linejoin: miter; stroke-linecap: square"/>
   </g>
  </g>
  <g id="axes_12">
   <g id="patch_57">
    <path d="M 669.554434 504.998817 
L 865.19952 504.998817 
L 865.19952 356.519457 
L 669.554434 356.519457 
z
" style="fill: #ffffff"/>
   </g>
   <g id="FillBetweenPolyCollection_12">
    <defs>
     <path id="m680b4b49b5" d="M 678.447392 -45.5088 
L 678.447392 -44.396444 
L 686.180399 -45.444092 
L 693.913407 -47.753541 
L 701.646414 -49.050776 
L 709.379422 -50.867213 
L 717.112429 -51.850154 
L 724.845436 -53.270642 
L 732.578444 -56.598466 
L 740.311451 -61.804354 
L 748.044458 -68.800488 
L 755.777466 -74.161982 
L 763.510473 -77.703958 
L 771.24348 -77.214028 
L 778.976488 -74.369971 
L 786.709495 -68.771215 
L 794.442503 -62.206466 
L 802.17551 -56.225626 
L 809.908517 -53.578774 
L 817.641525 -51.8178 
L 825.374532 -50.773233 
L 833.107539 -49.449807 
L 840.840547 -47.691914 
L 848.573554 -45.476446 
L 856.306562 -44.396444 
L 856.306562 -45.661325 
L 856.306562 -45.661325 
L 848.573554 -47.357591 
L 840.840547 -49.767182 
L 833.107539 -51.609811 
L 825.374532 -53.705108 
L 817.641525 -54.538604 
L 809.908517 -56.387395 
L 802.17551 -59.867745 
L 794.442503 -65.942565 
L 786.709495 -73.71365 
L 778.976488 -80.759085 
L 771.24348 -82.73421 
L 763.510473 -83.194868 
L 755.777466 -79.377114 
L 748.044458 -73.117415 
L 740.311451 -65.692978 
L 732.578444 -59.747573 
L 724.845436 -56.296497 
L 717.112429 -54.567877 
L 709.379422 -53.302996 
L 701.646414 -51.733064 
L 693.913407 -49.76102 
L 686.180399 -47.44849 
L 678.447392 -45.5088 
z
"/>
    </defs>
    <g clip-path="url(#p7107e7259e)">
     <use xlink:href="#m680b4b49b5" x="0" y="541.19952" style="fill: #f7e3c1"/>
    </g>
   </g>
   <g id="matplotlib.axis_23">
    <g id="xtick_34">
     <g id="line2d_157">
      <g>
       <use xlink:href="#m8e6bd741e7" x="715.823594" y="504.998817" style="fill: #252a31; stroke: #252a31; stroke-width: 0.8"/>
      </g>
     </g>
     <g id="text_34">
      <text style="font-size: 9px; font-family: 'DejaVu Sans'; text-anchor: middle; fill: #252a31" x="715.823594" y="518.836707" transform="rotate(-0 715.823594 518.836707)">−100</text>
     </g>
    </g>
    <g id="xtick_35">
     <g id="line2d_158">
      <g>
       <use xlink:href="#m8e6bd741e7" x="767.376977" y="504.998817" style="fill: #252a31; stroke: #252a31; stroke-width: 0.8"/>
      </g>
     </g>
     <g id="text_35">
      <text style="font-size: 9px; font-family: 'DejaVu Sans'; text-anchor: middle; fill: #252a31" x="767.376977" y="518.836707" transform="rotate(-0 767.376977 518.836707)">0</text>
     </g>
    </g>
    <g id="xtick_36">
     <g id="line2d_159">
      <g>
       <use xlink:href="#m8e6bd741e7" x="818.930359" y="504.998817" style="fill: #252a31; stroke: #252a31; stroke-width: 0.8"/>
      </g>
     </g>
     <g id="text_36">
      <text style="font-size: 9px; font-family: 'DejaVu Sans'; text-anchor: middle; fill: #252a31" x="818.930359" y="518.836707" transform="rotate(-0 818.930359 518.836707)">100</text>
     </g>
    </g>
    <g id="text_37">
     <text style="font-size: 9px; font-family: 'DejaVu Sans'; text-anchor: middle; fill: #252a31" x="767.376977" y="531.837411" transform="rotate(-0 767.376977 531.837411)">Response - prior (deg)</text>
    </g>
   </g>
   <g id="matplotlib.axis_24">
    <g id="ytick_45">
     <g id="line2d_160">
      <path d="M 669.554434 498.249755 
L 865.19952 498.249755 
" clip-path="url(#p7107e7259e)" style="fill: none; stroke: #d9dee5; stroke-width: 0.5; stroke-linecap: square"/>
     </g>
     <g id="line2d_161">
      <g>
       <use xlink:href="#m73627232b2" x="669.554434" y="498.249755" style="fill: #252a31; stroke: #252a31; stroke-width: 0.8"/>
      </g>
     </g>
    </g>
    <g id="ytick_46">
     <g id="line2d_162">
      <path d="M 669.554434 461.230793 
L 865.19952 461.230793 
" clip-path="url(#p7107e7259e)" style="fill: none; stroke: #d9dee5; stroke-width: 0.5; stroke-linecap: square"/>
     </g>
     <g id="line2d_163">
      <g>
       <use xlink:href="#m73627232b2" x="669.554434" y="461.230793" style="fill: #252a31; stroke: #252a31; stroke-width: 0.8"/>
      </g>
     </g>
    </g>
    <g id="ytick_47">
     <g id="line2d_164">
      <path d="M 669.554434 424.211831 
L 865.19952 424.211831 
" clip-path="url(#p7107e7259e)" style="fill: none; stroke: #d9dee5; stroke-width: 0.5; stroke-linecap: square"/>
     </g>
     <g id="line2d_165">
      <g>
       <use xlink:href="#m73627232b2" x="669.554434" y="424.211831" style="fill: #252a31; stroke: #252a31; stroke-width: 0.8"/>
      </g>
     </g>
    </g>
    <g id="ytick_48">
     <g id="line2d_166">
      <path d="M 669.554434 387.192869 
L 865.19952 387.192869 
" clip-path="url(#p7107e7259e)" style="fill: none; stroke: #d9dee5; stroke-width: 0.5; stroke-linecap: square"/>
     </g>
     <g id="line2d_167">
      <g>
       <use xlink:href="#m73627232b2" x="669.554434" y="387.192869" style="fill: #252a31; stroke: #252a31; stroke-width: 0.8"/>
      </g>
     </g>
    </g>
   </g>
   <g id="line2d_168">
    <path d="M 678.447392 496.253677 
L 686.180399 494.802992 
L 693.913407 492.519735 
L 701.646414 490.753523 
L 709.379422 489.093925 
L 717.112429 487.979104 
L 724.845436 486.358946 
L 732.578444 483.05947 
L 740.311451 477.531585 
L 748.044458 470.169698 
L 755.777466 464.357715 
L 763.510473 460.966416 
L 771.24348 461.169167 
L 778.976488 464.451387 
L 786.709495 470.155524 
L 794.442503 477.25365 
L 802.17551 483.266535 
L 809.908517 486.495141 
L 817.641525 487.817026 
L 825.374532 489.016892 
L 833.107539 490.730105 
L 840.840547 492.614023 
L 848.573554 494.749993 
L 856.306562 496.23827 
" clip-path="url(#p7107e7259e)" style="fill: none; stroke: #d97706; stroke-width: 1.4; stroke-linecap: square"/>
   </g>
   <g id="line2d_169">
    <path d="M 678.447392 495.661447 
L 686.180399 493.997535 
L 693.913407 491.224349 
L 701.646414 487.711645 
L 709.379422 484.938459 
L 717.112429 480.932744 
L 724.845436 478.652569 
L 732.578444 481.302503 
L 740.311451 479.576964 
L 748.044458 478.467689 
L 755.777466 475.509624 
L 763.510473 461.150679 
L 771.24348 466.019162 
L 778.976488 478.344437 
L 786.709495 476.187514 
L 794.442503 479.022327 
L 802.17551 482.719909 
L 809.908517 477.728173 
L 817.641525 483.151294 
L 825.374532 487.711645 
L 833.107539 488.14303 
L 840.840547 491.162722 
L 848.573554 493.319645 
L 856.306562 495.168436 
" clip-path="url(#p7107e7259e)" style="fill: none; stroke: #2f6690; stroke-width: 1.4; stroke-linecap: square"/>
   </g>
   <g id="line2d_170">
    <path d="M 767.376977 504.998817 
L 767.376977 356.519457 
" clip-path="url(#p7107e7259e)" style="fill: none; stroke-dasharray: 2.59,1.12; stroke-dashoffset: 0; stroke: #252a31; stroke-width: 0.7"/>
   </g>
   <g id="patch_58">
    <path d="M 669.554434 504.998817 
L 669.554434 356.519457 
" style="fill: none; stroke: #252a31; stroke-width: 0.8; stroke-linejoin: miter; stroke-linecap: square"/>
   </g>
   <g id="patch_59">
    <path d="M 865.19952 504.998817 
L 865.19952 356.519457 
" style="fill: none; stroke: #252a31; stroke-width: 0.8; stroke-linejoin: miter; stroke-linecap: square"/>
   </g>
   <g id="patch_60">
    <path d="M 669.554434 504.998817 
L 865.19952 504.998817 
" style="fill: none; stroke: #252a31; stroke-width: 0.8; stroke-linejoin: miter; stroke-linecap: square"/>
   </g>
   <g id="patch_61">
    <path d="M 669.554434 356.519457 
L 865.19952 356.519457 
" style="fill: none; stroke: #252a31; stroke-width: 0.8; stroke-linejoin: miter; stroke-linecap: square"/>
   </g>
  </g>
  <g id="text_38">
   <text style="font-weight: 700; font-size: 13px; font-family: 'DejaVu Sans'; text-anchor: middle; fill: #252a31" x="436.19976" y="17.077969" transform="rotate(-0 436.19976 17.077969)">Static HMM response distributions relative to the prior</text>
  </g>
 </g>
 <defs>
  <clipPath id="pef541a6456">
   <rect x="54.117734" y="40.559777" width="195.645086" height="148.47936"/>
  </clipPath>
  <clipPath id="pb7d223f708">
   <rect x="259.263301" y="40.559777" width="195.645086" height="148.47936"/>
  </clipPath>
  <clipPath id="p4db5f3e90d">
   <rect x="464.408867" y="40.559777" width="195.645086" height="148.47936"/>
  </clipPath>
  <clipPath id="p3aac5ff864">
   <rect x="669.554434" y="40.559777" width="195.645086" height="148.47936"/>
  </clipPath>
  <clipPath id="p3014de032d">
   <rect x="54.117734" y="198.539617" width="195.645086" height="148.47936"/>
  </clipPath>
  <clipPath id="p9b7c63d53b">
   <rect x="259.263301" y="198.539617" width="195.645086" height="148.47936"/>
  </clipPath>
  <clipPath id="pf4cc51ee05">
   <rect x="464.408867" y="198.539617" width="195.645086" height="148.47936"/>
  </clipPath>
  <clipPath id="pd07112ff11">
   <rect x="669.554434" y="198.539617" width="195.645086" height="148.47936"/>
  </clipPath>
  <clipPath id="p9cd8918ce9">
   <rect x="54.117734" y="356.519457" width="195.645086" height="148.47936"/>
  </clipPath>
  <clipPath id="pf5a9fdaf54">
   <rect x="259.263301" y="356.519457" width="195.645086" height="148.47936"/>
  </clipPath>
  <clipPath id="p4b47c50e5c">
   <rect x="464.408867" y="356.519457" width="195.645086" height="148.47936"/>
  </clipPath>
  <clipPath id="p7107e7259e">
   <rect x="669.554434" y="356.519457" width="195.645086" height="148.47936"/>
  </clipPath>
 </defs>
</svg>
