<?xml version="1.0" encoding="utf-8" standalone="no"?>
<!DOCTYPE svg PUBLIC "-//W3C//DTD SVG 1.1//EN"
  "http://www.w3.org/Graphics/SVG/1.1/DTD/svg11.dtd">
<svg xmlns:xlink="http://www.w3.org/1999/xlink" width="872.39952pt" height="541.19952pt" viewBox="0 0 872.39952 541.19952" xmlns="http://www.w3.org/2000/svg" version="1.1">
 <metadata>
  <rdf:RDF xmlns:dc="http://purl.org/dc/elements/1.1/" xmlns:cc="http://creativecommons.org/ns#" xmlns:rdf="http://www.w3.org/1999/02/22-rdf-syntax-ns#">
   <cc:Work>
    <dc:type rdf:resource="http://purl.org/dc/dcmitype/StillImage"/>
    <dc:date>2026-07-17T22:19:28.728420</dc:date>
    <dc:format>image/svg+xml</dc:format>
    <dc:creator>
     <cc:Agent>
      <dc:title>Matplotlib v3.11.0, https://matplotlib.org/</dc:title>
     </cc:Agent>
    </dc:creator>
   </cc:Work>
  </rdf:RDF>
 </metadata>
 <defs>
  <style type="text/css">*{stroke-linejoin: round; stroke-linecap: butt}</style>
 </defs>
 <g id="figure_1">
  <g id="patch_1">
   <path d="M 0 541.19952 
L 872.39952 541.19952 
L 872.39952 0 
L 0 0 
z
" style="fill: #ffffff"/>
  </g>
  <g id="axes_1">
   <g id="patch_2">
    <path d="M 54.117734 189.039137 
L 249.762821 189.039137 
L 249.762821 40.559777 
L 54.117734 40.559777 
z
" style="fill: #ffffff"/>
   </g>
   <g id="FillBetweenPolyCollection_1">
    <defs>
     <path id="mceaffd7499" d="M 63.010693 -360.328215 
L 63.010693 -359.420605 
L 70.7437 -359.583304 
L 78.476708 -359.8431 
L 86.209715 -360.214423 
L 93.942722 -361.164202 
L 101.67573 -362.490735 
L 109.408737 -364.465201 
L 117.141744 -367.570649 
L 124.874752 -371.14407 
L 132.607759 -377.059793 
L 140.340767 -393.969279 
L 148.073774 -434.648129 
L 155.806781 -434.976815 
L 163.539789 -394.460505 
L 171.272796 -376.720499 
L 179.005803 -371.235772 
L 186.738811 -367.376663 
L 194.471818 -364.179451 
L 202.204825 -362.254 
L 209.937833 -361.132167 
L 217.67084 -360.349178 
L 225.403848 -359.931221 
L 233.136855 -359.625988 
L 240.869862 -359.561014 
L 240.869862 -360.362165 
L 240.869862 -360.362165 
L 233.136855 -360.502961 
L 225.403848 -360.735308 
L 217.67084 -361.466697 
L 209.937833 -362.601069 
L 202.204825 -364.023305 
L 194.471818 -366.569281 
L 186.738811 -370.427507 
L 179.005803 -374.601094 
L 171.272796 -380.992482 
L 163.539789 -398.309198 
L 155.806781 -443.783724 
L 148.073774 -445.006031 
L 140.340767 -398.687739 
L 132.607759 -380.66787 
L 124.874752 -374.870604 
L 117.141744 -370.140614 
L 109.408737 -366.735336 
L 101.67573 -364.01341 
L 93.942722 -362.51776 
L 86.209715 -361.335551 
L 78.476708 -360.902984 
L 70.7437 -360.551537 
L 63.010693 -360.328215 
z
"/>
    </defs>
    <g clip-path="url(#pca6f0d7dc4)">
     <use xlink:href="#mceaffd7499" x="0" y="541.19952" style="fill: #f7e3c1"/>
    </g>
   </g>
   <g id="matplotlib.axis_1">
    <g id="xtick_1">
     <g id="line2d_1">
      <defs>
       <path id="mafc9632164" d="M 0 0 
L 0 3.5 
" style="stroke: #252a31; stroke-width: 0.8"/>
      </defs>
      <g>
       <use xlink:href="#mafc9632164" x="100.386895" y="189.039137" style="fill: #252a31; stroke: #252a31; stroke-width: 0.8"/>
      </g>
     </g>
    </g>
    <g id="xtick_2">
     <g id="line2d_2">
      <g>
       <use xlink:href="#mafc9632164" x="151.940278" y="189.039137" style="fill: #252a31; stroke: #252a31; stroke-width: 0.8"/>
      </g>
     </g>
    </g>
    <g id="xtick_3">
     <g id="line2d_3">
      <g>
       <use xlink:href="#mafc9632164" x="203.49366" y="189.039137" style="fill: #252a31; stroke: #252a31; stroke-width: 0.8"/>
      </g>
     </g>
    </g>
   </g>
   <g id="matplotlib.axis_2">
    <g id="ytick_1">
     <g id="line2d_4">
      <path d="M 54.117734 182.290075 
L 249.762821 182.290075 
" clip-path="url(#pca6f0d7dc4)" style="fill: none; stroke: #d9dee5; stroke-width: 0.5; stroke-linecap: square"/>
     </g>
     <g id="line2d_5">
      <defs>
       <path id="m9f8a272a10" d="M 0 0 
L -3.5 0 
" style="stroke: #252a31; stroke-width: 0.8"/>
      </defs>
      <g>
       <use xlink:href="#m9f8a272a10" x="54.117734" y="182.290075" style="fill: #252a31; stroke: #252a31; stroke-width: 0.8"/>
      </g>
     </g>
     <g id="text_1">
      <text style="font-size: 9px; font-family: 'DejaVu Sans'; text-anchor: end; fill: #252a31" x="47.117734" y="185.70902" transform="rotate(-0 47.117734 185.70902)">0.0</text>
     </g>
    </g>
    <g id="ytick_2">
     <g id="line2d_6">
      <path d="M 54.117734 146.07337 
L 249.762821 146.07337 
" clip-path="url(#pca6f0d7dc4)" style="fill: none; stroke: #d9dee5; stroke-width: 0.5; stroke-linecap: square"/>
     </g>
     <g id="line2d_7">
      <g>
       <use xlink:href="#m9f8a272a10" x="54.117734" y="146.07337" style="fill: #252a31; stroke: #252a31; stroke-width: 0.8"/>
      </g>
     </g>
     <g id="text_2">
      <text style="font-size: 9px; font-family: 'DejaVu Sans'; text-anchor: end; fill: #252a31" x="47.117734" y="149.492316" transform="rotate(-0 47.117734 149.492316)">0.1</text>
     </g>
    </g>
    <g id="ytick_3">
     <g id="line2d_8">
      <path d="M 54.117734 109.856666 
L 249.762821 109.856666 
" clip-path="url(#pca6f0d7dc4)" style="fill: none; stroke: #d9dee5; stroke-width: 0.5; stroke-linecap: square"/>
     </g>
     <g id="line2d_9">
      <g>
       <use xlink:href="#m9f8a272a10" x="54.117734" y="109.856666" style="fill: #252a31; stroke: #252a31; stroke-width: 0.8"/>
      </g>
     </g>
     <g id="text_3">
      <text style="font-size: 9px; font-family: 'DejaVu Sans'; text-anchor: end; fill: #252a31" x="47.117734" y="113.275611" transform="rotate(-0 47.117734 113.275611)">0.2</text>
     </g>
    </g>
    <g id="ytick_4">
     <g id="line2d_10">
      <path d="M 54.117734 73.639961 
L 249.762821 73.639961 
" clip-path="url(#pca6f0d7dc4)" style="fill: none; stroke: #d9dee5; stroke-width: 0.5; stroke-linecap: square"/>
     </g>
     <g id="line2d_11">
      <g>
       <use xlink:href="#m9f8a272a10" x="54.117734" y="73.639961" style="fill: #252a31; stroke: #252a31; stroke-width: 0.8"/>
      </g>
     </g>
     <g id="text_4">
      <text style="font-size: 9px; font-family: 'DejaVu Sans'; text-anchor: end; fill: #252a31" x="47.117734" y="77.058906" transform="rotate(-0 47.117734 77.058906)">0.3</text>
     </g>
    </g>
    <g id="text_5">
     <text style="font-size: 9px; font-family: 'DejaVu Sans'; fill: #252a31" transform="translate(14.939473 147.499691) rotate(-90)">Coherence 6%</text>
     <text style="font-size: 9px; font-family: 'DejaVu Sans'; fill: #252a31" transform="translate(25.741934 138.018051) rotate(-90)">Proportion</text>
    </g>
   </g>
   <g id="line2d_12">
    <path d="M 63.010693 181.313663 
L 70.7437 181.16689 
L 78.476708 180.843434 
L 86.209715 180.355391 
L 93.942722 179.392209 
L 101.67573 178.012672 
L 109.408737 175.651564 
L 117.141744 172.376554 
L 124.874752 168.151093 
L 132.607759 162.332227 
L 140.340767 144.965844 
L 148.073774 101.449333 
L 155.806781 101.848874 
L 163.539789 144.951431 
L 171.272796 162.317973 
L 179.005803 168.288918 
L 186.738811 172.400035 
L 194.471818 175.794285 
L 202.204825 178.04247 
L 209.937833 179.41178 
L 217.67084 180.357183 
L 225.403848 180.871443 
L 233.136855 181.214235 
L 240.869862 181.285252 
" clip-path="url(#pca6f0d7dc4)" style="fill: none; stroke: #d97706; stroke-width: 1.4; stroke-linecap: square"/>
   </g>
   <g id="line2d_13">
    <path d="M 63.010693 181.696807 
L 70.7437 182.061895 
L 78.476708 181.833715 
L 86.209715 181.651171 
L 93.942722 181.5599 
L 101.67573 181.696807 
L 109.408737 181.286084 
L 117.141744 179.506281 
L 124.874752 178.091566 
L 132.607759 172.38707 
L 140.340767 147.469831 
L 148.073774 59.483684 
L 155.806781 61.400394 
L 163.539789 145.963844 
L 171.272796 167.184569 
L 179.005803 177.81775 
L 186.738811 179.962641 
L 194.471818 180.464636 
L 202.204825 181.422992 
L 209.937833 181.970623 
L 217.67084 181.924987 
L 225.403848 181.970623 
L 233.136855 181.970623 
L 240.869862 182.016259 
" clip-path="url(#pca6f0d7dc4)" style="fill: none; stroke: #2f6690; stroke-width: 1.4; stroke-linecap: square"/>
   </g>
   <g id="line2d_14">
    <path d="M 151.940278 189.039137 
L 151.940278 40.559777 
" clip-path="url(#pca6f0d7dc4)" style="fill: none; stroke-dasharray: 2.59,1.12; stroke-dashoffset: 0; stroke: #252a31; stroke-width: 0.7"/>
   </g>
   <g id="patch_3">
    <path d="M 54.117734 189.039137 
L 54.117734 40.559777 
" style="fill: none; stroke: #252a31; stroke-width: 0.8; stroke-linejoin: miter; stroke-linecap: square"/>
   </g>
   <g id="patch_4">
    <path d="M 249.762821 189.039137 
L 249.762821 40.559777 
" style="fill: none; stroke: #252a31; stroke-width: 0.8; stroke-linejoin: miter; stroke-linecap: square"/>
   </g>
   <g id="patch_5">
    <path d="M 54.117734 189.039137 
L 249.762821 189.039137 
" style="fill: none; stroke: #252a31; stroke-width: 0.8; stroke-linejoin: miter; stroke-linecap: square"/>
   </g>
   <g id="patch_6">
    <path d="M 54.117734 40.559777 
L 249.762821 40.559777 
" style="fill: none; stroke: #252a31; stroke-width: 0.8; stroke-linejoin: miter; stroke-linecap: square"/>
   </g>
   <g id="text_6">
    <text style="font-size: 11px; font-family: 'DejaVu Sans'; text-anchor: middle; fill: #252a31" x="151.940278" y="34.559777" transform="rotate(-0 151.940278 34.559777)">Prior SD 10 deg</text>
   </g>
  </g>
  <g id="axes_2">
   <g id="patch_7">
    <path d="M 259.263301 189.039137 
L 454.908387 189.039137 
L 454.908387 40.559777 
L 259.263301 40.559777 
z
" style="fill: #ffffff"/>
   </g>
   <g id="FillBetweenPolyCollection_2">
    <defs>
     <path id="me9091d3365" d="M 268.156259 -360.423011 
L 268.156259 -359.538319 
L 275.889267 -359.627231 
L 283.622274 -359.976629 
L 291.355281 -360.526147 
L 299.088289 -361.456955 
L 306.821296 -362.976121 
L 314.554303 -364.80346 
L 322.287311 -368.226056 
L 330.020318 -372.114327 
L 337.753326 -379.580059 
L 345.486333 -398.717902 
L 353.21934 -423.520437 
L 360.952348 -424.29207 
L 368.685355 -399.16034 
L 376.418362 -379.649355 
L 384.15137 -371.963152 
L 391.884377 -368.110241 
L 399.617385 -365.211332 
L 407.350392 -362.799989 
L 415.083399 -361.228707 
L 422.816407 -360.488215 
L 430.549414 -360.136354 
L 438.282421 -359.788917 
L 446.015429 -359.60103 
L 446.015429 -360.581687 
L 446.015429 -360.581687 
L 438.282421 -360.654312 
L 430.549414 -361.004054 
L 422.816407 -361.682013 
L 415.083399 -362.805035 
L 407.350392 -364.6462 
L 399.617385 -367.523583 
L 391.884377 -370.755215 
L 384.15137 -375.349953 
L 376.418362 -383.902825 
L 368.685355 -403.044485 
L 360.952348 -432.183266 
L 353.21934 -432.976553 
L 345.486333 -404.124855 
L 337.753326 -383.997564 
L 330.020318 -375.763158 
L 322.287311 -370.967046 
L 314.554303 -367.033402 
L 306.821296 -364.541097 
L 299.088289 -362.699413 
L 291.355281 -361.753658 
L 283.622274 -360.955266 
L 275.889267 -360.557801 
L 268.156259 -360.423011 
z
"/>
    </defs>
    <g clip-path="url(#paae6e78075)">
     <use xlink:href="#me9091d3365" x="0" y="541.19952" style="fill: #f7e3c1"/>
    </g>
   </g>
   <g id="matplotlib.axis_3">
    <g id="xtick_4">
     <g id="line2d_15">
      <g>
       <use xlink:href="#mafc9632164" x="305.532462" y="189.039137" style="fill: #252a31; stroke: #252a31; stroke-width: 0.8"/>
      </g>
     </g>
    </g>
    <g id="xtick_5">
     <g id="line2d_16">
      <g>
       <use xlink:href="#mafc9632164" x="357.085844" y="189.039137" style="fill: #252a31; stroke: #252a31; stroke-width: 0.8"/>
      </g>
     </g>
    </g>
    <g id="xtick_6">
     <g id="line2d_17">
      <g>
       <use xlink:href="#mafc9632164" x="408.639226" y="189.039137" style="fill: #252a31; stroke: #252a31; stroke-width: 0.8"/>
      </g>
     </g>
    </g>
   </g>
   <g id="matplotlib.axis_4">
    <g id="ytick_5">
     <g id="line2d_18">
      <path d="M 259.263301 182.290075 
L 454.908387 182.290075 
" clip-path="url(#paae6e78075)" style="fill: none; stroke: #d9dee5; stroke-width: 0.5; stroke-linecap: square"/>
     </g>
     <g id="line2d_19">
      <g>
       <use xlink:href="#m9f8a272a10" x="259.263301" y="182.290075" style="fill: #252a31; stroke: #252a31; stroke-width: 0.8"/>
      </g>
     </g>
    </g>
    <g id="ytick_6">
     <g id="line2d_20">
      <path d="M 259.263301 146.07337 
L 454.908387 146.07337 
" clip-path="url(#paae6e78075)" style="fill: none; stroke: #d9dee5; stroke-width: 0.5; stroke-linecap: square"/>
     </g>
     <g id="line2d_21">
      <g>
       <use xlink:href="#m9f8a272a10" x="259.263301" y="146.07337" style="fill: #252a31; stroke: #252a31; stroke-width: 0.8"/>
      </g>
     </g>
    </g>
    <g id="ytick_7">
     <g id="line2d_22">
      <path d="M 259.263301 109.856666 
L 454.908387 109.856666 
" clip-path="url(#paae6e78075)" style="fill: none; stroke: #d9dee5; stroke-width: 0.5; stroke-linecap: square"/>
     </g>
     <g id="line2d_23">
      <g>
       <use xlink:href="#m9f8a272a10" x="259.263301" y="109.856666" style="fill: #252a31; stroke: #252a31; stroke-width: 0.8"/>
      </g>
     </g>
    </g>
    <g id="ytick_8">
     <g id="line2d_24">
      <path d="M 259.263301 73.639961 
L 454.908387 73.639961 
" clip-path="url(#paae6e78075)" style="fill: none; stroke: #d9dee5; stroke-width: 0.5; stroke-linecap: square"/>
     </g>
     <g id="line2d_25">
      <g>
       <use xlink:href="#m9f8a272a10" x="259.263301" y="73.639961" style="fill: #252a31; stroke: #252a31; stroke-width: 0.8"/>
      </g>
     </g>
    </g>
   </g>
   <g id="line2d_26">
    <path d="M 268.156259 181.20007 
L 275.889267 181.07898 
L 283.622274 180.711586 
L 291.355281 180.093884 
L 299.088289 179.084987 
L 306.821296 177.456053 
L 314.554303 175.148053 
L 322.287311 171.779667 
L 330.020318 167.438177 
L 337.753326 159.457748 
L 345.486333 139.693619 
L 353.21934 113.48944 
L 360.952348 113.04127 
L 368.685355 139.99194 
L 376.418362 159.427721 
L 384.15137 167.410257 
L 391.884377 171.775321 
L 399.617385 174.96869 
L 407.350392 177.418298 
L 415.083399 179.128576 
L 422.816407 180.087787 
L 430.549414 180.673811 
L 438.282421 181.032802 
L 446.015429 181.206019 
" clip-path="url(#paae6e78075)" style="fill: none; stroke: #d97706; stroke-width: 1.4; stroke-linecap: square"/>
   </g>
   <g id="line2d_27">
    <path d="M 268.156259 181.698299 
L 275.889267 181.652778 
L 283.622274 181.698299 
L 291.355281 181.243086 
L 299.088289 181.061001 
L 306.821296 180.605789 
L 314.554303 180.65131 
L 322.287311 179.19463 
L 330.020318 177.100653 
L 337.753326 167.177021 
L 345.486333 144.188791 
L 353.21934 82.826149 
L 360.952348 81.187384 
L 368.685355 135.76736 
L 376.418362 155.933273 
L 384.15137 171.729146 
L 391.884377 177.874514 
L 399.617385 180.332661 
L 407.350392 181.288608 
L 415.083399 181.607256 
L 422.816407 181.971426 
L 430.549414 181.971426 
L 438.282421 182.10799 
L 446.015429 181.925905 
" clip-path="url(#paae6e78075)" style="fill: none; stroke: #2f6690; stroke-width: 1.4; stroke-linecap: square"/>
   </g>
   <g id="line2d_28">
    <path d="M 357.085844 189.039137 
L 357.085844 40.559777 
" clip-path="url(#paae6e78075)" style="fill: none; stroke-dasharray: 2.59,1.12; stroke-dashoffset: 0; stroke: #252a31; stroke-width: 0.7"/>
   </g>
   <g id="patch_8">
    <path d="M 259.263301 189.039137 
L 259.263301 40.559777 
" style="fill: none; stroke: #252a31; stroke-width: 0.8; stroke-linejoin: miter; stroke-linecap: square"/>
   </g>
   <g id="patch_9">
    <path d="M 454.908387 189.039137 
L 454.908387 40.559777 
" style="fill: none; stroke: #252a31; stroke-width: 0.8; stroke-linejoin: miter; stroke-linecap: square"/>
   </g>
   <g id="patch_10">
    <path d="M 259.263301 189.039137 
L 454.908387 189.039137 
" style="fill: none; stroke: #252a31; stroke-width: 0.8; stroke-linejoin: miter; stroke-linecap: square"/>
   </g>
   <g id="patch_11">
    <path d="M 259.263301 40.559777 
L 454.908387 40.559777 
" style="fill: none; stroke: #252a31; stroke-width: 0.8; stroke-linejoin: miter; stroke-linecap: square"/>
   </g>
   <g id="text_7">
    <text style="font-size: 11px; font-family: 'DejaVu Sans'; text-anchor: middle; fill: #252a31" x="357.085844" y="34.559777" transform="rotate(-0 357.085844 34.559777)">Prior SD 20 deg</text>
   </g>
  </g>
  <g id="axes_3">
   <g id="patch_12">
    <path d="M 464.408867 189.039137 
L 660.053954 189.039137 
L 660.053954 40.559777 
L 464.408867 40.559777 
z
" style="fill: #ffffff"/>
   </g>
   <g id="FillBetweenPolyCollection_3">
    <defs>
     <path id="m886585dbce" d="M 473.301826 -360.996981 
L 473.301826 -359.858084 
L 481.034833 -360.023355 
L 488.76784 -360.533914 
L 496.500848 -361.356982 
L 504.233855 -362.438824 
L 511.966862 -364.275984 
L 519.69987 -366.415482 
L 527.432877 -369.476815 
L 535.165885 -373.859713 
L 542.898892 -383.845846 
L 550.631899 -397.812176 
L 558.364907 -411.050901 
L 566.097914 -411.049521 
L 573.830921 -397.84345 
L 581.563929 -383.462389 
L 589.296936 -374.532828 
L 597.029944 -369.601369 
L 604.762951 -366.509942 
L 612.495958 -364.02702 
L 620.228966 -362.591326 
L 627.961973 -361.318349 
L 635.69498 -360.52858 
L 643.427988 -360.080595 
L 651.160995 -360.025232 
L 651.160995 -360.961847 
L 651.160995 -360.961847 
L 643.427988 -361.262232 
L 635.69498 -361.746976 
L 627.961973 -362.829026 
L 620.228966 -364.378984 
L 612.495958 -366.298933 
L 604.762951 -369.457666 
L 597.029944 -372.653792 
L 589.296936 -377.966008 
L 581.563929 -388.340108 
L 573.830921 -403.221659 
L 566.097914 -418.041802 
L 558.364907 -418.121953 
L 550.631899 -403.295827 
L 542.898892 -387.574494 
L 535.165885 -377.85868 
L 527.432877 -372.284403 
L 519.69987 -368.862796 
L 511.966862 -366.403953 
L 504.233855 -364.345102 
L 496.500848 -362.772933 
L 488.76784 -361.838701 
L 481.034833 -361.216645 
L 473.301826 -360.996981 
z
"/>
    </defs>
    <g clip-path="url(#pf871ff5ab7)">
     <use xlink:href="#m886585dbce" x="0" y="541.19952" style="fill: #f7e3c1"/>
    </g>
   </g>
   <g id="matplotlib.axis_5">
    <g id="xtick_7">
     <g id="line2d_29">
      <g>
       <use xlink:href="#mafc9632164" x="510.678028" y="189.039137" style="fill: #252a31; stroke: #252a31; stroke-width: 0.8"/>
      </g>
     </g>
    </g>
    <g id="xtick_8">
     <g id="line2d_30">
      <g>
       <use xlink:href="#mafc9632164" x="562.23141" y="189.039137" style="fill: #252a31; stroke: #252a31; stroke-width: 0.8"/>
      </g>
     </g>
    </g>
    <g id="xtick_9">
     <g id="line2d_31">
      <g>
       <use xlink:href="#mafc9632164" x="613.784793" y="189.039137" style="fill: #252a31; stroke: #252a31; stroke-width: 0.8"/>
      </g>
     </g>
    </g>
   </g>
   <g id="matplotlib.axis_6">
    <g id="ytick_9">
     <g id="line2d_32">
      <path d="M 464.408867 182.290075 
L 660.053954 182.290075 
" clip-path="url(#pf871ff5ab7)" style="fill: none; stroke: #d9dee5; stroke-width: 0.5; stroke-linecap: square"/>
     </g>
     <g id="line2d_33">
      <g>
       <use xlink:href="#m9f8a272a10" x="464.408867" y="182.290075" style="fill: #252a31; stroke: #252a31; stroke-width: 0.8"/>
      </g>
     </g>
    </g>
    <g id="ytick_10">
     <g id="line2d_34">
      <path d="M 464.408867 146.07337 
L 660.053954 146.07337 
" clip-path="url(#pf871ff5ab7)" style="fill: none; stroke: #d9dee5; stroke-width: 0.5; stroke-linecap: square"/>
     </g>
     <g id="line2d_35">
      <g>
       <use xlink:href="#m9f8a272a10" x="464.408867" y="146.07337" style="fill: #252a31; stroke: #252a31; stroke-width: 0.8"/>
      </g>
     </g>
    </g>
    <g id="ytick_11">
     <g id="line2d_36">
      <path d="M 464.408867 109.856666 
L 660.053954 109.856666 
" clip-path="url(#pf871ff5ab7)" style="fill: none; stroke: #d9dee5; stroke-width: 0.5; stroke-linecap: square"/>
     </g>
     <g id="line2d_37">
      <g>
       <use xlink:href="#m9f8a272a10" x="464.408867" y="109.856666" style="fill: #252a31; stroke: #252a31; stroke-width: 0.8"/>
      </g>
     </g>
    </g>
    <g id="ytick_12">
     <g id="line2d_38">
      <path d="M 464.408867 73.639961 
L 660.053954 73.639961 
" clip-path="url(#pf871ff5ab7)" style="fill: none; stroke: #d9dee5; stroke-width: 0.5; stroke-linecap: square"/>
     </g>
     <g id="line2d_39">
      <g>
       <use xlink:href="#m9f8a272a10" x="464.408867" y="73.639961" style="fill: #252a31; stroke: #252a31; stroke-width: 0.8"/>
      </g>
     </g>
    </g>
   </g>
   <g id="line2d_40">
    <path d="M 473.301826 180.772376 
L 481.034833 180.569495 
L 488.76784 180.060543 
L 496.500848 179.148636 
L 504.233855 177.772932 
L 511.966862 175.958396 
L 519.69987 173.638973 
L 527.432877 170.132061 
L 535.165885 165.134008 
L 542.898892 155.522406 
L 550.631899 140.746497 
L 558.364907 127.184855 
L 566.097914 126.817188 
L 573.830921 140.696533 
L 581.563929 155.681709 
L 589.296936 164.967912 
L 597.029944 170.214396 
L 604.762951 173.431996 
L 612.495958 176.060096 
L 620.228966 177.729091 
L 627.961973 179.145245 
L 635.69498 180.076984 
L 643.427988 180.547351 
L 651.160995 180.785077 
" clip-path="url(#pf871ff5ab7)" style="fill: none; stroke: #d97706; stroke-width: 1.4; stroke-linecap: square"/>
   </g>
   <g id="line2d_41">
    <path d="M 473.301826 180.829135 
L 481.034833 181.218719 
L 488.76784 181.072625 
L 496.500848 180.147363 
L 504.233855 178.832517 
L 511.966862 176.592409 
L 519.69987 173.670529 
L 527.432877 170.846044 
L 535.165885 169.433802 
L 542.898892 163.784834 
L 550.631899 146.497043 
L 558.364907 106.905567 
L 566.097914 121.027988 
L 573.830921 145.717875 
L 581.563929 154.629609 
L 589.296936 160.278578 
L 597.029944 167.826768 
L 604.762951 171.576514 
L 612.495958 177.858557 
L 620.228966 179.757779 
L 627.961973 181.218719 
L 635.69498 180.975229 
L 643.427988 181.023927 
L 651.160995 181.072625 
" clip-path="url(#pf871ff5ab7)" style="fill: none; stroke: #2f6690; stroke-width: 1.4; stroke-linecap: square"/>
   </g>
   <g id="line2d_42">
    <path d="M 562.23141 189.039137 
L 562.23141 40.559777 
" clip-path="url(#pf871ff5ab7)" style="fill: none; stroke-dasharray: 2.59,1.12; stroke-dashoffset: 0; stroke: #252a31; stroke-width: 0.7"/>
   </g>
   <g id="patch_13">
    <path d="M 464.408867 189.039137 
L 464.408867 40.559777 
" style="fill: none; stroke: #252a31; stroke-width: 0.8; stroke-linejoin: miter; stroke-linecap: square"/>
   </g>
   <g id="patch_14">
    <path d="M 660.053954 189.039137 
L 660.053954 40.559777 
" style="fill: none; stroke: #252a31; stroke-width: 0.8; stroke-linejoin: miter; stroke-linecap: square"/>
   </g>
   <g id="patch_15">
    <path d="M 464.408867 189.039137 
L 660.053954 189.039137 
" style="fill: none; stroke: #252a31; stroke-width: 0.8; stroke-linejoin: miter; stroke-linecap: square"/>
   </g>
   <g id="patch_16">
    <path d="M 464.408867 40.559777 
L 660.053954 40.559777 
" style="fill: none; stroke: #252a31; stroke-width: 0.8; stroke-linejoin: miter; stroke-linecap: square"/>
   </g>
   <g id="text_8">
    <text style="font-size: 11px; font-family: 'DejaVu Sans'; text-anchor: middle; fill: #252a31" x="562.23141" y="34.559777" transform="rotate(-0 562.23141 34.559777)">Prior SD 40 deg</text>
   </g>
  </g>
  <g id="axes_4">
   <g id="patch_17">
    <path d="M 669.554434 189.039137 
L 865.19952 189.039137 
L 865.19952 40.559777 
L 669.554434 40.559777 
z
" style="fill: #ffffff"/>
   </g>
   <g id="FillBetweenPolyCollection_4">
    <defs>
     <path id="ma40bd2c9db" d="M 678.447392 -364.564106 
L 678.447392 -363.188272 
L 686.180399 -363.532965 
L 693.913407 -364.283563 
L 701.646414 -365.047852 
L 709.379422 -366.348489 
L 717.112429 -367.907195 
L 724.845436 -370.197437 
L 732.578444 -373.554317 
L 740.311451 -378.149314 
L 748.044458 -383.252278 
L 755.777466 -388.785711 
L 763.510473 -391.419054 
L 771.24348 -391.613217 
L 778.976488 -388.536573 
L 786.709495 -383.19235 
L 794.442503 -377.867393 
L 802.17551 -373.300559 
L 809.908517 -370.260542 
L 817.641525 -367.757329 
L 825.374532 -366.158955 
L 833.107539 -364.834811 
L 840.840547 -363.912957 
L 848.573554 -363.537904 
L 856.306562 -363.014852 
L 856.306562 -364.546153 
L 856.306562 -364.546153 
L 848.573554 -364.721148 
L 840.840547 -365.438023 
L 833.107539 -366.369542 
L 825.374532 -367.71312 
L 817.641525 -369.786242 
L 809.908517 -372.19135 
L 802.17551 -375.630257 
L 794.442503 -380.664219 
L 786.709495 -386.108297 
L 778.976488 -391.871776 
L 771.24348 -395.171014 
L 763.510473 -395.531425 
L 755.777466 -391.756834 
L 748.044458 -386.285599 
L 740.311451 -380.432641 
L 732.578444 -375.71254 
L 724.845436 -372.16496 
L 717.112429 -369.727197 
L 709.379422 -367.818216 
L 701.646414 -366.624241 
L 693.913407 -365.542273 
L 686.180399 -364.770214 
L 678.447392 -364.564106 
z
"/>
    </defs>
    <g clip-path="url(#p515ccff170)">
     <use xlink:href="#ma40bd2c9db" x="0" y="541.19952" style="fill: #f7e3c1"/>
    </g>
   </g>
   <g id="matplotlib.axis_7">
    <g id="xtick_10">
     <g id="line2d_43">
      <g>
       <use xlink:href="#mafc9632164" x="715.823594" y="189.039137" style="fill: #252a31; stroke: #252a31; stroke-width: 0.8"/>
      </g>
     </g>
    </g>
    <g id="xtick_11">
     <g id="line2d_44">
      <g>
       <use xlink:href="#mafc9632164" x="767.376977" y="189.039137" style="fill: #252a31; stroke: #252a31; stroke-width: 0.8"/>
      </g>
     </g>
    </g>
    <g id="xtick_12">
     <g id="line2d_45">
      <g>
       <use xlink:href="#mafc9632164" x="818.930359" y="189.039137" style="fill: #252a31; stroke: #252a31; stroke-width: 0.8"/>
      </g>
     </g>
    </g>
   </g>
   <g id="matplotlib.axis_8">
    <g id="ytick_13">
     <g id="line2d_46">
      <path d="M 669.554434 182.290075 
L 865.19952 182.290075 
" clip-path="url(#p515ccff170)" style="fill: none; stroke: #d9dee5; stroke-width: 0.5; stroke-linecap: square"/>
     </g>
     <g id="line2d_47">
      <g>
       <use xlink:href="#m9f8a272a10" x="669.554434" y="182.290075" style="fill: #252a31; stroke: #252a31; stroke-width: 0.8"/>
      </g>
     </g>
    </g>
    <g id="ytick_14">
     <g id="line2d_48">
      <path d="M 669.554434 146.07337 
L 865.19952 146.07337 
" clip-path="url(#p515ccff170)" style="fill: none; stroke: #d9dee5; stroke-width: 0.5; stroke-linecap: square"/>
     </g>
     <g id="line2d_49">
      <g>
       <use xlink:href="#m9f8a272a10" x="669.554434" y="146.07337" style="fill: #252a31; stroke: #252a31; stroke-width: 0.8"/>
      </g>
     </g>
    </g>
    <g id="ytick_15">
     <g id="line2d_50">
      <path d="M 669.554434 109.856666 
L 865.19952 109.856666 
" clip-path="url(#p515ccff170)" style="fill: none; stroke: #d9dee5; stroke-width: 0.5; stroke-linecap: square"/>
     </g>
     <g id="line2d_51">
      <g>
       <use xlink:href="#m9f8a272a10" x="669.554434" y="109.856666" style="fill: #252a31; stroke: #252a31; stroke-width: 0.8"/>
      </g>
     </g>
    </g>
    <g id="ytick_16">
     <g id="line2d_52">
      <path d="M 669.554434 73.639961 
L 865.19952 73.639961 
" clip-path="url(#p515ccff170)" style="fill: none; stroke: #d9dee5; stroke-width: 0.5; stroke-linecap: square"/>
     </g>
     <g id="line2d_53">
      <g>
       <use xlink:href="#m9f8a272a10" x="669.554434" y="73.639961" style="fill: #252a31; stroke: #252a31; stroke-width: 0.8"/>
      </g>
     </g>
    </g>
   </g>
   <g id="line2d_54">
    <path d="M 678.447392 177.369391 
L 686.180399 177.025596 
L 693.913407 176.32506 
L 701.646414 175.34493 
L 709.379422 174.133339 
L 717.112429 172.374585 
L 724.845436 169.930414 
L 732.578444 166.575817 
L 740.311451 161.946216 
L 748.044458 156.433696 
L 755.777466 150.848563 
L 763.510473 147.617115 
L 771.24348 147.547259 
L 778.976488 150.879332 
L 786.709495 156.517168 
L 794.442503 161.926065 
L 802.17551 166.687738 
L 809.908517 170.013104 
L 817.641525 172.45859 
L 825.374532 174.212926 
L 833.107539 175.564388 
L 840.840547 176.514469 
L 848.573554 177.109256 
L 856.306562 177.439738 
" clip-path="url(#p515ccff170)" style="fill: none; stroke: #d97706; stroke-width: 1.4; stroke-linecap: square"/>
   </g>
   <g id="line2d_55">
    <path d="M 678.447392 174.221068 
L 686.180399 175.370433 
L 693.913407 173.986504 
L 701.646414 173.447007 
L 709.379422 171.054452 
L 717.112429 170.02237 
L 724.845436 169.318678 
L 732.578444 168.521159 
L 740.311451 170.303847 
L 748.044458 167.465621 
L 755.777466 157.848491 
L 763.510473 135.682179 
L 771.24348 145.15857 
L 778.976488 157.402819 
L 786.709495 162.445948 
L 794.442503 165.073066 
L 802.17551 164.908872 
L 809.908517 165.096523 
L 817.641525 169.69398 
L 825.374532 173.259355 
L 833.107539 175.933387 
L 840.840547 175.90993 
L 848.573554 175.393889 
L 856.306562 175.276607 
" clip-path="url(#p515ccff170)" style="fill: none; stroke: #2f6690; stroke-width: 1.4; stroke-linecap: square"/>
   </g>
   <g id="line2d_56">
    <path d="M 767.376977 189.039137 
L 767.376977 40.559777 
" clip-path="url(#p515ccff170)" style="fill: none; stroke-dasharray: 2.59,1.12; stroke-dashoffset: 0; stroke: #252a31; stroke-width: 0.7"/>
   </g>
   <g id="patch_18">
    <path d="M 669.554434 189.039137 
L 669.554434 40.559777 
" style="fill: none; stroke: #252a31; stroke-width: 0.8; stroke-linejoin: miter; stroke-linecap: square"/>
   </g>
   <g id="patch_19">
    <path d="M 865.19952 189.039137 
L 865.19952 40.559777 
" style="fill: none; stroke: #252a31; stroke-width: 0.8; stroke-linejoin: miter; stroke-linecap: square"/>
   </g>
   <g id="patch_20">
    <path d="M 669.554434 189.039137 
L 865.19952 189.039137 
" style="fill: none; stroke: #252a31; stroke-width: 0.8; stroke-linejoin: miter; stroke-linecap: square"/>
   </g>
   <g id="patch_21">
    <path d="M 669.554434 40.559777 
L 865.19952 40.559777 
" style="fill: none; stroke: #252a31; stroke-width: 0.8; stroke-linejoin: miter; stroke-linecap: square"/>
   </g>
   <g id="text_9">
    <text style="font-size: 11px; font-family: 'DejaVu Sans'; text-anchor: middle; fill: #252a31" x="767.376977" y="34.559777" transform="rotate(-0 767.376977 34.559777)">Prior SD 80 deg</text>
   </g>
   <g id="legend_1">
    <g id="line2d_57">
     <path d="M 803.926551 49.728683 
L 810.926551 49.728683 
L 817.926551 49.728683 
" style="fill: none; stroke: #d97706; stroke-width: 1.4; stroke-linecap: square"/>
    </g>
    <g id="text_10">
     <text style="font-size: 7px; font-family: 'DejaVu Sans'; text-anchor: start; fill: #252a31" x="823.526551" y="52.178683" transform="rotate(-0 823.526551 52.178683)">Simulated</text>
    </g>
    <g id="line2d_58">
     <path d="M 803.926551 60.22923 
L 810.926551 60.22923 
L 817.926551 60.22923 
" style="fill: none; stroke: #2f6690; stroke-width: 1.4; stroke-linecap: square"/>
    </g>
    <g id="text_11">
     <text style="font-size: 7px; font-family: 'DejaVu Sans'; text-anchor: start; fill: #252a31" x="823.526551" y="62.67923" transform="rotate(-0 823.526551 62.67923)">Observed</text>
    </g>
   </g>
  </g>
  <g id="axes_5">
   <g id="patch_22">
    <path d="M 54.117734 347.018977 
L 249.762821 347.018977 
L 249.762821 198.539617 
L 54.117734 198.539617 
z
" style="fill: #ffffff"/>
   </g>
   <g id="FillBetweenPolyCollection_5">
    <defs>
     <path id="mf1ed709417" d="M 63.010693 -200.929605 
L 63.010693 -200.929605 
L 70.7437 -200.929605 
L 78.476708 -200.929605 
L 86.209715 -200.929605 
L 93.942722 -200.929605 
L 101.67573 -200.961929 
L 109.408737 -201.543326 
L 117.141744 -203.432093 
L 124.874752 -208.466753 
L 132.607759 -219.040938 
L 140.340767 -245.254696 
L 148.073774 -295.164068 
L 155.806781 -295.903865 
L 163.539789 -244.254738 
L 171.272796 -219.086642 
L 179.005803 -207.914663 
L 186.738811 -203.415341 
L 194.471818 -201.544716 
L 202.204825 -200.929605 
L 209.937833 -200.929605 
L 217.67084 -200.929605 
L 225.403848 -200.929605 
L 233.136855 -200.929605 
L 240.869862 -200.929605 
L 240.869862 -200.929605 
L 240.869862 -200.929605 
L 233.136855 -200.929605 
L 225.403848 -200.929605 
L 217.67084 -200.929605 
L 209.937833 -201.066967 
L 202.204825 -201.344554 
L 194.471818 -202.539824 
L 186.738811 -205.175022 
L 179.005803 -212.247838 
L 171.272796 -224.263528 
L 163.539789 -252.415628 
L 155.806781 -305.431433 
L 148.073774 -305.564322 
L 140.340767 -252.121366 
L 132.607759 -223.973855 
L 124.874752 -211.596446 
L 117.141744 -205.063866 
L 109.408737 -202.607946 
L 101.67573 -201.478074 
L 93.942722 -201.034088 
L 86.209715 -200.929605 
L 78.476708 -200.929605 
L 70.7437 -200.929605 
L 63.010693 -200.929605 
z
"/>
    </defs>
    <g clip-path="url(#p34097e74ec)">
     <use xlink:href="#mf1ed709417" x="0" y="541.19952" style="fill: #f7e3c1"/>
    </g>
   </g>
   <g id="matplotlib.axis_9">
    <g id="xtick_13">
     <g id="line2d_59">
      <g>
       <use xlink:href="#mafc9632164" x="100.386895" y="347.018977" style="fill: #252a31; stroke: #252a31; stroke-width: 0.8"/>
      </g>
     </g>
    </g>
    <g id="xtick_14">
     <g id="line2d_60">
      <g>
       <use xlink:href="#mafc9632164" x="151.940278" y="347.018977" style="fill: #252a31; stroke: #252a31; stroke-width: 0.8"/>
      </g>
     </g>
    </g>
    <g id="xtick_15">
     <g id="line2d_61">
      <g>
       <use xlink:href="#mafc9632164" x="203.49366" y="347.018977" style="fill: #252a31; stroke: #252a31; stroke-width: 0.8"/>
      </g>
     </g>
    </g>
   </g>
   <g id="matplotlib.axis_10">
    <g id="ytick_17">
     <g id="line2d_62">
      <path d="M 54.117734 340.269915 
L 249.762821 340.269915 
" clip-path="url(#p34097e74ec)" style="fill: none; stroke: #d9dee5; stroke-width: 0.5; stroke-linecap: square"/>
     </g>
     <g id="line2d_63">
      <g>
       <use xlink:href="#m9f8a272a10" x="54.117734" y="340.269915" style="fill: #252a31; stroke: #252a31; stroke-width: 0.8"/>
      </g>
     </g>
     <g id="text_12">
      <text style="font-size: 9px; font-family: 'DejaVu Sans'; text-anchor: end; fill: #252a31" x="47.117734" y="343.68886" transform="rotate(-0 47.117734 343.68886)">0.0</text>
     </g>
    </g>
    <g id="ytick_18">
     <g id="line2d_64">
      <path d="M 54.117734 304.05321 
L 249.762821 304.05321 
" clip-path="url(#p34097e74ec)" style="fill: none; stroke: #d9dee5; stroke-width: 0.5; stroke-linecap: square"/>
     </g>
     <g id="line2d_65">
      <g>
       <use xlink:href="#m9f8a272a10" x="54.117734" y="304.05321" style="fill: #252a31; stroke: #252a31; stroke-width: 0.8"/>
      </g>
     </g>
     <g id="text_13">
      <text style="font-size: 9px; font-family: 'DejaVu Sans'; text-anchor: end; fill: #252a31" x="47.117734" y="307.472156" transform="rotate(-0 47.117734 307.472156)">0.1</text>
     </g>
    </g>
    <g id="ytick_19">
     <g id="line2d_66">
      <path d="M 54.117734 267.836506 
L 249.762821 267.836506 
" clip-path="url(#p34097e74ec)" style="fill: none; stroke: #d9dee5; stroke-width: 0.5; stroke-linecap: square"/>
     </g>
     <g id="line2d_67">
      <g>
       <use xlink:href="#m9f8a272a10" x="54.117734" y="267.836506" style="fill: #252a31; stroke: #252a31; stroke-width: 0.8"/>
      </g>
     </g>
     <g id="text_14">
      <text style="font-size: 9px; font-family: 'DejaVu Sans'; text-anchor: end; fill: #252a31" x="47.117734" y="271.255451" transform="rotate(-0 47.117734 271.255451)">0.2</text>
     </g>
    </g>
    <g id="ytick_20">
     <g id="line2d_68">
      <path d="M 54.117734 231.619801 
L 249.762821 231.619801 
" clip-path="url(#p34097e74ec)" style="fill: none; stroke: #d9dee5; stroke-width: 0.5; stroke-linecap: square"/>
     </g>
     <g id="line2d_69">
      <g>
       <use xlink:href="#m9f8a272a10" x="54.117734" y="231.619801" style="fill: #252a31; stroke: #252a31; stroke-width: 0.8"/>
      </g>
     </g>
     <g id="text_15">
      <text style="font-size: 9px; font-family: 'DejaVu Sans'; text-anchor: end; fill: #252a31" x="47.117734" y="235.038746" transform="rotate(-0 47.117734 235.038746)">0.3</text>
     </g>
    </g>
    <g id="text_16">
     <text style="font-size: 9px; font-family: 'DejaVu Sans'; fill: #252a31" transform="translate(14.939473 308.342656) rotate(-90)">Coherence 12%</text>
     <text style="font-size: 9px; font-family: 'DejaVu Sans'; fill: #252a31" transform="translate(25.741934 295.997891) rotate(-90)">Proportion</text>
    </g>
   </g>
   <g id="line2d_70">
    <path d="M 63.010693 340.269915 
L 70.7437 340.269915 
L 78.476708 340.269915 
L 86.209715 340.269915 
L 93.942722 340.247327 
L 101.67573 340.017221 
L 109.408737 339.197102 
L 117.141744 336.91615 
L 124.874752 331.183494 
L 132.607759 319.791648 
L 140.340767 292.500381 
L 148.073774 241.722954 
L 155.806781 240.501654 
L 163.539789 292.921761 
L 171.272796 319.670656 
L 179.005803 331.202051 
L 186.738811 336.763784 
L 194.471818 339.22349 
L 202.204825 340.050755 
L 209.937833 340.241846 
L 217.67084 340.269235 
L 225.403848 340.269915 
L 233.136855 340.269915 
L 240.869862 340.269915 
" clip-path="url(#p34097e74ec)" style="fill: none; stroke: #d97706; stroke-width: 1.4; stroke-linecap: square"/>
   </g>
   <g id="line2d_71">
    <path d="M 63.010693 340.269915 
L 70.7437 340.269915 
L 78.476708 340.269915 
L 86.209715 340.269915 
L 93.942722 340.203156 
L 101.67573 340.002879 
L 109.408737 339.735844 
L 117.141744 338.867978 
L 124.874752 337.666318 
L 132.607759 330.055803 
L 140.340767 306.156116 
L 148.073774 208.287565 
L 155.806781 220.370926 
L 163.539789 299.279949 
L 171.272796 325.916751 
L 179.005803 336.33114 
L 186.738811 339.135014 
L 194.471818 339.735844 
L 202.204825 340.203156 
L 209.937833 340.203156 
L 217.67084 340.269915 
L 225.403848 340.269915 
L 233.136855 340.269915 
L 240.869862 340.269915 
" clip-path="url(#p34097e74ec)" style="fill: none; stroke: #2f6690; stroke-width: 1.4; stroke-linecap: square"/>
   </g>
   <g id="line2d_72">
    <path d="M 151.940278 347.018977 
L 151.940278 198.539617 
" clip-path="url(#p34097e74ec)" style="fill: none; stroke-dasharray: 2.59,1.12; stroke-dashoffset: 0; stroke: #252a31; stroke-width: 0.7"/>
   </g>
   <g id="patch_23">
    <path d="M 54.117734 347.018977 
L 54.117734 198.539617 
" style="fill: none; stroke: #252a31; stroke-width: 0.8; stroke-linejoin: miter; stroke-linecap: square"/>
   </g>
   <g id="patch_24">
    <path d="M 249.762821 347.018977 
L 249.762821 198.539617 
" style="fill: none; stroke: #252a31; stroke-width: 0.8; stroke-linejoin: miter; stroke-linecap: square"/>
   </g>
   <g id="patch_25">
    <path d="M 54.117734 347.018977 
L 249.762821 347.018977 
" style="fill: none; stroke: #252a31; stroke-width: 0.8; stroke-linejoin: miter; stroke-linecap: square"/>
   </g>
   <g id="patch_26">
    <path d="M 54.117734 198.539617 
L 249.762821 198.539617 
" style="fill: none; stroke: #252a31; stroke-width: 0.8; stroke-linejoin: miter; stroke-linecap: square"/>
   </g>
  </g>
  <g id="axes_6">
   <g id="patch_27">
    <path d="M 259.263301 347.018977 
L 454.908387 347.018977 
L 454.908387 198.539617 
L 259.263301 198.539617 
z
" style="fill: #ffffff"/>
   </g>
   <g id="FillBetweenPolyCollection_6">
    <defs>
     <path id="m67c3b06de8" d="M 268.156259 -200.929605 
L 268.156259 -200.929605 
L 275.889267 -200.929605 
L 283.622274 -200.929605 
L 291.355281 -200.929605 
L 299.088289 -200.960053 
L 306.821296 -201.31842 
L 314.554303 -202.584369 
L 322.287311 -205.541129 
L 330.020318 -211.448098 
L 337.753326 -224.069928 
L 345.486333 -248.85814 
L 353.21934 -279.696342 
L 360.952348 -279.07221 
L 368.685355 -250.124147 
L 376.418362 -224.186644 
L 384.15137 -211.535581 
L 391.884377 -205.520406 
L 399.617385 -202.403378 
L 407.350392 -201.317707 
L 415.083399 -200.929605 
L 422.816407 -200.929605 
L 430.549414 -200.929605 
L 438.282421 -200.929605 
L 446.015429 -200.929605 
L 446.015429 -200.929605 
L 446.015429 -200.929605 
L 438.282421 -200.929605 
L 430.549414 -200.994118 
L 422.816407 -201.092417 
L 415.083399 -201.318968 
L 407.350392 -202.219845 
L 399.617385 -204.216706 
L 391.884377 -207.682913 
L 384.15137 -214.763289 
L 376.418362 -228.866162 
L 368.685355 -256.068161 
L 360.952348 -288.168418 
L 353.21934 -288.670696 
L 345.486333 -254.861903 
L 337.753326 -228.58292 
L 330.020318 -215.564408 
L 322.287311 -207.899923 
L 314.554303 -203.892661 
L 306.821296 -202.157957 
L 299.088289 -201.319922 
L 291.355281 -201.059664 
L 283.622274 -200.994203 
L 275.889267 -200.929605 
L 268.156259 -200.929605 
z
"/>
    </defs>
    <g clip-path="url(#pb1553de301)">
     <use xlink:href="#m67c3b06de8" x="0" y="541.19952" style="fill: #f7e3c1"/>
    </g>
   </g>
   <g id="matplotlib.axis_11">
    <g id="xtick_16">
     <g id="line2d_73">
      <g>
       <use xlink:href="#mafc9632164" x="305.532462" y="347.018977" style="fill: #252a31; stroke: #252a31; stroke-width: 0.8"/>
      </g>
     </g>
    </g>
    <g id="xtick_17">
     <g id="line2d_74">
      <g>
       <use xlink:href="#mafc9632164" x="357.085844" y="347.018977" style="fill: #252a31; stroke: #252a31; stroke-width: 0.8"/>
      </g>
     </g>
    </g>
    <g id="xtick_18">
     <g id="line2d_75">
      <g>
       <use xlink:href="#mafc9632164" x="408.639226" y="347.018977" style="fill: #252a31; stroke: #252a31; stroke-width: 0.8"/>
      </g>
     </g>
    </g>
   </g>
   <g id="matplotlib.axis_12">
    <g id="ytick_21">
     <g id="line2d_76">
      <path d="M 259.263301 340.269915 
L 454.908387 340.269915 
" clip-path="url(#pb1553de301)" style="fill: none; stroke: #d9dee5; stroke-width: 0.5; stroke-linecap: square"/>
     </g>
     <g id="line2d_77">
      <g>
       <use xlink:href="#m9f8a272a10" x="259.263301" y="340.269915" style="fill: #252a31; stroke: #252a31; stroke-width: 0.8"/>
      </g>
     </g>
    </g>
    <g id="ytick_22">
     <g id="line2d_78">
      <path d="M 259.263301 304.05321 
L 454.908387 304.05321 
" clip-path="url(#pb1553de301)" style="fill: none; stroke: #d9dee5; stroke-width: 0.5; stroke-linecap: square"/>
     </g>
     <g id="line2d_79">
      <g>
       <use xlink:href="#m9f8a272a10" x="259.263301" y="304.05321" style="fill: #252a31; stroke: #252a31; stroke-width: 0.8"/>
      </g>
     </g>
    </g>
    <g id="ytick_23">
     <g id="line2d_80">
      <path d="M 259.263301 267.836506 
L 454.908387 267.836506 
" clip-path="url(#pb1553de301)" style="fill: none; stroke: #d9dee5; stroke-width: 0.5; stroke-linecap: square"/>
     </g>
     <g id="line2d_81">
      <g>
       <use xlink:href="#m9f8a272a10" x="259.263301" y="267.836506" style="fill: #252a31; stroke: #252a31; stroke-width: 0.8"/>
      </g>
     </g>
    </g>
    <g id="ytick_24">
     <g id="line2d_82">
      <path d="M 259.263301 231.619801 
L 454.908387 231.619801 
" clip-path="url(#pb1553de301)" style="fill: none; stroke: #d9dee5; stroke-width: 0.5; stroke-linecap: square"/>
     </g>
     <g id="line2d_83">
      <g>
       <use xlink:href="#m9f8a272a10" x="259.263301" y="231.619801" style="fill: #252a31; stroke: #252a31; stroke-width: 0.8"/>
      </g>
     </g>
    </g>
   </g>
   <g id="line2d_84">
    <path d="M 268.156259 340.269915 
L 275.889267 340.269915 
L 283.622274 340.264754 
L 291.355281 340.234999 
L 299.088289 340.063556 
L 306.821296 339.513221 
L 314.554303 338.00485 
L 322.287311 334.515949 
L 330.020318 327.8806 
L 337.753326 314.800581 
L 345.486333 289.136568 
L 353.21934 257.08103 
L 360.952348 257.351029 
L 368.685355 288.767849 
L 376.418362 315.026547 
L 384.15137 327.871524 
L 391.884377 334.595329 
L 399.617385 338.027736 
L 407.350392 339.506002 
L 415.083399 340.088739 
L 422.816407 340.234351 
L 430.549414 340.26604 
L 438.282421 340.269915 
L 446.015429 340.269915 
" clip-path="url(#pb1553de301)" style="fill: none; stroke: #d97706; stroke-width: 1.4; stroke-linecap: square"/>
   </g>
   <g id="line2d_85">
    <path d="M 268.156259 340.269915 
L 275.889267 340.269915 
L 283.622274 340.269915 
L 291.355281 340.269915 
L 299.088289 340.269915 
L 306.821296 339.827245 
L 314.554303 339.321337 
L 322.287311 337.107989 
L 330.020318 333.503393 
L 337.753326 323.891136 
L 345.486333 299.228111 
L 353.21934 239.404464 
L 360.952348 241.617812 
L 368.685355 289.80557 
L 376.418362 311.939055 
L 384.15137 329.456127 
L 391.884377 337.677135 
L 399.617385 339.131622 
L 407.350392 339.953722 
L 415.083399 340.080199 
L 422.816407 340.206677 
L 430.549414 340.269915 
L 438.282421 340.269915 
L 446.015429 340.269915 
" clip-path="url(#pb1553de301)" style="fill: none; stroke: #2f6690; stroke-width: 1.4; stroke-linecap: square"/>
   </g>
   <g id="line2d_86">
    <path d="M 357.085844 347.018977 
L 357.085844 198.539617 
" clip-path="url(#pb1553de301)" style="fill: none; stroke-dasharray: 2.59,1.12; stroke-dashoffset: 0; stroke: #252a31; stroke-width: 0.7"/>
   </g>
   <g id="patch_28">
    <path d="M 259.263301 347.018977 
L 259.263301 198.539617 
" style="fill: none; stroke: #252a31; stroke-width: 0.8; stroke-linejoin: miter; stroke-linecap: square"/>
   </g>
   <g id="patch_29">
    <path d="M 454.908387 347.018977 
L 454.908387 198.539617 
" style="fill: none; stroke: #252a31; stroke-width: 0.8; stroke-linejoin: miter; stroke-linecap: square"/>
   </g>
   <g id="patch_30">
    <path d="M 259.263301 347.018977 
L 454.908387 347.018977 
" style="fill: none; stroke: #252a31; stroke-width: 0.8; stroke-linejoin: miter; stroke-linecap: square"/>
   </g>
   <g id="patch_31">
    <path d="M 259.263301 198.539617 
L 454.908387 198.539617 
" style="fill: none; stroke: #252a31; stroke-width: 0.8; stroke-linejoin: miter; stroke-linecap: square"/>
   </g>
  </g>
  <g id="axes_7">
   <g id="patch_32">
    <path d="M 464.408867 347.018977 
L 660.053954 347.018977 
L 660.053954 198.539617 
L 464.408867 198.539617 
z
" style="fill: #ffffff"/>
   </g>
   <g id="FillBetweenPolyCollection_7">
    <defs>
     <path id="m38d63e5da0" d="M 473.301826 -200.995912 
L 473.301826 -200.929605 
L 481.034833 -200.929605 
L 488.76784 -200.99522 
L 496.500848 -201.257983 
L 504.233855 -202.084007 
L 511.966862 -203.200506 
L 519.69987 -205.879136 
L 527.432877 -210.077934 
L 535.165885 -217.073512 
L 542.898892 -228.504816 
L 550.631899 -245.556553 
L 558.364907 -260.273276 
L 566.097914 -260.594278 
L 573.830921 -245.348864 
L 581.563929 -227.877338 
L 589.296936 -216.834374 
L 597.029944 -209.85842 
L 604.762951 -205.914987 
L 612.495958 -203.40265 
L 620.228966 -201.952542 
L 627.961973 -201.259465 
L 635.69498 -200.929605 
L 643.427988 -200.929605 
L 651.160995 -200.929605 
L 651.160995 -201.06199 
L 651.160995 -201.06199 
L 643.427988 -201.162621 
L 635.69498 -201.424385 
L 627.961973 -202.086466 
L 620.228966 -203.073113 
L 612.495958 -205.399804 
L 604.762951 -208.475296 
L 597.029944 -213.0066 
L 589.296936 -221.093649 
L 581.563929 -233.445395 
L 573.830921 -251.853274 
L 566.097914 -267.506898 
L 558.364907 -268.197719 
L 550.631899 -251.555645 
L 542.898892 -233.322239 
L 535.165885 -221.003733 
L 527.432877 -213.006988 
L 519.69987 -208.28488 
L 511.966862 -205.238051 
L 504.233855 -203.045746 
L 496.500848 -202.021493 
L 488.76784 -201.426729 
L 481.034833 -201.128133 
L 473.301826 -200.995912 
z
"/>
    </defs>
    <g clip-path="url(#p1e9681909f)">
     <use xlink:href="#m38d63e5da0" x="0" y="541.19952" style="fill: #f7e3c1"/>
    </g>
   </g>
   <g id="matplotlib.axis_13">
    <g id="xtick_19">
     <g id="line2d_87">
      <g>
       <use xlink:href="#mafc9632164" x="510.678028" y="347.018977" style="fill: #252a31; stroke: #252a31; stroke-width: 0.8"/>
      </g>
     </g>
    </g>
    <g id="xtick_20">
     <g id="line2d_88">
      <g>
       <use xlink:href="#mafc9632164" x="562.23141" y="347.018977" style="fill: #252a31; stroke: #252a31; stroke-width: 0.8"/>
      </g>
     </g>
    </g>
    <g id="xtick_21">
     <g id="line2d_89">
      <g>
       <use xlink:href="#mafc9632164" x="613.784793" y="347.018977" style="fill: #252a31; stroke: #252a31; stroke-width: 0.8"/>
      </g>
     </g>
    </g>
   </g>
   <g id="matplotlib.axis_14">
    <g id="ytick_25">
     <g id="line2d_90">
      <path d="M 464.408867 340.269915 
L 660.053954 340.269915 
" clip-path="url(#p1e9681909f)" style="fill: none; stroke: #d9dee5; stroke-width: 0.5; stroke-linecap: square"/>
     </g>
     <g id="line2d_91">
      <g>
       <use xlink:href="#m9f8a272a10" x="464.408867" y="340.269915" style="fill: #252a31; stroke: #252a31; stroke-width: 0.8"/>
      </g>
     </g>
    </g>
    <g id="ytick_26">
     <g id="line2d_92">
      <path d="M 464.408867 304.05321 
L 660.053954 304.05321 
" clip-path="url(#p1e9681909f)" style="fill: none; stroke: #d9dee5; stroke-width: 0.5; stroke-linecap: square"/>
     </g>
     <g id="line2d_93">
      <g>
       <use xlink:href="#m9f8a272a10" x="464.408867" y="304.05321" style="fill: #252a31; stroke: #252a31; stroke-width: 0.8"/>
      </g>
     </g>
    </g>
    <g id="ytick_27">
     <g id="line2d_94">
      <path d="M 464.408867 267.836506 
L 660.053954 267.836506 
" clip-path="url(#p1e9681909f)" style="fill: none; stroke: #d9dee5; stroke-width: 0.5; stroke-linecap: square"/>
     </g>
     <g id="line2d_95">
      <g>
       <use xlink:href="#m9f8a272a10" x="464.408867" y="267.836506" style="fill: #252a31; stroke: #252a31; stroke-width: 0.8"/>
      </g>
     </g>
    </g>
    <g id="ytick_28">
     <g id="line2d_96">
      <path d="M 464.408867 231.619801 
L 660.053954 231.619801 
" clip-path="url(#p1e9681909f)" style="fill: none; stroke: #d9dee5; stroke-width: 0.5; stroke-linecap: square"/>
     </g>
     <g id="line2d_97">
      <g>
       <use xlink:href="#m9f8a272a10" x="464.408867" y="231.619801" style="fill: #252a31; stroke: #252a31; stroke-width: 0.8"/>
      </g>
     </g>
    </g>
   </g>
   <g id="line2d_98">
    <path d="M 473.301826 340.25805 
L 481.034833 340.209157 
L 488.76784 340.009749 
L 496.500848 339.600463 
L 504.233855 338.667285 
L 511.966862 336.917137 
L 519.69987 334.023939 
L 527.432877 329.657772 
L 535.165885 322.399723 
L 542.898892 310.351417 
L 550.631899 292.416959 
L 558.364907 277.573839 
L 566.097914 277.493362 
L 573.830921 292.745613 
L 581.563929 310.338479 
L 589.296936 322.256205 
L 597.029944 329.729827 
L 604.762951 334.10301 
L 612.495958 336.833906 
L 620.228966 338.64405 
L 627.961973 339.595949 
L 635.69498 340.041606 
L 643.427988 340.197959 
L 651.160995 340.24546 
" clip-path="url(#p1e9681909f)" style="fill: none; stroke: #d97706; stroke-width: 1.4; stroke-linecap: square"/>
   </g>
   <g id="line2d_99">
    <path d="M 473.301826 340.269915 
L 481.034833 340.269915 
L 488.76784 340.137834 
L 496.500848 339.873671 
L 504.233855 338.288695 
L 511.966862 335.250824 
L 519.69987 330.89214 
L 527.432877 327.127821 
L 535.165885 324.155991 
L 542.898892 317.15568 
L 550.631899 301.966325 
L 558.364907 269.606396 
L 566.097914 278.059602 
L 573.830921 302.230488 
L 581.563929 306.919376 
L 589.296936 318.542534 
L 597.029944 325.674926 
L 604.762951 332.080872 
L 612.495958 335.911231 
L 620.228966 339.279305 
L 627.961973 339.939712 
L 635.69498 340.137834 
L 643.427988 340.269915 
L 651.160995 340.269915 
" clip-path="url(#p1e9681909f)" style="fill: none; stroke: #2f6690; stroke-width: 1.4; stroke-linecap: square"/>
   </g>
   <g id="line2d_100">
    <path d="M 562.23141 347.018977 
L 562.23141 198.539617 
" clip-path="url(#p1e9681909f)" style="fill: none; stroke-dasharray: 2.59,1.12; stroke-dashoffset: 0; stroke: #252a31; stroke-width: 0.7"/>
   </g>
   <g id="patch_33">
    <path d="M 464.408867 347.018977 
L 464.408867 198.539617 
" style="fill: none; stroke: #252a31; stroke-width: 0.8; stroke-linejoin: miter; stroke-linecap: square"/>
   </g>
   <g id="patch_34">
    <path d="M 660.053954 347.018977 
L 660.053954 198.539617 
" style="fill: none; stroke: #252a31; stroke-width: 0.8; stroke-linejoin: miter; stroke-linecap: square"/>
   </g>
   <g id="patch_35">
    <path d="M 464.408867 347.018977 
L 660.053954 347.018977 
" style="fill: none; stroke: #252a31; stroke-width: 0.8; stroke-linejoin: miter; stroke-linecap: square"/>
   </g>
   <g id="patch_36">
    <path d="M 464.408867 198.539617 
L 660.053954 198.539617 
" style="fill: none; stroke: #252a31; stroke-width: 0.8; stroke-linejoin: miter; stroke-linecap: square"/>
   </g>
  </g>
  <g id="axes_8">
   <g id="patch_37">
    <path d="M 669.554434 347.018977 
L 865.19952 347.018977 
L 865.19952 198.539617 
L 669.554434 198.539617 
z
" style="fill: #ffffff"/>
   </g>
   <g id="FillBetweenPolyCollection_8">
    <defs>
     <path id="m2f7d1ea6a7" d="M 678.447392 -205.204063 
L 678.447392 -203.960314 
L 686.180399 -204.434424 
L 693.913407 -205.022846 
L 701.646414 -205.995421 
L 709.379422 -207.275123 
L 717.112429 -209.201368 
L 724.845436 -212.098415 
L 732.578444 -215.566093 
L 740.311451 -220.266212 
L 748.044458 -226.449358 
L 755.777466 -232.424692 
L 763.510473 -236.190763 
L 771.24348 -235.989774 
L 778.976488 -232.127086 
L 786.709495 -226.295126 
L 794.442503 -220.637035 
L 802.17551 -215.655376 
L 809.908517 -211.806768 
L 817.641525 -209.084891 
L 825.374532 -207.087764 
L 833.107539 -205.420195 
L 840.840547 -204.399187 
L 848.573554 -203.879014 
L 856.306562 -203.717853 
L 856.306562 -205.073811 
L 856.306562 -205.073811 
L 848.573554 -205.134927 
L 840.840547 -205.863783 
L 833.107539 -207.282218 
L 825.374532 -208.886837 
L 817.641525 -211.304482 
L 809.908517 -214.260522 
L 802.17551 -218.020386 
L 794.442503 -223.268947 
L 786.709495 -230.025163 
L 778.976488 -236.0025 
L 771.24348 -240.442262 
L 763.510473 -240.586426 
L 755.777466 -236.320289 
L 748.044458 -230.00227 
L 740.311451 -223.83005 
L 732.578444 -218.181276 
L 724.845436 -214.247404 
L 717.112429 -211.635738 
L 709.379422 -209.175733 
L 701.646414 -207.755974 
L 693.913407 -206.501316 
L 686.180399 -205.738479 
L 678.447392 -205.204063 
z
"/>
    </defs>
    <g clip-path="url(#p3d643410cb)">
     <use xlink:href="#m2f7d1ea6a7" x="0" y="541.19952" style="fill: #f7e3c1"/>
    </g>
   </g>
   <g id="matplotlib.axis_15">
    <g id="xtick_22">
     <g id="line2d_101">
      <g>
       <use xlink:href="#mafc9632164" x="715.823594" y="347.018977" style="fill: #252a31; stroke: #252a31; stroke-width: 0.8"/>
      </g>
     </g>
    </g>
    <g id="xtick_23">
     <g id="line2d_102">
      <g>
       <use xlink:href="#mafc9632164" x="767.376977" y="347.018977" style="fill: #252a31; stroke: #252a31; stroke-width: 0.8"/>
      </g>
     </g>
    </g>
    <g id="xtick_24">
     <g id="line2d_103">
      <g>
       <use xlink:href="#mafc9632164" x="818.930359" y="347.018977" style="fill: #252a31; stroke: #252a31; stroke-width: 0.8"/>
      </g>
     </g>
    </g>
   </g>
   <g id="matplotlib.axis_16">
    <g id="ytick_29">
     <g id="line2d_104">
      <path d="M 669.554434 340.269915 
L 865.19952 340.269915 
" clip-path="url(#p3d643410cb)" style="fill: none; stroke: #d9dee5; stroke-width: 0.5; stroke-linecap: square"/>
     </g>
     <g id="line2d_105">
      <g>
       <use xlink:href="#m9f8a272a10" x="669.554434" y="340.269915" style="fill: #252a31; stroke: #252a31; stroke-width: 0.8"/>
      </g>
     </g>
    </g>
    <g id="ytick_30">
     <g id="line2d_106">
      <path d="M 669.554434 304.05321 
L 865.19952 304.05321 
" clip-path="url(#p3d643410cb)" style="fill: none; stroke: #d9dee5; stroke-width: 0.5; stroke-linecap: square"/>
     </g>
     <g id="line2d_107">
      <g>
       <use xlink:href="#m9f8a272a10" x="669.554434" y="304.05321" style="fill: #252a31; stroke: #252a31; stroke-width: 0.8"/>
      </g>
     </g>
    </g>
    <g id="ytick_31">
     <g id="line2d_108">
      <path d="M 669.554434 267.836506 
L 865.19952 267.836506 
" clip-path="url(#p3d643410cb)" style="fill: none; stroke: #d9dee5; stroke-width: 0.5; stroke-linecap: square"/>
     </g>
     <g id="line2d_109">
      <g>
       <use xlink:href="#m9f8a272a10" x="669.554434" y="267.836506" style="fill: #252a31; stroke: #252a31; stroke-width: 0.8"/>
      </g>
     </g>
    </g>
    <g id="ytick_32">
     <g id="line2d_110">
      <path d="M 669.554434 231.619801 
L 865.19952 231.619801 
" clip-path="url(#p3d643410cb)" style="fill: none; stroke: #d9dee5; stroke-width: 0.5; stroke-linecap: square"/>
     </g>
     <g id="line2d_111">
      <g>
       <use xlink:href="#m9f8a272a10" x="669.554434" y="231.619801" style="fill: #252a31; stroke: #252a31; stroke-width: 0.8"/>
      </g>
     </g>
    </g>
   </g>
   <g id="line2d_112">
    <path d="M 678.447392 336.592696 
L 686.180399 336.160608 
L 693.913407 335.363156 
L 701.646414 334.376447 
L 709.379422 332.946247 
L 717.112429 330.883312 
L 724.845436 328.098724 
L 732.578444 324.253226 
L 740.311451 319.13085 
L 748.044458 313.037287 
L 755.777466 306.790453 
L 763.510473 303.182952 
L 771.24348 302.964215 
L 778.976488 307.002754 
L 786.709495 312.930926 
L 794.442503 319.2537 
L 802.17551 324.359049 
L 809.908517 328.236928 
L 817.641525 330.997063 
L 825.374532 333.2454 
L 833.107539 334.953195 
L 840.840547 336.033281 
L 848.573554 336.701933 
L 856.306562 336.816512 
" clip-path="url(#p3d643410cb)" style="fill: none; stroke: #d97706; stroke-width: 1.4; stroke-linecap: square"/>
   </g>
   <g id="line2d_113">
    <path d="M 678.447392 333.795918 
L 686.180399 334.035696 
L 693.913407 333.795918 
L 701.646414 332.665537 
L 709.379422 329.411412 
L 717.112429 326.671096 
L 724.845436 323.793764 
L 732.578444 323.211446 
L 740.311451 325.266684 
L 748.044458 325.129668 
L 755.777466 315.264529 
L 763.510473 298.274568 
L 771.24348 305.502153 
L 778.976488 316.737449 
L 786.709495 319.203734 
L 794.442503 323.279954 
L 802.17551 322.081066 
L 809.908517 320.6424 
L 817.641525 326.225794 
L 825.374532 332.871061 
L 833.107539 333.179347 
L 840.840547 334.892044 
L 848.573554 334.480997 
L 856.306562 333.89868 
" clip-path="url(#p3d643410cb)" style="fill: none; stroke: #2f6690; stroke-width: 1.4; stroke-linecap: square"/>
   </g>
   <g id="line2d_114">
    <path d="M 767.376977 347.018977 
L 767.376977 198.539617 
" clip-path="url(#p3d643410cb)" style="fill: none; stroke-dasharray: 2.59,1.12; stroke-dashoffset: 0; stroke: #252a31; stroke-width: 0.7"/>
   </g>
   <g id="patch_38">
    <path d="M 669.554434 347.018977 
L 669.554434 198.539617 
" style="fill: none; stroke: #252a31; stroke-width: 0.8; stroke-linejoin: miter; stroke-linecap: square"/>
   </g>
   <g id="patch_39">
    <path d="M 865.19952 347.018977 
L 865.19952 198.539617 
" style="fill: none; stroke: #252a31; stroke-width: 0.8; stroke-linejoin: miter; stroke-linecap: square"/>
   </g>
   <g id="patch_40">
    <path d="M 669.554434 347.018977 
L 865.19952 347.018977 
" style="fill: none; stroke: #252a31; stroke-width: 0.8; stroke-linejoin: miter; stroke-linecap: square"/>
   </g>
   <g id="patch_41">
    <path d="M 669.554434 198.539617 
L 865.19952 198.539617 
" style="fill: none; stroke: #252a31; stroke-width: 0.8; stroke-linejoin: miter; stroke-linecap: square"/>
   </g>
  </g>
  <g id="axes_9">
   <g id="patch_42">
    <path d="M 54.117734 504.998817 
L 249.762821 504.998817 
L 249.762821 356.519457 
L 54.117734 356.519457 
z
" style="fill: #ffffff"/>
   </g>
   <g id="FillBetweenPolyCollection_9">
    <defs>
     <path id="m11c336c92c" d="M 63.010693 -42.949765 
L 63.010693 -42.949765 
L 70.7437 -42.949765 
L 78.476708 -42.949765 
L 86.209715 -42.949765 
L 93.942722 -42.949765 
L 101.67573 -42.949765 
L 109.408737 -42.949765 
L 117.141744 -42.949765 
L 124.874752 -43.554259 
L 132.607759 -51.470078 
L 140.340767 -87.174193 
L 148.073774 -156.431219 
L 155.806781 -157.0709 
L 163.539789 -88.437834 
L 171.272796 -52.005862 
L 179.005803 -43.748693 
L 186.738811 -42.949765 
L 194.471818 -42.949765 
L 202.204825 -42.949765 
L 209.937833 -42.949765 
L 217.67084 -42.949765 
L 225.403848 -42.949765 
L 233.136855 -42.949765 
L 240.869862 -42.949765 
L 240.869862 -42.949765 
L 240.869862 -42.949765 
L 233.136855 -42.949765 
L 225.403848 -42.949765 
L 217.67084 -42.949765 
L 209.937833 -42.949765 
L 202.204825 -42.949765 
L 194.471818 -42.949765 
L 186.738811 -43.356477 
L 179.005803 -45.454302 
L 171.272796 -56.373328 
L 163.539789 -95.862461 
L 155.806781 -168.763697 
L 148.073774 -168.814221 
L 140.340767 -96.634411 
L 132.607759 -56.343158 
L 124.874752 -45.375604 
L 117.141744 -43.223637 
L 109.408737 -42.949765 
L 101.67573 -42.949765 
L 93.942722 -42.949765 
L 86.209715 -42.949765 
L 78.476708 -42.949765 
L 70.7437 -42.949765 
L 63.010693 -42.949765 
z
"/>
    </defs>
    <g clip-path="url(#p5edf8b1020)">
     <use xlink:href="#m11c336c92c" x="0" y="541.19952" style="fill: #f7e3c1"/>
    </g>
   </g>
   <g id="matplotlib.axis_17">
    <g id="xtick_25">
     <g id="line2d_115">
      <g>
       <use xlink:href="#mafc9632164" x="100.386895" y="504.998817" style="fill: #252a31; stroke: #252a31; stroke-width: 0.8"/>
      </g>
     </g>
     <g id="text_17">
      <text style="font-size: 9px; font-family: 'DejaVu Sans'; text-anchor: middle; fill: #252a31" x="100.386895" y="518.836707" transform="rotate(-0 100.386895 518.836707)">−100</text>
     </g>
    </g>
    <g id="xtick_26">
     <g id="line2d_116">
      <g>
       <use xlink:href="#mafc9632164" x="151.940278" y="504.998817" style="fill: #252a31; stroke: #252a31; stroke-width: 0.8"/>
      </g>
     </g>
     <g id="text_18">
      <text style="font-size: 9px; font-family: 'DejaVu Sans'; text-anchor: middle; fill: #252a31" x="151.940278" y="518.836707" transform="rotate(-0 151.940278 518.836707)">0</text>
     </g>
    </g>
    <g id="xtick_27">
     <g id="line2d_117">
      <g>
       <use xlink:href="#mafc9632164" x="203.49366" y="504.998817" style="fill: #252a31; stroke: #252a31; stroke-width: 0.8"/>
      </g>
     </g>
     <g id="text_19">
      <text style="font-size: 9px; font-family: 'DejaVu Sans'; text-anchor: middle; fill: #252a31" x="203.49366" y="518.836707" transform="rotate(-0 203.49366 518.836707)">100</text>
     </g>
    </g>
    <g id="text_20">
     <text style="font-size: 9px; font-family: 'DejaVu Sans'; text-anchor: middle; fill: #252a31" x="151.940278" y="531.837411" transform="rotate(-0 151.940278 531.837411)">Response - prior (deg)</text>
    </g>
   </g>
   <g id="matplotlib.axis_18">
    <g id="ytick_33">
     <g id="line2d_118">
      <path d="M 54.117734 498.249755 
L 249.762821 498.249755 
" clip-path="url(#p5edf8b1020)" style="fill: none; stroke: #d9dee5; stroke-width: 0.5; stroke-linecap: square"/>
     </g>
     <g id="line2d_119">
      <g>
       <use xlink:href="#m9f8a272a10" x="54.117734" y="498.249755" style="fill: #252a31; stroke: #252a31; stroke-width: 0.8"/>
      </g>
     </g>
     <g id="text_21">
      <text style="font-size: 9px; font-family: 'DejaVu Sans'; text-anchor: end; fill: #252a31" x="47.117734" y="501.6687" transform="rotate(-0 47.117734 501.6687)">0.0</text>
     </g>
    </g>
    <g id="ytick_34">
     <g id="line2d_120">
      <path d="M 54.117734 462.03305 
L 249.762821 462.03305 
" clip-path="url(#p5edf8b1020)" style="fill: none; stroke: #d9dee5; stroke-width: 0.5; stroke-linecap: square"/>
     </g>
     <g id="line2d_121">
      <g>
       <use xlink:href="#m9f8a272a10" x="54.117734" y="462.03305" style="fill: #252a31; stroke: #252a31; stroke-width: 0.8"/>
      </g>
     </g>
     <g id="text_22">
      <text style="font-size: 9px; font-family: 'DejaVu Sans'; text-anchor: end; fill: #252a31" x="47.117734" y="465.451996" transform="rotate(-0 47.117734 465.451996)">0.1</text>
     </g>
    </g>
    <g id="ytick_35">
     <g id="line2d_122">
      <path d="M 54.117734 425.816346 
L 249.762821 425.816346 
" clip-path="url(#p5edf8b1020)" style="fill: none; stroke: #d9dee5; stroke-width: 0.5; stroke-linecap: square"/>
     </g>
     <g id="line2d_123">
      <g>
       <use xlink:href="#m9f8a272a10" x="54.117734" y="425.816346" style="fill: #252a31; stroke: #252a31; stroke-width: 0.8"/>
      </g>
     </g>
     <g id="text_23">
      <text style="font-size: 9px; font-family: 'DejaVu Sans'; text-anchor: end; fill: #252a31" x="47.117734" y="429.235291" transform="rotate(-0 47.117734 429.235291)">0.2</text>
     </g>
    </g>
    <g id="ytick_36">
     <g id="line2d_124">
      <path d="M 54.117734 389.599641 
L 249.762821 389.599641 
" clip-path="url(#p5edf8b1020)" style="fill: none; stroke: #d9dee5; stroke-width: 0.5; stroke-linecap: square"/>
     </g>
     <g id="line2d_125">
      <g>
       <use xlink:href="#m9f8a272a10" x="54.117734" y="389.599641" style="fill: #252a31; stroke: #252a31; stroke-width: 0.8"/>
      </g>
     </g>
     <g id="text_24">
      <text style="font-size: 9px; font-family: 'DejaVu Sans'; text-anchor: end; fill: #252a31" x="47.117734" y="393.018586" transform="rotate(-0 47.117734 393.018586)">0.3</text>
     </g>
    </g>
    <g id="text_25">
     <text style="font-size: 9px; font-family: 'DejaVu Sans'; fill: #252a31" transform="translate(14.939473 466.322496) rotate(-90)">Coherence 24%</text>
     <text style="font-size: 9px; font-family: 'DejaVu Sans'; fill: #252a31" transform="translate(25.741934 453.977731) rotate(-90)">Proportion</text>
    </g>
   </g>
   <g id="line2d_126">
    <path d="M 63.010693 498.249755 
L 70.7437 498.249755 
L 78.476708 498.249755 
L 86.209715 498.249755 
L 93.942722 498.249755 
L 101.67573 498.249755 
L 109.408737 498.249755 
L 117.141744 498.157613 
L 124.874752 496.750524 
L 132.607759 487.045428 
L 140.340767 449.608491 
L 148.073774 379.335295 
L 155.806781 378.331968 
L 163.539789 448.957948 
L 171.272796 487.272462 
L 179.005803 496.737523 
L 186.738811 498.13325 
L 194.471818 498.249755 
L 202.204825 498.249755 
L 209.937833 498.249755 
L 217.67084 498.249755 
L 225.403848 498.249755 
L 233.136855 498.249755 
L 240.869862 498.249755 
" clip-path="url(#p5edf8b1020)" style="fill: none; stroke: #d97706; stroke-width: 1.4; stroke-linecap: square"/>
   </g>
   <g id="line2d_127">
    <path d="M 63.010693 498.249755 
L 70.7437 498.249755 
L 78.476708 498.249755 
L 86.209715 498.249755 
L 93.942722 498.249755 
L 101.67573 498.249755 
L 109.408737 498.249755 
L 117.141744 497.858505 
L 124.874752 496.554339 
L 132.607759 491.859339 
L 140.340767 464.602258 
L 148.073774 363.268519 
L 155.806781 368.746018 
L 163.539789 456.777259 
L 171.272796 486.77309 
L 179.005803 495.771839 
L 186.738811 498.119338 
L 194.471818 498.249755 
L 202.204825 498.249755 
L 209.937833 498.249755 
L 217.67084 498.249755 
L 225.403848 498.249755 
L 233.136855 498.249755 
L 240.869862 498.249755 
" clip-path="url(#p5edf8b1020)" style="fill: none; stroke: #2f6690; stroke-width: 1.4; stroke-linecap: square"/>
   </g>
   <g id="line2d_128">
    <path d="M 151.940278 504.998817 
L 151.940278 356.519457 
" clip-path="url(#p5edf8b1020)" style="fill: none; stroke-dasharray: 2.59,1.12; stroke-dashoffset: 0; stroke: #252a31; stroke-width: 0.7"/>
   </g>
   <g id="patch_43">
    <path d="M 54.117734 504.998817 
L 54.117734 356.519457 
" style="fill: none; stroke: #252a31; stroke-width: 0.8; stroke-linejoin: miter; stroke-linecap: square"/>
   </g>
   <g id="patch_44">
    <path d="M 249.762821 504.998817 
L 249.762821 356.519457 
" style="fill: none; stroke: #252a31; stroke-width: 0.8; stroke-linejoin: miter; stroke-linecap: square"/>
   </g>
   <g id="patch_45">
    <path d="M 54.117734 504.998817 
L 249.762821 504.998817 
" style="fill: none; stroke: #252a31; stroke-width: 0.8; stroke-linejoin: miter; stroke-linecap: square"/>
   </g>
   <g id="patch_46">
    <path d="M 54.117734 356.519457 
L 249.762821 356.519457 
" style="fill: none; stroke: #252a31; stroke-width: 0.8; stroke-linejoin: miter; stroke-linecap: square"/>
   </g>
  </g>
  <g id="axes_10">
   <g id="patch_47">
    <path d="M 259.263301 504.998817 
L 454.908387 504.998817 
L 454.908387 356.519457 
L 259.263301 356.519457 
z
" style="fill: #ffffff"/>
   </g>
   <g id="FillBetweenPolyCollection_10">
    <defs>
     <path id="m77671815d0" d="M 268.156259 -42.949765 
L 268.156259 -42.949765 
L 275.889267 -42.949765 
L 283.622274 -42.949765 
L 291.355281 -42.949765 
L 299.088289 -42.949765 
L 306.821296 -42.949765 
L 314.554303 -42.949765 
L 322.287311 -43.436652 
L 330.020318 -47.637983 
L 337.753326 -62.06139 
L 345.486333 -93.489939 
L 353.21934 -130.767805 
L 360.952348 -129.349808 
L 368.685355 -94.815379 
L 376.418362 -61.764306 
L 384.15137 -47.579671 
L 391.884377 -43.435561 
L 399.617385 -42.949765 
L 407.350392 -42.949765 
L 415.083399 -42.949765 
L 422.816407 -42.949765 
L 430.549414 -42.949765 
L 438.282421 -42.949765 
L 446.015429 -42.949765 
L 446.015429 -42.949765 
L 446.015429 -42.949765 
L 438.282421 -42.949765 
L 430.549414 -42.949765 
L 422.816407 -42.949765 
L 415.083399 -42.949765 
L 407.350392 -43.111219 
L 399.617385 -43.439737 
L 391.884377 -45.385405 
L 384.15137 -51.566365 
L 376.418362 -68.82328 
L 368.685355 -103.293592 
L 360.952348 -144.535951 
L 353.21934 -146.051725 
L 345.486333 -104.982197 
L 337.753326 -68.571268 
L 330.020318 -51.325981 
L 322.287311 -44.824558 
L 314.554303 -43.436582 
L 306.821296 -43.112053 
L 299.088289 -42.949765 
L 291.355281 -42.949765 
L 283.622274 -42.949765 
L 275.889267 -42.949765 
L 268.156259 -42.949765 
z
"/>
    </defs>
    <g clip-path="url(#pb6191cb6f8)">
     <use xlink:href="#m77671815d0" x="0" y="541.19952" style="fill: #f7e3c1"/>
    </g>
   </g>
   <g id="matplotlib.axis_19">
    <g id="xtick_28">
     <g id="line2d_129">
      <g>
       <use xlink:href="#mafc9632164" x="305.532462" y="504.998817" style="fill: #252a31; stroke: #252a31; stroke-width: 0.8"/>
      </g>
     </g>
     <g id="text_26">
      <text style="font-size: 9px; font-family: 'DejaVu Sans'; text-anchor: middle; fill: #252a31" x="305.532462" y="518.836707" transform="rotate(-0 305.532462 518.836707)">−100</text>
     </g>
    </g>
    <g id="xtick_29">
     <g id="line2d_130">
      <g>
       <use xlink:href="#mafc9632164" x="357.085844" y="504.998817" style="fill: #252a31; stroke: #252a31; stroke-width: 0.8"/>
      </g>
     </g>
     <g id="text_27">
      <text style="font-size: 9px; font-family: 'DejaVu Sans'; text-anchor: middle; fill: #252a31" x="357.085844" y="518.836707" transform="rotate(-0 357.085844 518.836707)">0</text>
     </g>
    </g>
    <g id="xtick_30">
     <g id="line2d_131">
      <g>
       <use xlink:href="#mafc9632164" x="408.639226" y="504.998817" style="fill: #252a31; stroke: #252a31; stroke-width: 0.8"/>
      </g>
     </g>
     <g id="text_28">
      <text style="font-size: 9px; font-family: 'DejaVu Sans'; text-anchor: middle; fill: #252a31" x="408.639226" y="518.836707" transform="rotate(-0 408.639226 518.836707)">100</text>
     </g>
    </g>
    <g id="text_29">
     <text style="font-size: 9px; font-family: 'DejaVu Sans'; text-anchor: middle; fill: #252a31" x="357.085844" y="531.837411" transform="rotate(-0 357.085844 531.837411)">Response - prior (deg)</text>
    </g>
   </g>
   <g id="matplotlib.axis_20">
    <g id="ytick_37">
     <g id="line2d_132">
      <path d="M 259.263301 498.249755 
L 454.908387 498.249755 
" clip-path="url(#pb6191cb6f8)" style="fill: none; stroke: #d9dee5; stroke-width: 0.5; stroke-linecap: square"/>
     </g>
     <g id="line2d_133">
      <g>
       <use xlink:href="#m9f8a272a10" x="259.263301" y="498.249755" style="fill: #252a31; stroke: #252a31; stroke-width: 0.8"/>
      </g>
     </g>
    </g>
    <g id="ytick_38">
     <g id="line2d_134">
      <path d="M 259.263301 462.03305 
L 454.908387 462.03305 
" clip-path="url(#pb6191cb6f8)" style="fill: none; stroke: #d9dee5; stroke-width: 0.5; stroke-linecap: square"/>
     </g>
     <g id="line2d_135">
      <g>
       <use xlink:href="#m9f8a272a10" x="259.263301" y="462.03305" style="fill: #252a31; stroke: #252a31; stroke-width: 0.8"/>
      </g>
     </g>
    </g>
    <g id="ytick_39">
     <g id="line2d_136">
      <path d="M 259.263301 425.816346 
L 454.908387 425.816346 
" clip-path="url(#pb6191cb6f8)" style="fill: none; stroke: #d9dee5; stroke-width: 0.5; stroke-linecap: square"/>
     </g>
     <g id="line2d_137">
      <g>
       <use xlink:href="#m9f8a272a10" x="259.263301" y="425.816346" style="fill: #252a31; stroke: #252a31; stroke-width: 0.8"/>
      </g>
     </g>
    </g>
    <g id="ytick_40">
     <g id="line2d_138">
      <path d="M 259.263301 389.599641 
L 454.908387 389.599641 
" clip-path="url(#pb6191cb6f8)" style="fill: none; stroke: #d9dee5; stroke-width: 0.5; stroke-linecap: square"/>
     </g>
     <g id="line2d_139">
      <g>
       <use xlink:href="#m9f8a272a10" x="259.263301" y="389.599641" style="fill: #252a31; stroke: #252a31; stroke-width: 0.8"/>
      </g>
     </g>
    </g>
   </g>
   <g id="line2d_140">
    <path d="M 268.156259 498.249755 
L 275.889267 498.249755 
L 283.622274 498.249755 
L 291.355281 498.249755 
L 299.088289 498.249755 
L 306.821296 498.241633 
L 314.554303 498.122951 
L 322.287311 497.060115 
L 330.020318 491.856464 
L 337.753326 476.168293 
L 345.486333 442.360941 
L 353.21934 402.889723 
L 360.952348 403.314945 
L 368.685355 441.987682 
L 376.418362 476.152312 
L 384.15137 491.856859 
L 391.884377 496.974042 
L 399.617385 498.100295 
L 407.350392 498.243267 
L 415.083399 498.249755 
L 422.816407 498.249755 
L 430.549414 498.249755 
L 438.282421 498.249755 
L 446.015429 498.249755 
" clip-path="url(#pb6191cb6f8)" style="fill: none; stroke: #d97706; stroke-width: 1.4; stroke-linecap: square"/>
   </g>
   <g id="line2d_141">
    <path d="M 268.156259 498.249755 
L 275.889267 498.249755 
L 283.622274 498.249755 
L 291.355281 498.249755 
L 299.088289 498.249755 
L 306.821296 498.249755 
L 314.554303 497.938615 
L 322.287311 496.538485 
L 330.020318 491.560243 
L 337.753326 478.18122 
L 345.486333 451.734314 
L 353.21934 392.6177 
L 360.952348 400.085062 
L 368.685355 451.889884 
L 376.418362 469.469298 
L 384.15137 491.404673 
L 391.884377 497.471905 
L 399.617385 498.094185 
L 407.350392 498.094185 
L 415.083399 498.249755 
L 422.816407 498.249755 
L 430.549414 498.249755 
L 438.282421 498.249755 
L 446.015429 498.249755 
" clip-path="url(#pb6191cb6f8)" style="fill: none; stroke: #2f6690; stroke-width: 1.4; stroke-linecap: square"/>
   </g>
   <g id="line2d_142">
    <path d="M 357.085844 504.998817 
L 357.085844 356.519457 
" clip-path="url(#pb6191cb6f8)" style="fill: none; stroke-dasharray: 2.59,1.12; stroke-dashoffset: 0; stroke: #252a31; stroke-width: 0.7"/>
   </g>
   <g id="patch_48">
    <path d="M 259.263301 504.998817 
L 259.263301 356.519457 
" style="fill: none; stroke: #252a31; stroke-width: 0.8; stroke-linejoin: miter; stroke-linecap: square"/>
   </g>
   <g id="patch_49">
    <path d="M 454.908387 504.998817 
L 454.908387 356.519457 
" style="fill: none; stroke: #252a31; stroke-width: 0.8; stroke-linejoin: miter; stroke-linecap: square"/>
   </g>
   <g id="patch_50">
    <path d="M 259.263301 504.998817 
L 454.908387 504.998817 
" style="fill: none; stroke: #252a31; stroke-width: 0.8; stroke-linejoin: miter; stroke-linecap: square"/>
   </g>
   <g id="patch_51">
    <path d="M 259.263301 356.519457 
L 454.908387 356.519457 
" style="fill: none; stroke: #252a31; stroke-width: 0.8; stroke-linejoin: miter; stroke-linecap: square"/>
   </g>
  </g>
  <g id="axes_11">
   <g id="patch_52">
    <path d="M 464.408867 504.998817 
L 660.053954 504.998817 
L 660.053954 356.519457 
L 464.408867 356.519457 
z
" style="fill: #ffffff"/>
   </g>
   <g id="FillBetweenPolyCollection_11">
    <defs>
     <path id="m8d30c6a78f" d="M 473.301826 -42.949765 
L 473.301826 -42.949765 
L 481.034833 -42.949765 
L 488.76784 -42.949765 
L 496.500848 -42.949765 
L 504.233855 -42.949765 
L 511.966862 -43.3587 
L 519.69987 -45.660565 
L 527.432877 -50.446702 
L 535.165885 -57.895022 
L 542.898892 -70.661658 
L 550.631899 -88.115322 
L 558.364907 -103.721149 
L 566.097914 -103.655797 
L 573.830921 -88.627616 
L 581.563929 -69.781077 
L 589.296936 -58.338715 
L 597.029944 -50.439805 
L 604.762951 -45.624758 
L 612.495958 -43.281926 
L 620.228966 -42.949765 
L 627.961973 -42.949765 
L 635.69498 -42.949765 
L 643.427988 -42.949765 
L 651.160995 -42.949765 
L 651.160995 -42.949765 
L 651.160995 -42.949765 
L 643.427988 -42.949765 
L 635.69498 -42.949765 
L 627.961973 -43.036824 
L 620.228966 -43.283179 
L 612.495958 -44.775362 
L 604.762951 -48.319396 
L 597.029944 -54.923077 
L 589.296936 -65.251847 
L 581.563929 -77.891306 
L 573.830921 -97.820439 
L 566.097914 -114.503342 
L 558.364907 -115.212313 
L 550.631899 -97.741326 
L 542.898892 -77.735153 
L 535.165885 -64.529159 
L 527.432877 -55.289232 
L 519.69987 -48.51544 
L 511.966862 -44.765594 
L 504.233855 -43.447282 
L 496.500848 -43.036665 
L 488.76784 -42.949765 
L 481.034833 -42.949765 
L 473.301826 -42.949765 
z
"/>
    </defs>
    <g clip-path="url(#p1455d3b818)">
     <use xlink:href="#m8d30c6a78f" x="0" y="541.19952" style="fill: #f7e3c1"/>
    </g>
   </g>
   <g id="matplotlib.axis_21">
    <g id="xtick_31">
     <g id="line2d_143">
      <g>
       <use xlink:href="#mafc9632164" x="510.678028" y="504.998817" style="fill: #252a31; stroke: #252a31; stroke-width: 0.8"/>
      </g>
     </g>
     <g id="text_30">
      <text style="font-size: 9px; font-family: 'DejaVu Sans'; text-anchor: middle; fill: #252a31" x="510.678028" y="518.836707" transform="rotate(-0 510.678028 518.836707)">−100</text>
     </g>
    </g>
    <g id="xtick_32">
     <g id="line2d_144">
      <g>
       <use xlink:href="#mafc9632164" x="562.23141" y="504.998817" style="fill: #252a31; stroke: #252a31; stroke-width: 0.8"/>
      </g>
     </g>
     <g id="text_31">
      <text style="font-size: 9px; font-family: 'DejaVu Sans'; text-anchor: middle; fill: #252a31" x="562.23141" y="518.836707" transform="rotate(-0 562.23141 518.836707)">0</text>
     </g>
    </g>
    <g id="xtick_33">
     <g id="line2d_145">
      <g>
       <use xlink:href="#mafc9632164" x="613.784793" y="504.998817" style="fill: #252a31; stroke: #252a31; stroke-width: 0.8"/>
      </g>
     </g>
     <g id="text_32">
      <text style="font-size: 9px; font-family: 'DejaVu Sans'; text-anchor: middle; fill: #252a31" x="613.784793" y="518.836707" transform="rotate(-0 613.784793 518.836707)">100</text>
     </g>
    </g>
    <g id="text_33">
     <text style="font-size: 9px; font-family: 'DejaVu Sans'; text-anchor: middle; fill: #252a31" x="562.23141" y="531.837411" transform="rotate(-0 562.23141 531.837411)">Response - prior (deg)</text>
    </g>
   </g>
   <g id="matplotlib.axis_22">
    <g id="ytick_41">
     <g id="line2d_146">
      <path d="M 464.408867 498.249755 
L 660.053954 498.249755 
" clip-path="url(#p1455d3b818)" style="fill: none; stroke: #d9dee5; stroke-width: 0.5; stroke-linecap: square"/>
     </g>
     <g id="line2d_147">
      <g>
       <use xlink:href="#m9f8a272a10" x="464.408867" y="498.249755" style="fill: #252a31; stroke: #252a31; stroke-width: 0.8"/>
      </g>
     </g>
    </g>
    <g id="ytick_42">
     <g id="line2d_148">
      <path d="M 464.408867 462.03305 
L 660.053954 462.03305 
" clip-path="url(#p1455d3b818)" style="fill: none; stroke: #d9dee5; stroke-width: 0.5; stroke-linecap: square"/>
     </g>
     <g id="line2d_149">
      <g>
       <use xlink:href="#m9f8a272a10" x="464.408867" y="462.03305" style="fill: #252a31; stroke: #252a31; stroke-width: 0.8"/>
      </g>
     </g>
    </g>
    <g id="ytick_43">
     <g id="line2d_150">
      <path d="M 464.408867 425.816346 
L 660.053954 425.816346 
" clip-path="url(#p1455d3b818)" style="fill: none; stroke: #d9dee5; stroke-width: 0.5; stroke-linecap: square"/>
     </g>
     <g id="line2d_151">
      <g>
       <use xlink:href="#m9f8a272a10" x="464.408867" y="425.816346" style="fill: #252a31; stroke: #252a31; stroke-width: 0.8"/>
      </g>
     </g>
    </g>
    <g id="ytick_44">
     <g id="line2d_152">
      <path d="M 464.408867 389.599641 
L 660.053954 389.599641 
" clip-path="url(#p1455d3b818)" style="fill: none; stroke: #d9dee5; stroke-width: 0.5; stroke-linecap: square"/>
     </g>
     <g id="line2d_153">
      <g>
       <use xlink:href="#m9f8a272a10" x="464.408867" y="389.599641" style="fill: #252a31; stroke: #252a31; stroke-width: 0.8"/>
      </g>
     </g>
    </g>
   </g>
   <g id="line2d_154">
    <path d="M 473.301826 498.249755 
L 481.034833 498.249755 
L 488.76784 498.249755 
L 496.500848 498.244771 
L 504.233855 498.137131 
L 511.966862 497.267796 
L 519.69987 494.209834 
L 527.432877 488.595252 
L 535.165885 479.927989 
L 542.898892 466.950484 
L 550.631899 447.968971 
L 558.364907 432.028114 
L 566.097914 431.297248 
L 573.830921 448.026647 
L 581.563929 467.007168 
L 589.296936 479.870387 
L 597.029944 488.67457 
L 604.762951 494.396082 
L 612.495958 497.332478 
L 620.228966 498.148849 
L 627.961973 498.24477 
L 635.69498 498.249755 
L 643.427988 498.249755 
L 651.160995 498.249755 
" clip-path="url(#p1455d3b818)" style="fill: none; stroke: #d97706; stroke-width: 1.4; stroke-linecap: square"/>
   </g>
   <g id="line2d_155">
    <path d="M 473.301826 498.249755 
L 481.034833 498.249755 
L 488.76784 498.249755 
L 496.500848 498.249755 
L 504.233855 497.767723 
L 511.966862 495.839593 
L 519.69987 491.019268 
L 527.432877 480.735909 
L 535.165885 475.915585 
L 542.898892 470.773905 
L 550.631899 457.759029 
L 558.364907 429.801147 
L 566.097914 443.137378 
L 573.830921 464.828839 
L 581.563929 464.828839 
L 589.296936 468.042388 
L 597.029944 483.628104 
L 604.762951 491.019268 
L 612.495958 496.482303 
L 620.228966 498.249755 
L 627.961973 498.249755 
L 635.69498 498.249755 
L 643.427988 498.249755 
L 651.160995 498.249755 
" clip-path="url(#p1455d3b818)" style="fill: none; stroke: #2f6690; stroke-width: 1.4; stroke-linecap: square"/>
   </g>
   <g id="line2d_156">
    <path d="M 562.23141 504.998817 
L 562.23141 356.519457 
" clip-path="url(#p1455d3b818)" style="fill: none; stroke-dasharray: 2.59,1.12; stroke-dashoffset: 0; stroke: #252a31; stroke-width: 0.7"/>
   </g>
   <g id="patch_53">
    <path d="M 464.408867 504.998817 
L 464.408867 356.519457 
" style="fill: none; stroke: #252a31; stroke-width: 0.8; stroke-linejoin: miter; stroke-linecap: square"/>
   </g>
   <g id="patch_54">
    <path d="M 660.053954 504.998817 
L 660.053954 356.519457 
" style="fill: none; stroke: #252a31; stroke-width: 0.8; stroke-linejoin: miter; stroke-linecap: square"/>
   </g>
   <g id="patch_55">
    <path d="M 464.408867 504.998817 
L 660.053954 504.998817 
" style="fill: none; stroke: #252a31; stroke-width: 0.8; stroke-linejoin: miter; stroke-linecap: square"/>
   </g>
   <g id="patch_56">
    <path d="M 464.408867 356.519457 
L 660.053954 356.519457 
" style="fill: none; stroke: #252a31; stroke-width: 0.8; stroke-linejoin: miter; stroke-linecap: square"/>
   </g>
  </g>
  <g id="axes_12">
   <g id="patch_57">
    <path d="M 669.554434 504.998817 
L 865.19952 504.998817 
L 865.19952 356.519457 
L 669.554434 356.519457 
z
" style="fill: #ffffff"/>
   </g>
   <g id="FillBetweenPolyCollection_12">
    <defs>
     <path id="m2df5b8a052" d="M 678.447392 -44.333462 
L 678.447392 -43.457496 
L 686.180399 -44.835412 
L 693.913407 -46.927138 
L 701.646414 -48.412704 
L 709.379422 -50.388009 
L 717.112429 -51.222838 
L 724.845436 -52.829046 
L 732.578444 -56.391282 
L 740.311451 -61.691454 
L 748.044458 -69.035548 
L 755.777466 -74.640726 
L 763.510473 -78.413328 
L 771.24348 -77.917063 
L 778.976488 -74.882757 
L 786.709495 -68.857756 
L 794.442503 -62.020718 
L 802.17551 -55.993744 
L 809.908517 -52.962209 
L 817.641525 -51.32473 
L 825.374532 -50.159848 
L 833.107539 -48.969856 
L 840.840547 -46.811704 
L 848.573554 -44.683599 
L 856.306562 -43.491678 
L 856.306562 -44.460768 
L 856.306562 -44.460768 
L 848.573554 -46.280995 
L 840.840547 -48.787696 
L 833.107539 -50.856389 
L 825.374532 -53.037579 
L 817.641525 -54.097324 
L 809.908517 -55.867708 
L 802.17551 -59.489899 
L 794.442503 -65.944187 
L 786.709495 -73.858174 
L 778.976488 -81.182276 
L 771.24348 -83.540854 
L 763.510473 -83.9643 
L 755.777466 -80.064837 
L 748.044458 -73.492305 
L 740.311451 -65.566149 
L 732.578444 -59.376655 
L 724.845436 -55.852332 
L 717.112429 -53.91904 
L 709.379422 -52.675486 
L 701.646414 -51.032069 
L 693.913407 -48.929225 
L 686.180399 -46.19418 
L 678.447392 -44.333462 
z
"/>
    </defs>
    <g clip-path="url(#p5925c5f61a)">
     <use xlink:href="#m2df5b8a052" x="0" y="541.19952" style="fill: #f7e3c1"/>
    </g>
   </g>
   <g id="matplotlib.axis_23">
    <g id="xtick_34">
     <g id="line2d_157">
      <g>
       <use xlink:href="#mafc9632164" x="715.823594" y="504.998817" style="fill: #252a31; stroke: #252a31; stroke-width: 0.8"/>
      </g>
     </g>
     <g id="text_34">
      <text style="font-size: 9px; font-family: 'DejaVu Sans'; text-anchor: middle; fill: #252a31" x="715.823594" y="518.836707" transform="rotate(-0 715.823594 518.836707)">−100</text>
     </g>
    </g>
    <g id="xtick_35">
     <g id="line2d_158">
      <g>
       <use xlink:href="#mafc9632164" x="767.376977" y="504.998817" style="fill: #252a31; stroke: #252a31; stroke-width: 0.8"/>
      </g>
     </g>
     <g id="text_35">
      <text style="font-size: 9px; font-family: 'DejaVu Sans'; text-anchor: middle; fill: #252a31" x="767.376977" y="518.836707" transform="rotate(-0 767.376977 518.836707)">0</text>
     </g>
    </g>
    <g id="xtick_36">
     <g id="line2d_159">
      <g>
       <use xlink:href="#mafc9632164" x="818.930359" y="504.998817" style="fill: #252a31; stroke: #252a31; stroke-width: 0.8"/>
      </g>
     </g>
     <g id="text_36">
      <text style="font-size: 9px; font-family: 'DejaVu Sans'; text-anchor: middle; fill: #252a31" x="818.930359" y="518.836707" transform="rotate(-0 818.930359 518.836707)">100</text>
     </g>
    </g>
    <g id="text_37">
     <text style="font-size: 9px; font-family: 'DejaVu Sans'; text-anchor: middle; fill: #252a31" x="767.376977" y="531.837411" transform="rotate(-0 767.376977 531.837411)">Response - prior (deg)</text>
    </g>
   </g>
   <g id="matplotlib.axis_24">
    <g id="ytick_45">
     <g id="line2d_160">
      <path d="M 669.554434 498.249755 
L 865.19952 498.249755 
" clip-path="url(#p5925c5f61a)" style="fill: none; stroke: #d9dee5; stroke-width: 0.5; stroke-linecap: square"/>
     </g>
     <g id="line2d_161">
      <g>
       <use xlink:href="#m9f8a272a10" x="669.554434" y="498.249755" style="fill: #252a31; stroke: #252a31; stroke-width: 0.8"/>
      </g>
     </g>
    </g>
    <g id="ytick_46">
     <g id="line2d_162">
      <path d="M 669.554434 462.03305 
L 865.19952 462.03305 
" clip-path="url(#p5925c5f61a)" style="fill: none; stroke: #d9dee5; stroke-width: 0.5; stroke-linecap: square"/>
     </g>
     <g id="line2d_163">
      <g>
       <use xlink:href="#m9f8a272a10" x="669.554434" y="462.03305" style="fill: #252a31; stroke: #252a31; stroke-width: 0.8"/>
      </g>
     </g>
    </g>
    <g id="ytick_47">
     <g id="line2d_164">
      <path d="M 669.554434 425.816346 
L 865.19952 425.816346 
" clip-path="url(#p5925c5f61a)" style="fill: none; stroke: #d9dee5; stroke-width: 0.5; stroke-linecap: square"/>
     </g>
     <g id="line2d_165">
      <g>
       <use xlink:href="#m9f8a272a10" x="669.554434" y="425.816346" style="fill: #252a31; stroke: #252a31; stroke-width: 0.8"/>
      </g>
     </g>
    </g>
    <g id="ytick_48">
     <g id="line2d_166">
      <path d="M 669.554434 389.599641 
L 865.19952 389.599641 
" clip-path="url(#p5925c5f61a)" style="fill: none; stroke: #d9dee5; stroke-width: 0.5; stroke-linecap: square"/>
     </g>
     <g id="line2d_167">
      <g>
       <use xlink:href="#m9f8a272a10" x="669.554434" y="389.599641" style="fill: #252a31; stroke: #252a31; stroke-width: 0.8"/>
      </g>
     </g>
    </g>
   </g>
   <g id="line2d_168">
    <path d="M 678.447392 497.262643 
L 686.180399 495.707897 
L 693.913407 493.369956 
L 701.646414 491.468508 
L 709.379422 489.728984 
L 717.112429 488.543786 
L 724.845436 486.858366 
L 732.578444 483.384795 
L 740.311451 477.623292 
L 748.044458 469.901479 
L 755.777466 463.769853 
L 763.510473 460.229885 
L 771.24348 460.451625 
L 778.976488 463.878084 
L 786.709495 469.884831 
L 794.442503 477.344628 
L 802.17551 483.587522 
L 809.908517 486.999512 
L 817.641525 488.397055 
L 825.374532 489.688603 
L 833.107539 491.410359 
L 840.840547 493.421608 
L 848.573554 495.681879 
L 856.306562 497.231926 
" clip-path="url(#p5925c5f61a)" style="fill: none; stroke: #d97706; stroke-width: 1.4; stroke-linecap: square"/>
   </g>
   <g id="line2d_169">
    <path d="M 678.447392 496.154469 
L 686.180399 494.18617 
L 693.913407 491.392455 
L 701.646414 487.900311 
L 709.379422 485.741531 
L 717.112429 481.995414 
L 724.845436 480.154101 
L 732.578444 481.614452 
L 740.311451 479.58266 
L 748.044458 478.376283 
L 755.777466 475.519074 
L 763.510473 461.042551 
L 771.24348 466.122033 
L 778.976488 477.995322 
L 786.709495 476.217503 
L 794.442503 479.138205 
L 802.17551 482.884323 
L 809.908517 477.677854 
L 817.641525 483.392271 
L 825.374532 488.154285 
L 833.107539 488.662233 
L 840.840547 491.646429 
L 848.573554 494.313157 
L 856.306562 495.963988 
" clip-path="url(#p5925c5f61a)" style="fill: none; stroke: #2f6690; stroke-width: 1.4; stroke-linecap: square"/>
   </g>
   <g id="line2d_170">
    <path d="M 767.376977 504.998817 
L 767.376977 356.519457 
" clip-path="url(#p5925c5f61a)" style="fill: none; stroke-dasharray: 2.59,1.12; stroke-dashoffset: 0; stroke: #252a31; stroke-width: 0.7"/>
   </g>
   <g id="patch_58">
    <path d="M 669.554434 504.998817 
L 669.554434 356.519457 
" style="fill: none; stroke: #252a31; stroke-width: 0.8; stroke-linejoin: miter; stroke-linecap: square"/>
   </g>
   <g id="patch_59">
    <path d="M 865.19952 504.998817 
L 865.19952 356.519457 
" style="fill: none; stroke: #252a31; stroke-width: 0.8; stroke-linejoin: miter; stroke-linecap: square"/>
   </g>
   <g id="patch_60">
    <path d="M 669.554434 504.998817 
L 865.19952 504.998817 
" style="fill: none; stroke: #252a31; stroke-width: 0.8; stroke-linejoin: miter; stroke-linecap: square"/>
   </g>
   <g id="patch_61">
    <path d="M 669.554434 356.519457 
L 865.19952 356.519457 
" style="fill: none; stroke: #252a31; stroke-width: 0.8; stroke-linejoin: miter; stroke-linecap: square"/>
   </g>
  </g>
  <g id="text_38">
   <text style="font-weight: 700; font-size: 13px; font-family: 'DejaVu Sans'; text-anchor: middle; fill: #252a31" x="436.19976" y="17.077969" transform="rotate(-0 436.19976 17.077969)">Static HMM decoded S/P-only response distributions relative to the prior</text>
  </g>
 </g>
 <defs>
  <clipPath id="pca6f0d7dc4">
   <rect x="54.117734" y="40.559777" width="195.645086" height="148.47936"/>
  </clipPath>
  <clipPath id="paae6e78075">
   <rect x="259.263301" y="40.559777" width="195.645086" height="148.47936"/>
  </clipPath>
  <clipPath id="pf871ff5ab7">
   <rect x="464.408867" y="40.559777" width="195.645086" height="148.47936"/>
  </clipPath>
  <clipPath id="p515ccff170">
   <rect x="669.554434" y="40.559777" width="195.645086" height="148.47936"/>
  </clipPath>
  <clipPath id="p34097e74ec">
   <rect x="54.117734" y="198.539617" width="195.645086" height="148.47936"/>
  </clipPath>
  <clipPath id="pb1553de301">
   <rect x="259.263301" y="198.539617" width="195.645086" height="148.47936"/>
  </clipPath>
  <clipPath id="p1e9681909f">
   <rect x="464.408867" y="198.539617" width="195.645086" height="148.47936"/>
  </clipPath>
  <clipPath id="p3d643410cb">
   <rect x="669.554434" y="198.539617" width="195.645086" height="148.47936"/>
  </clipPath>
  <clipPath id="p5edf8b1020">
   <rect x="54.117734" y="356.519457" width="195.645086" height="148.47936"/>
  </clipPath>
  <clipPath id="pb6191cb6f8">
   <rect x="259.263301" y="356.519457" width="195.645086" height="148.47936"/>
  </clipPath>
  <clipPath id="p1455d3b818">
   <rect x="464.408867" y="356.519457" width="195.645086" height="148.47936"/>
  </clipPath>
  <clipPath id="p5925c5f61a">
   <rect x="669.554434" y="356.519457" width="195.645086" height="148.47936"/>
  </clipPath>
 </defs>
</svg>
