<?xml version="1.0" encoding="utf-8" standalone="no"?>
<!DOCTYPE svg PUBLIC "-//W3C//DTD SVG 1.1//EN"
  "http://www.w3.org/Graphics/SVG/1.1/DTD/svg11.dtd">
<svg xmlns:xlink="http://www.w3.org/1999/xlink" width="872.39952pt" height="541.19952pt" viewBox="0 0 872.39952 541.19952" xmlns="http://www.w3.org/2000/svg" version="1.1">
 <metadata>
  <rdf:RDF xmlns:dc="http://purl.org/dc/elements/1.1/" xmlns:cc="http://creativecommons.org/ns#" xmlns:rdf="http://www.w3.org/1999/02/22-rdf-syntax-ns#">
   <cc:Work>
    <dc:type rdf:resource="http://purl.org/dc/dcmitype/StillImage"/>
    <dc:date>2026-07-17T22:19:30.939559</dc:date>
    <dc:format>image/svg+xml</dc:format>
    <dc:creator>
     <cc:Agent>
      <dc:title>Matplotlib v3.11.0, https://matplotlib.org/</dc:title>
     </cc:Agent>
    </dc:creator>
   </cc:Work>
  </rdf:RDF>
 </metadata>
 <defs>
  <style type="text/css">*{stroke-linejoin: round; stroke-linecap: butt}</style>
 </defs>
 <g id="figure_1">
  <g id="patch_1">
   <path d="M 0 541.19952 
L 872.39952 541.19952 
L 872.39952 0 
L 0 0 
z
" style="fill: #ffffff"/>
  </g>
  <g id="axes_1">
   <g id="patch_2">
    <path d="M 54.117734 189.039137 
L 249.762821 189.039137 
L 249.762821 40.559777 
L 54.117734 40.559777 
z
" style="fill: #ffffff"/>
   </g>
   <g id="FillBetweenPolyCollection_1">
    <defs>
     <path id="m981950e3b7" d="M 63.010693 -359.123743 
L 63.010693 -358.909445 
L 70.7437 -358.909445 
L 78.476708 -358.909445 
L 86.209715 -358.952498 
L 93.942722 -359.040191 
L 101.67573 -359.261364 
L 109.408737 -359.869346 
L 117.141744 -360.932974 
L 124.874752 -362.902902 
L 132.607759 -371.022395 
L 140.340767 -402.973695 
L 148.073774 -456.684417 
L 155.806781 -455.897132 
L 163.539789 -402.66983 
L 171.272796 -370.66048 
L 179.005803 -363.006621 
L 186.738811 -360.829663 
L 194.471818 -359.818568 
L 202.204825 -359.276087 
L 209.937833 -359.038558 
L 217.67084 -358.953062 
L 225.403848 -358.909445 
L 233.136855 -358.909445 
L 240.869862 -358.909445 
L 240.869862 -359.126848 
L 240.869862 -359.126848 
L 233.136855 -359.12419 
L 225.403848 -359.171654 
L 217.67084 -359.298894 
L 209.937833 -359.475204 
L 202.204825 -359.854081 
L 194.471818 -360.755646 
L 186.738811 -362.215605 
L 179.005803 -364.942947 
L 171.272796 -373.540017 
L 163.539789 -407.771823 
L 155.806781 -464.138032 
L 148.073774 -463.244121 
L 140.340767 -408.057084 
L 132.607759 -373.489613 
L 124.874752 -365.069154 
L 117.141744 -362.096549 
L 109.408737 -360.800638 
L 101.67573 -359.885497 
L 93.942722 -359.558944 
L 86.209715 -359.260242 
L 78.476708 -359.170472 
L 70.7437 -359.130005 
L 63.010693 -359.123743 
z
"/>
    </defs>
    <g clip-path="url(#p4620fd1278)">
     <use xlink:href="#m981950e3b7" x="0" y="541.19952" style="fill: #f7e3c1"/>
    </g>
   </g>
   <g id="matplotlib.axis_1">
    <g id="xtick_1">
     <g id="line2d_1">
      <defs>
       <path id="m0e77f37ad2" d="M 0 0 
L 0 3.5 
" style="stroke: #252a31; stroke-width: 0.8"/>
      </defs>
      <g>
       <use xlink:href="#m0e77f37ad2" x="100.386895" y="189.039137" style="fill: #252a31; stroke: #252a31; stroke-width: 0.8"/>
      </g>
     </g>
    </g>
    <g id="xtick_2">
     <g id="line2d_2">
      <g>
       <use xlink:href="#m0e77f37ad2" x="151.940278" y="189.039137" style="fill: #252a31; stroke: #252a31; stroke-width: 0.8"/>
      </g>
     </g>
    </g>
    <g id="xtick_3">
     <g id="line2d_3">
      <g>
       <use xlink:href="#m0e77f37ad2" x="203.49366" y="189.039137" style="fill: #252a31; stroke: #252a31; stroke-width: 0.8"/>
      </g>
     </g>
    </g>
   </g>
   <g id="matplotlib.axis_2">
    <g id="ytick_1">
     <g id="line2d_4">
      <path d="M 54.117734 182.290075 
L 249.762821 182.290075 
" clip-path="url(#p4620fd1278)" style="fill: none; stroke: #d9dee5; stroke-width: 0.5; stroke-linecap: square"/>
     </g>
     <g id="line2d_5">
      <defs>
       <path id="m72351f4716" d="M 0 0 
L -3.5 0 
" style="stroke: #252a31; stroke-width: 0.8"/>
      </defs>
      <g>
       <use xlink:href="#m72351f4716" x="54.117734" y="182.290075" style="fill: #252a31; stroke: #252a31; stroke-width: 0.8"/>
      </g>
     </g>
     <g id="text_1">
      <text style="font-size: 9px; font-family: 'DejaVu Sans'; text-anchor: end; fill: #252a31" x="47.117734" y="185.70902" transform="rotate(-0 47.117734 185.70902)">0.0</text>
     </g>
    </g>
    <g id="ytick_2">
     <g id="line2d_6">
      <path d="M 54.117734 148.019921 
L 249.762821 148.019921 
" clip-path="url(#p4620fd1278)" style="fill: none; stroke: #d9dee5; stroke-width: 0.5; stroke-linecap: square"/>
     </g>
     <g id="line2d_7">
      <g>
       <use xlink:href="#m72351f4716" x="54.117734" y="148.019921" style="fill: #252a31; stroke: #252a31; stroke-width: 0.8"/>
      </g>
     </g>
     <g id="text_2">
      <text style="font-size: 9px; font-family: 'DejaVu Sans'; text-anchor: end; fill: #252a31" x="47.117734" y="151.438866" transform="rotate(-0 47.117734 151.438866)">0.1</text>
     </g>
    </g>
    <g id="ytick_3">
     <g id="line2d_8">
      <path d="M 54.117734 113.749767 
L 249.762821 113.749767 
" clip-path="url(#p4620fd1278)" style="fill: none; stroke: #d9dee5; stroke-width: 0.5; stroke-linecap: square"/>
     </g>
     <g id="line2d_9">
      <g>
       <use xlink:href="#m72351f4716" x="54.117734" y="113.749767" style="fill: #252a31; stroke: #252a31; stroke-width: 0.8"/>
      </g>
     </g>
     <g id="text_3">
      <text style="font-size: 9px; font-family: 'DejaVu Sans'; text-anchor: end; fill: #252a31" x="47.117734" y="117.168712" transform="rotate(-0 47.117734 117.168712)">0.2</text>
     </g>
    </g>
    <g id="ytick_4">
     <g id="line2d_10">
      <path d="M 54.117734 79.479613 
L 249.762821 79.479613 
" clip-path="url(#p4620fd1278)" style="fill: none; stroke: #d9dee5; stroke-width: 0.5; stroke-linecap: square"/>
     </g>
     <g id="line2d_11">
      <g>
       <use xlink:href="#m72351f4716" x="54.117734" y="79.479613" style="fill: #252a31; stroke: #252a31; stroke-width: 0.8"/>
      </g>
     </g>
     <g id="text_4">
      <text style="font-size: 9px; font-family: 'DejaVu Sans'; text-anchor: end; fill: #252a31" x="47.117734" y="82.898558" transform="rotate(-0 47.117734 82.898558)">0.3</text>
     </g>
    </g>
    <g id="ytick_5">
     <g id="line2d_12">
      <path d="M 54.117734 45.209459 
L 249.762821 45.209459 
" clip-path="url(#p4620fd1278)" style="fill: none; stroke: #d9dee5; stroke-width: 0.5; stroke-linecap: square"/>
     </g>
     <g id="line2d_13">
      <g>
       <use xlink:href="#m72351f4716" x="54.117734" y="45.209459" style="fill: #252a31; stroke: #252a31; stroke-width: 0.8"/>
      </g>
     </g>
     <g id="text_5">
      <text style="font-size: 9px; font-family: 'DejaVu Sans'; text-anchor: end; fill: #252a31" x="47.117734" y="48.628404" transform="rotate(-0 47.117734 48.628404)">0.4</text>
     </g>
    </g>
    <g id="text_6">
     <text style="font-size: 9px; font-family: 'DejaVu Sans'; fill: #252a31" transform="translate(14.939473 147.499691) rotate(-90)">Coherence 6%</text>
     <text style="font-size: 9px; font-family: 'DejaVu Sans'; fill: #252a31" transform="translate(25.741934 138.018051) rotate(-90)">Proportion</text>
    </g>
   </g>
   <g id="line2d_14">
    <path d="M 63.010693 182.220445 
L 70.7437 182.200878 
L 78.476708 182.175233 
L 86.209715 182.109064 
L 93.942722 181.95411 
L 101.67573 181.614068 
L 109.408737 180.884148 
L 117.141744 179.682646 
L 124.874752 177.219031 
L 132.607759 168.997117 
L 140.340767 135.629511 
L 148.073774 81.294648 
L 155.806781 81.019312 
L 163.539789 135.979147 
L 171.272796 169.141342 
L 179.005803 177.23592 
L 186.738811 179.699857 
L 194.471818 180.95191 
L 202.204825 181.626104 
L 209.937833 181.94529 
L 217.67084 182.09051 
L 225.403848 182.16651 
L 233.136855 182.206958 
L 240.869862 182.216503 
" clip-path="url(#p4620fd1278)" style="fill: none; stroke: #d97706; stroke-width: 1.4; stroke-linecap: square"/>
   </g>
   <g id="line2d_15">
    <path d="M 63.010693 181.935449 
L 70.7437 182.15709 
L 78.476708 182.024106 
L 86.209715 182.024106 
L 93.942722 182.024106 
L 101.67573 181.846793 
L 109.408737 181.40351 
L 117.141744 180.472618 
L 124.874752 178.522176 
L 132.607759 170.011156 
L 140.340767 137.208266 
L 148.073774 80.202163 
L 155.806781 77.852767 
L 163.539789 136.188717 
L 171.272796 167.129821 
L 179.005803 177.369642 
L 186.738811 180.516946 
L 194.471818 181.048885 
L 202.204825 181.846793 
L 209.937833 182.024106 
L 217.67084 182.15709 
L 225.403848 182.15709 
L 233.136855 181.979777 
L 240.869862 182.15709 
" clip-path="url(#p4620fd1278)" style="fill: none; stroke: #2f6690; stroke-width: 1.4; stroke-linecap: square"/>
   </g>
   <g id="line2d_16">
    <path d="M 151.940278 189.039137 
L 151.940278 40.559777 
" clip-path="url(#p4620fd1278)" style="fill: none; stroke-dasharray: 2.59,1.12; stroke-dashoffset: 0; stroke: #252a31; stroke-width: 0.7"/>
   </g>
   <g id="patch_3">
    <path d="M 54.117734 189.039137 
L 54.117734 40.559777 
" style="fill: none; stroke: #252a31; stroke-width: 0.8; stroke-linejoin: miter; stroke-linecap: square"/>
   </g>
   <g id="patch_4">
    <path d="M 249.762821 189.039137 
L 249.762821 40.559777 
" style="fill: none; stroke: #252a31; stroke-width: 0.8; stroke-linejoin: miter; stroke-linecap: square"/>
   </g>
   <g id="patch_5">
    <path d="M 54.117734 189.039137 
L 249.762821 189.039137 
" style="fill: none; stroke: #252a31; stroke-width: 0.8; stroke-linejoin: miter; stroke-linecap: square"/>
   </g>
   <g id="patch_6">
    <path d="M 54.117734 40.559777 
L 249.762821 40.559777 
" style="fill: none; stroke: #252a31; stroke-width: 0.8; stroke-linejoin: miter; stroke-linecap: square"/>
   </g>
   <g id="text_7">
    <text style="font-size: 11px; font-family: 'DejaVu Sans'; text-anchor: middle; fill: #252a31" x="151.940278" y="34.559777" transform="rotate(-0 151.940278 34.559777)">Prior SD 10 deg</text>
   </g>
  </g>
  <g id="axes_2">
   <g id="patch_7">
    <path d="M 259.263301 189.039137 
L 454.908387 189.039137 
L 454.908387 40.559777 
L 259.263301 40.559777 
z
" style="fill: #ffffff"/>
   </g>
   <g id="FillBetweenPolyCollection_2">
    <defs>
     <path id="m6acf27216d" d="M 268.156259 -358.998784 
L 268.156259 -358.909445 
L 275.889267 -358.909445 
L 283.622274 -358.909445 
L 291.355281 -359.043099 
L 299.088289 -359.197523 
L 306.821296 -359.602091 
L 314.554303 -360.83361 
L 322.287311 -363.660184 
L 330.020318 -370.835946 
L 337.753326 -386.006108 
L 345.486333 -406.726609 
L 353.21934 -424.220834 
L 360.952348 -424.517377 
L 368.685355 -407.187748 
L 376.418362 -384.993834 
L 384.15137 -370.969074 
L 391.884377 -363.671826 
L 399.617385 -360.785661 
L 407.350392 -359.668452 
L 415.083399 -359.264412 
L 422.816407 -359.042716 
L 430.549414 -358.909445 
L 438.282421 -358.909445 
L 446.015429 -358.909445 
L 446.015429 -359.021842 
L 446.015429 -359.021842 
L 438.282421 -359.088356 
L 430.549414 -359.222339 
L 422.816407 -359.470162 
L 415.083399 -359.914302 
L 407.350392 -360.599248 
L 399.617385 -362.004885 
L 391.884377 -365.562603 
L 384.15137 -373.873089 
L 376.418362 -389.578432 
L 368.685355 -412.372409 
L 360.952348 -429.770089 
L 353.21934 -430.165661 
L 345.486333 -411.906304 
L 337.753326 -389.544871 
L 330.020318 -373.863226 
L 322.287311 -365.52797 
L 314.554303 -361.937779 
L 306.821296 -360.643715 
L 299.088289 -359.886439 
L 291.355281 -359.446594 
L 283.622274 -359.176446 
L 275.889267 -359.044519 
L 268.156259 -358.998784 
z
"/>
    </defs>
    <g clip-path="url(#p82e50ae579)">
     <use xlink:href="#m6acf27216d" x="0" y="541.19952" style="fill: #f7e3c1"/>
    </g>
   </g>
   <g id="matplotlib.axis_3">
    <g id="xtick_4">
     <g id="line2d_17">
      <g>
       <use xlink:href="#m0e77f37ad2" x="305.532462" y="189.039137" style="fill: #252a31; stroke: #252a31; stroke-width: 0.8"/>
      </g>
     </g>
    </g>
    <g id="xtick_5">
     <g id="line2d_18">
      <g>
       <use xlink:href="#m0e77f37ad2" x="357.085844" y="189.039137" style="fill: #252a31; stroke: #252a31; stroke-width: 0.8"/>
      </g>
     </g>
    </g>
    <g id="xtick_6">
     <g id="line2d_19">
      <g>
       <use xlink:href="#m0e77f37ad2" x="408.639226" y="189.039137" style="fill: #252a31; stroke: #252a31; stroke-width: 0.8"/>
      </g>
     </g>
    </g>
   </g>
   <g id="matplotlib.axis_4">
    <g id="ytick_6">
     <g id="line2d_20">
      <path d="M 259.263301 182.290075 
L 454.908387 182.290075 
" clip-path="url(#p82e50ae579)" style="fill: none; stroke: #d9dee5; stroke-width: 0.5; stroke-linecap: square"/>
     </g>
     <g id="line2d_21">
      <g>
       <use xlink:href="#m72351f4716" x="259.263301" y="182.290075" style="fill: #252a31; stroke: #252a31; stroke-width: 0.8"/>
      </g>
     </g>
    </g>
    <g id="ytick_7">
     <g id="line2d_22">
      <path d="M 259.263301 148.019921 
L 454.908387 148.019921 
" clip-path="url(#p82e50ae579)" style="fill: none; stroke: #d9dee5; stroke-width: 0.5; stroke-linecap: square"/>
     </g>
     <g id="line2d_23">
      <g>
       <use xlink:href="#m72351f4716" x="259.263301" y="148.019921" style="fill: #252a31; stroke: #252a31; stroke-width: 0.8"/>
      </g>
     </g>
    </g>
    <g id="ytick_8">
     <g id="line2d_24">
      <path d="M 259.263301 113.749767 
L 454.908387 113.749767 
" clip-path="url(#p82e50ae579)" style="fill: none; stroke: #d9dee5; stroke-width: 0.5; stroke-linecap: square"/>
     </g>
     <g id="line2d_25">
      <g>
       <use xlink:href="#m72351f4716" x="259.263301" y="113.749767" style="fill: #252a31; stroke: #252a31; stroke-width: 0.8"/>
      </g>
     </g>
    </g>
    <g id="ytick_9">
     <g id="line2d_26">
      <path d="M 259.263301 79.479613 
L 454.908387 79.479613 
" clip-path="url(#p82e50ae579)" style="fill: none; stroke: #d9dee5; stroke-width: 0.5; stroke-linecap: square"/>
     </g>
     <g id="line2d_27">
      <g>
       <use xlink:href="#m72351f4716" x="259.263301" y="79.479613" style="fill: #252a31; stroke: #252a31; stroke-width: 0.8"/>
      </g>
     </g>
    </g>
    <g id="ytick_10">
     <g id="line2d_28">
      <path d="M 259.263301 45.209459 
L 454.908387 45.209459 
" clip-path="url(#p82e50ae579)" style="fill: none; stroke: #d9dee5; stroke-width: 0.5; stroke-linecap: square"/>
     </g>
     <g id="line2d_29">
      <g>
       <use xlink:href="#m72351f4716" x="259.263301" y="45.209459" style="fill: #252a31; stroke: #252a31; stroke-width: 0.8"/>
      </g>
     </g>
    </g>
   </g>
   <g id="line2d_30">
    <path d="M 268.156259 182.27134 
L 275.889267 182.240506 
L 283.622274 182.159242 
L 291.355281 181.953311 
L 299.088289 181.661999 
L 306.821296 181.078735 
L 314.554303 179.825656 
L 322.287311 176.661923 
L 330.020318 168.914762 
L 337.753326 153.51844 
L 345.486333 131.891982 
L 353.21934 114.082016 
L 360.952348 114.063334 
L 368.685355 131.710049 
L 376.418362 153.591678 
L 384.15137 168.856559 
L 391.884377 176.624818 
L 399.617385 179.811552 
L 407.350392 181.077081 
L 415.083399 181.65347 
L 422.816407 181.955807 
L 430.549414 182.139696 
L 438.282421 182.244512 
L 446.015429 182.271793 
" clip-path="url(#p82e50ae579)" style="fill: none; stroke: #d97706; stroke-width: 1.4; stroke-linecap: square"/>
   </g>
   <g id="line2d_31">
    <path d="M 268.156259 182.290075 
L 275.889267 182.290075 
L 283.622274 182.156849 
L 291.355281 181.890397 
L 299.088289 181.845989 
L 306.821296 181.313085 
L 314.554303 180.735772 
L 322.287311 178.781792 
L 330.020318 172.164903 
L 337.753326 160.485429 
L 345.486333 134.417552 
L 353.21934 109.593118 
L 360.952348 106.928599 
L 368.685355 129.044106 
L 376.418362 151.426064 
L 384.15137 167.191135 
L 391.884377 177.094263 
L 399.617385 180.069643 
L 407.350392 181.757171 
L 415.083399 181.80158 
L 422.816407 182.156849 
L 430.549414 182.245666 
L 438.282421 182.290075 
L 446.015429 182.290075 
" clip-path="url(#p82e50ae579)" style="fill: none; stroke: #2f6690; stroke-width: 1.4; stroke-linecap: square"/>
   </g>
   <g id="line2d_32">
    <path d="M 357.085844 189.039137 
L 357.085844 40.559777 
" clip-path="url(#p82e50ae579)" style="fill: none; stroke-dasharray: 2.59,1.12; stroke-dashoffset: 0; stroke: #252a31; stroke-width: 0.7"/>
   </g>
   <g id="patch_8">
    <path d="M 259.263301 189.039137 
L 259.263301 40.559777 
" style="fill: none; stroke: #252a31; stroke-width: 0.8; stroke-linejoin: miter; stroke-linecap: square"/>
   </g>
   <g id="patch_9">
    <path d="M 454.908387 189.039137 
L 454.908387 40.559777 
" style="fill: none; stroke: #252a31; stroke-width: 0.8; stroke-linejoin: miter; stroke-linecap: square"/>
   </g>
   <g id="patch_10">
    <path d="M 259.263301 189.039137 
L 454.908387 189.039137 
" style="fill: none; stroke: #252a31; stroke-width: 0.8; stroke-linejoin: miter; stroke-linecap: square"/>
   </g>
   <g id="patch_11">
    <path d="M 259.263301 40.559777 
L 454.908387 40.559777 
" style="fill: none; stroke: #252a31; stroke-width: 0.8; stroke-linejoin: miter; stroke-linecap: square"/>
   </g>
   <g id="text_8">
    <text style="font-size: 11px; font-family: 'DejaVu Sans'; text-anchor: middle; fill: #252a31" x="357.085844" y="34.559777" transform="rotate(-0 357.085844 34.559777)">Prior SD 20 deg</text>
   </g>
  </g>
  <g id="axes_3">
   <g id="patch_12">
    <path d="M 464.408867 189.039137 
L 660.053954 189.039137 
L 660.053954 40.559777 
L 464.408867 40.559777 
z
" style="fill: #ffffff"/>
   </g>
   <g id="FillBetweenPolyCollection_3">
    <defs>
     <path id="m8ed92f3719" d="M 473.301826 -358.909445 
L 473.301826 -358.909445 
L 481.034833 -358.909445 
L 488.76784 -358.909445 
L 496.500848 -358.909445 
L 504.233855 -359.289498 
L 511.966862 -361.053683 
L 519.69987 -364.281622 
L 527.432877 -369.793961 
L 535.165885 -378.694561 
L 542.898892 -389.293713 
L 550.631899 -400.605995 
L 558.364907 -406.846094 
L 566.097914 -407.134465 
L 573.830921 -400.019119 
L 581.563929 -389.650109 
L 589.296936 -378.01133 
L 597.029944 -369.669895 
L 604.762951 -364.243448 
L 612.495958 -361.13945 
L 620.228966 -359.415083 
L 627.961973 -358.909445 
L 635.69498 -358.909445 
L 643.427988 -358.909445 
L 651.160995 -358.909445 
L 651.160995 -358.909445 
L 651.160995 -358.909445 
L 643.427988 -358.909445 
L 635.69498 -359.010946 
L 627.961973 -359.164614 
L 620.228966 -360.008211 
L 612.495958 -362.567715 
L 604.762951 -366.242304 
L 597.029944 -372.543459 
L 589.296936 -382.001355 
L 581.563929 -393.913636 
L 573.830921 -405.429935 
L 566.097914 -413.184939 
L 558.364907 -413.138885 
L 550.631899 -405.739713 
L 542.898892 -394.096229 
L 535.165885 -381.970986 
L 527.432877 -372.667531 
L 519.69987 -366.356604 
L 511.966862 -362.365645 
L 504.233855 -360.021821 
L 496.500848 -359.164462 
L 488.76784 -358.960715 
L 481.034833 -358.935919 
L 473.301826 -358.909445 
z
"/>
    </defs>
    <g clip-path="url(#pbca1157e00)">
     <use xlink:href="#m8ed92f3719" x="0" y="541.19952" style="fill: #f7e3c1"/>
    </g>
   </g>
   <g id="matplotlib.axis_5">
    <g id="xtick_7">
     <g id="line2d_33">
      <g>
       <use xlink:href="#m0e77f37ad2" x="510.678028" y="189.039137" style="fill: #252a31; stroke: #252a31; stroke-width: 0.8"/>
      </g>
     </g>
    </g>
    <g id="xtick_8">
     <g id="line2d_34">
      <g>
       <use xlink:href="#m0e77f37ad2" x="562.23141" y="189.039137" style="fill: #252a31; stroke: #252a31; stroke-width: 0.8"/>
      </g>
     </g>
    </g>
    <g id="xtick_9">
     <g id="line2d_35">
      <g>
       <use xlink:href="#m0e77f37ad2" x="613.784793" y="189.039137" style="fill: #252a31; stroke: #252a31; stroke-width: 0.8"/>
      </g>
     </g>
    </g>
   </g>
   <g id="matplotlib.axis_6">
    <g id="ytick_11">
     <g id="line2d_36">
      <path d="M 464.408867 182.290075 
L 660.053954 182.290075 
" clip-path="url(#pbca1157e00)" style="fill: none; stroke: #d9dee5; stroke-width: 0.5; stroke-linecap: square"/>
     </g>
     <g id="line2d_37">
      <g>
       <use xlink:href="#m72351f4716" x="464.408867" y="182.290075" style="fill: #252a31; stroke: #252a31; stroke-width: 0.8"/>
      </g>
     </g>
    </g>
    <g id="ytick_12">
     <g id="line2d_38">
      <path d="M 464.408867 148.019921 
L 660.053954 148.019921 
" clip-path="url(#pbca1157e00)" style="fill: none; stroke: #d9dee5; stroke-width: 0.5; stroke-linecap: square"/>
     </g>
     <g id="line2d_39">
      <g>
       <use xlink:href="#m72351f4716" x="464.408867" y="148.019921" style="fill: #252a31; stroke: #252a31; stroke-width: 0.8"/>
      </g>
     </g>
    </g>
    <g id="ytick_13">
     <g id="line2d_40">
      <path d="M 464.408867 113.749767 
L 660.053954 113.749767 
" clip-path="url(#pbca1157e00)" style="fill: none; stroke: #d9dee5; stroke-width: 0.5; stroke-linecap: square"/>
     </g>
     <g id="line2d_41">
      <g>
       <use xlink:href="#m72351f4716" x="464.408867" y="113.749767" style="fill: #252a31; stroke: #252a31; stroke-width: 0.8"/>
      </g>
     </g>
    </g>
    <g id="ytick_14">
     <g id="line2d_42">
      <path d="M 464.408867 79.479613 
L 660.053954 79.479613 
" clip-path="url(#pbca1157e00)" style="fill: none; stroke: #d9dee5; stroke-width: 0.5; stroke-linecap: square"/>
     </g>
     <g id="line2d_43">
      <g>
       <use xlink:href="#m72351f4716" x="464.408867" y="79.479613" style="fill: #252a31; stroke: #252a31; stroke-width: 0.8"/>
      </g>
     </g>
    </g>
    <g id="ytick_15">
     <g id="line2d_44">
      <path d="M 464.408867 45.209459 
L 660.053954 45.209459 
" clip-path="url(#pbca1157e00)" style="fill: none; stroke: #d9dee5; stroke-width: 0.5; stroke-linecap: square"/>
     </g>
     <g id="line2d_45">
      <g>
       <use xlink:href="#m72351f4716" x="464.408867" y="45.209459" style="fill: #252a31; stroke: #252a31; stroke-width: 0.8"/>
      </g>
     </g>
    </g>
   </g>
   <g id="line2d_46">
    <path d="M 473.301826 182.290075 
L 481.034833 182.288549 
L 488.76784 182.275347 
L 496.500848 182.188363 
L 504.233855 181.596027 
L 511.966862 179.4878 
L 519.69987 175.887204 
L 527.432877 170.146035 
L 535.165885 161.037589 
L 542.898892 149.729444 
L 550.631899 138.336058 
L 558.364907 131.153462 
L 566.097914 130.888887 
L 573.830921 138.309106 
L 581.563929 149.496269 
L 589.296936 161.07716 
L 597.029944 170.079162 
L 604.762951 175.991413 
L 612.495958 179.448708 
L 620.228966 181.530102 
L 627.961973 182.170066 
L 635.69498 182.273286 
L 643.427988 182.290075 
L 651.160995 182.290075 
" clip-path="url(#pbca1157e00)" style="fill: none; stroke: #d97706; stroke-width: 1.4; stroke-linecap: square"/>
   </g>
   <g id="line2d_47">
    <path d="M 473.301826 182.290075 
L 481.034833 182.290075 
L 488.76784 182.290075 
L 496.500848 182.189221 
L 504.233855 181.38239 
L 511.966862 180.071289 
L 519.69987 175.583291 
L 527.432877 172.45682 
L 535.165885 164.186801 
L 542.898892 151.227075 
L 550.631899 138.469057 
L 558.364907 130.955442 
L 566.097914 129.089645 
L 573.830921 139.275888 
L 581.563929 147.243346 
L 589.296936 161.262038 
L 597.029944 167.767114 
L 604.762951 175.633718 
L 612.495958 178.306346 
L 620.228966 181.483244 
L 627.961973 181.987513 
L 635.69498 182.239648 
L 643.427988 182.290075 
L 651.160995 182.290075 
" clip-path="url(#pbca1157e00)" style="fill: none; stroke: #2f6690; stroke-width: 1.4; stroke-linecap: square"/>
   </g>
   <g id="line2d_48">
    <path d="M 562.23141 189.039137 
L 562.23141 40.559777 
" clip-path="url(#pbca1157e00)" style="fill: none; stroke-dasharray: 2.59,1.12; stroke-dashoffset: 0; stroke: #252a31; stroke-width: 0.7"/>
   </g>
   <g id="patch_13">
    <path d="M 464.408867 189.039137 
L 464.408867 40.559777 
" style="fill: none; stroke: #252a31; stroke-width: 0.8; stroke-linejoin: miter; stroke-linecap: square"/>
   </g>
   <g id="patch_14">
    <path d="M 660.053954 189.039137 
L 660.053954 40.559777 
" style="fill: none; stroke: #252a31; stroke-width: 0.8; stroke-linejoin: miter; stroke-linecap: square"/>
   </g>
   <g id="patch_15">
    <path d="M 464.408867 189.039137 
L 660.053954 189.039137 
" style="fill: none; stroke: #252a31; stroke-width: 0.8; stroke-linejoin: miter; stroke-linecap: square"/>
   </g>
   <g id="patch_16">
    <path d="M 464.408867 40.559777 
L 660.053954 40.559777 
" style="fill: none; stroke: #252a31; stroke-width: 0.8; stroke-linejoin: miter; stroke-linecap: square"/>
   </g>
   <g id="text_9">
    <text style="font-size: 11px; font-family: 'DejaVu Sans'; text-anchor: middle; fill: #252a31" x="562.23141" y="34.559777" transform="rotate(-0 562.23141 34.559777)">Prior SD 40 deg</text>
   </g>
  </g>
  <g id="axes_4">
   <g id="patch_17">
    <path d="M 669.554434 189.039137 
L 865.19952 189.039137 
L 865.19952 40.559777 
L 669.554434 40.559777 
z
" style="fill: #ffffff"/>
   </g>
   <g id="FillBetweenPolyCollection_4">
    <defs>
     <path id="m8945f51d8c" d="M 678.447392 -359.518373 
L 678.447392 -359.180013 
L 686.180399 -359.192955 
L 693.913407 -359.512616 
L 701.646414 -359.95793 
L 709.379422 -360.455418 
L 717.112429 -361.474718 
L 724.845436 -365.083106 
L 732.578444 -370.940225 
L 740.311451 -378.971652 
L 748.044458 -388.713865 
L 755.777466 -398.482556 
L 763.510473 -405.001051 
L 771.24348 -405.432298 
L 778.976488 -398.974061 
L 786.709495 -388.739636 
L 794.442503 -379.122287 
L 802.17551 -370.860898 
L 809.908517 -365.039441 
L 817.641525 -361.390335 
L 825.374532 -360.444659 
L 833.107539 -360.029588 
L 840.840547 -359.644118 
L 848.573554 -359.355946 
L 856.306562 -359.178343 
L 856.306562 -359.613258 
L 856.306562 -359.613258 
L 848.573554 -359.862095 
L 840.840547 -360.226928 
L 833.107539 -360.699482 
L 825.374532 -361.344059 
L 817.641525 -362.452403 
L 809.908517 -366.542128 
L 802.17551 -373.222588 
L 794.442503 -381.64218 
L 786.709495 -392.15125 
L 778.976488 -402.836959 
L 771.24348 -409.275193 
L 763.510473 -408.806006 
L 755.777466 -402.241538 
L 748.044458 -391.825589 
L 740.311451 -381.786253 
L 732.578444 -373.134638 
L 724.845436 -366.532472 
L 717.112429 -362.52856 
L 709.379422 -361.369471 
L 701.646414 -360.636693 
L 693.913407 -360.034172 
L 686.180399 -359.642599 
L 678.447392 -359.518373 
z
"/>
    </defs>
    <g clip-path="url(#pe3bf7fd5f9)">
     <use xlink:href="#m8945f51d8c" x="0" y="541.19952" style="fill: #f7e3c1"/>
    </g>
   </g>
   <g id="matplotlib.axis_7">
    <g id="xtick_10">
     <g id="line2d_49">
      <g>
       <use xlink:href="#m0e77f37ad2" x="715.823594" y="189.039137" style="fill: #252a31; stroke: #252a31; stroke-width: 0.8"/>
      </g>
     </g>
    </g>
    <g id="xtick_11">
     <g id="line2d_50">
      <g>
       <use xlink:href="#m0e77f37ad2" x="767.376977" y="189.039137" style="fill: #252a31; stroke: #252a31; stroke-width: 0.8"/>
      </g>
     </g>
    </g>
    <g id="xtick_12">
     <g id="line2d_51">
      <g>
       <use xlink:href="#m0e77f37ad2" x="818.930359" y="189.039137" style="fill: #252a31; stroke: #252a31; stroke-width: 0.8"/>
      </g>
     </g>
    </g>
   </g>
   <g id="matplotlib.axis_8">
    <g id="ytick_16">
     <g id="line2d_52">
      <path d="M 669.554434 182.290075 
L 865.19952 182.290075 
" clip-path="url(#pe3bf7fd5f9)" style="fill: none; stroke: #d9dee5; stroke-width: 0.5; stroke-linecap: square"/>
     </g>
     <g id="line2d_53">
      <g>
       <use xlink:href="#m72351f4716" x="669.554434" y="182.290075" style="fill: #252a31; stroke: #252a31; stroke-width: 0.8"/>
      </g>
     </g>
    </g>
    <g id="ytick_17">
     <g id="line2d_54">
      <path d="M 669.554434 148.019921 
L 865.19952 148.019921 
" clip-path="url(#pe3bf7fd5f9)" style="fill: none; stroke: #d9dee5; stroke-width: 0.5; stroke-linecap: square"/>
     </g>
     <g id="line2d_55">
      <g>
       <use xlink:href="#m72351f4716" x="669.554434" y="148.019921" style="fill: #252a31; stroke: #252a31; stroke-width: 0.8"/>
      </g>
     </g>
    </g>
    <g id="ytick_18">
     <g id="line2d_56">
      <path d="M 669.554434 113.749767 
L 865.19952 113.749767 
" clip-path="url(#pe3bf7fd5f9)" style="fill: none; stroke: #d9dee5; stroke-width: 0.5; stroke-linecap: square"/>
     </g>
     <g id="line2d_57">
      <g>
       <use xlink:href="#m72351f4716" x="669.554434" y="113.749767" style="fill: #252a31; stroke: #252a31; stroke-width: 0.8"/>
      </g>
     </g>
    </g>
    <g id="ytick_19">
     <g id="line2d_58">
      <path d="M 669.554434 79.479613 
L 865.19952 79.479613 
" clip-path="url(#pe3bf7fd5f9)" style="fill: none; stroke: #d9dee5; stroke-width: 0.5; stroke-linecap: square"/>
     </g>
     <g id="line2d_59">
      <g>
       <use xlink:href="#m72351f4716" x="669.554434" y="79.479613" style="fill: #252a31; stroke: #252a31; stroke-width: 0.8"/>
      </g>
     </g>
    </g>
    <g id="ytick_20">
     <g id="line2d_60">
      <path d="M 669.554434 45.209459 
L 865.19952 45.209459 
" clip-path="url(#pe3bf7fd5f9)" style="fill: none; stroke: #d9dee5; stroke-width: 0.5; stroke-linecap: square"/>
     </g>
     <g id="line2d_61">
      <g>
       <use xlink:href="#m72351f4716" x="669.554434" y="45.209459" style="fill: #252a31; stroke: #252a31; stroke-width: 0.8"/>
      </g>
     </g>
    </g>
   </g>
   <g id="line2d_62">
    <path d="M 678.447392 181.881827 
L 686.180399 181.79338 
L 693.913407 181.417255 
L 701.646414 180.924715 
L 709.379422 180.273707 
L 717.112429 179.163795 
L 724.845436 175.38348 
L 732.578444 169.130361 
L 740.311451 160.838851 
L 748.044458 150.909362 
L 755.777466 140.696906 
L 763.510473 134.11747 
L 771.24348 134.046093 
L 778.976488 140.512692 
L 786.709495 150.760385 
L 794.442503 160.77893 
L 802.17551 169.22992 
L 809.908517 175.395811 
L 817.641525 179.22334 
L 825.374532 180.297139 
L 833.107539 180.852239 
L 840.840547 181.263006 
L 848.573554 181.584092 
L 856.306562 181.785505 
" clip-path="url(#pe3bf7fd5f9)" style="fill: none; stroke: #d97706; stroke-width: 1.4; stroke-linecap: square"/>
   </g>
   <g id="line2d_63">
    <path d="M 678.447392 181.763524 
L 686.180399 181.708098 
L 693.913407 181.680384 
L 701.646414 180.848988 
L 709.379422 180.876701 
L 717.112429 179.601894 
L 724.845436 174.890648 
L 732.578444 170.678241 
L 740.311451 161.532882 
L 748.044458 152.581515 
L 755.777466 141.385379 
L 763.510473 133.847386 
L 771.24348 131.46405 
L 778.976488 141.329952 
L 786.709495 151.001862 
L 794.442503 161.893153 
L 802.17551 167.768354 
L 809.908517 174.308671 
L 817.641525 178.216233 
L 825.374532 180.405577 
L 833.107539 180.599569 
L 840.840547 180.959841 
L 848.573554 181.181547 
L 856.306562 181.735811 
" clip-path="url(#pe3bf7fd5f9)" style="fill: none; stroke: #2f6690; stroke-width: 1.4; stroke-linecap: square"/>
   </g>
   <g id="line2d_64">
    <path d="M 767.376977 189.039137 
L 767.376977 40.559777 
" clip-path="url(#pe3bf7fd5f9)" style="fill: none; stroke-dasharray: 2.59,1.12; stroke-dashoffset: 0; stroke: #252a31; stroke-width: 0.7"/>
   </g>
   <g id="patch_18">
    <path d="M 669.554434 189.039137 
L 669.554434 40.559777 
" style="fill: none; stroke: #252a31; stroke-width: 0.8; stroke-linejoin: miter; stroke-linecap: square"/>
   </g>
   <g id="patch_19">
    <path d="M 865.19952 189.039137 
L 865.19952 40.559777 
" style="fill: none; stroke: #252a31; stroke-width: 0.8; stroke-linejoin: miter; stroke-linecap: square"/>
   </g>
   <g id="patch_20">
    <path d="M 669.554434 189.039137 
L 865.19952 189.039137 
" style="fill: none; stroke: #252a31; stroke-width: 0.8; stroke-linejoin: miter; stroke-linecap: square"/>
   </g>
   <g id="patch_21">
    <path d="M 669.554434 40.559777 
L 865.19952 40.559777 
" style="fill: none; stroke: #252a31; stroke-width: 0.8; stroke-linejoin: miter; stroke-linecap: square"/>
   </g>
   <g id="text_10">
    <text style="font-size: 11px; font-family: 'DejaVu Sans'; text-anchor: middle; fill: #252a31" x="767.376977" y="34.559777" transform="rotate(-0 767.376977 34.559777)">Prior SD 80 deg</text>
   </g>
   <g id="legend_1">
    <g id="line2d_65">
     <path d="M 803.926551 49.728683 
L 810.926551 49.728683 
L 817.926551 49.728683 
" style="fill: none; stroke: #d97706; stroke-width: 1.4; stroke-linecap: square"/>
    </g>
    <g id="text_11">
     <text style="font-size: 7px; font-family: 'DejaVu Sans'; text-anchor: start; fill: #252a31" x="823.526551" y="52.178683" transform="rotate(-0 823.526551 52.178683)">Simulated</text>
    </g>
    <g id="line2d_66">
     <path d="M 803.926551 60.22923 
L 810.926551 60.22923 
L 817.926551 60.22923 
" style="fill: none; stroke: #2f6690; stroke-width: 1.4; stroke-linecap: square"/>
    </g>
    <g id="text_12">
     <text style="font-size: 7px; font-family: 'DejaVu Sans'; text-anchor: start; fill: #252a31" x="823.526551" y="62.67923" transform="rotate(-0 823.526551 62.67923)">Observed</text>
    </g>
   </g>
  </g>
  <g id="axes_5">
   <g id="patch_22">
    <path d="M 54.117734 347.018977 
L 249.762821 347.018977 
L 249.762821 198.539617 
L 54.117734 198.539617 
z
" style="fill: #ffffff"/>
   </g>
   <g id="FillBetweenPolyCollection_5">
    <defs>
     <path id="m667a8ba9a7" d="M 63.010693 -200.929605 
L 63.010693 -200.929605 
L 70.7437 -200.929605 
L 78.476708 -200.929605 
L 86.209715 -200.929605 
L 93.942722 -200.929605 
L 101.67573 -200.929605 
L 109.408737 -200.929605 
L 117.141744 -201.367073 
L 124.874752 -203.186719 
L 132.607759 -211.794341 
L 140.340767 -246.874837 
L 148.073774 -301.897667 
L 155.806781 -301.365389 
L 163.539789 -247.768939 
L 171.272796 -211.913324 
L 179.005803 -203.432658 
L 186.738811 -201.369365 
L 194.471818 -200.992082 
L 202.204825 -200.929605 
L 209.937833 -200.929605 
L 217.67084 -200.929605 
L 225.403848 -200.929605 
L 233.136855 -200.929605 
L 240.869862 -200.929605 
L 240.869862 -200.929605 
L 240.869862 -200.929605 
L 233.136855 -200.929605 
L 225.403848 -200.992226 
L 217.67084 -200.992877 
L 209.937833 -200.99348 
L 202.204825 -201.119754 
L 194.471818 -201.370168 
L 186.738811 -202.317764 
L 179.005803 -205.084879 
L 171.272796 -215.493949 
L 163.539789 -253.220253 
L 155.806781 -310.580261 
L 148.073774 -310.470658 
L 140.340767 -252.489965 
L 132.607759 -215.533618 
L 124.874752 -205.172511 
L 117.141744 -202.287343 
L 109.408737 -201.431644 
L 101.67573 -201.118588 
L 93.942722 -201.025829 
L 86.209715 -200.993174 
L 78.476708 -200.962252 
L 70.7437 -200.929605 
L 63.010693 -200.929605 
z
"/>
    </defs>
    <g clip-path="url(#p350b2cb906)">
     <use xlink:href="#m667a8ba9a7" x="0" y="541.19952" style="fill: #f7e3c1"/>
    </g>
   </g>
   <g id="matplotlib.axis_9">
    <g id="xtick_13">
     <g id="line2d_67">
      <g>
       <use xlink:href="#m0e77f37ad2" x="100.386895" y="347.018977" style="fill: #252a31; stroke: #252a31; stroke-width: 0.8"/>
      </g>
     </g>
    </g>
    <g id="xtick_14">
     <g id="line2d_68">
      <g>
       <use xlink:href="#m0e77f37ad2" x="151.940278" y="347.018977" style="fill: #252a31; stroke: #252a31; stroke-width: 0.8"/>
      </g>
     </g>
    </g>
    <g id="xtick_15">
     <g id="line2d_69">
      <g>
       <use xlink:href="#m0e77f37ad2" x="203.49366" y="347.018977" style="fill: #252a31; stroke: #252a31; stroke-width: 0.8"/>
      </g>
     </g>
    </g>
   </g>
   <g id="matplotlib.axis_10">
    <g id="ytick_21">
     <g id="line2d_70">
      <path d="M 54.117734 340.269915 
L 249.762821 340.269915 
" clip-path="url(#p350b2cb906)" style="fill: none; stroke: #d9dee5; stroke-width: 0.5; stroke-linecap: square"/>
     </g>
     <g id="line2d_71">
      <g>
       <use xlink:href="#m72351f4716" x="54.117734" y="340.269915" style="fill: #252a31; stroke: #252a31; stroke-width: 0.8"/>
      </g>
     </g>
     <g id="text_13">
      <text style="font-size: 9px; font-family: 'DejaVu Sans'; text-anchor: end; fill: #252a31" x="47.117734" y="343.68886" transform="rotate(-0 47.117734 343.68886)">0.0</text>
     </g>
    </g>
    <g id="ytick_22">
     <g id="line2d_72">
      <path d="M 54.117734 305.999761 
L 249.762821 305.999761 
" clip-path="url(#p350b2cb906)" style="fill: none; stroke: #d9dee5; stroke-width: 0.5; stroke-linecap: square"/>
     </g>
     <g id="line2d_73">
      <g>
       <use xlink:href="#m72351f4716" x="54.117734" y="305.999761" style="fill: #252a31; stroke: #252a31; stroke-width: 0.8"/>
      </g>
     </g>
     <g id="text_14">
      <text style="font-size: 9px; font-family: 'DejaVu Sans'; text-anchor: end; fill: #252a31" x="47.117734" y="309.418706" transform="rotate(-0 47.117734 309.418706)">0.1</text>
     </g>
    </g>
    <g id="ytick_23">
     <g id="line2d_74">
      <path d="M 54.117734 271.729607 
L 249.762821 271.729607 
" clip-path="url(#p350b2cb906)" style="fill: none; stroke: #d9dee5; stroke-width: 0.5; stroke-linecap: square"/>
     </g>
     <g id="line2d_75">
      <g>
       <use xlink:href="#m72351f4716" x="54.117734" y="271.729607" style="fill: #252a31; stroke: #252a31; stroke-width: 0.8"/>
      </g>
     </g>
     <g id="text_15">
      <text style="font-size: 9px; font-family: 'DejaVu Sans'; text-anchor: end; fill: #252a31" x="47.117734" y="275.148552" transform="rotate(-0 47.117734 275.148552)">0.2</text>
     </g>
    </g>
    <g id="ytick_24">
     <g id="line2d_76">
      <path d="M 54.117734 237.459453 
L 249.762821 237.459453 
" clip-path="url(#p350b2cb906)" style="fill: none; stroke: #d9dee5; stroke-width: 0.5; stroke-linecap: square"/>
     </g>
     <g id="line2d_77">
      <g>
       <use xlink:href="#m72351f4716" x="54.117734" y="237.459453" style="fill: #252a31; stroke: #252a31; stroke-width: 0.8"/>
      </g>
     </g>
     <g id="text_16">
      <text style="font-size: 9px; font-family: 'DejaVu Sans'; text-anchor: end; fill: #252a31" x="47.117734" y="240.878398" transform="rotate(-0 47.117734 240.878398)">0.3</text>
     </g>
    </g>
    <g id="ytick_25">
     <g id="line2d_78">
      <path d="M 54.117734 203.189299 
L 249.762821 203.189299 
" clip-path="url(#p350b2cb906)" style="fill: none; stroke: #d9dee5; stroke-width: 0.5; stroke-linecap: square"/>
     </g>
     <g id="line2d_79">
      <g>
       <use xlink:href="#m72351f4716" x="54.117734" y="203.189299" style="fill: #252a31; stroke: #252a31; stroke-width: 0.8"/>
      </g>
     </g>
     <g id="text_17">
      <text style="font-size: 9px; font-family: 'DejaVu Sans'; text-anchor: end; fill: #252a31" x="47.117734" y="206.608244" transform="rotate(-0 47.117734 206.608244)">0.4</text>
     </g>
    </g>
    <g id="text_18">
     <text style="font-size: 9px; font-family: 'DejaVu Sans'; fill: #252a31" transform="translate(14.939473 308.342656) rotate(-90)">Coherence 12%</text>
     <text style="font-size: 9px; font-family: 'DejaVu Sans'; fill: #252a31" transform="translate(25.741934 295.997891) rotate(-90)">Proportion</text>
    </g>
   </g>
   <g id="line2d_80">
    <path d="M 63.010693 340.269915 
L 70.7437 340.269279 
L 78.476708 340.268023 
L 86.209715 340.260431 
L 93.942722 340.255416 
L 101.67573 340.210624 
L 109.408737 340.040525 
L 117.141744 339.426772 
L 124.874752 337.155074 
L 132.607759 327.489401 
L 140.340767 291.76133 
L 148.073774 234.720391 
L 155.806781 235.158539 
L 163.539789 291.028212 
L 171.272796 327.422742 
L 179.005803 337.062914 
L 186.738811 339.387541 
L 194.471818 340.04429 
L 202.204825 340.214961 
L 209.937833 340.25669 
L 217.67084 340.266746 
L 225.403848 340.266774 
L 233.136855 340.269915 
L 240.869862 340.269915 
" clip-path="url(#p350b2cb906)" style="fill: none; stroke: #d97706; stroke-width: 1.4; stroke-linecap: square"/>
   </g>
   <g id="line2d_81">
    <path d="M 63.010693 340.269915 
L 70.7437 340.269915 
L 78.476708 340.2054 
L 86.209715 340.2054 
L 93.942722 340.140886 
L 101.67573 340.076371 
L 109.408737 339.753798 
L 117.141744 339.49574 
L 124.874752 337.431273 
L 132.607759 330.012094 
L 140.340767 296.916106 
L 148.073774 233.046655 
L 155.806781 227.950001 
L 163.539789 293.109745 
L 171.272796 327.044423 
L 179.005803 337.237729 
L 186.738811 339.173167 
L 194.471818 340.140886 
L 202.204825 340.076371 
L 209.937833 340.2054 
L 217.67084 340.269915 
L 225.403848 340.269915 
L 233.136855 340.2054 
L 240.869862 340.269915 
" clip-path="url(#p350b2cb906)" style="fill: none; stroke: #2f6690; stroke-width: 1.4; stroke-linecap: square"/>
   </g>
   <g id="line2d_82">
    <path d="M 151.940278 347.018977 
L 151.940278 198.539617 
" clip-path="url(#p350b2cb906)" style="fill: none; stroke-dasharray: 2.59,1.12; stroke-dashoffset: 0; stroke: #252a31; stroke-width: 0.7"/>
   </g>
   <g id="patch_23">
    <path d="M 54.117734 347.018977 
L 54.117734 198.539617 
" style="fill: none; stroke: #252a31; stroke-width: 0.8; stroke-linejoin: miter; stroke-linecap: square"/>
   </g>
   <g id="patch_24">
    <path d="M 249.762821 347.018977 
L 249.762821 198.539617 
" style="fill: none; stroke: #252a31; stroke-width: 0.8; stroke-linejoin: miter; stroke-linecap: square"/>
   </g>
   <g id="patch_25">
    <path d="M 54.117734 347.018977 
L 249.762821 347.018977 
" style="fill: none; stroke: #252a31; stroke-width: 0.8; stroke-linejoin: miter; stroke-linecap: square"/>
   </g>
   <g id="patch_26">
    <path d="M 54.117734 198.539617 
L 249.762821 198.539617 
" style="fill: none; stroke: #252a31; stroke-width: 0.8; stroke-linejoin: miter; stroke-linecap: square"/>
   </g>
  </g>
  <g id="axes_6">
   <g id="patch_27">
    <path d="M 259.263301 347.018977 
L 454.908387 347.018977 
L 454.908387 198.539617 
L 259.263301 198.539617 
z
" style="fill: #ffffff"/>
   </g>
   <g id="FillBetweenPolyCollection_6">
    <defs>
     <path id="m589aacf30d" d="M 268.156259 -200.929605 
L 268.156259 -200.929605 
L 275.889267 -200.929605 
L 283.622274 -200.929605 
L 291.355281 -200.929605 
L 299.088289 -200.929605 
L 306.821296 -200.929605 
L 314.554303 -201.173042 
L 322.287311 -202.87546 
L 330.020318 -209.372276 
L 337.753326 -225.460944 
L 345.486333 -251.360179 
L 353.21934 -275.511302 
L 360.952348 -274.486426 
L 368.685355 -251.508088 
L 376.418362 -225.894181 
L 384.15137 -209.380092 
L 391.884377 -202.74318 
L 399.617385 -201.110772 
L 407.350392 -200.929605 
L 415.083399 -200.929605 
L 422.816407 -200.929605 
L 430.549414 -200.929605 
L 438.282421 -200.929605 
L 446.015429 -200.929605 
L 446.015429 -200.929605 
L 446.015429 -200.929605 
L 438.282421 -200.929605 
L 430.549414 -200.929605 
L 422.816407 -200.929605 
L 415.083399 -200.990536 
L 407.350392 -201.170894 
L 399.617385 -201.872047 
L 391.884377 -204.19927 
L 384.15137 -212.30319 
L 376.418362 -229.682346 
L 368.685355 -257.598981 
L 360.952348 -281.79869 
L 353.21934 -281.592216 
L 345.486333 -258.372157 
L 337.753326 -230.315496 
L 330.020318 -212.02212 
L 322.287311 -204.227496 
L 314.554303 -201.778175 
L 306.821296 -201.17414 
L 299.088289 -200.990248 
L 291.355281 -200.929605 
L 283.622274 -200.929605 
L 275.889267 -200.929605 
L 268.156259 -200.929605 
z
"/>
    </defs>
    <g clip-path="url(#p03a75457a6)">
     <use xlink:href="#m589aacf30d" x="0" y="541.19952" style="fill: #f7e3c1"/>
    </g>
   </g>
   <g id="matplotlib.axis_11">
    <g id="xtick_16">
     <g id="line2d_83">
      <g>
       <use xlink:href="#m0e77f37ad2" x="305.532462" y="347.018977" style="fill: #252a31; stroke: #252a31; stroke-width: 0.8"/>
      </g>
     </g>
    </g>
    <g id="xtick_17">
     <g id="line2d_84">
      <g>
       <use xlink:href="#m0e77f37ad2" x="357.085844" y="347.018977" style="fill: #252a31; stroke: #252a31; stroke-width: 0.8"/>
      </g>
     </g>
    </g>
    <g id="xtick_18">
     <g id="line2d_85">
      <g>
       <use xlink:href="#m0e77f37ad2" x="408.639226" y="347.018977" style="fill: #252a31; stroke: #252a31; stroke-width: 0.8"/>
      </g>
     </g>
    </g>
   </g>
   <g id="matplotlib.axis_12">
    <g id="ytick_26">
     <g id="line2d_86">
      <path d="M 259.263301 340.269915 
L 454.908387 340.269915 
" clip-path="url(#p03a75457a6)" style="fill: none; stroke: #d9dee5; stroke-width: 0.5; stroke-linecap: square"/>
     </g>
     <g id="line2d_87">
      <g>
       <use xlink:href="#m72351f4716" x="259.263301" y="340.269915" style="fill: #252a31; stroke: #252a31; stroke-width: 0.8"/>
      </g>
     </g>
    </g>
    <g id="ytick_27">
     <g id="line2d_88">
      <path d="M 259.263301 305.999761 
L 454.908387 305.999761 
" clip-path="url(#p03a75457a6)" style="fill: none; stroke: #d9dee5; stroke-width: 0.5; stroke-linecap: square"/>
     </g>
     <g id="line2d_89">
      <g>
       <use xlink:href="#m72351f4716" x="259.263301" y="305.999761" style="fill: #252a31; stroke: #252a31; stroke-width: 0.8"/>
      </g>
     </g>
    </g>
    <g id="ytick_28">
     <g id="line2d_90">
      <path d="M 259.263301 271.729607 
L 454.908387 271.729607 
" clip-path="url(#p03a75457a6)" style="fill: none; stroke: #d9dee5; stroke-width: 0.5; stroke-linecap: square"/>
     </g>
     <g id="line2d_91">
      <g>
       <use xlink:href="#m72351f4716" x="259.263301" y="271.729607" style="fill: #252a31; stroke: #252a31; stroke-width: 0.8"/>
      </g>
     </g>
    </g>
    <g id="ytick_29">
     <g id="line2d_92">
      <path d="M 259.263301 237.459453 
L 454.908387 237.459453 
" clip-path="url(#p03a75457a6)" style="fill: none; stroke: #d9dee5; stroke-width: 0.5; stroke-linecap: square"/>
     </g>
     <g id="line2d_93">
      <g>
       <use xlink:href="#m72351f4716" x="259.263301" y="237.459453" style="fill: #252a31; stroke: #252a31; stroke-width: 0.8"/>
      </g>
     </g>
    </g>
    <g id="ytick_30">
     <g id="line2d_94">
      <path d="M 259.263301 203.189299 
L 454.908387 203.189299 
" clip-path="url(#p03a75457a6)" style="fill: none; stroke: #d9dee5; stroke-width: 0.5; stroke-linecap: square"/>
     </g>
     <g id="line2d_95">
      <g>
       <use xlink:href="#m72351f4716" x="259.263301" y="203.189299" style="fill: #252a31; stroke: #252a31; stroke-width: 0.8"/>
      </g>
     </g>
    </g>
   </g>
   <g id="line2d_96">
    <path d="M 268.156259 340.269915 
L 275.889267 340.269915 
L 283.622274 340.269915 
L 291.355281 340.269915 
L 299.088289 340.265681 
L 306.821296 340.178404 
L 314.554303 339.740342 
L 322.287311 337.64781 
L 330.020318 330.440754 
L 337.753326 313.283132 
L 345.486333 286.306878 
L 353.21934 262.843006 
L 360.952348 262.866009 
L 368.685355 286.275986 
L 376.418362 313.459659 
L 384.15137 330.42895 
L 391.884377 337.672623 
L 399.617385 339.755906 
L 407.350392 340.188112 
L 415.083399 340.26385 
L 422.816407 340.269915 
L 430.549414 340.269915 
L 438.282421 340.269915 
L 446.015429 340.269915 
" clip-path="url(#p03a75457a6)" style="fill: none; stroke: #d97706; stroke-width: 1.4; stroke-linecap: square"/>
   </g>
   <g id="line2d_97">
    <path d="M 268.156259 340.269915 
L 275.889267 340.269915 
L 283.622274 340.269915 
L 291.355281 340.269915 
L 299.088289 340.269915 
L 306.821296 340.269915 
L 314.554303 339.844274 
L 322.287311 338.506547 
L 330.020318 333.277247 
L 337.753326 320.508027 
L 345.486333 294.969587 
L 353.21934 257.087568 
L 360.952348 251.493434 
L 368.685355 282.869231 
L 376.418362 313.941 
L 384.15137 331.574684 
L 391.884377 337.472848 
L 399.617385 339.17541 
L 407.350392 340.087498 
L 415.083399 340.269915 
L 422.816407 340.269915 
L 430.549414 340.269915 
L 438.282421 340.269915 
L 446.015429 340.269915 
" clip-path="url(#p03a75457a6)" style="fill: none; stroke: #2f6690; stroke-width: 1.4; stroke-linecap: square"/>
   </g>
   <g id="line2d_98">
    <path d="M 357.085844 347.018977 
L 357.085844 198.539617 
" clip-path="url(#p03a75457a6)" style="fill: none; stroke-dasharray: 2.59,1.12; stroke-dashoffset: 0; stroke: #252a31; stroke-width: 0.7"/>
   </g>
   <g id="patch_28">
    <path d="M 259.263301 347.018977 
L 259.263301 198.539617 
" style="fill: none; stroke: #252a31; stroke-width: 0.8; stroke-linejoin: miter; stroke-linecap: square"/>
   </g>
   <g id="patch_29">
    <path d="M 454.908387 347.018977 
L 454.908387 198.539617 
" style="fill: none; stroke: #252a31; stroke-width: 0.8; stroke-linejoin: miter; stroke-linecap: square"/>
   </g>
   <g id="patch_30">
    <path d="M 259.263301 347.018977 
L 454.908387 347.018977 
" style="fill: none; stroke: #252a31; stroke-width: 0.8; stroke-linejoin: miter; stroke-linecap: square"/>
   </g>
   <g id="patch_31">
    <path d="M 259.263301 198.539617 
L 454.908387 198.539617 
" style="fill: none; stroke: #252a31; stroke-width: 0.8; stroke-linejoin: miter; stroke-linecap: square"/>
   </g>
  </g>
  <g id="axes_7">
   <g id="patch_32">
    <path d="M 464.408867 347.018977 
L 660.053954 347.018977 
L 660.053954 198.539617 
L 464.408867 198.539617 
z
" style="fill: #ffffff"/>
   </g>
   <g id="FillBetweenPolyCollection_7">
    <defs>
     <path id="mfa1bf170ad" d="M 473.301826 -200.929605 
L 473.301826 -200.929605 
L 481.034833 -200.929605 
L 488.76784 -200.929605 
L 496.500848 -200.929605 
L 504.233855 -200.99345 
L 511.966862 -201.440527 
L 519.69987 -202.674217 
L 527.432877 -205.476005 
L 535.165885 -213.413249 
L 542.898892 -227.265651 
L 550.631899 -248.359621 
L 558.364907 -266.223979 
L 566.097914 -265.922791 
L 573.830921 -248.927554 
L 581.563929 -227.278632 
L 589.296936 -213.124997 
L 597.029944 -205.781171 
L 604.762951 -202.537819 
L 612.495958 -201.379317 
L 620.228966 -201.024173 
L 627.961973 -200.929605 
L 635.69498 -200.929605 
L 643.427988 -200.929605 
L 651.160995 -200.929605 
L 651.160995 -200.929605 
L 651.160995 -200.929605 
L 643.427988 -200.929605 
L 635.69498 -201.057081 
L 627.961973 -201.184088 
L 620.228966 -201.504838 
L 612.495958 -202.308226 
L 604.762951 -204.009134 
L 597.029944 -208.003187 
L 589.296936 -216.381714 
L 581.563929 -231.982094 
L 573.830921 -254.466362 
L 566.097914 -272.876166 
L 558.364907 -273.666495 
L 550.631899 -254.881145 
L 542.898892 -232.82225 
L 535.165885 -216.527895 
L 527.432877 -208.042643 
L 519.69987 -204.041645 
L 511.966862 -202.36668 
L 504.233855 -201.541761 
L 496.500848 -201.155779 
L 488.76784 -200.993875 
L 481.034833 -200.929605 
L 473.301826 -200.929605 
z
"/>
    </defs>
    <g clip-path="url(#p6814ad0a23)">
     <use xlink:href="#mfa1bf170ad" x="0" y="541.19952" style="fill: #f7e3c1"/>
    </g>
   </g>
   <g id="matplotlib.axis_13">
    <g id="xtick_19">
     <g id="line2d_99">
      <g>
       <use xlink:href="#m0e77f37ad2" x="510.678028" y="347.018977" style="fill: #252a31; stroke: #252a31; stroke-width: 0.8"/>
      </g>
     </g>
    </g>
    <g id="xtick_20">
     <g id="line2d_100">
      <g>
       <use xlink:href="#m0e77f37ad2" x="562.23141" y="347.018977" style="fill: #252a31; stroke: #252a31; stroke-width: 0.8"/>
      </g>
     </g>
    </g>
    <g id="xtick_21">
     <g id="line2d_101">
      <g>
       <use xlink:href="#m0e77f37ad2" x="613.784793" y="347.018977" style="fill: #252a31; stroke: #252a31; stroke-width: 0.8"/>
      </g>
     </g>
    </g>
   </g>
   <g id="matplotlib.axis_14">
    <g id="ytick_31">
     <g id="line2d_102">
      <path d="M 464.408867 340.269915 
L 660.053954 340.269915 
" clip-path="url(#p6814ad0a23)" style="fill: none; stroke: #d9dee5; stroke-width: 0.5; stroke-linecap: square"/>
     </g>
     <g id="line2d_103">
      <g>
       <use xlink:href="#m72351f4716" x="464.408867" y="340.269915" style="fill: #252a31; stroke: #252a31; stroke-width: 0.8"/>
      </g>
     </g>
    </g>
    <g id="ytick_32">
     <g id="line2d_104">
      <path d="M 464.408867 305.999761 
L 660.053954 305.999761 
" clip-path="url(#p6814ad0a23)" style="fill: none; stroke: #d9dee5; stroke-width: 0.5; stroke-linecap: square"/>
     </g>
     <g id="line2d_105">
      <g>
       <use xlink:href="#m72351f4716" x="464.408867" y="305.999761" style="fill: #252a31; stroke: #252a31; stroke-width: 0.8"/>
      </g>
     </g>
    </g>
    <g id="ytick_33">
     <g id="line2d_106">
      <path d="M 464.408867 271.729607 
L 660.053954 271.729607 
" clip-path="url(#p6814ad0a23)" style="fill: none; stroke: #d9dee5; stroke-width: 0.5; stroke-linecap: square"/>
     </g>
     <g id="line2d_107">
      <g>
       <use xlink:href="#m72351f4716" x="464.408867" y="271.729607" style="fill: #252a31; stroke: #252a31; stroke-width: 0.8"/>
      </g>
     </g>
    </g>
    <g id="ytick_34">
     <g id="line2d_108">
      <path d="M 464.408867 237.459453 
L 660.053954 237.459453 
" clip-path="url(#p6814ad0a23)" style="fill: none; stroke: #d9dee5; stroke-width: 0.5; stroke-linecap: square"/>
     </g>
     <g id="line2d_109">
      <g>
       <use xlink:href="#m72351f4716" x="464.408867" y="237.459453" style="fill: #252a31; stroke: #252a31; stroke-width: 0.8"/>
      </g>
     </g>
    </g>
    <g id="ytick_35">
     <g id="line2d_110">
      <path d="M 464.408867 203.189299 
L 660.053954 203.189299 
" clip-path="url(#p6814ad0a23)" style="fill: none; stroke: #d9dee5; stroke-width: 0.5; stroke-linecap: square"/>
     </g>
     <g id="line2d_111">
      <g>
       <use xlink:href="#m72351f4716" x="464.408867" y="203.189299" style="fill: #252a31; stroke: #252a31; stroke-width: 0.8"/>
      </g>
     </g>
    </g>
   </g>
   <g id="line2d_112">
    <path d="M 473.301826 340.269915 
L 481.034833 340.269915 
L 488.76784 340.260321 
L 496.500848 340.189296 
L 504.233855 339.946785 
L 511.966862 339.367676 
L 519.69987 337.887302 
L 527.432877 334.449259 
L 535.165885 326.207996 
L 542.898892 311.34043 
L 550.631899 289.653833 
L 558.364907 271.566663 
L 566.097914 271.978107 
L 573.830921 289.644595 
L 581.563929 311.483803 
L 589.296936 326.600381 
L 597.029944 334.449786 
L 604.762951 337.932018 
L 612.495958 339.356896 
L 620.228966 339.94356 
L 627.961973 340.186044 
L 635.69498 340.252651 
L 643.427988 340.269274 
L 651.160995 340.269915 
" clip-path="url(#p6814ad0a23)" style="fill: none; stroke: #d97706; stroke-width: 1.4; stroke-linecap: square"/>
   </g>
   <g id="line2d_113">
    <path d="M 473.301826 340.269915 
L 481.034833 340.269915 
L 488.76784 340.269915 
L 496.500848 340.206522 
L 504.233855 339.952951 
L 511.966862 339.509201 
L 519.69987 337.987774 
L 527.432877 334.184205 
L 535.165885 327.337781 
L 542.898892 316.434218 
L 550.631899 293.169056 
L 558.364907 267.811931 
L 566.097914 267.051218 
L 573.830921 288.98513 
L 581.563929 312.377078 
L 589.296936 327.210996 
L 597.029944 333.486884 
L 604.762951 337.860988 
L 612.495958 338.81188 
L 620.228966 339.762773 
L 627.961973 340.079737 
L 635.69498 340.206522 
L 643.427988 340.269915 
L 651.160995 340.269915 
" clip-path="url(#p6814ad0a23)" style="fill: none; stroke: #2f6690; stroke-width: 1.4; stroke-linecap: square"/>
   </g>
   <g id="line2d_114">
    <path d="M 562.23141 347.018977 
L 562.23141 198.539617 
" clip-path="url(#p6814ad0a23)" style="fill: none; stroke-dasharray: 2.59,1.12; stroke-dashoffset: 0; stroke: #252a31; stroke-width: 0.7"/>
   </g>
   <g id="patch_33">
    <path d="M 464.408867 347.018977 
L 464.408867 198.539617 
" style="fill: none; stroke: #252a31; stroke-width: 0.8; stroke-linejoin: miter; stroke-linecap: square"/>
   </g>
   <g id="patch_34">
    <path d="M 660.053954 347.018977 
L 660.053954 198.539617 
" style="fill: none; stroke: #252a31; stroke-width: 0.8; stroke-linejoin: miter; stroke-linecap: square"/>
   </g>
   <g id="patch_35">
    <path d="M 464.408867 347.018977 
L 660.053954 347.018977 
" style="fill: none; stroke: #252a31; stroke-width: 0.8; stroke-linejoin: miter; stroke-linecap: square"/>
   </g>
   <g id="patch_36">
    <path d="M 464.408867 198.539617 
L 660.053954 198.539617 
" style="fill: none; stroke: #252a31; stroke-width: 0.8; stroke-linejoin: miter; stroke-linecap: square"/>
   </g>
  </g>
  <g id="axes_8">
   <g id="patch_37">
    <path d="M 669.554434 347.018977 
L 865.19952 347.018977 
L 865.19952 198.539617 
L 669.554434 198.539617 
z
" style="fill: #ffffff"/>
   </g>
   <g id="FillBetweenPolyCollection_8">
    <defs>
     <path id="m2b4f4bae4e" d="M 678.447392 -201.301217 
L 678.447392 -200.997192 
L 686.180399 -201.01348 
L 693.913407 -201.06329 
L 701.646414 -201.267207 
L 709.379422 -201.439782 
L 717.112429 -201.759318 
L 724.845436 -202.415241 
L 732.578444 -205.08788 
L 740.311451 -211.912339 
L 748.044458 -227.204497 
L 755.777466 -249.400248 
L 763.510473 -268.417402 
L 771.24348 -269.022506 
L 778.976488 -249.273513 
L 786.709495 -227.084745 
L 794.442503 -212.31994 
L 802.17551 -205.10111 
L 809.908517 -202.333627 
L 817.641525 -201.741758 
L 825.374532 -201.470725 
L 833.107539 -201.249547 
L 840.840547 -201.131048 
L 848.573554 -201.031135 
L 856.306562 -201.012963 
L 856.306562 -201.301926 
L 856.306562 -201.301926 
L 848.573554 -201.506022 
L 840.840547 -201.568751 
L 833.107539 -201.807137 
L 825.374532 -202.10998 
L 817.641525 -202.641906 
L 809.908517 -203.181378 
L 802.17551 -206.418671 
L 794.442503 -214.745801 
L 786.709495 -230.579576 
L 778.976488 -253.762287 
L 771.24348 -273.777646 
L 763.510473 -273.818641 
L 755.777466 -254.142407 
L 748.044458 -230.490417 
L 740.311451 -214.445587 
L 732.578444 -206.655133 
L 724.845436 -203.235854 
L 717.112429 -202.482201 
L 709.379422 -202.128539 
L 701.646414 -201.673462 
L 693.913407 -201.455498 
L 686.180399 -201.369644 
L 678.447392 -201.301217 
z
"/>
    </defs>
    <g clip-path="url(#p0db9047234)">
     <use xlink:href="#m2b4f4bae4e" x="0" y="541.19952" style="fill: #f7e3c1"/>
    </g>
   </g>
   <g id="matplotlib.axis_15">
    <g id="xtick_22">
     <g id="line2d_115">
      <g>
       <use xlink:href="#m0e77f37ad2" x="715.823594" y="347.018977" style="fill: #252a31; stroke: #252a31; stroke-width: 0.8"/>
      </g>
     </g>
    </g>
    <g id="xtick_23">
     <g id="line2d_116">
      <g>
       <use xlink:href="#m0e77f37ad2" x="767.376977" y="347.018977" style="fill: #252a31; stroke: #252a31; stroke-width: 0.8"/>
      </g>
     </g>
    </g>
    <g id="xtick_24">
     <g id="line2d_117">
      <g>
       <use xlink:href="#m0e77f37ad2" x="818.930359" y="347.018977" style="fill: #252a31; stroke: #252a31; stroke-width: 0.8"/>
      </g>
     </g>
    </g>
   </g>
   <g id="matplotlib.axis_16">
    <g id="ytick_36">
     <g id="line2d_118">
      <path d="M 669.554434 340.269915 
L 865.19952 340.269915 
" clip-path="url(#p0db9047234)" style="fill: none; stroke: #d9dee5; stroke-width: 0.5; stroke-linecap: square"/>
     </g>
     <g id="line2d_119">
      <g>
       <use xlink:href="#m72351f4716" x="669.554434" y="340.269915" style="fill: #252a31; stroke: #252a31; stroke-width: 0.8"/>
      </g>
     </g>
    </g>
    <g id="ytick_37">
     <g id="line2d_120">
      <path d="M 669.554434 305.999761 
L 865.19952 305.999761 
" clip-path="url(#p0db9047234)" style="fill: none; stroke: #d9dee5; stroke-width: 0.5; stroke-linecap: square"/>
     </g>
     <g id="line2d_121">
      <g>
       <use xlink:href="#m72351f4716" x="669.554434" y="305.999761" style="fill: #252a31; stroke: #252a31; stroke-width: 0.8"/>
      </g>
     </g>
    </g>
    <g id="ytick_38">
     <g id="line2d_122">
      <path d="M 669.554434 271.729607 
L 865.19952 271.729607 
" clip-path="url(#p0db9047234)" style="fill: none; stroke: #d9dee5; stroke-width: 0.5; stroke-linecap: square"/>
     </g>
     <g id="line2d_123">
      <g>
       <use xlink:href="#m72351f4716" x="669.554434" y="271.729607" style="fill: #252a31; stroke: #252a31; stroke-width: 0.8"/>
      </g>
     </g>
    </g>
    <g id="ytick_39">
     <g id="line2d_124">
      <path d="M 669.554434 237.459453 
L 865.19952 237.459453 
" clip-path="url(#p0db9047234)" style="fill: none; stroke: #d9dee5; stroke-width: 0.5; stroke-linecap: square"/>
     </g>
     <g id="line2d_125">
      <g>
       <use xlink:href="#m72351f4716" x="669.554434" y="237.459453" style="fill: #252a31; stroke: #252a31; stroke-width: 0.8"/>
      </g>
     </g>
    </g>
    <g id="ytick_40">
     <g id="line2d_126">
      <path d="M 669.554434 203.189299 
L 865.19952 203.189299 
" clip-path="url(#p0db9047234)" style="fill: none; stroke: #d9dee5; stroke-width: 0.5; stroke-linecap: square"/>
     </g>
     <g id="line2d_127">
      <g>
       <use xlink:href="#m72351f4716" x="669.554434" y="203.189299" style="fill: #252a31; stroke: #252a31; stroke-width: 0.8"/>
      </g>
     </g>
    </g>
   </g>
   <g id="line2d_128">
    <path d="M 678.447392 340.067331 
L 686.180399 340.029138 
L 693.913407 339.949964 
L 701.646414 339.759525 
L 709.379422 339.411893 
L 717.112429 339.025348 
L 724.845436 338.387466 
L 732.578444 335.461872 
L 740.311451 327.909124 
L 748.044458 312.540784 
L 755.777466 289.493857 
L 763.510473 270.041997 
L 771.24348 269.963605 
L 778.976488 289.518392 
L 786.709495 312.487972 
L 794.442503 327.841519 
L 802.17551 335.454223 
L 809.908517 338.433106 
L 817.641525 339.044125 
L 825.374532 339.411084 
L 833.107539 339.696936 
L 840.840547 339.854591 
L 848.573554 339.949282 
L 856.306562 340.043286 
" clip-path="url(#p0db9047234)" style="fill: none; stroke: #d97706; stroke-width: 1.4; stroke-linecap: square"/>
   </g>
   <g id="line2d_129">
    <path d="M 678.447392 340.10199 
L 686.180399 340.068405 
L 693.913407 340.135575 
L 701.646414 339.866895 
L 709.379422 339.598215 
L 717.112429 339.463875 
L 724.845436 338.758589 
L 732.578444 336.273298 
L 740.311451 327.843458 
L 748.044458 314.308695 
L 755.777466 289.758046 
L 763.510473 264.636451 
L 771.24348 265.778342 
L 778.976488 292.579187 
L 786.709495 314.443035 
L 794.442503 328.313648 
L 802.17551 335.500842 
L 809.908517 338.725004 
L 817.641525 339.195194 
L 825.374532 339.56463 
L 833.107539 339.49746 
L 840.840547 339.665385 
L 848.573554 339.69897 
L 856.306562 340.001235 
" clip-path="url(#p0db9047234)" style="fill: none; stroke: #2f6690; stroke-width: 1.4; stroke-linecap: square"/>
   </g>
   <g id="line2d_130">
    <path d="M 767.376977 347.018977 
L 767.376977 198.539617 
" clip-path="url(#p0db9047234)" style="fill: none; stroke-dasharray: 2.59,1.12; stroke-dashoffset: 0; stroke: #252a31; stroke-width: 0.7"/>
   </g>
   <g id="patch_38">
    <path d="M 669.554434 347.018977 
L 669.554434 198.539617 
" style="fill: none; stroke: #252a31; stroke-width: 0.8; stroke-linejoin: miter; stroke-linecap: square"/>
   </g>
   <g id="patch_39">
    <path d="M 865.19952 347.018977 
L 865.19952 198.539617 
" style="fill: none; stroke: #252a31; stroke-width: 0.8; stroke-linejoin: miter; stroke-linecap: square"/>
   </g>
   <g id="patch_40">
    <path d="M 669.554434 347.018977 
L 865.19952 347.018977 
" style="fill: none; stroke: #252a31; stroke-width: 0.8; stroke-linejoin: miter; stroke-linecap: square"/>
   </g>
   <g id="patch_41">
    <path d="M 669.554434 198.539617 
L 865.19952 198.539617 
" style="fill: none; stroke: #252a31; stroke-width: 0.8; stroke-linejoin: miter; stroke-linecap: square"/>
   </g>
  </g>
  <g id="axes_9">
   <g id="patch_42">
    <path d="M 54.117734 504.998817 
L 249.762821 504.998817 
L 249.762821 356.519457 
L 54.117734 356.519457 
z
" style="fill: #ffffff"/>
   </g>
   <g id="FillBetweenPolyCollection_9">
    <defs>
     <path id="m8ed22e977a" d="M 63.010693 -42.949765 
L 63.010693 -42.949765 
L 70.7437 -42.949765 
L 78.476708 -42.949765 
L 86.209715 -42.949765 
L 93.942722 -42.949765 
L 101.67573 -42.949765 
L 109.408737 -42.949765 
L 117.141744 -42.949765 
L 124.874752 -43.197641 
L 132.607759 -49.188928 
L 140.340767 -87.337069 
L 148.073774 -151.711655 
L 155.806781 -151.867069 
L 163.539789 -87.0215 
L 171.272796 -49.660757 
L 179.005803 -43.195504 
L 186.738811 -42.949765 
L 194.471818 -42.949765 
L 202.204825 -42.949765 
L 209.937833 -42.949765 
L 217.67084 -42.949765 
L 225.403848 -42.949765 
L 233.136855 -42.949765 
L 240.869862 -42.949765 
L 240.869862 -42.949765 
L 240.869862 -42.949765 
L 233.136855 -42.949765 
L 225.403848 -42.949765 
L 217.67084 -42.949765 
L 209.937833 -42.949765 
L 202.204825 -42.949765 
L 194.471818 -42.949765 
L 186.738811 -43.074762 
L 179.005803 -44.19731 
L 171.272796 -53.490047 
L 163.539789 -94.559257 
L 155.806781 -163.511014 
L 148.073774 -163.881913 
L 140.340767 -94.084552 
L 132.607759 -53.061336 
L 124.874752 -44.189524 
L 117.141744 -43.196336 
L 109.408737 -43.073123 
L 101.67573 -42.949765 
L 93.942722 -42.949765 
L 86.209715 -42.949765 
L 78.476708 -42.949765 
L 70.7437 -42.949765 
L 63.010693 -42.949765 
z
"/>
    </defs>
    <g clip-path="url(#pc2b88ed58c)">
     <use xlink:href="#m8ed22e977a" x="0" y="541.19952" style="fill: #f7e3c1"/>
    </g>
   </g>
   <g id="matplotlib.axis_17">
    <g id="xtick_25">
     <g id="line2d_131">
      <g>
       <use xlink:href="#m0e77f37ad2" x="100.386895" y="504.998817" style="fill: #252a31; stroke: #252a31; stroke-width: 0.8"/>
      </g>
     </g>
     <g id="text_19">
      <text style="font-size: 9px; font-family: 'DejaVu Sans'; text-anchor: middle; fill: #252a31" x="100.386895" y="518.836707" transform="rotate(-0 100.386895 518.836707)">−100</text>
     </g>
    </g>
    <g id="xtick_26">
     <g id="line2d_132">
      <g>
       <use xlink:href="#m0e77f37ad2" x="151.940278" y="504.998817" style="fill: #252a31; stroke: #252a31; stroke-width: 0.8"/>
      </g>
     </g>
     <g id="text_20">
      <text style="font-size: 9px; font-family: 'DejaVu Sans'; text-anchor: middle; fill: #252a31" x="151.940278" y="518.836707" transform="rotate(-0 151.940278 518.836707)">0</text>
     </g>
    </g>
    <g id="xtick_27">
     <g id="line2d_133">
      <g>
       <use xlink:href="#m0e77f37ad2" x="203.49366" y="504.998817" style="fill: #252a31; stroke: #252a31; stroke-width: 0.8"/>
      </g>
     </g>
     <g id="text_21">
      <text style="font-size: 9px; font-family: 'DejaVu Sans'; text-anchor: middle; fill: #252a31" x="203.49366" y="518.836707" transform="rotate(-0 203.49366 518.836707)">100</text>
     </g>
    </g>
    <g id="text_22">
     <text style="font-size: 9px; font-family: 'DejaVu Sans'; text-anchor: middle; fill: #252a31" x="151.940278" y="531.837411" transform="rotate(-0 151.940278 531.837411)">Response - stimulus (deg)</text>
    </g>
   </g>
   <g id="matplotlib.axis_18">
    <g id="ytick_41">
     <g id="line2d_134">
      <path d="M 54.117734 498.249755 
L 249.762821 498.249755 
" clip-path="url(#pc2b88ed58c)" style="fill: none; stroke: #d9dee5; stroke-width: 0.5; stroke-linecap: square"/>
     </g>
     <g id="line2d_135">
      <g>
       <use xlink:href="#m72351f4716" x="54.117734" y="498.249755" style="fill: #252a31; stroke: #252a31; stroke-width: 0.8"/>
      </g>
     </g>
     <g id="text_23">
      <text style="font-size: 9px; font-family: 'DejaVu Sans'; text-anchor: end; fill: #252a31" x="47.117734" y="501.6687" transform="rotate(-0 47.117734 501.6687)">0.0</text>
     </g>
    </g>
    <g id="ytick_42">
     <g id="line2d_136">
      <path d="M 54.117734 463.979601 
L 249.762821 463.979601 
" clip-path="url(#pc2b88ed58c)" style="fill: none; stroke: #d9dee5; stroke-width: 0.5; stroke-linecap: square"/>
     </g>
     <g id="line2d_137">
      <g>
       <use xlink:href="#m72351f4716" x="54.117734" y="463.979601" style="fill: #252a31; stroke: #252a31; stroke-width: 0.8"/>
      </g>
     </g>
     <g id="text_24">
      <text style="font-size: 9px; font-family: 'DejaVu Sans'; text-anchor: end; fill: #252a31" x="47.117734" y="467.398546" transform="rotate(-0 47.117734 467.398546)">0.1</text>
     </g>
    </g>
    <g id="ytick_43">
     <g id="line2d_138">
      <path d="M 54.117734 429.709447 
L 249.762821 429.709447 
" clip-path="url(#pc2b88ed58c)" style="fill: none; stroke: #d9dee5; stroke-width: 0.5; stroke-linecap: square"/>
     </g>
     <g id="line2d_139">
      <g>
       <use xlink:href="#m72351f4716" x="54.117734" y="429.709447" style="fill: #252a31; stroke: #252a31; stroke-width: 0.8"/>
      </g>
     </g>
     <g id="text_25">
      <text style="font-size: 9px; font-family: 'DejaVu Sans'; text-anchor: end; fill: #252a31" x="47.117734" y="433.128392" transform="rotate(-0 47.117734 433.128392)">0.2</text>
     </g>
    </g>
    <g id="ytick_44">
     <g id="line2d_140">
      <path d="M 54.117734 395.439293 
L 249.762821 395.439293 
" clip-path="url(#pc2b88ed58c)" style="fill: none; stroke: #d9dee5; stroke-width: 0.5; stroke-linecap: square"/>
     </g>
     <g id="line2d_141">
      <g>
       <use xlink:href="#m72351f4716" x="54.117734" y="395.439293" style="fill: #252a31; stroke: #252a31; stroke-width: 0.8"/>
      </g>
     </g>
     <g id="text_26">
      <text style="font-size: 9px; font-family: 'DejaVu Sans'; text-anchor: end; fill: #252a31" x="47.117734" y="398.858238" transform="rotate(-0 47.117734 398.858238)">0.3</text>
     </g>
    </g>
    <g id="ytick_45">
     <g id="line2d_142">
      <path d="M 54.117734 361.169139 
L 249.762821 361.169139 
" clip-path="url(#pc2b88ed58c)" style="fill: none; stroke: #d9dee5; stroke-width: 0.5; stroke-linecap: square"/>
     </g>
     <g id="line2d_143">
      <g>
       <use xlink:href="#m72351f4716" x="54.117734" y="361.169139" style="fill: #252a31; stroke: #252a31; stroke-width: 0.8"/>
      </g>
     </g>
     <g id="text_27">
      <text style="font-size: 9px; font-family: 'DejaVu Sans'; text-anchor: end; fill: #252a31" x="47.117734" y="364.588084" transform="rotate(-0 47.117734 364.588084)">0.4</text>
     </g>
    </g>
    <g id="text_28">
     <text style="font-size: 9px; font-family: 'DejaVu Sans'; fill: #252a31" transform="translate(14.939473 466.322496) rotate(-90)">Coherence 24%</text>
     <text style="font-size: 9px; font-family: 'DejaVu Sans'; fill: #252a31" transform="translate(25.741934 453.977731) rotate(-90)">Proportion</text>
    </g>
   </g>
   <g id="line2d_144">
    <path d="M 63.010693 498.249755 
L 70.7437 498.249755 
L 78.476708 498.249755 
L 86.209715 498.249755 
L 93.942722 498.249755 
L 101.67573 498.249755 
L 109.408737 498.244789 
L 117.141744 498.224959 
L 124.874752 497.56669 
L 132.607759 489.934116 
L 140.340767 450.516061 
L 148.073774 384.254272 
L 155.806781 383.072488 
L 163.539789 450.424345 
L 171.272796 490.002566 
L 179.005803 497.579259 
L 186.738811 498.226222 
L 194.471818 498.249755 
L 202.204825 498.249755 
L 209.937833 498.249755 
L 217.67084 498.249755 
L 225.403848 498.249755 
L 233.136855 498.249755 
L 240.869862 498.249755 
" clip-path="url(#pc2b88ed58c)" style="fill: none; stroke: #d97706; stroke-width: 1.4; stroke-linecap: square"/>
   </g>
   <g id="line2d_145">
    <path d="M 63.010693 498.249755 
L 70.7437 498.249755 
L 78.476708 498.249755 
L 86.209715 498.249755 
L 93.942722 498.249755 
L 101.67573 498.249755 
L 109.408737 498.249755 
L 117.141744 498.122734 
L 124.874752 497.487632 
L 132.607759 493.549993 
L 140.340767 465.732485 
L 148.073774 374.023622 
L 155.806781 365.894305 
L 163.539789 457.857209 
L 171.272796 491.898726 
L 179.005803 497.10657 
L 186.738811 498.122734 
L 194.471818 498.249755 
L 202.204825 498.249755 
L 209.937833 498.249755 
L 217.67084 498.249755 
L 225.403848 498.249755 
L 233.136855 498.249755 
L 240.869862 498.249755 
" clip-path="url(#pc2b88ed58c)" style="fill: none; stroke: #2f6690; stroke-width: 1.4; stroke-linecap: square"/>
   </g>
   <g id="line2d_146">
    <path d="M 151.940278 504.998817 
L 151.940278 356.519457 
" clip-path="url(#pc2b88ed58c)" style="fill: none; stroke-dasharray: 2.59,1.12; stroke-dashoffset: 0; stroke: #252a31; stroke-width: 0.7"/>
   </g>
   <g id="patch_43">
    <path d="M 54.117734 504.998817 
L 54.117734 356.519457 
" style="fill: none; stroke: #252a31; stroke-width: 0.8; stroke-linejoin: miter; stroke-linecap: square"/>
   </g>
   <g id="patch_44">
    <path d="M 249.762821 504.998817 
L 249.762821 356.519457 
" style="fill: none; stroke: #252a31; stroke-width: 0.8; stroke-linejoin: miter; stroke-linecap: square"/>
   </g>
   <g id="patch_45">
    <path d="M 54.117734 504.998817 
L 249.762821 504.998817 
" style="fill: none; stroke: #252a31; stroke-width: 0.8; stroke-linejoin: miter; stroke-linecap: square"/>
   </g>
   <g id="patch_46">
    <path d="M 54.117734 356.519457 
L 249.762821 356.519457 
" style="fill: none; stroke: #252a31; stroke-width: 0.8; stroke-linejoin: miter; stroke-linecap: square"/>
   </g>
  </g>
  <g id="axes_10">
   <g id="patch_47">
    <path d="M 259.263301 504.998817 
L 454.908387 504.998817 
L 454.908387 356.519457 
L 259.263301 356.519457 
z
" style="fill: #ffffff"/>
   </g>
   <g id="FillBetweenPolyCollection_10">
    <defs>
     <path id="m147fe72cdb" d="M 268.156259 -42.949765 
L 268.156259 -42.949765 
L 275.889267 -42.949765 
L 283.622274 -42.949765 
L 291.355281 -42.949765 
L 299.088289 -42.949765 
L 306.821296 -42.949765 
L 314.554303 -42.949765 
L 322.287311 -43.097475 
L 330.020318 -45.090772 
L 337.753326 -55.235232 
L 345.486333 -89.446163 
L 353.21934 -138.580913 
L 360.952348 -140.464969 
L 368.685355 -89.757479 
L 376.418362 -55.083215 
L 384.15137 -44.794919 
L 391.884377 -43.096844 
L 399.617385 -42.949765 
L 407.350392 -42.949765 
L 415.083399 -42.949765 
L 422.816407 -42.949765 
L 430.549414 -42.949765 
L 438.282421 -42.949765 
L 446.015429 -42.949765 
L 446.015429 -42.949765 
L 446.015429 -42.949765 
L 438.282421 -42.949765 
L 430.549414 -42.949765 
L 422.816407 -42.949765 
L 415.083399 -42.949765 
L 407.350392 -42.949765 
L 399.617385 -43.098963 
L 391.884377 -43.919809 
L 384.15137 -47.547095 
L 376.418362 -61.115802 
L 368.685355 -99.5156 
L 360.952348 -150.542825 
L 353.21934 -151.978285 
L 345.486333 -97.466494 
L 337.753326 -60.411515 
L 330.020318 -47.301459 
L 322.287311 -44.132082 
L 314.554303 -43.175166 
L 306.821296 -42.949765 
L 299.088289 -42.949765 
L 291.355281 -42.949765 
L 283.622274 -42.949765 
L 275.889267 -42.949765 
L 268.156259 -42.949765 
z
"/>
    </defs>
    <g clip-path="url(#p3e8e06546e)">
     <use xlink:href="#m147fe72cdb" x="0" y="541.19952" style="fill: #f7e3c1"/>
    </g>
   </g>
   <g id="matplotlib.axis_19">
    <g id="xtick_28">
     <g id="line2d_147">
      <g>
       <use xlink:href="#m0e77f37ad2" x="305.532462" y="504.998817" style="fill: #252a31; stroke: #252a31; stroke-width: 0.8"/>
      </g>
     </g>
     <g id="text_29">
      <text style="font-size: 9px; font-family: 'DejaVu Sans'; text-anchor: middle; fill: #252a31" x="305.532462" y="518.836707" transform="rotate(-0 305.532462 518.836707)">−100</text>
     </g>
    </g>
    <g id="xtick_29">
     <g id="line2d_148">
      <g>
       <use xlink:href="#m0e77f37ad2" x="357.085844" y="504.998817" style="fill: #252a31; stroke: #252a31; stroke-width: 0.8"/>
      </g>
     </g>
     <g id="text_30">
      <text style="font-size: 9px; font-family: 'DejaVu Sans'; text-anchor: middle; fill: #252a31" x="357.085844" y="518.836707" transform="rotate(-0 357.085844 518.836707)">0</text>
     </g>
    </g>
    <g id="xtick_30">
     <g id="line2d_149">
      <g>
       <use xlink:href="#m0e77f37ad2" x="408.639226" y="504.998817" style="fill: #252a31; stroke: #252a31; stroke-width: 0.8"/>
      </g>
     </g>
     <g id="text_31">
      <text style="font-size: 9px; font-family: 'DejaVu Sans'; text-anchor: middle; fill: #252a31" x="408.639226" y="518.836707" transform="rotate(-0 408.639226 518.836707)">100</text>
     </g>
    </g>
    <g id="text_32">
     <text style="font-size: 9px; font-family: 'DejaVu Sans'; text-anchor: middle; fill: #252a31" x="357.085844" y="531.837411" transform="rotate(-0 357.085844 531.837411)">Response - stimulus (deg)</text>
    </g>
   </g>
   <g id="matplotlib.axis_20">
    <g id="ytick_46">
     <g id="line2d_150">
      <path d="M 259.263301 498.249755 
L 454.908387 498.249755 
" clip-path="url(#p3e8e06546e)" style="fill: none; stroke: #d9dee5; stroke-width: 0.5; stroke-linecap: square"/>
     </g>
     <g id="line2d_151">
      <g>
       <use xlink:href="#m72351f4716" x="259.263301" y="498.249755" style="fill: #252a31; stroke: #252a31; stroke-width: 0.8"/>
      </g>
     </g>
    </g>
    <g id="ytick_47">
     <g id="line2d_152">
      <path d="M 259.263301 463.979601 
L 454.908387 463.979601 
" clip-path="url(#p3e8e06546e)" style="fill: none; stroke: #d9dee5; stroke-width: 0.5; stroke-linecap: square"/>
     </g>
     <g id="line2d_153">
      <g>
       <use xlink:href="#m72351f4716" x="259.263301" y="463.979601" style="fill: #252a31; stroke: #252a31; stroke-width: 0.8"/>
      </g>
     </g>
    </g>
    <g id="ytick_48">
     <g id="line2d_154">
      <path d="M 259.263301 429.709447 
L 454.908387 429.709447 
" clip-path="url(#p3e8e06546e)" style="fill: none; stroke: #d9dee5; stroke-width: 0.5; stroke-linecap: square"/>
     </g>
     <g id="line2d_155">
      <g>
       <use xlink:href="#m72351f4716" x="259.263301" y="429.709447" style="fill: #252a31; stroke: #252a31; stroke-width: 0.8"/>
      </g>
     </g>
    </g>
    <g id="ytick_49">
     <g id="line2d_156">
      <path d="M 259.263301 395.439293 
L 454.908387 395.439293 
" clip-path="url(#p3e8e06546e)" style="fill: none; stroke: #d9dee5; stroke-width: 0.5; stroke-linecap: square"/>
     </g>
     <g id="line2d_157">
      <g>
       <use xlink:href="#m72351f4716" x="259.263301" y="395.439293" style="fill: #252a31; stroke: #252a31; stroke-width: 0.8"/>
      </g>
     </g>
    </g>
    <g id="ytick_50">
     <g id="line2d_158">
      <path d="M 259.263301 361.169139 
L 454.908387 361.169139 
" clip-path="url(#p3e8e06546e)" style="fill: none; stroke: #d9dee5; stroke-width: 0.5; stroke-linecap: square"/>
     </g>
     <g id="line2d_159">
      <g>
       <use xlink:href="#m72351f4716" x="259.263301" y="361.169139" style="fill: #252a31; stroke: #252a31; stroke-width: 0.8"/>
      </g>
     </g>
    </g>
   </g>
   <g id="line2d_160">
    <path d="M 268.156259 498.249755 
L 275.889267 498.249755 
L 283.622274 498.249755 
L 291.355281 498.249755 
L 299.088289 498.249755 
L 306.821296 498.248275 
L 314.554303 498.206819 
L 322.287311 497.744923 
L 330.020318 495.076305 
L 337.753326 483.372147 
L 345.486333 447.778192 
L 353.21934 396.258055 
L 360.952348 396.426013 
L 368.685355 446.902161 
L 376.418362 483.406967 
L 384.15137 495.133752 
L 391.884377 497.773072 
L 399.617385 498.221576 
L 407.350392 498.246774 
L 415.083399 498.249755 
L 422.816407 498.249755 
L 430.549414 498.249755 
L 438.282421 498.249755 
L 446.015429 498.249755 
" clip-path="url(#p3e8e06546e)" style="fill: none; stroke: #d97706; stroke-width: 1.4; stroke-linecap: square"/>
   </g>
   <g id="line2d_161">
    <path d="M 268.156259 498.249755 
L 275.889267 498.249755 
L 283.622274 498.249755 
L 291.355281 498.249755 
L 299.088289 498.249755 
L 306.821296 498.249755 
L 314.554303 498.249755 
L 322.287311 497.954068 
L 330.020318 496.771319 
L 337.753326 488.492075 
L 345.486333 461.584534 
L 353.21934 388.993311 
L 360.952348 363.268519 
L 368.685355 456.557851 
L 376.418362 491.005417 
L 384.15137 497.21485 
L 391.884377 498.101911 
L 399.617385 498.101911 
L 407.350392 498.249755 
L 415.083399 498.249755 
L 422.816407 498.249755 
L 430.549414 498.249755 
L 438.282421 498.249755 
L 446.015429 498.249755 
" clip-path="url(#p3e8e06546e)" style="fill: none; stroke: #2f6690; stroke-width: 1.4; stroke-linecap: square"/>
   </g>
   <g id="line2d_162">
    <path d="M 357.085844 504.998817 
L 357.085844 356.519457 
" clip-path="url(#p3e8e06546e)" style="fill: none; stroke-dasharray: 2.59,1.12; stroke-dashoffset: 0; stroke: #252a31; stroke-width: 0.7"/>
   </g>
   <g id="patch_48">
    <path d="M 259.263301 504.998817 
L 259.263301 356.519457 
" style="fill: none; stroke: #252a31; stroke-width: 0.8; stroke-linejoin: miter; stroke-linecap: square"/>
   </g>
   <g id="patch_49">
    <path d="M 454.908387 504.998817 
L 454.908387 356.519457 
" style="fill: none; stroke: #252a31; stroke-width: 0.8; stroke-linejoin: miter; stroke-linecap: square"/>
   </g>
   <g id="patch_50">
    <path d="M 259.263301 504.998817 
L 454.908387 504.998817 
" style="fill: none; stroke: #252a31; stroke-width: 0.8; stroke-linejoin: miter; stroke-linecap: square"/>
   </g>
   <g id="patch_51">
    <path d="M 259.263301 356.519457 
L 454.908387 356.519457 
" style="fill: none; stroke: #252a31; stroke-width: 0.8; stroke-linejoin: miter; stroke-linecap: square"/>
   </g>
  </g>
  <g id="axes_11">
   <g id="patch_52">
    <path d="M 464.408867 504.998817 
L 660.053954 504.998817 
L 660.053954 356.519457 
L 464.408867 356.519457 
z
" style="fill: #ffffff"/>
   </g>
   <g id="FillBetweenPolyCollection_11">
    <defs>
     <path id="m439f14adba" d="M 473.301826 -42.949765 
L 473.301826 -42.949765 
L 481.034833 -42.949765 
L 488.76784 -42.949765 
L 496.500848 -42.949765 
L 504.233855 -42.949765 
L 511.966862 -42.949765 
L 519.69987 -43.100497 
L 527.432877 -43.558371 
L 535.165885 -44.923243 
L 542.898892 -52.86109 
L 550.631899 -86.504251 
L 558.364907 -139.635744 
L 566.097914 -139.119108 
L 573.830921 -86.530812 
L 581.563929 -53.955076 
L 589.296936 -45.070771 
L 597.029944 -43.704693 
L 604.762951 -43.100416 
L 612.495958 -42.949765 
L 620.228966 -42.949765 
L 627.961973 -42.949765 
L 635.69498 -42.949765 
L 643.427988 -42.949765 
L 651.160995 -42.949765 
L 651.160995 -42.949765 
L 651.160995 -42.949765 
L 643.427988 -42.949765 
L 635.69498 -42.949765 
L 627.961973 -43.101318 
L 620.228966 -43.180569 
L 612.495958 -43.483772 
L 604.762951 -44.168086 
L 597.029944 -45.450557 
L 589.296936 -47.638091 
L 581.563929 -59.420142 
L 573.830921 -96.860073 
L 566.097914 -153.216517 
L 558.364907 -153.01206 
L 550.631899 -96.633221 
L 542.898892 -59.078101 
L 535.165885 -47.790449 
L 527.432877 -45.302775 
L 519.69987 -44.1547 
L 511.966862 -43.406347 
L 504.233855 -43.252174 
L 496.500848 -42.949765 
L 488.76784 -42.949765 
L 481.034833 -42.949765 
L 473.301826 -42.949765 
z
"/>
    </defs>
    <g clip-path="url(#p173aa33dbb)">
     <use xlink:href="#m439f14adba" x="0" y="541.19952" style="fill: #f7e3c1"/>
    </g>
   </g>
   <g id="matplotlib.axis_21">
    <g id="xtick_31">
     <g id="line2d_163">
      <g>
       <use xlink:href="#m0e77f37ad2" x="510.678028" y="504.998817" style="fill: #252a31; stroke: #252a31; stroke-width: 0.8"/>
      </g>
     </g>
     <g id="text_33">
      <text style="font-size: 9px; font-family: 'DejaVu Sans'; text-anchor: middle; fill: #252a31" x="510.678028" y="518.836707" transform="rotate(-0 510.678028 518.836707)">−100</text>
     </g>
    </g>
    <g id="xtick_32">
     <g id="line2d_164">
      <g>
       <use xlink:href="#m0e77f37ad2" x="562.23141" y="504.998817" style="fill: #252a31; stroke: #252a31; stroke-width: 0.8"/>
      </g>
     </g>
     <g id="text_34">
      <text style="font-size: 9px; font-family: 'DejaVu Sans'; text-anchor: middle; fill: #252a31" x="562.23141" y="518.836707" transform="rotate(-0 562.23141 518.836707)">0</text>
     </g>
    </g>
    <g id="xtick_33">
     <g id="line2d_165">
      <g>
       <use xlink:href="#m0e77f37ad2" x="613.784793" y="504.998817" style="fill: #252a31; stroke: #252a31; stroke-width: 0.8"/>
      </g>
     </g>
     <g id="text_35">
      <text style="font-size: 9px; font-family: 'DejaVu Sans'; text-anchor: middle; fill: #252a31" x="613.784793" y="518.836707" transform="rotate(-0 613.784793 518.836707)">100</text>
     </g>
    </g>
    <g id="text_36">
     <text style="font-size: 9px; font-family: 'DejaVu Sans'; text-anchor: middle; fill: #252a31" x="562.23141" y="531.837411" transform="rotate(-0 562.23141 531.837411)">Response - stimulus (deg)</text>
    </g>
   </g>
   <g id="matplotlib.axis_22">
    <g id="ytick_51">
     <g id="line2d_166">
      <path d="M 464.408867 498.249755 
L 660.053954 498.249755 
" clip-path="url(#p173aa33dbb)" style="fill: none; stroke: #d9dee5; stroke-width: 0.5; stroke-linecap: square"/>
     </g>
     <g id="line2d_167">
      <g>
       <use xlink:href="#m72351f4716" x="464.408867" y="498.249755" style="fill: #252a31; stroke: #252a31; stroke-width: 0.8"/>
      </g>
     </g>
    </g>
    <g id="ytick_52">
     <g id="line2d_168">
      <path d="M 464.408867 463.979601 
L 660.053954 463.979601 
" clip-path="url(#p173aa33dbb)" style="fill: none; stroke: #d9dee5; stroke-width: 0.5; stroke-linecap: square"/>
     </g>
     <g id="line2d_169">
      <g>
       <use xlink:href="#m72351f4716" x="464.408867" y="463.979601" style="fill: #252a31; stroke: #252a31; stroke-width: 0.8"/>
      </g>
     </g>
    </g>
    <g id="ytick_53">
     <g id="line2d_170">
      <path d="M 464.408867 429.709447 
L 660.053954 429.709447 
" clip-path="url(#p173aa33dbb)" style="fill: none; stroke: #d9dee5; stroke-width: 0.5; stroke-linecap: square"/>
     </g>
     <g id="line2d_171">
      <g>
       <use xlink:href="#m72351f4716" x="464.408867" y="429.709447" style="fill: #252a31; stroke: #252a31; stroke-width: 0.8"/>
      </g>
     </g>
    </g>
    <g id="ytick_54">
     <g id="line2d_172">
      <path d="M 464.408867 395.439293 
L 660.053954 395.439293 
" clip-path="url(#p173aa33dbb)" style="fill: none; stroke: #d9dee5; stroke-width: 0.5; stroke-linecap: square"/>
     </g>
     <g id="line2d_173">
      <g>
       <use xlink:href="#m72351f4716" x="464.408867" y="395.439293" style="fill: #252a31; stroke: #252a31; stroke-width: 0.8"/>
      </g>
     </g>
    </g>
    <g id="ytick_55">
     <g id="line2d_174">
      <path d="M 464.408867 361.169139 
L 660.053954 361.169139 
" clip-path="url(#p173aa33dbb)" style="fill: none; stroke: #d9dee5; stroke-width: 0.5; stroke-linecap: square"/>
     </g>
     <g id="line2d_175">
      <g>
       <use xlink:href="#m72351f4716" x="464.408867" y="361.169139" style="fill: #252a31; stroke: #252a31; stroke-width: 0.8"/>
      </g>
     </g>
    </g>
   </g>
   <g id="line2d_176">
    <path d="M 473.301826 498.249755 
L 481.034833 498.249755 
L 488.76784 498.249755 
L 496.500848 498.246713 
L 504.233855 498.187645 
L 511.966862 498.043736 
L 519.69987 497.637708 
L 527.432877 496.850136 
L 535.165885 494.737361 
L 542.898892 485.159319 
L 550.631899 449.2685 
L 558.364907 395.016198 
L 566.097914 394.842826 
L 573.830921 449.223662 
L 581.563929 484.893558 
L 589.296936 494.767297 
L 597.029944 496.784016 
L 604.762951 497.622429 
L 612.495958 498.066446 
L 620.228966 498.204335 
L 627.961973 498.242167 
L 635.69498 498.249755 
L 643.427988 498.249755 
L 651.160995 498.249755 
" clip-path="url(#p173aa33dbb)" style="fill: none; stroke: #d97706; stroke-width: 1.4; stroke-linecap: square"/>
   </g>
   <g id="line2d_177">
    <path d="M 473.301826 498.249755 
L 481.034833 498.249755 
L 488.76784 498.249755 
L 496.500848 498.249755 
L 504.233855 498.249755 
L 511.966862 498.249755 
L 519.69987 498.249755 
L 527.432877 497.345927 
L 535.165885 494.78508 
L 542.898892 486.801264 
L 550.631899 453.962171 
L 558.364907 387.530796 
L 566.097914 391.598023 
L 573.830921 446.430269 
L 581.563929 487.85573 
L 589.296936 496.442099 
L 597.029944 497.647203 
L 604.762951 497.948479 
L 612.495958 498.249755 
L 620.228966 497.948479 
L 627.961973 498.249755 
L 635.69498 498.249755 
L 643.427988 498.249755 
L 651.160995 498.249755 
" clip-path="url(#p173aa33dbb)" style="fill: none; stroke: #2f6690; stroke-width: 1.4; stroke-linecap: square"/>
   </g>
   <g id="line2d_178">
    <path d="M 562.23141 504.998817 
L 562.23141 356.519457 
" clip-path="url(#p173aa33dbb)" style="fill: none; stroke-dasharray: 2.59,1.12; stroke-dashoffset: 0; stroke: #252a31; stroke-width: 0.7"/>
   </g>
   <g id="patch_53">
    <path d="M 464.408867 504.998817 
L 464.408867 356.519457 
" style="fill: none; stroke: #252a31; stroke-width: 0.8; stroke-linejoin: miter; stroke-linecap: square"/>
   </g>
   <g id="patch_54">
    <path d="M 660.053954 504.998817 
L 660.053954 356.519457 
" style="fill: none; stroke: #252a31; stroke-width: 0.8; stroke-linejoin: miter; stroke-linecap: square"/>
   </g>
   <g id="patch_55">
    <path d="M 464.408867 504.998817 
L 660.053954 504.998817 
" style="fill: none; stroke: #252a31; stroke-width: 0.8; stroke-linejoin: miter; stroke-linecap: square"/>
   </g>
   <g id="patch_56">
    <path d="M 464.408867 356.519457 
L 660.053954 356.519457 
" style="fill: none; stroke: #252a31; stroke-width: 0.8; stroke-linejoin: miter; stroke-linecap: square"/>
   </g>
  </g>
  <g id="axes_12">
   <g id="patch_57">
    <path d="M 669.554434 504.998817 
L 865.19952 504.998817 
L 865.19952 356.519457 
L 669.554434 356.519457 
z
" style="fill: #ffffff"/>
   </g>
   <g id="FillBetweenPolyCollection_12">
    <defs>
     <path id="mb3f09d4d4d" d="M 678.447392 -43.00903 
L 678.447392 -42.949765 
L 686.180399 -42.949765 
L 693.913407 -42.949765 
L 701.646414 -42.949765 
L 709.379422 -42.949765 
L 717.112429 -43.036645 
L 724.845436 -43.009103 
L 732.578444 -43.095782 
L 740.311451 -44.18883 
L 748.044458 -52.498606 
L 755.777466 -88.598582 
L 763.510473 -146.786669 
L 771.24348 -146.832649 
L 778.976488 -89.049924 
L 786.709495 -52.897262 
L 794.442503 -44.192365 
L 802.17551 -43.096551 
L 809.908517 -43.067643 
L 817.641525 -43.008711 
L 825.374532 -42.949765 
L 833.107539 -42.949765 
L 840.840547 -42.949765 
L 848.573554 -42.949765 
L 856.306562 -42.949765 
L 856.306562 -43.008964 
L 856.306562 -43.008964 
L 848.573554 -43.06798 
L 840.840547 -43.127082 
L 833.107539 -43.276304 
L 825.374532 -43.305306 
L 817.641525 -43.421361 
L 809.908517 -43.540088 
L 802.17551 -43.81001 
L 794.442503 -45.363591 
L 786.709495 -55.603552 
L 778.976488 -94.583462 
L 771.24348 -154.679183 
L 763.510473 -154.956668 
L 755.777466 -95.261335 
L 748.044458 -55.675827 
L 740.311451 -45.439714 
L 732.578444 -43.75029 
L 724.845436 -43.538955 
L 717.112429 -43.423027 
L 709.379422 -43.364915 
L 701.646414 -43.304393 
L 693.913407 -43.158208 
L 686.180399 -43.068368 
L 678.447392 -43.00903 
z
"/>
    </defs>
    <g clip-path="url(#p2e4e15b953)">
     <use xlink:href="#mb3f09d4d4d" x="0" y="541.19952" style="fill: #f7e3c1"/>
    </g>
   </g>
   <g id="matplotlib.axis_23">
    <g id="xtick_34">
     <g id="line2d_179">
      <g>
       <use xlink:href="#m0e77f37ad2" x="715.823594" y="504.998817" style="fill: #252a31; stroke: #252a31; stroke-width: 0.8"/>
      </g>
     </g>
     <g id="text_37">
      <text style="font-size: 9px; font-family: 'DejaVu Sans'; text-anchor: middle; fill: #252a31" x="715.823594" y="518.836707" transform="rotate(-0 715.823594 518.836707)">−100</text>
     </g>
    </g>
    <g id="xtick_35">
     <g id="line2d_180">
      <g>
       <use xlink:href="#m0e77f37ad2" x="767.376977" y="504.998817" style="fill: #252a31; stroke: #252a31; stroke-width: 0.8"/>
      </g>
     </g>
     <g id="text_38">
      <text style="font-size: 9px; font-family: 'DejaVu Sans'; text-anchor: middle; fill: #252a31" x="767.376977" y="518.836707" transform="rotate(-0 767.376977 518.836707)">0</text>
     </g>
    </g>
    <g id="xtick_36">
     <g id="line2d_181">
      <g>
       <use xlink:href="#m0e77f37ad2" x="818.930359" y="504.998817" style="fill: #252a31; stroke: #252a31; stroke-width: 0.8"/>
      </g>
     </g>
     <g id="text_39">
      <text style="font-size: 9px; font-family: 'DejaVu Sans'; text-anchor: middle; fill: #252a31" x="818.930359" y="518.836707" transform="rotate(-0 818.930359 518.836707)">100</text>
     </g>
    </g>
    <g id="text_40">
     <text style="font-size: 9px; font-family: 'DejaVu Sans'; text-anchor: middle; fill: #252a31" x="767.376977" y="531.837411" transform="rotate(-0 767.376977 531.837411)">Response - stimulus (deg)</text>
    </g>
   </g>
   <g id="matplotlib.axis_24">
    <g id="ytick_56">
     <g id="line2d_182">
      <path d="M 669.554434 498.249755 
L 865.19952 498.249755 
" clip-path="url(#p2e4e15b953)" style="fill: none; stroke: #d9dee5; stroke-width: 0.5; stroke-linecap: square"/>
     </g>
     <g id="line2d_183">
      <g>
       <use xlink:href="#m72351f4716" x="669.554434" y="498.249755" style="fill: #252a31; stroke: #252a31; stroke-width: 0.8"/>
      </g>
     </g>
    </g>
    <g id="ytick_57">
     <g id="line2d_184">
      <path d="M 669.554434 463.979601 
L 865.19952 463.979601 
" clip-path="url(#p2e4e15b953)" style="fill: none; stroke: #d9dee5; stroke-width: 0.5; stroke-linecap: square"/>
     </g>
     <g id="line2d_185">
      <g>
       <use xlink:href="#m72351f4716" x="669.554434" y="463.979601" style="fill: #252a31; stroke: #252a31; stroke-width: 0.8"/>
      </g>
     </g>
    </g>
    <g id="ytick_58">
     <g id="line2d_186">
      <path d="M 669.554434 429.709447 
L 865.19952 429.709447 
" clip-path="url(#p2e4e15b953)" style="fill: none; stroke: #d9dee5; stroke-width: 0.5; stroke-linecap: square"/>
     </g>
     <g id="line2d_187">
      <g>
       <use xlink:href="#m72351f4716" x="669.554434" y="429.709447" style="fill: #252a31; stroke: #252a31; stroke-width: 0.8"/>
      </g>
     </g>
    </g>
    <g id="ytick_59">
     <g id="line2d_188">
      <path d="M 669.554434 395.439293 
L 865.19952 395.439293 
" clip-path="url(#p2e4e15b953)" style="fill: none; stroke: #d9dee5; stroke-width: 0.5; stroke-linecap: square"/>
     </g>
     <g id="line2d_189">
      <g>
       <use xlink:href="#m72351f4716" x="669.554434" y="395.439293" style="fill: #252a31; stroke: #252a31; stroke-width: 0.8"/>
      </g>
     </g>
    </g>
    <g id="ytick_60">
     <g id="line2d_190">
      <path d="M 669.554434 361.169139 
L 865.19952 361.169139 
" clip-path="url(#p2e4e15b953)" style="fill: none; stroke: #d9dee5; stroke-width: 0.5; stroke-linecap: square"/>
     </g>
     <g id="line2d_191">
      <g>
       <use xlink:href="#m72351f4716" x="669.554434" y="361.169139" style="fill: #252a31; stroke: #252a31; stroke-width: 0.8"/>
      </g>
     </g>
    </g>
   </g>
   <g id="line2d_192">
    <path d="M 678.447392 498.240889 
L 686.180399 498.207778 
L 693.913407 498.166982 
L 701.646414 498.125592 
L 709.379422 498.037511 
L 717.112429 497.989084 
L 724.845436 497.925844 
L 732.578444 497.788043 
L 740.311451 496.495806 
L 748.044458 487.141968 
L 755.777466 449.502617 
L 763.510473 390.27957 
L 771.24348 390.084712 
L 778.976488 449.286155 
L 786.709495 486.965471 
L 794.442503 496.466403 
L 802.17551 497.779746 
L 809.908517 497.921705 
L 817.641525 498.018602 
L 825.374532 498.071221 
L 833.107539 498.136267 
L 840.840547 498.188887 
L 848.573554 498.227296 
L 856.306562 498.244433 
" clip-path="url(#p2e4e15b953)" style="fill: none; stroke: #d97706; stroke-width: 1.4; stroke-linecap: square"/>
   </g>
   <g id="line2d_193">
    <path d="M 678.447392 498.249755 
L 686.180399 498.249755 
L 693.913407 498.249755 
L 701.646414 498.249755 
L 709.379422 498.249755 
L 717.112429 498.190536 
L 724.845436 498.190536 
L 732.578444 497.835221 
L 740.311451 494.696603 
L 748.044458 486.109818 
L 755.777466 447.143581 
L 763.510473 390.648459 
L 771.24348 389.700952 
L 778.976488 451.821898 
L 786.709495 488.18249 
L 794.442503 496.650837 
L 802.17551 497.835221 
L 809.908517 498.131317 
L 817.641525 498.072097 
L 825.374532 498.072097 
L 833.107539 498.072097 
L 840.840547 498.190536 
L 848.573554 498.249755 
L 856.306562 498.249755 
" clip-path="url(#p2e4e15b953)" style="fill: none; stroke: #2f6690; stroke-width: 1.4; stroke-linecap: square"/>
   </g>
   <g id="line2d_194">
    <path d="M 767.376977 504.998817 
L 767.376977 356.519457 
" clip-path="url(#p2e4e15b953)" style="fill: none; stroke-dasharray: 2.59,1.12; stroke-dashoffset: 0; stroke: #252a31; stroke-width: 0.7"/>
   </g>
   <g id="patch_58">
    <path d="M 669.554434 504.998817 
L 669.554434 356.519457 
" style="fill: none; stroke: #252a31; stroke-width: 0.8; stroke-linejoin: miter; stroke-linecap: square"/>
   </g>
   <g id="patch_59">
    <path d="M 865.19952 504.998817 
L 865.19952 356.519457 
" style="fill: none; stroke: #252a31; stroke-width: 0.8; stroke-linejoin: miter; stroke-linecap: square"/>
   </g>
   <g id="patch_60">
    <path d="M 669.554434 504.998817 
L 865.19952 504.998817 
" style="fill: none; stroke: #252a31; stroke-width: 0.8; stroke-linejoin: miter; stroke-linecap: square"/>
   </g>
   <g id="patch_61">
    <path d="M 669.554434 356.519457 
L 865.19952 356.519457 
" style="fill: none; stroke: #252a31; stroke-width: 0.8; stroke-linejoin: miter; stroke-linecap: square"/>
   </g>
  </g>
  <g id="text_41">
   <text style="font-weight: 700; font-size: 13px; font-family: 'DejaVu Sans'; text-anchor: middle; fill: #252a31" x="436.19976" y="17.077969" transform="rotate(-0 436.19976 17.077969)">Covariate HMM decoded S/P-only response distributions relative to the stimulus</text>
  </g>
 </g>
 <defs>
  <clipPath id="p4620fd1278">
   <rect x="54.117734" y="40.559777" width="195.645086" height="148.47936"/>
  </clipPath>
  <clipPath id="p82e50ae579">
   <rect x="259.263301" y="40.559777" width="195.645086" height="148.47936"/>
  </clipPath>
  <clipPath id="pbca1157e00">
   <rect x="464.408867" y="40.559777" width="195.645086" height="148.47936"/>
  </clipPath>
  <clipPath id="pe3bf7fd5f9">
   <rect x="669.554434" y="40.559777" width="195.645086" height="148.47936"/>
  </clipPath>
  <clipPath id="p350b2cb906">
   <rect x="54.117734" y="198.539617" width="195.645086" height="148.47936"/>
  </clipPath>
  <clipPath id="p03a75457a6">
   <rect x="259.263301" y="198.539617" width="195.645086" height="148.47936"/>
  </clipPath>
  <clipPath id="p6814ad0a23">
   <rect x="464.408867" y="198.539617" width="195.645086" height="148.47936"/>
  </clipPath>
  <clipPath id="p0db9047234">
   <rect x="669.554434" y="198.539617" width="195.645086" height="148.47936"/>
  </clipPath>
  <clipPath id="pc2b88ed58c">
   <rect x="54.117734" y="356.519457" width="195.645086" height="148.47936"/>
  </clipPath>
  <clipPath id="p3e8e06546e">
   <rect x="259.263301" y="356.519457" width="195.645086" height="148.47936"/>
  </clipPath>
  <clipPath id="p173aa33dbb">
   <rect x="464.408867" y="356.519457" width="195.645086" height="148.47936"/>
  </clipPath>
  <clipPath id="p2e4e15b953">
   <rect x="669.554434" y="356.519457" width="195.645086" height="148.47936"/>
  </clipPath>
 </defs>
</svg>
